<?xml version="1.0" encoding="utf-8" standalone="no"?>
<!DOCTYPE svg PUBLIC "-//W3C//DTD SVG 1.1//EN"
  "http://www.w3.org/Graphics/SVG/1.1/DTD/svg11.dtd">
<svg xmlns:xlink="http://www.w3.org/1999/xlink" width="712.742187pt" height="250.62875pt" viewBox="0 0 712.742187 250.62875" xmlns="http://www.w3.org/2000/svg" version="1.1">
 <metadata>
  <rdf:RDF xmlns:dc="http://purl.org/dc/elements/1.1/" xmlns:cc="http://creativecommons.org/ns#" xmlns:rdf="http://www.w3.org/1999/02/22-rdf-syntax-ns#">
   <cc:Work>
    <dc:type rdf:resource="http://purl.org/dc/dcmitype/StillImage"/>
    <dc:date>2025-12-01T18:20:34.096837</dc:date>
    <dc:format>image/svg+xml</dc:format>
    <dc:creator>
     <cc:Agent>
      <dc:title>Matplotlib v3.9.4, https://matplotlib.org/</dc:title>
     </cc:Agent>
    </dc:creator>
   </cc:Work>
  </rdf:RDF>
 </metadata>
 <defs>
  <style type="text/css">*{stroke-linejoin: round; stroke-linecap: butt}</style>
 </defs>
 <g id="figure_1">
  <g id="patch_1">
   <path d="M 0 250.62875 
L 712.742187 250.62875 
L 712.742187 0 
L 0 0 
z
" style="fill: #ffffff"/>
  </g>
  <g id="axes_1">
   <g id="patch_2">
    <path d="M 42.301563 215.006875 
L 229.239687 215.006875 
L 229.239687 63.42 
L 42.301563 63.42 
z
" style="fill: #ffffff"/>
   </g>
   <g id="patch_3">
    <path d="M 50.79875 215.006875 
L 79.122708 215.006875 
L 79.122708 177.466209 
L 50.79875 177.466209 
z
" clip-path="url(#p4f393ba5e7)" style="fill: #1f77b4; opacity: 0.8; stroke: #000000; stroke-linejoin: miter"/>
   </g>
   <g id="patch_4">
    <path d="M 86.203698 215.006875 
L 114.527656 215.006875 
L 114.527656 85.776761 
L 86.203698 85.776761 
z
" clip-path="url(#p4f393ba5e7)" style="fill: #1f77b4; opacity: 0.8; stroke: #000000; stroke-linejoin: miter"/>
   </g>
   <g id="patch_5">
    <path d="M 121.608646 215.006875 
L 149.932604 215.006875 
L 149.932604 112.192568 
L 121.608646 112.192568 
z
" clip-path="url(#p4f393ba5e7)" style="fill: #1f77b4; opacity: 0.8; stroke: #000000; stroke-linejoin: miter"/>
   </g>
   <g id="patch_6">
    <path d="M 157.013594 215.006875 
L 185.337552 215.006875 
L 185.337552 137.743237 
L 157.013594 137.743237 
z
" clip-path="url(#p4f393ba5e7)" style="fill: #1f77b4; opacity: 0.8; stroke: #000000; stroke-linejoin: miter"/>
   </g>
   <g id="patch_7">
    <path d="M 192.418542 215.006875 
L 220.7425 215.006875 
L 220.7425 70.638423 
L 192.418542 70.638423 
z
" clip-path="url(#p4f393ba5e7)" style="fill: #1f77b4; opacity: 0.8; stroke: #000000; stroke-linejoin: miter"/>
   </g>
   <g id="matplotlib.axis_1">
    <g id="xtick_1">
     <g id="line2d_1">
      <defs>
       <path id="m5982efcba2" d="M 0 0 
L 0 3.5 
" style="stroke: #000000; stroke-width: 0.8"/>
      </defs>
      <g>
       <use xlink:href="#m5982efcba2" x="64.960729" y="215.006875" style="stroke: #000000; stroke-width: 0.8"/>
      </g>
     </g>
     <g id="text_1">
      <!-- 0 -->
      <g transform="translate(62.460729 228.881875) scale(0.1 -0.1)">
       <defs>
        <path id="SimHei-30" d="M 225 2537 
Q 250 3200 412 3587 
Q 575 3975 875 4225 
Q 1175 4475 1612 4475 
Q 2050 4475 2375 4112 
Q 2700 3750 2800 3200 
Q 2900 2650 2862 1937 
Q 2825 1225 2612 775 
Q 2400 325 1975 150 
Q 1550 -25 1125 187 
Q 700 400 525 750 
Q 350 1100 275 1487 
Q 200 1875 225 2537 
z
M 750 2687 
Q 675 2000 800 1462 
Q 925 925 1212 700 
Q 1500 475 1800 612 
Q 2100 750 2237 1162 
Q 2375 1575 2375 2062 
Q 2375 2550 2337 2950 
Q 2300 3350 2112 3675 
Q 1925 4000 1612 4012 
Q 1300 4025 1062 3700 
Q 825 3375 750 2687 
z
" transform="scale(0.015625)"/>
       </defs>
       <use xlink:href="#SimHei-30"/>
      </g>
     </g>
    </g>
    <g id="xtick_2">
     <g id="line2d_2">
      <g>
       <use xlink:href="#m5982efcba2" x="100.365677" y="215.006875" style="stroke: #000000; stroke-width: 0.8"/>
      </g>
     </g>
     <g id="text_2">
      <!-- 1 -->
      <g transform="translate(97.865677 228.881875) scale(0.1 -0.1)">
       <defs>
        <path id="SimHei-31" d="M 1400 3600 
Q 1075 3275 575 2975 
L 575 3450 
Q 1200 3875 1600 4450 
L 1900 4450 
L 1900 150 
L 1400 150 
L 1400 3600 
z
" transform="scale(0.015625)"/>
       </defs>
       <use xlink:href="#SimHei-31"/>
      </g>
     </g>
    </g>
    <g id="xtick_3">
     <g id="line2d_3">
      <g>
       <use xlink:href="#m5982efcba2" x="135.770625" y="215.006875" style="stroke: #000000; stroke-width: 0.8"/>
      </g>
     </g>
     <g id="text_3">
      <!-- 2 -->
      <g transform="translate(133.270625 228.881875) scale(0.1 -0.1)">
       <defs>
        <path id="SimHei-32" d="M 300 250 
Q 325 625 650 925 
Q 975 1225 1475 1862 
Q 1975 2500 2125 2850 
Q 2275 3200 2237 3450 
Q 2200 3700 2000 3862 
Q 1800 4025 1537 4000 
Q 1275 3975 1037 3800 
Q 800 3625 675 3275 
L 200 3350 
Q 400 3925 712 4187 
Q 1025 4450 1450 4475 
Q 1700 4500 1900 4462 
Q 2100 4425 2312 4287 
Q 2525 4150 2662 3875 
Q 2800 3600 2762 3212 
Q 2725 2825 2375 2287 
Q 2025 1750 1025 600 
L 2825 600 
L 2825 150 
L 300 150 
L 300 250 
z
" transform="scale(0.015625)"/>
       </defs>
       <use xlink:href="#SimHei-32"/>
      </g>
     </g>
    </g>
    <g id="xtick_4">
     <g id="line2d_4">
      <g>
       <use xlink:href="#m5982efcba2" x="171.175573" y="215.006875" style="stroke: #000000; stroke-width: 0.8"/>
      </g>
     </g>
     <g id="text_4">
      <!-- 3 -->
      <g transform="translate(168.675573 228.881875) scale(0.1 -0.1)">
       <defs>
        <path id="SimHei-33" d="M 250 1225 
L 700 1300 
Q 800 975 1025 762 
Q 1250 550 1587 562 
Q 1925 575 2125 837 
Q 2325 1100 2300 1437 
Q 2275 1775 2037 1962 
Q 1800 2150 1275 2225 
L 1275 2550 
Q 1800 2600 2037 2825 
Q 2275 3050 2250 3412 
Q 2225 3775 1925 3937 
Q 1625 4100 1287 3975 
Q 950 3850 750 3275 
L 300 3350 
Q 450 3800 712 4100 
Q 975 4400 1425 4450 
Q 1875 4500 2212 4337 
Q 2550 4175 2687 3837 
Q 2825 3500 2725 3100 
Q 2625 2700 2150 2400 
Q 2500 2250 2687 1950 
Q 2875 1650 2812 1162 
Q 2750 675 2375 375 
Q 2000 75 1525 87 
Q 1050 100 700 387 
Q 350 675 250 1225 
z
" transform="scale(0.015625)"/>
       </defs>
       <use xlink:href="#SimHei-33"/>
      </g>
     </g>
    </g>
    <g id="xtick_5">
     <g id="line2d_5">
      <g>
       <use xlink:href="#m5982efcba2" x="206.580521" y="215.006875" style="stroke: #000000; stroke-width: 0.8"/>
      </g>
     </g>
     <g id="text_5">
      <!-- 4 -->
      <g transform="translate(204.080521 228.881875) scale(0.1 -0.1)">
       <defs>
        <path id="SimHei-34" d="M 2000 1100 
L 75 1100 
L 75 1525 
L 2100 4450 
L 2475 4450 
L 2475 1525 
L 3075 1525 
L 3075 1100 
L 2475 1100 
L 2475 150 
L 2000 150 
L 2000 1100 
z
M 2000 1525 
L 2000 3500 
L 600 1525 
L 2000 1525 
z
" transform="scale(0.015625)"/>
       </defs>
       <use xlink:href="#SimHei-34"/>
      </g>
     </g>
    </g>
    <g id="text_6">
     <!-- 专家 ID -->
     <g transform="translate(118.270625 242.17875) scale(0.1 -0.1)">
      <defs>
       <path id="SimHei-4e13" d="M 4450 -600 
Q 3975 -350 1975 400 
Q 2100 700 2150 875 
Q 2625 700 3425 400 
Q 3825 825 4325 1475 
L 2525 1475 
Q 2125 1450 1950 1400 
Q 1950 1550 1750 1875 
Q 2000 2000 2200 2625 
L 1225 2625 
Q 750 2625 375 2600 
L 375 3100 
Q 750 3075 1225 3075 
L 2350 3075 
L 2575 3825 
L 1625 3825 
Q 1225 3825 950 3800 
L 950 4275 
Q 1225 4250 1625 4250 
L 2675 4250 
Q 2850 4850 2900 5250 
Q 3375 5175 3450 5175 
Q 3325 4800 3175 4250 
L 4525 4250 
Q 4875 4250 5375 4275 
L 5375 3800 
Q 5025 3825 4525 3825 
L 3075 3825 
L 2850 3075 
L 5075 3075 
Q 5450 3075 5950 3100 
L 5950 2600 
Q 5575 2625 5100 2625 
L 2725 2625 
Q 2550 2150 2475 1925 
L 5200 1925 
L 5200 1500 
Q 5025 1450 4587 1000 
Q 4150 550 3875 200 
Q 4525 -50 4700 -100 
L 4450 -600 
z
" transform="scale(0.015625)"/>
       <path id="SimHei-5bb6" d="M 3425 1125 
Q 2600 475 1900 100 
Q 1200 -275 700 -525 
Q 500 -275 325 -75 
Q 1550 325 2262 775 
Q 2975 1225 3275 1550 
Q 3175 1725 3075 1850 
Q 2300 1300 1700 975 
Q 1100 650 750 525 
Q 575 775 375 950 
Q 1375 1250 1962 1600 
Q 2550 1950 2800 2175 
Q 2700 2300 2575 2450 
Q 2175 2225 1712 2012 
Q 1250 1800 725 1575 
Q 575 1825 375 2075 
Q 1400 2325 1950 2600 
Q 2500 2875 2750 3150 
L 2400 3150 
Q 2050 3150 1575 3125 
L 1575 3575 
Q 2050 3550 2400 3550 
L 4100 3550 
Q 4425 3550 4900 3575 
L 4900 3125 
Q 4425 3150 4100 3150 
L 3425 3150 
Q 3200 2950 2925 2700 
Q 3125 2525 3300 2337 
Q 3475 2150 3675 1825 
Q 3975 1975 4350 2237 
Q 4725 2500 5025 2900 
Q 5400 2550 5525 2425 
Q 5225 2300 5000 2175 
Q 4775 2050 4625 1900 
Q 4850 1150 5200 825 
Q 5550 500 6175 200 
Q 5925 25 5725 -275 
Q 5025 175 4700 662 
Q 4375 1150 4250 1675 
Q 4050 1550 3850 1450 
Q 3975 775 3962 325 
Q 3950 -125 3587 -362 
Q 3225 -600 2725 -675 
Q 2625 -350 2500 -100 
Q 2925 -100 3175 -25 
Q 3425 50 3462 350 
Q 3500 650 3425 1125 
z
M 3350 5275 
Q 3400 5025 3575 4525 
L 5875 4525 
Q 5850 4125 5850 3875 
Q 5850 3650 5875 3300 
L 5350 3300 
L 5350 4125 
L 1000 4125 
L 1000 3175 
L 475 3175 
Q 500 3575 500 3875 
Q 500 4200 475 4525 
L 2975 4525 
Q 2875 4850 2750 5100 
Q 3075 5175 3350 5275 
z
" transform="scale(0.015625)"/>
       <path id="SimHei-20" transform="scale(0.015625)"/>
       <path id="SimHei-49" d="M 1850 125 
L 1275 125 
L 1275 4400 
L 1850 4400 
L 1850 125 
z
" transform="scale(0.015625)"/>
       <path id="SimHei-44" d="M 2925 2250 
Q 2925 1100 2437 612 
Q 1950 125 1125 125 
L 275 125 
L 275 4400 
L 1125 4400 
Q 2050 4400 2487 3900 
Q 2925 3400 2925 2250 
z
M 2325 2250 
Q 2325 3175 2025 3550 
Q 1725 3925 1125 3925 
L 850 3925 
L 850 600 
L 1125 600 
Q 1725 600 2025 962 
Q 2325 1325 2325 2250 
z
" transform="scale(0.015625)"/>
      </defs>
      <use xlink:href="#SimHei-4e13"/>
      <use xlink:href="#SimHei-5bb6" x="100"/>
      <use xlink:href="#SimHei-20" x="200"/>
      <use xlink:href="#SimHei-49" x="250"/>
      <use xlink:href="#SimHei-44" x="300"/>
     </g>
    </g>
   </g>
   <g id="matplotlib.axis_2">
    <g id="ytick_1">
     <g id="line2d_6">
      <path d="M 42.301563 215.006875 
L 229.239687 215.006875 
" clip-path="url(#p4f393ba5e7)" style="fill: none; stroke: #b0b0b0; stroke-opacity: 0.3; stroke-width: 0.8; stroke-linecap: square"/>
     </g>
     <g id="line2d_7">
      <defs>
       <path id="mcd8a896478" d="M 0 0 
L -3.5 0 
" style="stroke: #000000; stroke-width: 0.8"/>
      </defs>
      <g>
       <use xlink:href="#mcd8a896478" x="42.301563" y="215.006875" style="stroke: #000000; stroke-width: 0.8"/>
      </g>
     </g>
     <g id="text_7">
      <!-- 0 -->
      <g transform="translate(30.301563 218.444375) scale(0.1 -0.1)">
       <use xlink:href="#SimHei-30"/>
      </g>
     </g>
    </g>
    <g id="ytick_2">
     <g id="line2d_8">
      <path d="M 42.301563 189.529056 
L 229.239687 189.529056 
" clip-path="url(#p4f393ba5e7)" style="fill: none; stroke: #b0b0b0; stroke-opacity: 0.3; stroke-width: 0.8; stroke-linecap: square"/>
     </g>
     <g id="line2d_9">
      <g>
       <use xlink:href="#mcd8a896478" x="42.301563" y="189.529056" style="stroke: #000000; stroke-width: 0.8"/>
      </g>
     </g>
     <g id="text_8">
      <!-- 20 -->
      <g transform="translate(25.301563 192.966556) scale(0.1 -0.1)">
       <use xlink:href="#SimHei-32"/>
       <use xlink:href="#SimHei-30" x="50"/>
      </g>
     </g>
    </g>
    <g id="ytick_3">
     <g id="line2d_10">
      <path d="M 42.301563 164.051238 
L 229.239687 164.051238 
" clip-path="url(#p4f393ba5e7)" style="fill: none; stroke: #b0b0b0; stroke-opacity: 0.3; stroke-width: 0.8; stroke-linecap: square"/>
     </g>
     <g id="line2d_11">
      <g>
       <use xlink:href="#mcd8a896478" x="42.301563" y="164.051238" style="stroke: #000000; stroke-width: 0.8"/>
      </g>
     </g>
     <g id="text_9">
      <!-- 40 -->
      <g transform="translate(25.301563 167.488738) scale(0.1 -0.1)">
       <use xlink:href="#SimHei-34"/>
       <use xlink:href="#SimHei-30" x="50"/>
      </g>
     </g>
    </g>
    <g id="ytick_4">
     <g id="line2d_12">
      <path d="M 42.301563 138.573419 
L 229.239687 138.573419 
" clip-path="url(#p4f393ba5e7)" style="fill: none; stroke: #b0b0b0; stroke-opacity: 0.3; stroke-width: 0.8; stroke-linecap: square"/>
     </g>
     <g id="line2d_13">
      <g>
       <use xlink:href="#mcd8a896478" x="42.301563" y="138.573419" style="stroke: #000000; stroke-width: 0.8"/>
      </g>
     </g>
     <g id="text_10">
      <!-- 60 -->
      <g transform="translate(25.301563 142.010919) scale(0.1 -0.1)">
       <defs>
        <path id="SimHei-36" d="M 250 1612 
Q 275 1975 387 2225 
Q 500 2475 725 2850 
L 1750 4450 
L 2325 4450 
L 1275 2800 
Q 1950 2975 2350 2750 
Q 2750 2525 2887 2237 
Q 3025 1950 3037 1612 
Q 3050 1275 2937 950 
Q 2825 625 2537 362 
Q 2250 100 1737 75 
Q 1225 50 862 262 
Q 500 475 362 862 
Q 225 1250 250 1612 
z
M 1025 787 
Q 1250 550 1625 525 
Q 2000 500 2250 775 
Q 2500 1050 2500 1575 
Q 2500 2100 2187 2300 
Q 1875 2500 1487 2450 
Q 1100 2400 925 2075 
Q 750 1750 775 1387 
Q 800 1025 1025 787 
z
" transform="scale(0.015625)"/>
       </defs>
       <use xlink:href="#SimHei-36"/>
       <use xlink:href="#SimHei-30" x="50"/>
      </g>
     </g>
    </g>
    <g id="ytick_5">
     <g id="line2d_14">
      <path d="M 42.301563 113.095601 
L 229.239687 113.095601 
" clip-path="url(#p4f393ba5e7)" style="fill: none; stroke: #b0b0b0; stroke-opacity: 0.3; stroke-width: 0.8; stroke-linecap: square"/>
     </g>
     <g id="line2d_15">
      <g>
       <use xlink:href="#mcd8a896478" x="42.301563" y="113.095601" style="stroke: #000000; stroke-width: 0.8"/>
      </g>
     </g>
     <g id="text_11">
      <!-- 80 -->
      <g transform="translate(25.301563 116.533101) scale(0.1 -0.1)">
       <defs>
        <path id="SimHei-38" d="M 175 1375 
Q 175 1675 325 1962 
Q 475 2250 825 2425 
Q 525 2600 425 2812 
Q 325 3025 312 3300 
Q 300 3575 387 3775 
Q 475 3975 650 4150 
Q 825 4325 1037 4387 
Q 1250 4450 1500 4450 
Q 1750 4450 1950 4400 
Q 2150 4350 2375 4187 
Q 2600 4025 2700 3725 
Q 2800 3425 2687 3025 
Q 2575 2625 2100 2400 
Q 2525 2275 2700 2012 
Q 2875 1750 2875 1375 
Q 2875 1000 2762 775 
Q 2650 550 2512 400 
Q 2375 250 2137 162 
Q 1900 75 1537 75 
Q 1175 75 912 162 
Q 650 250 475 425 
Q 300 600 237 837 
Q 175 1075 175 1375 
z
M 687 1400 
Q 675 1100 787 875 
Q 900 650 1200 587 
Q 1500 525 1825 600 
Q 2150 675 2275 950 
Q 2400 1225 2362 1500 
Q 2325 1775 2050 1962 
Q 1775 2150 1450 2125 
Q 1125 2100 912 1900 
Q 700 1700 687 1400 
z
M 775 3350 
Q 775 3100 950 2875 
Q 1125 2650 1500 2650 
Q 1875 2650 2062 2875 
Q 2250 3100 2237 3412 
Q 2225 3725 2012 3875 
Q 1800 4025 1437 4000 
Q 1075 3975 925 3787 
Q 775 3600 775 3350 
z
" transform="scale(0.015625)"/>
       </defs>
       <use xlink:href="#SimHei-38"/>
       <use xlink:href="#SimHei-30" x="50"/>
      </g>
     </g>
    </g>
    <g id="ytick_6">
     <g id="line2d_16">
      <path d="M 42.301563 87.617782 
L 229.239687 87.617782 
" clip-path="url(#p4f393ba5e7)" style="fill: none; stroke: #b0b0b0; stroke-opacity: 0.3; stroke-width: 0.8; stroke-linecap: square"/>
     </g>
     <g id="line2d_17">
      <g>
       <use xlink:href="#mcd8a896478" x="42.301563" y="87.617782" style="stroke: #000000; stroke-width: 0.8"/>
      </g>
     </g>
     <g id="text_12">
      <!-- 100 -->
      <g transform="translate(20.301563 91.055282) scale(0.1 -0.1)">
       <use xlink:href="#SimHei-31"/>
       <use xlink:href="#SimHei-30" x="50"/>
       <use xlink:href="#SimHei-30" x="100"/>
      </g>
     </g>
    </g>
    <g id="text_13">
     <!-- 平均回报 -->
     <g transform="translate(15.051563 159.213437) rotate(-90) scale(0.1 -0.1)">
      <defs>
       <path id="SimHei-5e73" d="M 4525 4825 
Q 4900 4825 5450 4850 
L 5450 4375 
Q 4925 4400 4525 4400 
L 3475 4400 
L 3475 2025 
L 5000 2025 
Q 5550 2025 6025 2050 
L 6025 1575 
Q 5550 1600 5000 1600 
L 3475 1600 
L 3475 450 
Q 3475 -100 3500 -600 
L 2925 -600 
Q 2950 -100 2950 450 
L 2950 1600 
L 1125 1600 
Q 775 1600 375 1575 
L 375 2050 
Q 775 2025 1175 2025 
L 2950 2025 
L 2950 4400 
L 1775 4400 
Q 1400 4400 875 4375 
L 875 4850 
Q 1400 4825 1750 4825 
L 4525 4825 
z
M 3925 2600 
Q 4500 3300 4900 4125 
Q 5150 3950 5400 3825 
Q 4775 2850 4350 2300 
Q 4150 2475 3925 2600 
z
M 1975 2350 
Q 1600 3100 1050 3725 
Q 1250 3875 1450 4050 
Q 2075 3300 2450 2725 
Q 2150 2500 1975 2350 
z
" transform="scale(0.015625)"/>
       <path id="SimHei-5747" d="M 5775 275 
Q 5775 -325 5362 -450 
Q 4950 -575 4425 -600 
Q 4375 -275 4250 25 
Q 4950 -25 5125 62 
Q 5300 150 5300 500 
L 5375 3700 
L 3550 3700 
Q 3425 3375 3262 3037 
Q 3100 2700 2925 2400 
Q 2675 2550 2475 2625 
Q 3150 3625 3500 5200 
Q 3800 5100 4075 5025 
Q 3975 4875 3875 4650 
Q 3775 4425 3675 4125 
L 5900 4125 
L 5775 275 
z
M 1250 3625 
L 1250 4375 
Q 1250 4775 1225 5100 
L 1775 5100 
Q 1750 4725 1750 4375 
L 1750 3625 
L 1900 3625 
Q 2200 3625 2525 3650 
L 2525 3150 
Q 2200 3175 1900 3175 
L 1750 3175 
L 1750 1100 
L 2500 1375 
Q 2475 1125 2525 900 
Q 1225 475 962 362 
Q 700 250 475 150 
Q 375 475 250 750 
Q 575 800 800 850 
Q 1025 900 1250 975 
L 1250 3175 
L 1125 3175 
Q 850 3175 400 3150 
L 400 3650 
Q 850 3625 1100 3625 
L 1250 3625 
z
M 4950 1625 
Q 4675 1425 4137 1050 
Q 3600 675 3175 300 
Q 3000 575 2850 775 
Q 3350 1050 3762 1325 
Q 4175 1600 4775 2075 
Q 4825 1850 4950 1625 
z
M 3775 3150 
Q 4125 2800 4475 2300 
Q 4250 2125 4100 1975 
Q 3900 2325 3450 2825 
Q 3600 3000 3775 3150 
z
" transform="scale(0.015625)"/>
       <path id="SimHei-56de" d="M 5650 4850 
Q 5625 4125 5625 3450 
L 5625 950 
Q 5625 300 5650 -375 
L 5150 -375 
L 5150 100 
L 1175 100 
L 1175 -375 
L 700 -375 
Q 725 250 725 950 
L 725 3450 
Q 725 4100 700 4850 
L 5650 4850 
z
M 5150 500 
L 5150 4425 
L 1200 4425 
L 1200 500 
L 5150 500 
z
M 4325 3500 
Q 4300 3125 4300 2750 
L 4300 2175 
Q 4300 1850 4325 1400 
L 2025 1400 
Q 2050 1850 2050 2175 
L 2050 2800 
Q 2050 3150 2025 3500 
L 4325 3500 
z
M 3825 1825 
L 3825 3100 
L 2500 3100 
L 2500 1825 
L 3825 1825 
z
" transform="scale(0.015625)"/>
       <path id="SimHei-62a5" d="M 3375 -550 
L 2900 -550 
Q 2925 50 2925 700 
L 2925 3675 
Q 2925 4350 2900 4900 
L 5525 4900 
Q 5525 4175 5450 3550 
Q 5375 3250 5187 3137 
Q 5000 3025 4275 2975 
Q 4225 3275 4125 3475 
Q 4825 3450 4925 3575 
Q 5025 3700 5025 4475 
L 3375 4475 
L 3375 2775 
L 5725 2775 
Q 5700 2575 5500 1937 
Q 5300 1300 4950 725 
Q 5475 175 6200 -175 
Q 6025 -350 5800 -600 
Q 4950 -25 4675 350 
Q 4350 -100 3700 -600 
Q 3625 -400 3400 -200 
Q 3950 125 4325 650 
Q 3775 1525 3575 2375 
L 3375 2350 
L 3375 -550 
z
M 1425 3800 
Q 1425 4700 1400 5225 
L 1900 5225 
Q 1875 4750 1875 3800 
Q 2275 3800 2700 3825 
L 2700 3350 
Q 2150 3375 1875 3375 
L 1875 2350 
Q 2275 2475 2675 2625 
Q 2650 2425 2675 2175 
Q 2300 2075 1875 1925 
L 1875 175 
Q 1875 -250 1662 -387 
Q 1450 -525 900 -600 
Q 825 -300 650 -100 
Q 1100 -100 1262 -37 
Q 1425 25 1425 250 
L 1425 1775 
Q 600 1500 450 1400 
Q 325 1725 200 1950 
Q 650 2025 1425 2250 
L 1425 3375 
Q 825 3375 375 3350 
L 375 3825 
Q 750 3800 1425 3800 
z
M 4025 2350 
Q 4275 1525 4625 1100 
Q 4950 1600 5100 2350 
L 4025 2350 
z
" transform="scale(0.015625)"/>
      </defs>
      <use xlink:href="#SimHei-5e73"/>
      <use xlink:href="#SimHei-5747" x="100"/>
      <use xlink:href="#SimHei-56de" x="200"/>
      <use xlink:href="#SimHei-62a5" x="300"/>
     </g>
    </g>
   </g>
   <g id="patch_8">
    <path d="M 42.301563 215.006875 
L 42.301563 63.42 
" style="fill: none; stroke: #000000; stroke-width: 0.8; stroke-linejoin: miter; stroke-linecap: square"/>
   </g>
   <g id="patch_9">
    <path d="M 229.239687 215.006875 
L 229.239687 63.42 
" style="fill: none; stroke: #000000; stroke-width: 0.8; stroke-linejoin: miter; stroke-linecap: square"/>
   </g>
   <g id="patch_10">
    <path d="M 42.301563 215.006875 
L 229.239687 215.006875 
" style="fill: none; stroke: #000000; stroke-width: 0.8; stroke-linejoin: miter; stroke-linecap: square"/>
   </g>
   <g id="patch_11">
    <path d="M 42.301563 63.42 
L 229.239687 63.42 
" style="fill: none; stroke: #000000; stroke-width: 0.8; stroke-linejoin: miter; stroke-linecap: square"/>
   </g>
   <g id="text_14">
    <!-- 29.5 -->
    <g transform="translate(56.960729 175.715396) scale(0.08 -0.08)">
     <defs>
      <path id="SimHei-39" d="M 800 75 
Q 1350 1000 1700 1750 
Q 1075 1650 662 1912 
Q 250 2175 162 2625 
Q 75 3075 175 3437 
Q 275 3800 487 4037 
Q 700 4275 1000 4375 
Q 1300 4475 1537 4475 
Q 1775 4475 2025 4375 
Q 2275 4275 2475 4075 
Q 2675 3875 2750 3662 
Q 2825 3450 2825 3112 
Q 2825 2775 2575 2250 
Q 2325 1725 1350 75 
L 800 75 
z
M 662 2875 
Q 700 2550 937 2337 
Q 1175 2125 1450 2150 
Q 1725 2175 1887 2300 
Q 2050 2425 2200 2725 
Q 2300 3100 2250 3362 
Q 2200 3625 1987 3800 
Q 1775 3975 1525 3975 
Q 1375 4000 1137 3900 
Q 900 3800 762 3500 
Q 625 3200 662 2875 
z
" transform="scale(0.015625)"/>
      <path id="SimHei-2e" d="M 1075 125 
L 500 125 
L 500 675 
L 1075 675 
L 1075 125 
z
" transform="scale(0.015625)"/>
      <path id="SimHei-35" d="M 550 1325 
Q 725 650 1150 575 
Q 1575 500 1837 662 
Q 2100 825 2212 1087 
Q 2325 1350 2312 1675 
Q 2300 2000 2137 2225 
Q 1975 2450 1725 2525 
Q 1475 2600 1162 2525 
Q 850 2450 650 2175 
L 225 2225 
Q 275 2375 700 4375 
L 2675 4375 
L 2675 3925 
L 1075 3925 
Q 950 3250 825 2850 
Q 1200 3025 1525 3012 
Q 1850 3000 2150 2862 
Q 2450 2725 2587 2487 
Q 2725 2250 2787 2012 
Q 2850 1775 2837 1500 
Q 2825 1225 2725 937 
Q 2625 650 2425 462 
Q 2225 275 1937 162 
Q 1650 50 1275 75 
Q 900 100 562 350 
Q 225 600 100 1200 
L 550 1325 
z
" transform="scale(0.015625)"/>
     </defs>
     <use xlink:href="#SimHei-32"/>
     <use xlink:href="#SimHei-39" x="50"/>
     <use xlink:href="#SimHei-2e" x="100"/>
     <use xlink:href="#SimHei-35" x="150"/>
    </g>
   </g>
   <g id="text_15">
    <!-- 101.4 -->
    <g transform="translate(90.365677 82.192159) scale(0.08 -0.08)">
     <use xlink:href="#SimHei-31"/>
     <use xlink:href="#SimHei-30" x="50"/>
     <use xlink:href="#SimHei-31" x="100"/>
     <use xlink:href="#SimHei-2e" x="150"/>
     <use xlink:href="#SimHei-34" x="200"/>
    </g>
   </g>
   <g id="text_16">
    <!-- 80.7 -->
    <g transform="translate(127.770625 109.136282) scale(0.08 -0.08)">
     <defs>
      <path id="SimHei-37" d="M 850 150 
Q 1300 2050 2425 3925 
L 275 3925 
L 275 4375 
L 2950 4375 
L 2950 3950 
Q 1775 2050 1400 150 
L 850 150 
z
" transform="scale(0.015625)"/>
     </defs>
     <use xlink:href="#SimHei-38"/>
     <use xlink:href="#SimHei-30" x="50"/>
     <use xlink:href="#SimHei-2e" x="100"/>
     <use xlink:href="#SimHei-37" x="150"/>
    </g>
   </g>
   <g id="text_17">
    <!-- 60.7 -->
    <g transform="translate(163.175573 135.197964) scale(0.08 -0.08)">
     <use xlink:href="#SimHei-36"/>
     <use xlink:href="#SimHei-30" x="50"/>
     <use xlink:href="#SimHei-2e" x="100"/>
     <use xlink:href="#SimHei-37" x="150"/>
    </g>
   </g>
   <g id="text_18">
    <!-- 113.3 -->
    <g transform="translate(196.580521 66.751054) scale(0.08 -0.08)">
     <use xlink:href="#SimHei-31"/>
     <use xlink:href="#SimHei-31" x="50"/>
     <use xlink:href="#SimHei-33" x="100"/>
     <use xlink:href="#SimHei-2e" x="150"/>
     <use xlink:href="#SimHei-33" x="200"/>
    </g>
   </g>
   <g id="text_19">
    <!-- 平均回报 -->
    <g transform="translate(113.770625 57.42) scale(0.11 -0.11)">
     <use xlink:href="#SimHei-5e73"/>
     <use xlink:href="#SimHei-5747" x="100"/>
     <use xlink:href="#SimHei-56de" x="200"/>
     <use xlink:href="#SimHei-62a5" x="300"/>
    </g>
   </g>
  </g>
  <g id="axes_2">
   <g id="patch_12">
    <path d="M 280.452813 215.006875 
L 467.390937 215.006875 
L 467.390937 63.42 
L 280.452813 63.42 
z
" style="fill: #ffffff"/>
   </g>
   <g id="patch_13">
    <path d="M 288.95 63.42 
L 317.273958 63.42 
L 317.273958 101.39856 
L 288.95 101.39856 
z
" clip-path="url(#pf6d65462b4)" style="fill: #d62728; opacity: 0.8; stroke: #000000; stroke-linejoin: miter"/>
   </g>
   <g id="patch_14">
    <path d="M 324.354948 63.42 
L 352.678906 63.42 
L 352.678906 192.826723 
L 324.354948 192.826723 
z
" clip-path="url(#pf6d65462b4)" style="fill: #d62728; opacity: 0.8; stroke: #000000; stroke-linejoin: miter"/>
   </g>
   <g id="patch_15">
    <path d="M 359.759896 63.42 
L 388.083854 63.42 
L 388.083854 166.799608 
L 359.759896 166.799608 
z
" clip-path="url(#pf6d65462b4)" style="fill: #d62728; opacity: 0.8; stroke: #000000; stroke-linejoin: miter"/>
   </g>
   <g id="patch_16">
    <path d="M 395.164844 63.42 
L 423.488802 63.42 
L 423.488802 141.14004 
L 395.164844 141.14004 
z
" clip-path="url(#pf6d65462b4)" style="fill: #d62728; opacity: 0.8; stroke: #000000; stroke-linejoin: miter"/>
   </g>
   <g id="patch_17">
    <path d="M 430.569792 63.42 
L 458.89375 63.42 
L 458.89375 207.788452 
L 430.569792 207.788452 
z
" clip-path="url(#pf6d65462b4)" style="fill: #d62728; opacity: 0.8; stroke: #000000; stroke-linejoin: miter"/>
   </g>
   <g id="matplotlib.axis_3">
    <g id="xtick_6">
     <g id="line2d_18">
      <g>
       <use xlink:href="#m5982efcba2" x="303.111979" y="215.006875" style="stroke: #000000; stroke-width: 0.8"/>
      </g>
     </g>
     <g id="text_20">
      <!-- 0 -->
      <g transform="translate(300.611979 228.881875) scale(0.1 -0.1)">
       <use xlink:href="#SimHei-30"/>
      </g>
     </g>
    </g>
    <g id="xtick_7">
     <g id="line2d_19">
      <g>
       <use xlink:href="#m5982efcba2" x="338.516927" y="215.006875" style="stroke: #000000; stroke-width: 0.8"/>
      </g>
     </g>
     <g id="text_21">
      <!-- 1 -->
      <g transform="translate(336.016927 228.881875) scale(0.1 -0.1)">
       <use xlink:href="#SimHei-31"/>
      </g>
     </g>
    </g>
    <g id="xtick_8">
     <g id="line2d_20">
      <g>
       <use xlink:href="#m5982efcba2" x="373.921875" y="215.006875" style="stroke: #000000; stroke-width: 0.8"/>
      </g>
     </g>
     <g id="text_22">
      <!-- 2 -->
      <g transform="translate(371.421875 228.881875) scale(0.1 -0.1)">
       <use xlink:href="#SimHei-32"/>
      </g>
     </g>
    </g>
    <g id="xtick_9">
     <g id="line2d_21">
      <g>
       <use xlink:href="#m5982efcba2" x="409.326823" y="215.006875" style="stroke: #000000; stroke-width: 0.8"/>
      </g>
     </g>
     <g id="text_23">
      <!-- 3 -->
      <g transform="translate(406.826823 228.881875) scale(0.1 -0.1)">
       <use xlink:href="#SimHei-33"/>
      </g>
     </g>
    </g>
    <g id="xtick_10">
     <g id="line2d_22">
      <g>
       <use xlink:href="#m5982efcba2" x="444.731771" y="215.006875" style="stroke: #000000; stroke-width: 0.8"/>
      </g>
     </g>
     <g id="text_24">
      <!-- 4 -->
      <g transform="translate(442.231771 228.881875) scale(0.1 -0.1)">
       <use xlink:href="#SimHei-34"/>
      </g>
     </g>
    </g>
    <g id="text_25">
     <!-- 专家 ID -->
     <g transform="translate(356.421875 242.17875) scale(0.1 -0.1)">
      <use xlink:href="#SimHei-4e13"/>
      <use xlink:href="#SimHei-5bb6" x="100"/>
      <use xlink:href="#SimHei-20" x="200"/>
      <use xlink:href="#SimHei-49" x="250"/>
      <use xlink:href="#SimHei-44" x="300"/>
     </g>
    </g>
   </g>
   <g id="matplotlib.axis_4">
    <g id="ytick_7">
     <g id="line2d_23">
      <path d="M 280.452813 189.878 
L 467.390937 189.878 
" clip-path="url(#pf6d65462b4)" style="fill: none; stroke: #b0b0b0; stroke-opacity: 0.3; stroke-width: 0.8; stroke-linecap: square"/>
     </g>
     <g id="line2d_24">
      <g>
       <use xlink:href="#mcd8a896478" x="280.452813" y="189.878" style="stroke: #000000; stroke-width: 0.8"/>
      </g>
     </g>
     <g id="text_26">
      <!-- -1.0 -->
      <g transform="translate(253.452813 193.3155) scale(0.1 -0.1)">
       <defs>
        <path id="SimHei-2d" d="M 2975 2125 
L 125 2125 
L 125 2525 
L 2975 2525 
L 2975 2125 
z
" transform="scale(0.015625)"/>
       </defs>
       <use xlink:href="#SimHei-2d"/>
       <use xlink:href="#SimHei-31" x="50"/>
       <use xlink:href="#SimHei-2e" x="100"/>
       <use xlink:href="#SimHei-30" x="150"/>
      </g>
     </g>
    </g>
    <g id="ytick_8">
     <g id="line2d_25">
      <path d="M 280.452813 164.5864 
L 467.390937 164.5864 
" clip-path="url(#pf6d65462b4)" style="fill: none; stroke: #b0b0b0; stroke-opacity: 0.3; stroke-width: 0.8; stroke-linecap: square"/>
     </g>
     <g id="line2d_26">
      <g>
       <use xlink:href="#mcd8a896478" x="280.452813" y="164.5864" style="stroke: #000000; stroke-width: 0.8"/>
      </g>
     </g>
     <g id="text_27">
      <!-- -0.8 -->
      <g transform="translate(253.452813 168.0239) scale(0.1 -0.1)">
       <use xlink:href="#SimHei-2d"/>
       <use xlink:href="#SimHei-30" x="50"/>
       <use xlink:href="#SimHei-2e" x="100"/>
       <use xlink:href="#SimHei-38" x="150"/>
      </g>
     </g>
    </g>
    <g id="ytick_9">
     <g id="line2d_27">
      <path d="M 280.452813 139.2948 
L 467.390937 139.2948 
" clip-path="url(#pf6d65462b4)" style="fill: none; stroke: #b0b0b0; stroke-opacity: 0.3; stroke-width: 0.8; stroke-linecap: square"/>
     </g>
     <g id="line2d_28">
      <g>
       <use xlink:href="#mcd8a896478" x="280.452813" y="139.2948" style="stroke: #000000; stroke-width: 0.8"/>
      </g>
     </g>
     <g id="text_28">
      <!-- -0.6 -->
      <g transform="translate(253.452813 142.7323) scale(0.1 -0.1)">
       <use xlink:href="#SimHei-2d"/>
       <use xlink:href="#SimHei-30" x="50"/>
       <use xlink:href="#SimHei-2e" x="100"/>
       <use xlink:href="#SimHei-36" x="150"/>
      </g>
     </g>
    </g>
    <g id="ytick_10">
     <g id="line2d_29">
      <path d="M 280.452813 114.0032 
L 467.390937 114.0032 
" clip-path="url(#pf6d65462b4)" style="fill: none; stroke: #b0b0b0; stroke-opacity: 0.3; stroke-width: 0.8; stroke-linecap: square"/>
     </g>
     <g id="line2d_30">
      <g>
       <use xlink:href="#mcd8a896478" x="280.452813" y="114.0032" style="stroke: #000000; stroke-width: 0.8"/>
      </g>
     </g>
     <g id="text_29">
      <!-- -0.4 -->
      <g transform="translate(253.452813 117.4407) scale(0.1 -0.1)">
       <use xlink:href="#SimHei-2d"/>
       <use xlink:href="#SimHei-30" x="50"/>
       <use xlink:href="#SimHei-2e" x="100"/>
       <use xlink:href="#SimHei-34" x="150"/>
      </g>
     </g>
    </g>
    <g id="ytick_11">
     <g id="line2d_31">
      <path d="M 280.452813 88.7116 
L 467.390937 88.7116 
" clip-path="url(#pf6d65462b4)" style="fill: none; stroke: #b0b0b0; stroke-opacity: 0.3; stroke-width: 0.8; stroke-linecap: square"/>
     </g>
     <g id="line2d_32">
      <g>
       <use xlink:href="#mcd8a896478" x="280.452813" y="88.7116" style="stroke: #000000; stroke-width: 0.8"/>
      </g>
     </g>
     <g id="text_30">
      <!-- -0.2 -->
      <g transform="translate(253.452813 92.1491) scale(0.1 -0.1)">
       <use xlink:href="#SimHei-2d"/>
       <use xlink:href="#SimHei-30" x="50"/>
       <use xlink:href="#SimHei-2e" x="100"/>
       <use xlink:href="#SimHei-32" x="150"/>
      </g>
     </g>
    </g>
    <g id="ytick_12">
     <g id="line2d_33">
      <path d="M 280.452813 63.42 
L 467.390937 63.42 
" clip-path="url(#pf6d65462b4)" style="fill: none; stroke: #b0b0b0; stroke-opacity: 0.3; stroke-width: 0.8; stroke-linecap: square"/>
     </g>
     <g id="line2d_34">
      <g>
       <use xlink:href="#mcd8a896478" x="280.452813" y="63.42" style="stroke: #000000; stroke-width: 0.8"/>
      </g>
     </g>
     <g id="text_31">
      <!-- 0.0 -->
      <g transform="translate(258.452813 66.8575) scale(0.1 -0.1)">
       <use xlink:href="#SimHei-30"/>
       <use xlink:href="#SimHei-2e" x="50"/>
       <use xlink:href="#SimHei-30" x="100"/>
      </g>
     </g>
    </g>
    <g id="text_32">
     <!-- 平均成本 (元) -->
     <g transform="translate(248.202813 171.713437) rotate(-90) scale(0.1 -0.1)">
      <defs>
       <path id="SimHei-6210" d="M 3500 4000 
Q 3475 4725 3450 5225 
Q 3750 5200 4025 5175 
Q 3975 4850 4000 4000 
L 4725 4000 
Q 5250 4000 5875 4025 
L 5875 3550 
Q 5225 3575 4725 3575 
L 4025 3575 
Q 4050 2625 4350 1500 
Q 4825 2225 5100 3175 
Q 5350 2975 5675 2825 
Q 5475 2600 5225 2075 
Q 4975 1550 4575 975 
Q 4800 525 5062 262 
Q 5325 0 5425 37 
Q 5525 75 5625 900 
Q 5875 700 6150 600 
Q 5975 -425 5762 -537 
Q 5550 -650 5250 -537 
Q 4950 -425 4687 -112 
Q 4425 200 4250 575 
Q 3650 -75 2725 -650 
Q 2600 -425 2350 -250 
Q 2850 -25 3312 350 
Q 3775 725 4000 1050 
Q 3825 1525 3700 2212 
Q 3575 2900 3550 3575 
L 1400 3575 
L 1400 2700 
L 3025 2700 
Q 2975 2250 2950 1775 
L 2875 775 
Q 2850 300 2612 200 
Q 2375 100 1800 50 
Q 1775 275 1600 600 
Q 2225 575 2325 675 
Q 2425 775 2450 1250 
L 2500 2250 
L 1400 2250 
Q 1400 1275 1250 625 
Q 1100 -25 700 -575 
Q 425 -375 200 -300 
Q 525 100 650 462 
Q 775 825 837 1250 
Q 900 1675 912 2450 
Q 925 3225 900 4000 
L 3500 4000 
z
M 4750 5225 
Q 5250 4825 5625 4425 
Q 5400 4250 5225 4075 
Q 4925 4475 4425 4900 
Q 4600 5050 4750 5225 
z
" transform="scale(0.015625)"/>
       <path id="SimHei-672c" d="M 2950 3925 
L 2950 4425 
Q 2950 4825 2925 5175 
L 3475 5175 
Q 3450 4900 3450 4450 
L 3450 3925 
L 4850 3925 
Q 5275 3925 5850 3950 
L 5850 3475 
Q 5300 3500 4875 3500 
L 3850 3500 
Q 4200 2350 4862 1687 
Q 5525 1025 6075 800 
Q 5850 625 5650 325 
Q 4800 900 4262 1637 
Q 3725 2375 3450 3350 
L 3450 1000 
L 3775 1000 
Q 4175 1000 4600 1025 
L 4600 550 
Q 4175 575 3750 575 
L 3450 575 
Q 3450 0 3475 -600 
L 2925 -600 
Q 2950 0 2950 575 
L 2625 575 
Q 2225 575 1825 550 
L 1825 1025 
Q 2225 1000 2625 1000 
L 2950 1000 
L 2950 3300 
Q 2550 2275 2062 1575 
Q 1575 875 750 175 
Q 550 450 275 575 
Q 1100 1075 1650 1825 
Q 2200 2575 2525 3500 
L 1425 3500 
Q 1025 3500 575 3475 
L 575 3950 
Q 1025 3925 1400 3925 
L 2950 3925 
z
" transform="scale(0.015625)"/>
       <path id="SimHei-28" d="M 2975 -200 
L 2700 -475 
Q 2075 125 1762 775 
Q 1450 1425 1450 2250 
Q 1450 3075 1762 3725 
Q 2075 4375 2700 5000 
L 2975 4725 
Q 2400 4175 2112 3587 
Q 1825 3000 1825 2250 
Q 1825 1500 2112 912 
Q 2400 325 2975 -200 
z
" transform="scale(0.015625)"/>
       <path id="SimHei-5143" d="M 4900 3175 
Q 5200 3175 5650 3200 
L 5650 2675 
Q 5200 2700 4900 2700 
L 4075 2700 
L 4075 425 
Q 4075 75 4450 75 
L 5175 75 
Q 5425 75 5525 775 
Q 5800 600 6075 550 
Q 5950 -325 5300 -375 
L 4150 -375 
Q 3575 -375 3575 225 
L 3575 2700 
L 2675 2700 
Q 2775 400 900 -600 
Q 725 -375 400 -175 
Q 2250 500 2150 2700 
L 1500 2700 
Q 1125 2700 650 2675 
L 650 3200 
Q 1125 3175 1500 3175 
L 4900 3175 
z
M 4450 4775 
Q 4675 4775 5150 4800 
L 5150 4325 
Q 4700 4350 4450 4350 
L 1875 4350 
Q 1575 4350 1200 4325 
L 1200 4800 
Q 1575 4775 1850 4775 
L 4450 4775 
z
" transform="scale(0.015625)"/>
       <path id="SimHei-29" d="M 1675 2250 
Q 1675 1425 1362 775 
Q 1050 125 425 -475 
L 150 -200 
Q 725 325 1012 912 
Q 1300 1500 1300 2250 
Q 1300 3000 1012 3587 
Q 725 4175 150 4725 
L 425 5000 
Q 1050 4375 1362 3725 
Q 1675 3075 1675 2250 
z
" transform="scale(0.015625)"/>
      </defs>
      <use xlink:href="#SimHei-5e73"/>
      <use xlink:href="#SimHei-5747" x="100"/>
      <use xlink:href="#SimHei-6210" x="200"/>
      <use xlink:href="#SimHei-672c" x="300"/>
      <use xlink:href="#SimHei-20" x="400"/>
      <use xlink:href="#SimHei-28" x="450"/>
      <use xlink:href="#SimHei-5143" x="500"/>
      <use xlink:href="#SimHei-29" x="600"/>
     </g>
    </g>
    <g id="text_33">
     <!-- 1e6 -->
     <g transform="translate(280.452813 60.42) scale(0.1 -0.1)">
      <defs>
       <path id="SimHei-65" d="M 2850 1075 
Q 2800 625 2450 350 
Q 2100 75 1625 75 
Q 1025 75 637 462 
Q 250 850 250 1525 
Q 250 2200 637 2587 
Q 1025 2975 1625 2975 
Q 2150 2975 2487 2637 
Q 2825 2300 2825 1525 
L 800 1525 
Q 800 975 1037 750 
Q 1275 525 1625 525 
Q 1900 525 2075 662 
Q 2250 800 2300 1075 
L 2850 1075 
z
M 2250 1925 
Q 2200 2275 2025 2412 
Q 1850 2550 1575 2550 
Q 1325 2550 1125 2412 
Q 925 2275 825 1925 
L 2250 1925 
z
" transform="scale(0.015625)"/>
      </defs>
      <use xlink:href="#SimHei-31"/>
      <use xlink:href="#SimHei-65" x="50"/>
      <use xlink:href="#SimHei-36" x="100"/>
     </g>
    </g>
   </g>
   <g id="patch_18">
    <path d="M 280.452813 215.006875 
L 280.452813 63.42 
" style="fill: none; stroke: #000000; stroke-width: 0.8; stroke-linejoin: miter; stroke-linecap: square"/>
   </g>
   <g id="patch_19">
    <path d="M 467.390937 215.006875 
L 467.390937 63.42 
" style="fill: none; stroke: #000000; stroke-width: 0.8; stroke-linejoin: miter; stroke-linecap: square"/>
   </g>
   <g id="patch_20">
    <path d="M 280.452813 215.006875 
L 467.390937 215.006875 
" style="fill: none; stroke: #000000; stroke-width: 0.8; stroke-linejoin: miter; stroke-linecap: square"/>
   </g>
   <g id="patch_21">
    <path d="M 280.452813 63.42 
L 467.390937 63.42 
" style="fill: none; stroke: #000000; stroke-width: 0.8; stroke-linejoin: miter; stroke-linecap: square"/>
   </g>
   <g id="text_34">
    <!-- -300325.5 -->
    <g transform="translate(285.111979 107.658131) scale(0.08 -0.08)">
     <use xlink:href="#SimHei-2d"/>
     <use xlink:href="#SimHei-33" x="50"/>
     <use xlink:href="#SimHei-30" x="100"/>
     <use xlink:href="#SimHei-30" x="150"/>
     <use xlink:href="#SimHei-33" x="200"/>
     <use xlink:href="#SimHei-32" x="250"/>
     <use xlink:href="#SimHei-35" x="300"/>
     <use xlink:href="#SimHei-2e" x="350"/>
     <use xlink:href="#SimHei-35" x="400"/>
    </g>
   </g>
   <g id="text_35">
    <!-- -1023317.8 -->
    <g transform="translate(318.516927 200.914858) scale(0.08 -0.08)">
     <use xlink:href="#SimHei-2d"/>
     <use xlink:href="#SimHei-31" x="50"/>
     <use xlink:href="#SimHei-30" x="100"/>
     <use xlink:href="#SimHei-32" x="150"/>
     <use xlink:href="#SimHei-33" x="200"/>
     <use xlink:href="#SimHei-33" x="250"/>
     <use xlink:href="#SimHei-31" x="300"/>
     <use xlink:href="#SimHei-37" x="350"/>
     <use xlink:href="#SimHei-2e" x="400"/>
     <use xlink:href="#SimHei-38" x="450"/>
    </g>
   </g>
   <g id="text_36">
    <!-- -817501.5 -->
    <g transform="translate(355.921875 174.3672) scale(0.08 -0.08)">
     <use xlink:href="#SimHei-2d"/>
     <use xlink:href="#SimHei-38" x="50"/>
     <use xlink:href="#SimHei-31" x="100"/>
     <use xlink:href="#SimHei-37" x="150"/>
     <use xlink:href="#SimHei-35" x="200"/>
     <use xlink:href="#SimHei-30" x="250"/>
     <use xlink:href="#SimHei-31" x="300"/>
     <use xlink:href="#SimHei-2e" x="350"/>
     <use xlink:href="#SimHei-35" x="400"/>
    </g>
   </g>
   <g id="text_37">
    <!-- -614591.7 -->
    <g transform="translate(391.326823 148.19444) scale(0.08 -0.08)">
     <use xlink:href="#SimHei-2d"/>
     <use xlink:href="#SimHei-36" x="50"/>
     <use xlink:href="#SimHei-31" x="100"/>
     <use xlink:href="#SimHei-34" x="150"/>
     <use xlink:href="#SimHei-35" x="200"/>
     <use xlink:href="#SimHei-39" x="250"/>
     <use xlink:href="#SimHei-31" x="300"/>
     <use xlink:href="#SimHei-2e" x="350"/>
     <use xlink:href="#SimHei-37" x="400"/>
    </g>
   </g>
   <g id="text_38">
    <!-- -1141631.6 -->
    <g transform="translate(424.731771 216.175821) scale(0.08 -0.08)">
     <use xlink:href="#SimHei-2d"/>
     <use xlink:href="#SimHei-31" x="50"/>
     <use xlink:href="#SimHei-31" x="100"/>
     <use xlink:href="#SimHei-34" x="150"/>
     <use xlink:href="#SimHei-31" x="200"/>
     <use xlink:href="#SimHei-36" x="250"/>
     <use xlink:href="#SimHei-33" x="300"/>
     <use xlink:href="#SimHei-31" x="350"/>
     <use xlink:href="#SimHei-2e" x="400"/>
     <use xlink:href="#SimHei-36" x="450"/>
    </g>
   </g>
   <g id="text_39">
    <!-- 平均成本 (元) -->
    <g transform="translate(338.171875 57.42) scale(0.11 -0.11)">
     <use xlink:href="#SimHei-5e73"/>
     <use xlink:href="#SimHei-5747" x="100"/>
     <use xlink:href="#SimHei-6210" x="200"/>
     <use xlink:href="#SimHei-672c" x="300"/>
     <use xlink:href="#SimHei-20" x="400"/>
     <use xlink:href="#SimHei-28" x="450"/>
     <use xlink:href="#SimHei-5143" x="500"/>
     <use xlink:href="#SimHei-29" x="600"/>
    </g>
   </g>
  </g>
  <g id="axes_3">
   <g id="patch_22">
    <path d="M 518.604062 215.006875 
L 705.542187 215.006875 
L 705.542187 63.42 
L 518.604062 63.42 
z
" style="fill: #ffffff"/>
   </g>
   <g id="patch_23">
    <path d="M 527.10125 215.006875 
L 555.425208 215.006875 
L 555.425208 152.679499 
L 527.10125 152.679499 
z
" clip-path="url(#p0d01cd860d)" style="fill: #ff7f0e; opacity: 0.8; stroke: #000000; stroke-linejoin: miter"/>
   </g>
   <g id="patch_24">
    <path d="M 562.506198 215.006875 
L 590.830156 215.006875 
L 590.830156 73.159588 
L 562.506198 73.159588 
z
" clip-path="url(#p0d01cd860d)" style="fill: #ff7f0e; opacity: 0.8; stroke: #000000; stroke-linejoin: miter"/>
   </g>
   <g id="patch_25">
    <path d="M 597.911146 215.006875 
L 626.235104 215.006875 
L 626.235104 86.202835 
L 597.911146 86.202835 
z
" clip-path="url(#p0d01cd860d)" style="fill: #ff7f0e; opacity: 0.8; stroke: #000000; stroke-linejoin: miter"/>
   </g>
   <g id="patch_26">
    <path d="M 633.316094 215.006875 
L 661.640052 215.006875 
L 661.640052 125.337201 
L 633.316094 125.337201 
z
" clip-path="url(#p0d01cd860d)" style="fill: #ff7f0e; opacity: 0.8; stroke: #000000; stroke-linejoin: miter"/>
   </g>
   <g id="patch_27">
    <path d="M 668.721042 215.006875 
L 697.045 215.006875 
L 697.045 70.638423 
L 668.721042 70.638423 
z
" clip-path="url(#p0d01cd860d)" style="fill: #ff7f0e; opacity: 0.8; stroke: #000000; stroke-linejoin: miter"/>
   </g>
   <g id="matplotlib.axis_5">
    <g id="xtick_11">
     <g id="line2d_35">
      <g>
       <use xlink:href="#m5982efcba2" x="541.263229" y="215.006875" style="stroke: #000000; stroke-width: 0.8"/>
      </g>
     </g>
     <g id="text_40">
      <!-- 0 -->
      <g transform="translate(538.763229 228.881875) scale(0.1 -0.1)">
       <use xlink:href="#SimHei-30"/>
      </g>
     </g>
    </g>
    <g id="xtick_12">
     <g id="line2d_36">
      <g>
       <use xlink:href="#m5982efcba2" x="576.668177" y="215.006875" style="stroke: #000000; stroke-width: 0.8"/>
      </g>
     </g>
     <g id="text_41">
      <!-- 1 -->
      <g transform="translate(574.168177 228.881875) scale(0.1 -0.1)">
       <use xlink:href="#SimHei-31"/>
      </g>
     </g>
    </g>
    <g id="xtick_13">
     <g id="line2d_37">
      <g>
       <use xlink:href="#m5982efcba2" x="612.073125" y="215.006875" style="stroke: #000000; stroke-width: 0.8"/>
      </g>
     </g>
     <g id="text_42">
      <!-- 2 -->
      <g transform="translate(609.573125 228.881875) scale(0.1 -0.1)">
       <use xlink:href="#SimHei-32"/>
      </g>
     </g>
    </g>
    <g id="xtick_14">
     <g id="line2d_38">
      <g>
       <use xlink:href="#m5982efcba2" x="647.478073" y="215.006875" style="stroke: #000000; stroke-width: 0.8"/>
      </g>
     </g>
     <g id="text_43">
      <!-- 3 -->
      <g transform="translate(644.978073 228.881875) scale(0.1 -0.1)">
       <use xlink:href="#SimHei-33"/>
      </g>
     </g>
    </g>
    <g id="xtick_15">
     <g id="line2d_39">
      <g>
       <use xlink:href="#m5982efcba2" x="682.883021" y="215.006875" style="stroke: #000000; stroke-width: 0.8"/>
      </g>
     </g>
     <g id="text_44">
      <!-- 4 -->
      <g transform="translate(680.383021 228.881875) scale(0.1 -0.1)">
       <use xlink:href="#SimHei-34"/>
      </g>
     </g>
    </g>
    <g id="text_45">
     <!-- 专家 ID -->
     <g transform="translate(594.573125 242.17875) scale(0.1 -0.1)">
      <use xlink:href="#SimHei-4e13"/>
      <use xlink:href="#SimHei-5bb6" x="100"/>
      <use xlink:href="#SimHei-20" x="200"/>
      <use xlink:href="#SimHei-49" x="250"/>
      <use xlink:href="#SimHei-44" x="300"/>
     </g>
    </g>
   </g>
   <g id="matplotlib.axis_6">
    <g id="ytick_13">
     <g id="line2d_40">
      <path d="M 518.604062 215.006875 
L 705.542187 215.006875 
" clip-path="url(#p0d01cd860d)" style="fill: none; stroke: #b0b0b0; stroke-opacity: 0.3; stroke-width: 0.8; stroke-linecap: square"/>
     </g>
     <g id="line2d_41">
      <g>
       <use xlink:href="#mcd8a896478" x="518.604062" y="215.006875" style="stroke: #000000; stroke-width: 0.8"/>
      </g>
     </g>
     <g id="text_46">
      <!-- 0 -->
      <g transform="translate(506.604062 218.444375) scale(0.1 -0.1)">
       <use xlink:href="#SimHei-30"/>
      </g>
     </g>
    </g>
    <g id="ytick_14">
     <g id="line2d_42">
      <path d="M 518.604062 189.765823 
L 705.542187 189.765823 
" clip-path="url(#p0d01cd860d)" style="fill: none; stroke: #b0b0b0; stroke-opacity: 0.3; stroke-width: 0.8; stroke-linecap: square"/>
     </g>
     <g id="line2d_43">
      <g>
       <use xlink:href="#mcd8a896478" x="518.604062" y="189.765823" style="stroke: #000000; stroke-width: 0.8"/>
      </g>
     </g>
     <g id="text_47">
      <!-- 200 -->
      <g transform="translate(496.604062 193.203323) scale(0.1 -0.1)">
       <use xlink:href="#SimHei-32"/>
       <use xlink:href="#SimHei-30" x="50"/>
       <use xlink:href="#SimHei-30" x="100"/>
      </g>
     </g>
    </g>
    <g id="ytick_15">
     <g id="line2d_44">
      <path d="M 518.604062 164.524771 
L 705.542187 164.524771 
" clip-path="url(#p0d01cd860d)" style="fill: none; stroke: #b0b0b0; stroke-opacity: 0.3; stroke-width: 0.8; stroke-linecap: square"/>
     </g>
     <g id="line2d_45">
      <g>
       <use xlink:href="#mcd8a896478" x="518.604062" y="164.524771" style="stroke: #000000; stroke-width: 0.8"/>
      </g>
     </g>
     <g id="text_48">
      <!-- 400 -->
      <g transform="translate(496.604062 167.962271) scale(0.1 -0.1)">
       <use xlink:href="#SimHei-34"/>
       <use xlink:href="#SimHei-30" x="50"/>
       <use xlink:href="#SimHei-30" x="100"/>
      </g>
     </g>
    </g>
    <g id="ytick_16">
     <g id="line2d_46">
      <path d="M 518.604062 139.283719 
L 705.542187 139.283719 
" clip-path="url(#p0d01cd860d)" style="fill: none; stroke: #b0b0b0; stroke-opacity: 0.3; stroke-width: 0.8; stroke-linecap: square"/>
     </g>
     <g id="line2d_47">
      <g>
       <use xlink:href="#mcd8a896478" x="518.604062" y="139.283719" style="stroke: #000000; stroke-width: 0.8"/>
      </g>
     </g>
     <g id="text_49">
      <!-- 600 -->
      <g transform="translate(496.604062 142.721219) scale(0.1 -0.1)">
       <use xlink:href="#SimHei-36"/>
       <use xlink:href="#SimHei-30" x="50"/>
       <use xlink:href="#SimHei-30" x="100"/>
      </g>
     </g>
    </g>
    <g id="ytick_17">
     <g id="line2d_48">
      <path d="M 518.604062 114.042668 
L 705.542187 114.042668 
" clip-path="url(#p0d01cd860d)" style="fill: none; stroke: #b0b0b0; stroke-opacity: 0.3; stroke-width: 0.8; stroke-linecap: square"/>
     </g>
     <g id="line2d_49">
      <g>
       <use xlink:href="#mcd8a896478" x="518.604062" y="114.042668" style="stroke: #000000; stroke-width: 0.8"/>
      </g>
     </g>
     <g id="text_50">
      <!-- 800 -->
      <g transform="translate(496.604062 117.480168) scale(0.1 -0.1)">
       <use xlink:href="#SimHei-38"/>
       <use xlink:href="#SimHei-30" x="50"/>
       <use xlink:href="#SimHei-30" x="100"/>
      </g>
     </g>
    </g>
    <g id="ytick_18">
     <g id="line2d_50">
      <path d="M 518.604062 88.801616 
L 705.542187 88.801616 
" clip-path="url(#p0d01cd860d)" style="fill: none; stroke: #b0b0b0; stroke-opacity: 0.3; stroke-width: 0.8; stroke-linecap: square"/>
     </g>
     <g id="line2d_51">
      <g>
       <use xlink:href="#mcd8a896478" x="518.604062" y="88.801616" style="stroke: #000000; stroke-width: 0.8"/>
      </g>
     </g>
     <g id="text_51">
      <!-- 1000 -->
      <g transform="translate(491.604062 92.239116) scale(0.1 -0.1)">
       <use xlink:href="#SimHei-31"/>
       <use xlink:href="#SimHei-30" x="50"/>
       <use xlink:href="#SimHei-30" x="100"/>
       <use xlink:href="#SimHei-30" x="150"/>
      </g>
     </g>
    </g>
    <g id="ytick_19">
     <g id="line2d_52">
      <path d="M 518.604062 63.560564 
L 705.542187 63.560564 
" clip-path="url(#p0d01cd860d)" style="fill: none; stroke: #b0b0b0; stroke-opacity: 0.3; stroke-width: 0.8; stroke-linecap: square"/>
     </g>
     <g id="line2d_53">
      <g>
       <use xlink:href="#mcd8a896478" x="518.604062" y="63.560564" style="stroke: #000000; stroke-width: 0.8"/>
      </g>
     </g>
     <g id="text_52">
      <!-- 1200 -->
      <g transform="translate(491.604062 66.998064) scale(0.1 -0.1)">
       <use xlink:href="#SimHei-31"/>
       <use xlink:href="#SimHei-32" x="50"/>
       <use xlink:href="#SimHei-30" x="100"/>
       <use xlink:href="#SimHei-30" x="150"/>
      </g>
     </g>
    </g>
    <g id="text_53">
     <!-- 弃电量 (KWh) -->
     <g transform="translate(486.354062 169.213437) rotate(-90) scale(0.1 -0.1)">
      <defs>
       <path id="SimHei-5f03" d="M 4975 2450 
Q 4700 2750 4550 2875 
Q 3575 2800 2650 2712 
Q 1725 2625 1250 2525 
L 1125 3075 
Q 1525 3125 1875 3412 
Q 2225 3700 2525 4025 
L 1425 4025 
Q 875 4025 400 4000 
L 400 4450 
Q 950 4425 1400 4425 
L 3000 4425 
Q 2975 4700 2800 5100 
Q 3200 5175 3375 5225 
Q 3475 4800 3550 4425 
L 4950 4425 
Q 5500 4425 5925 4450 
L 5925 4000 
Q 5500 4025 4975 4025 
L 3075 4025 
Q 2800 3700 2075 3025 
Q 3700 3150 4300 3225 
Q 4150 3350 3900 3600 
L 4250 3850 
Q 4875 3250 5375 2775 
Q 5175 2625 4975 2450 
z
M 625 -225 
Q 1400 -25 1712 387 
Q 2025 800 2025 1225 
Q 750 1225 325 1200 
L 325 1675 
Q 750 1650 2050 1650 
Q 2050 2025 2025 2400 
Q 2350 2350 2650 2325 
Q 2550 2025 2525 1650 
L 4050 1650 
Q 4050 2025 4025 2400 
L 4550 2400 
Q 4525 2000 4525 1650 
Q 5525 1650 6050 1675 
L 6050 1200 
Q 5525 1225 4525 1225 
Q 4525 -50 4550 -550 
L 4025 -550 
Q 4050 0 4050 1225 
L 2500 1225 
Q 2425 575 2150 175 
Q 1875 -225 1075 -650 
Q 900 -325 625 -225 
z
" transform="scale(0.015625)"/>
       <path id="SimHei-7535" d="M 6150 325 
Q 5975 -250 5825 -412 
Q 5675 -575 5325 -575 
L 3375 -575 
Q 2700 -600 2675 100 
L 2675 975 
L 1225 975 
L 1225 500 
L 650 500 
Q 675 750 675 2225 
Q 675 3700 650 4150 
L 2675 4150 
Q 2675 4825 2650 5200 
L 3200 5200 
Q 3175 4875 3175 4150 
L 5200 4150 
Q 5175 3775 5175 2600 
Q 5175 1450 5200 975 
L 3175 975 
L 3175 300 
Q 3175 -150 3650 -150 
L 4975 -150 
Q 5375 -150 5450 25 
Q 5525 200 5575 575 
Q 5825 400 6150 325 
z
M 4675 1400 
L 4675 2400 
L 3175 2400 
L 3175 1400 
L 4675 1400 
z
M 2675 1400 
L 2675 2400 
L 1225 2400 
L 1225 1400 
L 2675 1400 
z
M 4675 2800 
L 4675 3725 
L 3175 3725 
L 3175 2800 
L 4675 2800 
z
M 2675 2800 
L 2675 3725 
L 1225 3725 
L 1225 2800 
L 2675 2800 
z
" transform="scale(0.015625)"/>
       <path id="SimHei-91cf" d="M 5250 2500 
Q 5225 2200 5225 1700 
Q 5225 1225 5250 950 
L 3425 950 
L 3425 625 
L 4575 625 
Q 5000 625 5375 650 
L 5375 275 
Q 5025 300 4575 300 
L 3425 300 
L 3425 -75 
L 5125 -75 
Q 5525 -75 5925 -50 
L 5925 -425 
Q 5525 -400 5125 -400 
L 1275 -400 
Q 900 -400 475 -425 
L 475 -50 
Q 925 -50 1275 -75 
L 2975 -75 
L 2975 300 
L 1725 300 
Q 1350 300 975 250 
L 975 650 
Q 1375 625 1725 625 
L 2975 625 
L 2975 950 
L 1150 950 
Q 1175 1375 1175 1775 
Q 1175 2175 1150 2500 
L 5250 2500 
z
M 5200 4950 
Q 5175 4575 5175 4250 
Q 5175 3925 5200 3400 
L 1200 3400 
Q 1225 3925 1225 4250 
Q 1225 4575 1200 4950 
L 5200 4950 
z
M 4900 3100 
Q 5500 3125 6000 3150 
L 6000 2750 
Q 5500 2775 4925 2775 
L 1650 2775 
Q 975 2775 325 2750 
L 325 3150 
Q 975 3125 1650 3100 
L 4900 3100 
z
M 4725 3700 
L 4725 4025 
L 1675 4025 
L 1675 3700 
L 4725 3700 
z
M 4725 4350 
L 4725 4650 
L 1675 4650 
L 1675 4350 
L 4725 4350 
z
M 4750 1875 
L 4750 2175 
L 3425 2175 
L 3425 1875 
L 4750 1875 
z
M 2975 1875 
L 2975 2175 
L 1650 2175 
L 1650 1875 
L 2975 1875 
z
M 2975 1275 
L 2975 1550 
L 1650 1550 
L 1650 1275 
L 2975 1275 
z
M 4750 1275 
L 4750 1550 
L 3425 1550 
L 3425 1275 
L 4750 1275 
z
" transform="scale(0.015625)"/>
       <path id="SimHei-4b" d="M 3050 125 
L 2400 125 
L 1250 2250 
L 850 1725 
L 850 125 
L 275 125 
L 275 4400 
L 850 4400 
L 850 2550 
L 2275 4400 
L 2950 4400 
L 1625 2725 
L 3050 125 
z
" transform="scale(0.015625)"/>
       <path id="SimHei-57" d="M 3075 4400 
L 2525 75 
L 2025 75 
L 1575 3275 
L 1525 3275 
L 1075 75 
L 575 75 
L 25 4400 
L 575 4400 
L 850 1675 
L 900 1675 
L 1275 4400 
L 1825 4400 
L 2200 1675 
L 2250 1675 
L 2525 4400 
L 3075 4400 
z
" transform="scale(0.015625)"/>
       <path id="SimHei-68" d="M 2800 125 
L 2300 125 
L 2300 1925 
Q 2300 2225 2150 2400 
Q 2000 2575 1750 2575 
Q 1425 2575 1137 2237 
Q 850 1900 850 1400 
L 850 125 
L 350 125 
L 350 4400 
L 850 4400 
L 850 2400 
Q 1050 2675 1287 2825 
Q 1525 2975 1900 2975 
Q 2350 2975 2575 2725 
Q 2800 2475 2800 2100 
L 2800 125 
z
" transform="scale(0.015625)"/>
      </defs>
      <use xlink:href="#SimHei-5f03"/>
      <use xlink:href="#SimHei-7535" x="100"/>
      <use xlink:href="#SimHei-91cf" x="200"/>
      <use xlink:href="#SimHei-20" x="300"/>
      <use xlink:href="#SimHei-28" x="350"/>
      <use xlink:href="#SimHei-4b" x="400"/>
      <use xlink:href="#SimHei-57" x="450"/>
      <use xlink:href="#SimHei-68" x="500"/>
      <use xlink:href="#SimHei-29" x="550"/>
     </g>
    </g>
   </g>
   <g id="patch_28">
    <path d="M 518.604062 215.006875 
L 518.604062 63.42 
" style="fill: none; stroke: #000000; stroke-width: 0.8; stroke-linejoin: miter; stroke-linecap: square"/>
   </g>
   <g id="patch_29">
    <path d="M 705.542187 215.006875 
L 705.542187 63.42 
" style="fill: none; stroke: #000000; stroke-width: 0.8; stroke-linejoin: miter; stroke-linecap: square"/>
   </g>
   <g id="patch_30">
    <path d="M 518.604062 215.006875 
L 705.542187 215.006875 
" style="fill: none; stroke: #000000; stroke-width: 0.8; stroke-linejoin: miter; stroke-linecap: square"/>
   </g>
   <g id="patch_31">
    <path d="M 518.604062 63.42 
L 705.542187 63.42 
" style="fill: none; stroke: #000000; stroke-width: 0.8; stroke-linejoin: miter; stroke-linecap: square"/>
   </g>
   <g id="text_54">
    <!-- 493.9 -->
    <g transform="translate(531.263229 150.432952) scale(0.08 -0.08)">
     <use xlink:href="#SimHei-34"/>
     <use xlink:href="#SimHei-39" x="50"/>
     <use xlink:href="#SimHei-33" x="100"/>
     <use xlink:href="#SimHei-2e" x="150"/>
     <use xlink:href="#SimHei-39" x="200"/>
    </g>
   </g>
   <g id="text_55">
    <!-- 1123.9 -->
    <g transform="translate(564.668177 69.322642) scale(0.08 -0.08)">
     <use xlink:href="#SimHei-31"/>
     <use xlink:href="#SimHei-31" x="50"/>
     <use xlink:href="#SimHei-32" x="100"/>
     <use xlink:href="#SimHei-33" x="150"/>
     <use xlink:href="#SimHei-2e" x="200"/>
     <use xlink:href="#SimHei-39" x="250"/>
    </g>
   </g>
   <g id="text_56">
    <!-- 1020.6 -->
    <g transform="translate(600.073125 82.626754) scale(0.08 -0.08)">
     <use xlink:href="#SimHei-31"/>
     <use xlink:href="#SimHei-30" x="50"/>
     <use xlink:href="#SimHei-32" x="100"/>
     <use xlink:href="#SimHei-30" x="150"/>
     <use xlink:href="#SimHei-2e" x="200"/>
     <use xlink:href="#SimHei-36" x="250"/>
    </g>
   </g>
   <g id="text_57">
    <!-- 710.5 -->
    <g transform="translate(637.478073 122.543808) scale(0.08 -0.08)">
     <use xlink:href="#SimHei-37"/>
     <use xlink:href="#SimHei-31" x="50"/>
     <use xlink:href="#SimHei-30" x="100"/>
     <use xlink:href="#SimHei-2e" x="150"/>
     <use xlink:href="#SimHei-35" x="200"/>
    </g>
   </g>
   <g id="text_58">
    <!-- 1143.9 -->
    <g transform="translate(670.883021 66.751054) scale(0.08 -0.08)">
     <use xlink:href="#SimHei-31"/>
     <use xlink:href="#SimHei-31" x="50"/>
     <use xlink:href="#SimHei-34" x="100"/>
     <use xlink:href="#SimHei-33" x="150"/>
     <use xlink:href="#SimHei-2e" x="200"/>
     <use xlink:href="#SimHei-39" x="250"/>
    </g>
   </g>
   <g id="text_59">
    <!-- 弃电量 (KWh) -->
    <g transform="translate(579.073125 57.42) scale(0.11 -0.11)">
     <use xlink:href="#SimHei-5f03"/>
     <use xlink:href="#SimHei-7535" x="100"/>
     <use xlink:href="#SimHei-91cf" x="200"/>
     <use xlink:href="#SimHei-20" x="300"/>
     <use xlink:href="#SimHei-28" x="350"/>
     <use xlink:href="#SimHei-4b" x="400"/>
     <use xlink:href="#SimHei-57" x="450"/>
     <use xlink:href="#SimHei-68" x="500"/>
     <use xlink:href="#SimHei-29" x="550"/>
    </g>
   </g>
  </g>
  <g id="text_60">
   <!-- SAC 多专家评估结果对比 -->
   <g transform="translate(284.842188 17.660937) scale(0.13 -0.13)">
    <defs>
     <path id="SimHei-53" d="M 2900 1325 
Q 2900 750 2537 412 
Q 2175 75 1550 75 
Q 925 75 575 425 
Q 225 775 225 1300 
L 225 1475 
L 800 1475 
L 800 1325 
Q 800 950 1025 750 
Q 1250 550 1550 550 
Q 1950 550 2137 762 
Q 2325 975 2325 1275 
Q 2325 1525 2100 1737 
Q 1875 1950 1450 2125 
Q 850 2350 587 2625 
Q 325 2900 325 3275 
Q 325 3800 687 4125 
Q 1050 4450 1550 4450 
Q 2200 4450 2487 4062 
Q 2775 3675 2775 3225 
L 2200 3225 
Q 2225 3500 2050 3725 
Q 1875 3950 1550 3950 
Q 1250 3950 1075 3787 
Q 900 3625 900 3350 
Q 900 3125 1037 2962 
Q 1175 2800 1750 2575 
Q 2300 2350 2600 2037 
Q 2900 1725 2900 1325 
z
" transform="scale(0.015625)"/>
     <path id="SimHei-41" d="M 3075 125 
L 2475 125 
L 2125 1450 
L 1025 1450 
L 675 125 
L 75 125 
L 1325 4450 
L 1825 4450 
L 3075 125 
z
M 2000 1925 
L 1600 3450 
L 1550 3450 
L 1150 1925 
L 2000 1925 
z
" transform="scale(0.015625)"/>
     <path id="SimHei-43" d="M 2975 1825 
Q 2950 875 2575 475 
Q 2200 75 1675 75 
Q 1075 75 650 562 
Q 225 1050 225 2125 
Q 225 3300 637 3875 
Q 1050 4450 1700 4450 
Q 2250 4450 2612 4037 
Q 2975 3625 2950 2875 
L 2400 2875 
Q 2400 3425 2225 3700 
Q 2050 3975 1700 3975 
Q 1300 3975 1062 3562 
Q 825 3150 825 2175 
Q 825 1275 1062 912 
Q 1300 550 1675 550 
Q 1950 550 2175 812 
Q 2400 1075 2400 1825 
L 2975 1825 
z
" transform="scale(0.015625)"/>
     <path id="SimHei-591a" d="M 3800 2950 
Q 4000 2750 4275 2650 
Q 4050 2450 3850 2275 
L 5925 2275 
Q 5625 1525 5137 975 
Q 4650 425 4050 125 
Q 3450 -175 2725 -375 
Q 2000 -575 950 -675 
Q 850 -400 650 -150 
Q 1275 -175 2137 -25 
Q 3000 125 3700 450 
Q 3250 900 2950 1175 
Q 3150 1325 3300 1500 
Q 3650 1150 4100 675 
Q 4425 875 4712 1187 
Q 5000 1500 5200 1900 
L 3475 1900 
Q 3225 1700 2775 1412 
Q 2325 1125 1525 775 
Q 1400 1025 1200 1175 
Q 2025 1425 2762 1950 
Q 3500 2475 3800 2950 
z
M 900 1850 
Q 800 2100 575 2325 
Q 1050 2350 1725 2525 
Q 2400 2700 2775 2900 
Q 2475 3300 2100 3600 
Q 2300 3750 2425 3925 
Q 2900 3475 3200 3125 
Q 3575 3350 3875 3612 
Q 4175 3875 4400 4175 
L 2250 4175 
Q 1725 3725 1025 3275 
Q 875 3500 650 3625 
Q 1325 3925 1875 4400 
Q 2425 4875 2600 5225 
Q 2800 5075 3025 4925 
Q 2900 4825 2625 4550 
L 5225 4550 
Q 4500 3500 3800 3025 
Q 3100 2550 2437 2312 
Q 1775 2075 900 1850 
z
" transform="scale(0.015625)"/>
     <path id="SimHei-8bc4" d="M 5900 4500 
Q 5400 4525 4425 4525 
L 4425 2125 
L 5200 2125 
Q 5750 2125 6175 2150 
L 6175 1675 
Q 5775 1700 5200 1700 
L 4425 1700 
L 4425 200 
Q 4425 -300 4450 -675 
L 3900 -675 
Q 3925 -200 3925 200 
L 3925 1700 
L 3075 1700 
Q 2625 1700 2225 1675 
L 2225 2150 
Q 2625 2125 3075 2125 
L 3925 2125 
L 3925 4525 
Q 2850 4525 2425 4500 
L 2425 4975 
Q 2850 4950 3300 4950 
L 4950 4950 
Q 5400 4950 5900 4975 
L 5900 4500 
z
M 875 225 
Q 1150 400 1150 650 
L 1150 2875 
Q 475 2875 225 2850 
L 225 3350 
Q 475 3325 825 3325 
L 1650 3325 
Q 1625 2825 1625 2325 
L 1625 725 
Q 1900 975 2275 1375 
Q 2375 1225 2550 950 
Q 2100 550 1812 300 
Q 1525 50 1250 -250 
Q 1100 25 875 225 
z
M 4825 2625 
Q 5200 3425 5375 4050 
Q 5650 3975 5975 3850 
Q 5925 3800 5700 3325 
Q 5475 2850 5300 2450 
Q 5050 2575 4825 2625 
z
M 2850 4000 
Q 3275 3175 3450 2700 
Q 3150 2600 2950 2475 
Q 2700 3300 2400 3800 
Q 2650 3875 2850 4000 
z
M 1100 5225 
Q 1400 4975 1975 4275 
Q 1750 4125 1575 3950 
Q 1300 4350 750 4900 
Q 900 5025 1100 5225 
z
" transform="scale(0.015625)"/>
     <path id="SimHei-4f30" d="M 3700 3800 
L 3700 4375 
Q 3700 4700 3650 5075 
L 4250 5075 
Q 4200 4700 4200 4400 
L 4200 3800 
L 5125 3800 
Q 5600 3800 6000 3825 
L 6000 3350 
Q 5650 3375 5125 3375 
L 4200 3375 
L 4200 2225 
L 5500 2225 
Q 5475 1525 5475 825 
Q 5475 150 5500 -450 
L 5000 -450 
L 5000 25 
L 2925 25 
L 2925 -500 
L 2425 -500 
Q 2450 175 2450 850 
Q 2450 1525 2425 2225 
L 3700 2225 
L 3700 3375 
L 2950 3375 
Q 2425 3375 2025 3350 
L 2025 3825 
Q 2425 3800 2925 3800 
L 3700 3800 
z
M 2200 4900 
Q 1975 4650 1625 3700 
L 1625 675 
Q 1625 -100 1650 -525 
L 1100 -525 
Q 1150 -75 1150 650 
L 1150 2925 
Q 800 2350 500 1975 
Q 425 2150 200 2425 
Q 500 2775 937 3550 
Q 1375 4325 1575 5150 
Q 1775 5050 2200 4900 
z
M 5000 450 
L 5000 1800 
L 2925 1800 
L 2925 450 
L 5000 450 
z
" transform="scale(0.015625)"/>
     <path id="SimHei-7ed3" d="M 5725 1925 
Q 5700 1600 5700 1200 
L 5700 350 
Q 5700 -125 5725 -475 
L 5225 -475 
L 5225 0 
L 3525 0 
L 3525 -525 
L 3025 -525 
Q 3050 125 3050 325 
L 3050 1250 
Q 3050 1550 3025 1925 
L 5725 1925 
z
M 1900 4850 
Q 1700 4600 1475 4200 
Q 1250 3800 925 3200 
Q 1475 3225 1725 3225 
Q 1950 3625 2100 4000 
Q 2350 3825 2650 3675 
Q 2525 3575 2212 3125 
Q 1900 2675 1225 1650 
Q 2050 1775 2525 1850 
Q 2450 1575 2450 1375 
Q 2225 1350 1650 1275 
Q 1075 1200 525 1050 
Q 425 1300 350 1550 
Q 650 1625 950 2012 
Q 1250 2400 1475 2825 
Q 1300 2825 962 2787 
Q 625 2750 375 2675 
Q 300 2925 225 3150 
Q 500 3375 812 3925 
Q 1125 4475 1300 5125 
Q 1600 4975 1900 4850 
z
M 4075 4175 
Q 4075 4600 4050 5175 
L 4575 5175 
Q 4550 4725 4550 4175 
L 5275 4175 
Q 5750 4175 6150 4200 
L 6150 3750 
Q 5750 3775 5300 3775 
L 4550 3775 
L 4550 2950 
L 5125 2950 
Q 5475 2950 5825 2975 
L 5825 2525 
Q 5525 2550 5100 2550 
L 3650 2550 
Q 3225 2550 2900 2525 
L 2900 2975 
Q 3225 2950 3600 2950 
L 4075 2950 
L 4075 3775 
L 3525 3775 
Q 3075 3775 2675 3750 
L 2675 4200 
Q 3000 4175 3475 4175 
L 4075 4175 
z
M 5225 400 
L 5225 1525 
L 3525 1525 
L 3525 400 
L 5225 400 
z
M 2575 650 
Q 2500 425 2525 175 
Q 2050 100 1450 0 
Q 850 -100 425 -225 
Q 325 100 225 350 
Q 750 375 1175 437 
Q 1600 500 2575 650 
z
" transform="scale(0.015625)"/>
     <path id="SimHei-679c" d="M 2975 -525 
Q 3000 -75 3000 575 
L 3000 1600 
L 2900 1600 
Q 2725 1275 2500 1000 
Q 2275 725 1987 512 
Q 1700 300 1362 100 
Q 1025 -100 675 -250 
Q 575 25 400 275 
Q 700 350 975 487 
Q 1250 625 1525 787 
Q 1800 950 2000 1150 
Q 2200 1350 2375 1600 
L 1375 1600 
Q 1000 1600 450 1550 
L 450 2050 
Q 950 2000 1375 2000 
L 3000 2000 
L 3000 2450 
L 1150 2450 
Q 1175 3050 1175 3775 
Q 1175 4500 1150 5000 
L 5325 5000 
Q 5300 4500 5300 3775 
Q 5300 3050 5325 2450 
L 3475 2450 
L 3475 2000 
L 5050 2000 
Q 5550 2000 5925 2025 
L 5925 1550 
Q 5500 1600 5100 1600 
L 4125 1600 
Q 4450 1075 4925 800 
Q 5400 525 6050 375 
Q 5875 150 5775 -175 
Q 4925 150 4425 550 
Q 3925 950 3675 1600 
L 3475 1600 
L 3475 550 
Q 3475 0 3500 -525 
L 2975 -525 
z
M 4825 3875 
L 4825 4625 
L 3475 4625 
L 3475 3875 
L 4825 3875 
z
M 3000 3875 
L 3000 4625 
L 1675 4625 
L 1675 3875 
L 3000 3875 
z
M 4825 2825 
L 4825 3500 
L 3475 3500 
L 3475 2825 
L 4825 2825 
z
M 3000 2825 
L 3000 3500 
L 1675 3500 
L 1675 2825 
L 3000 2825 
z
" transform="scale(0.015625)"/>
     <path id="SimHei-5bf9" d="M 525 4250 
Q 900 4225 1400 4225 
L 2825 4225 
Q 2575 2625 2200 1750 
Q 2825 875 3125 400 
Q 2950 275 2725 75 
Q 2200 975 1950 1300 
Q 1650 775 1350 425 
Q 1050 75 600 -350 
Q 425 -125 200 -25 
Q 625 275 975 675 
Q 1325 1075 1650 1700 
Q 1050 2425 550 2900 
Q 700 3025 900 3225 
Q 1625 2425 1875 2150 
Q 2200 3050 2300 3825 
L 1400 3825 
Q 900 3825 525 3800 
L 525 4250 
z
M 2925 3700 
Q 3525 3675 3750 3675 
L 4825 3675 
L 4825 4425 
Q 4825 4750 4775 5125 
L 5350 5125 
Q 5325 4825 5325 4375 
L 5325 3675 
Q 5575 3675 6150 3700 
L 6150 3250 
Q 5575 3275 5325 3275 
L 5325 125 
Q 5350 -350 5012 -475 
Q 4675 -600 4250 -650 
Q 4175 -350 4025 -100 
Q 4575 -100 4712 -37 
Q 4850 25 4825 325 
L 4825 3275 
L 3775 3275 
Q 3550 3275 2925 3225 
L 2925 3700 
z
M 3450 2725 
Q 3875 1975 4175 1325 
Q 3850 1200 3700 1075 
Q 3475 1750 3050 2475 
Q 3225 2550 3450 2725 
z
" transform="scale(0.015625)"/>
     <path id="SimHei-6bd4" d="M 3775 5100 
Q 3750 4575 3750 4100 
L 3750 3050 
Q 4925 3600 5475 4175 
Q 5675 3900 5900 3675 
Q 5600 3500 5037 3187 
Q 4475 2875 3750 2550 
L 3750 450 
Q 3750 100 4050 100 
L 5000 100 
Q 5175 100 5262 250 
Q 5350 400 5450 900 
Q 5650 775 6025 675 
Q 5850 0 5650 -175 
Q 5450 -350 5225 -350 
L 3900 -350 
Q 3250 -350 3250 275 
L 3250 4000 
Q 3250 4550 3225 5100 
L 3775 5100 
z
M 1275 4975 
Q 1250 4575 1250 4000 
L 1250 3150 
L 1850 3150 
Q 2325 3150 2875 3175 
L 2875 2650 
Q 2325 2675 1850 2675 
L 1250 2675 
L 1250 475 
Q 1650 650 1962 812 
Q 2275 975 2850 1275 
Q 2900 950 2950 750 
Q 2375 475 1762 175 
Q 1150 -125 925 -325 
Q 750 -100 575 200 
Q 700 300 750 600 
L 750 3950 
Q 750 4550 725 4975 
L 1275 4975 
z
" transform="scale(0.015625)"/>
    </defs>
    <use xlink:href="#SimHei-53"/>
    <use xlink:href="#SimHei-41" x="50"/>
    <use xlink:href="#SimHei-43" x="100"/>
    <use xlink:href="#SimHei-20" x="150"/>
    <use xlink:href="#SimHei-591a" x="200"/>
    <use xlink:href="#SimHei-4e13" x="300"/>
    <use xlink:href="#SimHei-5bb6" x="400"/>
    <use xlink:href="#SimHei-8bc4" x="500"/>
    <use xlink:href="#SimHei-4f30" x="600"/>
    <use xlink:href="#SimHei-7ed3" x="700"/>
    <use xlink:href="#SimHei-679c" x="800"/>
    <use xlink:href="#SimHei-5bf9" x="900"/>
    <use xlink:href="#SimHei-6bd4" x="1000"/>
   </g>
  </g>
 </g>
 <defs>
  <clipPath id="p4f393ba5e7">
   <rect x="42.301563" y="63.42" width="186.938125" height="151.586875"/>
  </clipPath>
  <clipPath id="pf6d65462b4">
   <rect x="280.452813" y="63.42" width="186.938125" height="151.586875"/>
  </clipPath>
  <clipPath id="p0d01cd860d">
   <rect x="518.604062" y="63.42" width="186.938125" height="151.586875"/>
  </clipPath>
 </defs>
</svg>
