<?xml version="1.0" encoding="utf-8" standalone="no"?>
<!DOCTYPE svg PUBLIC "-//W3C//DTD SVG 1.1//EN"
  "http://www.w3.org/Graphics/SVG/1.1/DTD/svg11.dtd">
<svg xmlns:xlink="http://www.w3.org/1999/xlink" width="424.933281pt" height="496.55625pt" viewBox="0 0 424.933281 496.55625" xmlns="http://www.w3.org/2000/svg" version="1.1">
 <metadata>
  <rdf:RDF xmlns:dc="http://purl.org/dc/elements/1.1/" xmlns:cc="http://creativecommons.org/ns#" xmlns:rdf="http://www.w3.org/1999/02/22-rdf-syntax-ns#">
   <cc:Work>
    <dc:type rdf:resource="http://purl.org/dc/dcmitype/StillImage"/>
    <dc:date>2025-12-01T18:17:35.559512</dc:date>
    <dc:format>image/svg+xml</dc:format>
    <dc:creator>
     <cc:Agent>
      <dc:title>Matplotlib v3.9.4, https://matplotlib.org/</dc:title>
     </cc:Agent>
    </dc:creator>
   </cc:Work>
  </rdf:RDF>
 </metadata>
 <defs>
  <style type="text/css">*{stroke-linejoin: round; stroke-linecap: butt}</style>
 </defs>
 <g id="figure_1">
  <g id="patch_1">
   <path d="M -0 496.55625 
L 424.933281 496.55625 
L 424.933281 0 
L -0 0 
z
" style="fill: #ffffff"/>
  </g>
  <g id="axes_1">
   <g id="patch_2">
    <path d="M 59.797656 163.125 
L 410.233281 163.125 
L 410.233281 23.090625 
L 59.797656 23.090625 
z
" style="fill: #ffffff"/>
   </g>
   <g id="matplotlib.axis_1">
    <g id="xtick_1">
     <g id="line2d_1">
      <defs>
       <path id="m75fd05a082" d="M 0 0 
L 0 -4 
" style="stroke: #000000"/>
      </defs>
      <g>
       <use xlink:href="#m75fd05a082" x="129.322961" y="163.125" style="stroke: #000000"/>
      </g>
     </g>
    </g>
    <g id="xtick_2">
     <g id="line2d_2">
      <g>
       <use xlink:href="#m75fd05a082" x="199.550541" y="163.125" style="stroke: #000000"/>
      </g>
     </g>
    </g>
    <g id="xtick_3">
     <g id="line2d_3">
      <g>
       <use xlink:href="#m75fd05a082" x="269.778121" y="163.125" style="stroke: #000000"/>
      </g>
     </g>
    </g>
    <g id="xtick_4">
     <g id="line2d_4">
      <g>
       <use xlink:href="#m75fd05a082" x="340.005701" y="163.125" style="stroke: #000000"/>
      </g>
     </g>
    </g>
    <g id="xtick_5">
     <g id="line2d_5">
      <g>
       <use xlink:href="#m75fd05a082" x="410.233281" y="163.125" style="stroke: #000000"/>
      </g>
     </g>
    </g>
   </g>
   <g id="matplotlib.axis_2">
    <g id="ytick_1">
     <g id="line2d_6">
      <defs>
       <path id="m012adb96dd" d="M 0 0 
L 4 0 
" style="stroke: #000000"/>
      </defs>
      <g>
       <use xlink:href="#m012adb96dd" x="59.797656" y="149.48982" style="stroke: #000000"/>
      </g>
     </g>
     <g id="text_1">
      <!-- -10 -->
      <g transform="translate(41.297656 152.92732) scale(0.1 -0.1)">
       <defs>
        <path id="SimHei-2d" d="M 2975 2125 
L 125 2125 
L 125 2525 
L 2975 2525 
L 2975 2125 
z
" transform="scale(0.015625)"/>
        <path id="SimHei-31" d="M 1400 3600 
Q 1075 3275 575 2975 
L 575 3450 
Q 1200 3875 1600 4450 
L 1900 4450 
L 1900 150 
L 1400 150 
L 1400 3600 
z
" transform="scale(0.015625)"/>
        <path id="SimHei-30" d="M 225 2537 
Q 250 3200 412 3587 
Q 575 3975 875 4225 
Q 1175 4475 1612 4475 
Q 2050 4475 2375 4112 
Q 2700 3750 2800 3200 
Q 2900 2650 2862 1937 
Q 2825 1225 2612 775 
Q 2400 325 1975 150 
Q 1550 -25 1125 187 
Q 700 400 525 750 
Q 350 1100 275 1487 
Q 200 1875 225 2537 
z
M 750 2687 
Q 675 2000 800 1462 
Q 925 925 1212 700 
Q 1500 475 1800 612 
Q 2100 750 2237 1162 
Q 2375 1575 2375 2062 
Q 2375 2550 2337 2950 
Q 2300 3350 2112 3675 
Q 1925 4000 1612 4012 
Q 1300 4025 1062 3700 
Q 825 3375 750 2687 
z
" transform="scale(0.015625)"/>
       </defs>
       <use xlink:href="#SimHei-2d"/>
       <use xlink:href="#SimHei-31" x="50"/>
       <use xlink:href="#SimHei-30" x="100"/>
      </g>
     </g>
    </g>
    <g id="ytick_2">
     <g id="line2d_7">
      <g>
       <use xlink:href="#m012adb96dd" x="59.797656" y="113.158465" style="stroke: #000000"/>
      </g>
     </g>
     <g id="text_2">
      <!-- 0 -->
      <g transform="translate(51.297656 116.595965) scale(0.1 -0.1)">
       <use xlink:href="#SimHei-30"/>
      </g>
     </g>
    </g>
    <g id="ytick_3">
     <g id="line2d_8">
      <g>
       <use xlink:href="#m012adb96dd" x="59.797656" y="76.827109" style="stroke: #000000"/>
      </g>
     </g>
     <g id="text_3">
      <!-- 10 -->
      <g transform="translate(46.297656 80.264609) scale(0.1 -0.1)">
       <use xlink:href="#SimHei-31"/>
       <use xlink:href="#SimHei-30" x="50"/>
      </g>
     </g>
    </g>
    <g id="ytick_4">
     <g id="line2d_9">
      <g>
       <use xlink:href="#m012adb96dd" x="59.797656" y="40.495754" style="stroke: #000000"/>
      </g>
     </g>
     <g id="text_4">
      <!-- 20 -->
      <g transform="translate(46.297656 43.933254) scale(0.1 -0.1)">
       <defs>
        <path id="SimHei-32" d="M 300 250 
Q 325 625 650 925 
Q 975 1225 1475 1862 
Q 1975 2500 2125 2850 
Q 2275 3200 2237 3450 
Q 2200 3700 2000 3862 
Q 1800 4025 1537 4000 
Q 1275 3975 1037 3800 
Q 800 3625 675 3275 
L 200 3350 
Q 400 3925 712 4187 
Q 1025 4450 1450 4475 
Q 1700 4500 1900 4462 
Q 2100 4425 2312 4287 
Q 2525 4150 2662 3875 
Q 2800 3600 2762 3212 
Q 2725 2825 2375 2287 
Q 2025 1750 1025 600 
L 2825 600 
L 2825 150 
L 300 150 
L 300 250 
z
" transform="scale(0.015625)"/>
       </defs>
       <use xlink:href="#SimHei-32"/>
       <use xlink:href="#SimHei-30" x="50"/>
      </g>
     </g>
    </g>
    <g id="text_5">
     <!-- 累计平均回报 -->
     <g transform="translate(35.922656 126.107812) rotate(-90) scale(0.11 -0.11)">
      <defs>
       <path id="SimHei-7d2f" d="M 5475 5000 
Q 5450 4600 5450 3975 
Q 5450 3350 5475 2950 
L 4675 2950 
Q 4850 2775 5075 2600 
Q 4800 2525 4237 2275 
Q 3675 2025 3262 1837 
Q 2850 1650 2400 1425 
Q 3850 1525 4650 1575 
Q 4425 1725 4200 1850 
Q 4375 2000 4500 2175 
Q 5125 1800 5900 1300 
Q 5750 1125 5575 900 
Q 5375 1075 5100 1250 
Q 4250 1175 3475 1125 
L 3475 50 
Q 3475 -350 3212 -462 
Q 2950 -575 2600 -600 
Q 2575 -375 2375 -50 
Q 2800 -75 2900 -25 
Q 3000 25 3000 125 
L 3000 1075 
Q 2400 1050 1987 1012 
Q 1575 975 850 875 
Q 775 1125 700 1350 
Q 1150 1400 1575 1512 
Q 2000 1625 3025 2125 
Q 1775 2025 1250 1925 
Q 1200 2200 1100 2375 
Q 1325 2375 1737 2537 
Q 2150 2700 2475 2950 
L 950 2950 
Q 975 3375 975 3975 
Q 975 4600 950 5000 
L 5475 5000 
z
M 2425 525 
Q 2200 400 1762 137 
Q 1325 -125 850 -425 
Q 700 -225 500 -25 
Q 850 125 1250 362 
Q 1650 600 2025 900 
Q 2150 725 2425 525 
z
M 2975 4100 
L 2975 4650 
L 1450 4650 
L 1450 4100 
L 2975 4100 
z
M 4975 4100 
L 4975 4650 
L 3450 4650 
L 3450 4100 
L 4975 4100 
z
M 4275 850 
Q 4750 650 5050 500 
L 5850 100 
Q 5675 -125 5575 -375 
Q 5150 -100 4775 100 
Q 4400 300 4050 450 
Q 4200 675 4275 850 
z
M 2975 3275 
L 2975 3750 
L 1450 3750 
L 1450 3275 
L 2975 3275 
z
M 4975 3275 
L 4975 3750 
L 3450 3750 
L 3450 3275 
L 4975 3275 
z
M 3700 2475 
Q 4200 2700 4575 2950 
L 3225 2950 
Q 2900 2750 2300 2425 
Q 3075 2450 3700 2475 
z
" transform="scale(0.015625)"/>
       <path id="SimHei-8ba1" d="M 3925 3100 
L 3925 4350 
Q 3925 4850 3900 5125 
L 4425 5125 
Q 4400 4800 4400 4550 
L 4400 3100 
L 5425 3100 
Q 5725 3100 6075 3125 
L 6075 2650 
Q 5700 2675 5450 2675 
L 4400 2675 
L 4400 175 
Q 4400 -125 4425 -550 
L 3900 -550 
Q 3925 -125 3925 150 
L 3925 2675 
L 2950 2675 
Q 2575 2675 2200 2650 
L 2200 3125 
Q 2575 3100 2900 3100 
L 3925 3100 
z
M 1775 3150 
Q 1750 2675 1750 2150 
L 1750 625 
Q 2175 1050 2425 1400 
Q 2575 1200 2775 1000 
L 2075 300 
Q 1750 -25 1450 -350 
Q 1275 -125 1125 50 
Q 1300 250 1275 650 
L 1275 2725 
Q 600 2725 275 2700 
L 275 3175 
Q 675 3150 825 3150 
L 1775 3150 
z
M 1150 5050 
Q 1475 4725 2175 4000 
Q 1950 3800 1750 3625 
Q 1425 4100 775 4750 
Q 950 4875 1150 5050 
z
" transform="scale(0.015625)"/>
       <path id="SimHei-5e73" d="M 4525 4825 
Q 4900 4825 5450 4850 
L 5450 4375 
Q 4925 4400 4525 4400 
L 3475 4400 
L 3475 2025 
L 5000 2025 
Q 5550 2025 6025 2050 
L 6025 1575 
Q 5550 1600 5000 1600 
L 3475 1600 
L 3475 450 
Q 3475 -100 3500 -600 
L 2925 -600 
Q 2950 -100 2950 450 
L 2950 1600 
L 1125 1600 
Q 775 1600 375 1575 
L 375 2050 
Q 775 2025 1175 2025 
L 2950 2025 
L 2950 4400 
L 1775 4400 
Q 1400 4400 875 4375 
L 875 4850 
Q 1400 4825 1750 4825 
L 4525 4825 
z
M 3925 2600 
Q 4500 3300 4900 4125 
Q 5150 3950 5400 3825 
Q 4775 2850 4350 2300 
Q 4150 2475 3925 2600 
z
M 1975 2350 
Q 1600 3100 1050 3725 
Q 1250 3875 1450 4050 
Q 2075 3300 2450 2725 
Q 2150 2500 1975 2350 
z
" transform="scale(0.015625)"/>
       <path id="SimHei-5747" d="M 5775 275 
Q 5775 -325 5362 -450 
Q 4950 -575 4425 -600 
Q 4375 -275 4250 25 
Q 4950 -25 5125 62 
Q 5300 150 5300 500 
L 5375 3700 
L 3550 3700 
Q 3425 3375 3262 3037 
Q 3100 2700 2925 2400 
Q 2675 2550 2475 2625 
Q 3150 3625 3500 5200 
Q 3800 5100 4075 5025 
Q 3975 4875 3875 4650 
Q 3775 4425 3675 4125 
L 5900 4125 
L 5775 275 
z
M 1250 3625 
L 1250 4375 
Q 1250 4775 1225 5100 
L 1775 5100 
Q 1750 4725 1750 4375 
L 1750 3625 
L 1900 3625 
Q 2200 3625 2525 3650 
L 2525 3150 
Q 2200 3175 1900 3175 
L 1750 3175 
L 1750 1100 
L 2500 1375 
Q 2475 1125 2525 900 
Q 1225 475 962 362 
Q 700 250 475 150 
Q 375 475 250 750 
Q 575 800 800 850 
Q 1025 900 1250 975 
L 1250 3175 
L 1125 3175 
Q 850 3175 400 3150 
L 400 3650 
Q 850 3625 1100 3625 
L 1250 3625 
z
M 4950 1625 
Q 4675 1425 4137 1050 
Q 3600 675 3175 300 
Q 3000 575 2850 775 
Q 3350 1050 3762 1325 
Q 4175 1600 4775 2075 
Q 4825 1850 4950 1625 
z
M 3775 3150 
Q 4125 2800 4475 2300 
Q 4250 2125 4100 1975 
Q 3900 2325 3450 2825 
Q 3600 3000 3775 3150 
z
" transform="scale(0.015625)"/>
       <path id="SimHei-56de" d="M 5650 4850 
Q 5625 4125 5625 3450 
L 5625 950 
Q 5625 300 5650 -375 
L 5150 -375 
L 5150 100 
L 1175 100 
L 1175 -375 
L 700 -375 
Q 725 250 725 950 
L 725 3450 
Q 725 4100 700 4850 
L 5650 4850 
z
M 5150 500 
L 5150 4425 
L 1200 4425 
L 1200 500 
L 5150 500 
z
M 4325 3500 
Q 4300 3125 4300 2750 
L 4300 2175 
Q 4300 1850 4325 1400 
L 2025 1400 
Q 2050 1850 2050 2175 
L 2050 2800 
Q 2050 3150 2025 3500 
L 4325 3500 
z
M 3825 1825 
L 3825 3100 
L 2500 3100 
L 2500 1825 
L 3825 1825 
z
" transform="scale(0.015625)"/>
       <path id="SimHei-62a5" d="M 3375 -550 
L 2900 -550 
Q 2925 50 2925 700 
L 2925 3675 
Q 2925 4350 2900 4900 
L 5525 4900 
Q 5525 4175 5450 3550 
Q 5375 3250 5187 3137 
Q 5000 3025 4275 2975 
Q 4225 3275 4125 3475 
Q 4825 3450 4925 3575 
Q 5025 3700 5025 4475 
L 3375 4475 
L 3375 2775 
L 5725 2775 
Q 5700 2575 5500 1937 
Q 5300 1300 4950 725 
Q 5475 175 6200 -175 
Q 6025 -350 5800 -600 
Q 4950 -25 4675 350 
Q 4350 -100 3700 -600 
Q 3625 -400 3400 -200 
Q 3950 125 4325 650 
Q 3775 1525 3575 2375 
L 3375 2350 
L 3375 -550 
z
M 1425 3800 
Q 1425 4700 1400 5225 
L 1900 5225 
Q 1875 4750 1875 3800 
Q 2275 3800 2700 3825 
L 2700 3350 
Q 2150 3375 1875 3375 
L 1875 2350 
Q 2275 2475 2675 2625 
Q 2650 2425 2675 2175 
Q 2300 2075 1875 1925 
L 1875 175 
Q 1875 -250 1662 -387 
Q 1450 -525 900 -600 
Q 825 -300 650 -100 
Q 1100 -100 1262 -37 
Q 1425 25 1425 250 
L 1425 1775 
Q 600 1500 450 1400 
Q 325 1725 200 1950 
Q 650 2025 1425 2250 
L 1425 3375 
Q 825 3375 375 3350 
L 375 3825 
Q 750 3800 1425 3800 
z
M 4025 2350 
Q 4275 1525 4625 1100 
Q 4950 1600 5100 2350 
L 4025 2350 
z
" transform="scale(0.015625)"/>
      </defs>
      <use xlink:href="#SimHei-7d2f"/>
      <use xlink:href="#SimHei-8ba1" x="100"/>
      <use xlink:href="#SimHei-5e73" x="200"/>
      <use xlink:href="#SimHei-5747" x="300"/>
      <use xlink:href="#SimHei-56de" x="400"/>
      <use xlink:href="#SimHei-62a5" x="500"/>
     </g>
    </g>
   </g>
   <g id="line2d_10">
    <path d="M 59.797656 146.870911 
L 60.499932 156.759801 
L 61.202208 120.965854 
L 61.904484 96.14423 
L 62.606759 93.82983 
L 63.309035 105.402522 
L 64.011311 111.885719 
L 64.713587 113.125433 
L 65.415863 114.839512 
L 66.118138 113.644996 
L 66.820414 115.288001 
L 67.52269 98.978353 
L 68.224966 97.751642 
L 68.927242 96.757048 
L 69.629517 91.860323 
L 70.331793 85.662104 
L 71.034069 76.492245 
L 71.736345 76.771113 
L 72.438621 74.823734 
L 73.140896 74.739958 
L 73.843172 71.405662 
L 74.545448 70.26214 
L 75.95 67.365163 
L 76.652275 68.358258 
L 77.354551 66.689689 
L 78.056827 68.234923 
L 78.759103 69.45668 
L 79.461379 66.35018 
L 80.163654 64.659993 
L 80.86593 61.360508 
L 81.568206 59.392248 
L 82.270482 56.237702 
L 82.972758 57.574044 
L 83.675034 55.76266 
L 85.079585 54.295797 
L 85.781861 51.59128 
L 87.186413 47.306927 
L 87.888688 46.329789 
L 88.590964 47.594801 
L 89.29324 47.297442 
L 90.697792 44.154752 
L 91.400067 43.250228 
L 92.102343 43.041969 
L 92.804619 42.573264 
L 93.506895 43.255549 
L 94.209171 44.650682 
L 94.911446 44.313338 
L 95.613722 42.640299 
L 96.315998 42.041817 
L 97.018274 41.723279 
L 97.72055 42.781692 
L 98.422825 43.262942 
L 99.125101 44.180439 
L 100.529653 42.47761 
L 101.231929 42.824284 
L 101.934204 43.546503 
L 102.63648 44.632971 
L 103.338756 44.726276 
L 104.041032 45.689862 
L 104.743308 46.005295 
L 105.445583 45.327141 
L 106.147859 46.180745 
L 106.850135 44.85992 
L 107.552411 45.829032 
L 108.254687 44.857247 
L 108.956962 45.338835 
L 110.361514 44.196269 
L 111.766066 41.907804 
L 113.872893 44.339331 
L 114.575169 45.022696 
L 115.277445 44.182036 
L 115.97972 44.464827 
L 116.681996 44.074771 
L 118.086548 44.555708 
L 118.788824 44.987564 
L 119.491099 45.792228 
L 120.193375 45.11309 
L 120.895651 45.246349 
L 121.597927 44.892761 
L 122.300203 44.397281 
L 123.002478 44.933548 
L 123.704754 45.170794 
L 124.40703 44.898589 
L 125.109306 44.211405 
L 125.811582 44.732057 
L 126.513857 44.533443 
L 127.216133 44.744168 
L 127.918409 44.470385 
L 129.322961 44.464822 
L 130.025236 44.865051 
L 130.727512 43.951586 
L 131.429788 43.958454 
L 132.132064 44.171661 
L 132.83434 43.522342 
L 133.536615 42.563334 
L 134.238891 42.702937 
L 134.941167 42.480978 
L 135.643443 42.776421 
L 136.345719 42.582771 
L 137.047994 42.904885 
L 137.75027 41.88976 
L 138.452546 41.146081 
L 139.154822 40.894383 
L 139.857098 40.239463 
L 140.559373 40.305835 
L 141.261649 39.923786 
L 141.963925 40.158905 
L 142.666201 40.038118 
L 143.368477 40.35793 
L 144.773028 40.089714 
L 145.475304 40.522443 
L 146.17758 40.507705 
L 147.582131 40.068202 
L 148.284407 39.989736 
L 148.986683 40.054696 
L 150.391235 39.481947 
L 151.09351 38.866475 
L 151.795786 38.479088 
L 153.200338 38.509772 
L 153.902614 38.932239 
L 154.604889 38.505562 
L 155.307165 38.774507 
L 156.009441 38.413996 
L 156.711717 37.643343 
L 157.413993 38.002098 
L 158.116268 37.666519 
L 159.52082 37.489303 
L 160.223096 36.986268 
L 160.925372 37.329079 
L 162.329923 36.569613 
L 163.032199 36.601423 
L 163.734475 36.825252 
L 164.436751 36.23656 
L 165.139026 36.161067 
L 165.841302 36.231699 
L 167.245854 35.697101 
L 167.94813 35.753495 
L 168.650405 36.04651 
L 169.352681 35.726792 
L 170.054957 35.221149 
L 170.757233 35.081608 
L 171.459509 35.238592 
L 172.161785 35.09208 
L 173.566336 35.70274 
L 174.268612 35.279782 
L 175.673164 35.024828 
L 176.375439 35.287186 
L 177.077715 34.815934 
L 177.779991 34.870616 
L 179.886818 35.426879 
L 181.29137 35.18403 
L 181.993646 35.415416 
L 182.695922 35.323926 
L 183.398197 34.861951 
L 184.802749 34.56136 
L 185.505025 34.137702 
L 186.207301 34.025294 
L 187.611852 33.444627 
L 188.314128 33.127722 
L 189.016404 33.397775 
L 189.71868 33.325342 
L 191.123231 32.86106 
L 191.825507 33.094003 
L 194.63461 33.11304 
L 196.039162 32.802028 
L 197.443713 31.980429 
L 198.145989 31.928682 
L 198.848265 31.678459 
L 199.550541 31.800331 
L 200.955092 31.212394 
L 202.359644 31.322859 
L 203.06192 31.037959 
L 203.764196 31.115249 
L 204.466471 31.379037 
L 205.168747 30.99223 
L 206.573299 30.573442 
L 207.275575 30.568433 
L 207.97785 30.126416 
L 209.382402 30.067537 
L 210.084678 29.792873 
L 212.191505 29.455824 
L 213.596057 29.646938 
L 215.000608 29.715688 
L 215.702884 30.022522 
L 216.40516 30.029865 
L 217.107436 30.271009 
L 217.809712 30.059011 
L 219.214263 30.076985 
L 219.916539 30.301167 
L 221.321091 29.740705 
L 223.427918 30.659858 
L 224.130194 30.533472 
L 224.83247 30.547094 
L 226.237021 30.252974 
L 231.152952 30.390527 
L 232.557503 30.04254 
L 233.259779 30.271943 
L 233.962055 30.190261 
L 234.664331 30.543553 
L 235.366607 30.372221 
L 236.771158 30.892872 
L 238.17571 31.128143 
L 238.877986 31.415543 
L 239.580261 31.413718 
L 240.984813 31.89675 
L 242.389365 32.062196 
L 243.09164 32.0854 
L 243.793916 31.809509 
L 244.496192 31.848543 
L 245.198468 31.646458 
L 245.900744 31.666705 
L 247.305295 32.307284 
L 248.007571 32.090229 
L 249.412123 32.197743 
L 250.114398 32.432221 
L 250.816674 32.307586 
L 252.923502 32.978424 
L 254.328053 32.433116 
L 255.030329 32.622125 
L 255.732605 32.647735 
L 257.137157 33.131272 
L 257.839432 33.307273 
L 258.541708 32.915231 
L 259.243984 32.940086 
L 259.94626 32.846109 
L 260.648536 33.089266 
L 262.755363 33.177615 
L 263.457639 33.033051 
L 264.159915 33.247369 
L 264.86219 32.994884 
L 265.564466 32.884124 
L 266.969018 32.330756 
L 268.373569 32.444064 
L 269.778121 32.805625 
L 270.480397 32.633026 
L 271.182673 32.691544 
L 271.884948 32.895095 
L 272.587224 32.652559 
L 273.991776 32.907836 
L 275.396327 33.271922 
L 277.503155 33.125674 
L 278.907706 33.357583 
L 281.71681 32.698358 
L 282.419085 32.890574 
L 283.823637 33.057987 
L 285.228189 32.595757 
L 285.930464 32.564781 
L 286.63274 32.649975 
L 287.335016 32.876016 
L 288.037292 32.716501 
L 290.846395 33.420234 
L 292.250947 33.277816 
L 292.953222 33.289861 
L 295.762326 32.469345 
L 296.464601 32.445419 
L 297.166877 32.561202 
L 298.571429 32.518121 
L 299.273705 32.693278 
L 303.487359 32.797918 
L 304.891911 32.458505 
L 306.296463 32.28085 
L 306.998738 32.498163 
L 307.701014 32.349689 
L 308.40329 32.451718 
L 309.105566 32.246279 
L 311.212393 32.208052 
L 313.319221 31.900836 
L 314.021496 31.896974 
L 315.426048 31.492246 
L 316.8306 31.830712 
L 317.532875 31.678927 
L 318.235151 31.652047 
L 318.937427 31.801768 
L 319.639703 31.809945 
L 321.74653 32.239536 
L 322.448806 32.217837 
L 323.151082 32.078922 
L 323.853358 32.097194 
L 324.555633 31.941853 
L 325.960185 32.187991 
L 326.662461 32.030436 
L 327.364737 32.002438 
L 328.067012 31.841286 
L 328.769288 31.957967 
L 329.471564 31.890681 
L 330.17384 31.585814 
L 330.876116 31.537998 
L 332.280667 31.676381 
L 332.982943 31.383707 
L 333.685219 31.528507 
L 334.387495 31.32024 
L 335.08977 31.339408 
L 335.792046 31.228129 
L 337.196598 31.32559 
L 337.898874 31.169037 
L 340.707977 31.270473 
L 341.410253 31.388019 
L 343.51708 30.883052 
L 344.921632 31.059221 
L 346.326183 31.254804 
L 347.028459 31.368079 
L 347.730735 31.197685 
L 348.433011 31.297538 
L 349.135287 31.124803 
L 350.539838 30.986353 
L 351.94439 30.675688 
L 352.646666 30.840321 
L 353.348941 30.817944 
L 355.455769 30.381142 
L 358.264872 30.55829 
L 359.669424 30.40606 
L 363.883078 30.560785 
L 365.28763 30.302957 
L 365.989906 30.315649 
L 366.692182 30.18729 
L 368.799009 30.295798 
L 369.501285 30.430222 
L 370.905836 30.198183 
L 371.608112 30.329437 
L 375.821767 30.388616 
L 376.524043 30.529216 
L 377.226319 30.492926 
L 379.333146 30.62042 
L 385.653628 30.617541 
L 391.97411 31.450366 
L 392.676386 31.354769 
L 394.783214 31.445305 
L 396.187765 31.303227 
L 397.592317 31.438018 
L 398.294593 31.338233 
L 400.40142 31.581595 
L 401.805972 31.444103 
L 402.508247 31.5291 
L 403.210523 31.453267 
L 403.912799 31.560365 
L 405.317351 31.424826 
L 406.019626 31.503422 
L 406.721902 31.336057 
L 407.424178 31.474045 
L 408.126454 31.345678 
L 408.82873 31.445037 
L 410.233281 31.311797 
L 410.233281 31.311797 
" clip-path="url(#p8eb10e2f79)" style="fill: none; stroke: #ff7f0e; stroke-width: 1.8; stroke-linecap: square"/>
   </g>
   <g id="patch_3">
    <path d="M 59.797656 163.125 
L 59.797656 23.090625 
" style="fill: none; stroke: #000000; stroke-linejoin: miter; stroke-linecap: square"/>
   </g>
   <g id="patch_4">
    <path d="M 410.233281 163.125 
L 410.233281 23.090625 
" style="fill: none; stroke: #000000; stroke-linejoin: miter; stroke-linecap: square"/>
   </g>
   <g id="patch_5">
    <path d="M 59.797656 163.125 
L 410.233281 163.125 
" style="fill: none; stroke: #000000; stroke-linejoin: miter; stroke-linecap: square"/>
   </g>
   <g id="patch_6">
    <path d="M 59.797656 23.090625 
L 410.233281 23.090625 
" style="fill: none; stroke: #000000; stroke-linejoin: miter; stroke-linecap: square"/>
   </g>
   <g id="text_6">
    <!-- Expert 0 训练过程：回报 / 成本 / 弃电平滑曲线 -->
    <g transform="translate(100.015469 17.090625) scale(0.12 -0.12)">
     <defs>
      <path id="SimHei-45" d="M 2900 125 
L 350 125 
L 350 4400 
L 2775 4400 
L 2775 3925 
L 925 3925 
L 925 2600 
L 2625 2600 
L 2625 2125 
L 925 2125 
L 925 600 
L 2900 600 
L 2900 125 
z
" transform="scale(0.015625)"/>
      <path id="SimHei-78" d="M 2875 125 
L 2275 125 
L 1550 1200 
L 825 125 
L 225 125 
L 1250 1550 
L 300 2925 
L 900 2925 
L 1550 1875 
L 2200 2925 
L 2800 2925 
L 1850 1550 
L 2875 125 
z
" transform="scale(0.015625)"/>
      <path id="SimHei-70" d="M 2825 1525 
Q 2825 800 2475 425 
Q 2125 50 1625 50 
Q 1350 50 1150 162 
Q 950 275 800 500 
L 800 -800 
L 300 -800 
L 300 2925 
L 800 2925 
L 800 2550 
Q 950 2775 1150 2875 
Q 1350 2975 1625 2975 
Q 2125 2975 2475 2612 
Q 2825 2250 2825 1525 
z
M 2275 1525 
Q 2275 2000 2087 2262 
Q 1900 2525 1525 2525 
Q 1225 2525 1012 2262 
Q 800 2000 800 1525 
Q 800 1050 1012 775 
Q 1225 500 1525 500 
Q 1900 500 2087 775 
Q 2275 1050 2275 1525 
z
" transform="scale(0.015625)"/>
      <path id="SimHei-65" d="M 2850 1075 
Q 2800 625 2450 350 
Q 2100 75 1625 75 
Q 1025 75 637 462 
Q 250 850 250 1525 
Q 250 2200 637 2587 
Q 1025 2975 1625 2975 
Q 2150 2975 2487 2637 
Q 2825 2300 2825 1525 
L 800 1525 
Q 800 975 1037 750 
Q 1275 525 1625 525 
Q 1900 525 2075 662 
Q 2250 800 2300 1075 
L 2850 1075 
z
M 2250 1925 
Q 2200 2275 2025 2412 
Q 1850 2550 1575 2550 
Q 1325 2550 1125 2412 
Q 925 2275 825 1925 
L 2250 1925 
z
" transform="scale(0.015625)"/>
      <path id="SimHei-72" d="M 2500 2425 
Q 2025 2500 1700 2287 
Q 1375 2075 1150 1550 
L 1150 125 
L 650 125 
L 650 2925 
L 1150 2925 
L 1150 2200 
Q 1375 2600 1712 2787 
Q 2050 2975 2500 2975 
L 2500 2425 
z
" transform="scale(0.015625)"/>
      <path id="SimHei-74" d="M 2750 200 
Q 2625 150 2462 112 
Q 2300 75 2025 75 
Q 1575 75 1300 325 
Q 1025 575 1025 1025 
L 1025 2525 
L 175 2525 
L 175 2925 
L 1025 2925 
L 1025 3900 
L 1525 3900 
L 1525 2925 
L 2550 2925 
L 2550 2525 
L 1525 2525 
L 1525 1000 
Q 1525 800 1625 662 
Q 1725 525 2000 525 
Q 2275 525 2450 575 
Q 2625 625 2750 700 
L 2750 200 
z
" transform="scale(0.015625)"/>
      <path id="SimHei-20" transform="scale(0.015625)"/>
      <path id="SimHei-8bad" d="M 1650 3300 
Q 1625 2725 1625 2225 
L 1625 675 
Q 1950 1125 2050 1275 
Q 2175 1125 2350 900 
Q 2025 500 1800 212 
Q 1575 -75 1325 -425 
Q 1150 -200 950 -50 
Q 1150 225 1150 625 
L 1150 2875 
L 975 2875 
Q 600 2875 300 2850 
L 300 3325 
Q 600 3300 975 3300 
L 1650 3300 
z
M 3425 4600 
Q 3375 4350 3387 3362 
Q 3400 2375 3337 1887 
Q 3275 1400 3087 837 
Q 2900 275 2450 -375 
Q 2225 -200 1975 -125 
Q 2550 500 2762 1362 
Q 2975 2225 2950 3337 
Q 2925 4450 2900 4675 
Q 3150 4625 3425 4600 
z
M 5875 4700 
Q 5850 4500 5850 3975 
L 5850 625 
Q 5850 125 5875 -400 
L 5400 -400 
Q 5425 125 5425 600 
L 5425 3975 
Q 5425 4500 5400 4700 
L 5875 4700 
z
M 4600 175 
L 4125 175 
Q 4150 725 4150 1150 
L 4150 3600 
Q 4150 4050 4125 4350 
L 4600 4350 
L 4600 175 
z
M 1000 5150 
Q 1650 4600 2100 4100 
Q 1875 3925 1750 3750 
Q 1050 4550 700 4800 
Q 850 4950 1000 5150 
z
" transform="scale(0.015625)"/>
      <path id="SimHei-7ec3" d="M 3300 3825 
Q 2950 3825 2400 3800 
L 2400 4250 
Q 2950 4225 3325 4225 
L 3625 4225 
Q 3875 4950 3900 5175 
Q 4200 5025 4450 4925 
Q 4350 4825 4262 4612 
Q 4175 4400 4100 4225 
L 5025 4225 
Q 5425 4225 5900 4250 
L 5900 3800 
Q 5550 3825 5025 3825 
L 3975 3825 
Q 3850 3525 3700 3150 
L 4675 3150 
Q 4650 2875 4650 2475 
L 4650 1975 
L 4975 1975 
Q 5350 1975 5800 2000 
L 5800 1550 
Q 5350 1575 4975 1575 
L 4650 1575 
L 4650 125 
Q 4650 -300 4462 -425 
Q 4275 -550 3650 -625 
Q 3625 -375 3450 -100 
Q 4075 -125 4137 -25 
Q 4200 75 4200 325 
L 4200 1575 
L 3425 1575 
Q 3250 1575 3100 1562 
Q 2950 1550 2750 1475 
Q 2650 1725 2550 1950 
Q 2800 2025 3125 2775 
Q 2950 2775 2450 2750 
L 2450 3175 
Q 3025 3150 3250 3150 
Q 3400 3525 3500 3825 
L 3300 3825 
z
M 1650 2950 
Q 1875 3300 2100 3900 
Q 2325 3725 2575 3600 
Q 2325 3275 2025 2750 
Q 1725 2225 1075 1350 
Q 1300 1400 2400 1575 
Q 2350 1300 2375 1150 
Q 1825 1100 650 825 
Q 525 1075 400 1275 
Q 625 1400 887 1737 
Q 1150 2075 1450 2575 
Q 1300 2600 1012 2562 
Q 725 2525 450 2450 
Q 350 2675 250 2925 
Q 500 3075 812 3725 
Q 1125 4375 1325 5000 
Q 1600 4825 1850 4750 
Q 1600 4375 1387 3962 
Q 1175 3550 800 2925 
Q 1375 2925 1650 2950 
z
M 2425 700 
Q 2400 425 2425 250 
Q 2000 150 1462 -25 
Q 925 -200 475 -425 
Q 400 -150 300 125 
Q 950 275 1187 337 
Q 1425 400 2425 700 
z
M 3725 875 
Q 3650 800 3287 400 
Q 2925 0 2475 -475 
Q 2300 -250 2150 -125 
Q 2425 100 2750 462 
Q 3075 825 3325 1225 
Q 3475 1050 3725 875 
z
M 5275 1225 
Q 5925 375 6200 -100 
Q 5950 -200 5750 -375 
Q 5475 175 4900 950 
Q 5075 1050 5275 1225 
z
M 4200 1975 
L 4200 2775 
L 3575 2775 
Q 3325 2250 3175 1975 
L 4200 1975 
z
" transform="scale(0.015625)"/>
      <path id="SimHei-8fc7" d="M 250 -200 
Q 1025 475 1275 650 
L 1275 2475 
Q 675 2475 400 2450 
L 400 2950 
Q 625 2900 1325 2900 
L 1800 2900 
Q 1775 2525 1775 2150 
L 1775 600 
Q 2500 -25 3912 -37 
Q 5325 -50 6150 75 
Q 6000 -175 5925 -550 
L 4425 -550 
Q 3800 -550 3275 -512 
Q 2750 -475 2387 -300 
Q 2025 -125 1750 75 
Q 1475 275 1237 37 
Q 1000 -200 700 -625 
Q 550 -375 250 -200 
z
M 3625 850 
Q 4200 825 4350 875 
Q 4500 925 4500 1300 
L 4500 3575 
L 2875 3575 
Q 2600 3575 2275 3550 
L 2275 4025 
Q 2600 4000 3075 4000 
L 4500 4000 
Q 4500 4650 4450 5125 
L 5025 5125 
Q 5000 4800 5000 4000 
Q 5525 4000 5950 4025 
L 5950 3550 
Q 5550 3575 5000 3575 
L 5000 1100 
Q 5000 525 4662 412 
Q 4325 300 3825 275 
Q 3775 550 3625 850 
z
M 3125 1600 
Q 2900 2275 2575 2850 
Q 2800 2950 3050 3125 
Q 3500 2225 3625 1875 
Q 3450 1775 3125 1600 
z
M 1150 4975 
Q 1400 4675 1925 3875 
Q 1675 3725 1450 3550 
Q 950 4400 700 4625 
Q 925 4750 1150 4975 
z
" transform="scale(0.015625)"/>
      <path id="SimHei-7a0b" d="M 5825 4975 
Q 5800 4425 5800 3975 
Q 5800 3550 5825 3125 
L 3025 3125 
Q 3050 3600 3050 4025 
Q 3050 4450 3025 4975 
L 5825 4975 
z
M 400 4825 
Q 825 4875 1362 4987 
Q 1900 5100 2275 5275 
Q 2450 4950 2625 4725 
Q 2450 4750 2262 4712 
Q 2075 4675 1850 4650 
L 1850 3425 
Q 2200 3425 2600 3450 
L 2600 2975 
Q 2200 3000 1850 3000 
L 1850 800 
Q 1850 250 1875 -675 
L 1375 -675 
Q 1400 250 1400 775 
L 1400 1925 
Q 1050 1225 625 600 
Q 450 850 225 1050 
Q 575 1400 850 1850 
Q 1125 2300 1350 3000 
Q 725 3000 425 2975 
L 425 3450 
Q 850 3425 1050 3425 
L 1400 3425 
L 1400 4550 
Q 1075 4475 575 4400 
Q 500 4625 400 4825 
z
M 5100 2500 
Q 5500 2500 5950 2525 
L 5950 2075 
Q 5500 2100 5100 2100 
L 4625 2100 
L 4625 1300 
L 4900 1300 
Q 5275 1300 5775 1325 
L 5775 850 
Q 5275 875 4975 875 
L 4625 875 
L 4625 0 
L 5225 0 
Q 5675 0 6175 25 
L 6175 -450 
Q 5775 -425 5225 -425 
L 3550 -425 
Q 3000 -425 2600 -475 
L 2600 25 
Q 3000 0 3550 0 
L 4150 0 
L 4150 875 
L 3800 875 
Q 3400 875 3050 825 
L 3050 1325 
Q 3400 1300 3800 1300 
L 4150 1300 
L 4150 2100 
L 3750 2100 
Q 3300 2100 2900 2075 
L 2900 2525 
Q 3300 2500 3750 2500 
L 5100 2500 
z
M 5275 3575 
L 5275 4550 
L 3500 4550 
L 3500 3575 
L 5275 3575 
z
M 2300 2400 
Q 2550 2025 2825 1525 
Q 2675 1425 2425 1225 
Q 2175 1775 1925 2125 
Q 2075 2250 2300 2400 
z
" transform="scale(0.015625)"/>
      <path id="SimHei-ff1a" d="M 1200 2425 
L 2025 2425 
L 2025 1600 
L 1200 1600 
L 1200 2425 
z
M 1200 825 
L 2025 825 
L 2025 0 
L 1200 0 
L 1200 825 
z
" transform="scale(0.015625)"/>
      <path id="SimHei-2f" d="M 3000 4550 
L 350 -175 
L 100 -25 
L 2750 4700 
L 3000 4550 
z
" transform="scale(0.015625)"/>
      <path id="SimHei-6210" d="M 3500 4000 
Q 3475 4725 3450 5225 
Q 3750 5200 4025 5175 
Q 3975 4850 4000 4000 
L 4725 4000 
Q 5250 4000 5875 4025 
L 5875 3550 
Q 5225 3575 4725 3575 
L 4025 3575 
Q 4050 2625 4350 1500 
Q 4825 2225 5100 3175 
Q 5350 2975 5675 2825 
Q 5475 2600 5225 2075 
Q 4975 1550 4575 975 
Q 4800 525 5062 262 
Q 5325 0 5425 37 
Q 5525 75 5625 900 
Q 5875 700 6150 600 
Q 5975 -425 5762 -537 
Q 5550 -650 5250 -537 
Q 4950 -425 4687 -112 
Q 4425 200 4250 575 
Q 3650 -75 2725 -650 
Q 2600 -425 2350 -250 
Q 2850 -25 3312 350 
Q 3775 725 4000 1050 
Q 3825 1525 3700 2212 
Q 3575 2900 3550 3575 
L 1400 3575 
L 1400 2700 
L 3025 2700 
Q 2975 2250 2950 1775 
L 2875 775 
Q 2850 300 2612 200 
Q 2375 100 1800 50 
Q 1775 275 1600 600 
Q 2225 575 2325 675 
Q 2425 775 2450 1250 
L 2500 2250 
L 1400 2250 
Q 1400 1275 1250 625 
Q 1100 -25 700 -575 
Q 425 -375 200 -300 
Q 525 100 650 462 
Q 775 825 837 1250 
Q 900 1675 912 2450 
Q 925 3225 900 4000 
L 3500 4000 
z
M 4750 5225 
Q 5250 4825 5625 4425 
Q 5400 4250 5225 4075 
Q 4925 4475 4425 4900 
Q 4600 5050 4750 5225 
z
" transform="scale(0.015625)"/>
      <path id="SimHei-672c" d="M 2950 3925 
L 2950 4425 
Q 2950 4825 2925 5175 
L 3475 5175 
Q 3450 4900 3450 4450 
L 3450 3925 
L 4850 3925 
Q 5275 3925 5850 3950 
L 5850 3475 
Q 5300 3500 4875 3500 
L 3850 3500 
Q 4200 2350 4862 1687 
Q 5525 1025 6075 800 
Q 5850 625 5650 325 
Q 4800 900 4262 1637 
Q 3725 2375 3450 3350 
L 3450 1000 
L 3775 1000 
Q 4175 1000 4600 1025 
L 4600 550 
Q 4175 575 3750 575 
L 3450 575 
Q 3450 0 3475 -600 
L 2925 -600 
Q 2950 0 2950 575 
L 2625 575 
Q 2225 575 1825 550 
L 1825 1025 
Q 2225 1000 2625 1000 
L 2950 1000 
L 2950 3300 
Q 2550 2275 2062 1575 
Q 1575 875 750 175 
Q 550 450 275 575 
Q 1100 1075 1650 1825 
Q 2200 2575 2525 3500 
L 1425 3500 
Q 1025 3500 575 3475 
L 575 3950 
Q 1025 3925 1400 3925 
L 2950 3925 
z
" transform="scale(0.015625)"/>
      <path id="SimHei-5f03" d="M 4975 2450 
Q 4700 2750 4550 2875 
Q 3575 2800 2650 2712 
Q 1725 2625 1250 2525 
L 1125 3075 
Q 1525 3125 1875 3412 
Q 2225 3700 2525 4025 
L 1425 4025 
Q 875 4025 400 4000 
L 400 4450 
Q 950 4425 1400 4425 
L 3000 4425 
Q 2975 4700 2800 5100 
Q 3200 5175 3375 5225 
Q 3475 4800 3550 4425 
L 4950 4425 
Q 5500 4425 5925 4450 
L 5925 4000 
Q 5500 4025 4975 4025 
L 3075 4025 
Q 2800 3700 2075 3025 
Q 3700 3150 4300 3225 
Q 4150 3350 3900 3600 
L 4250 3850 
Q 4875 3250 5375 2775 
Q 5175 2625 4975 2450 
z
M 625 -225 
Q 1400 -25 1712 387 
Q 2025 800 2025 1225 
Q 750 1225 325 1200 
L 325 1675 
Q 750 1650 2050 1650 
Q 2050 2025 2025 2400 
Q 2350 2350 2650 2325 
Q 2550 2025 2525 1650 
L 4050 1650 
Q 4050 2025 4025 2400 
L 4550 2400 
Q 4525 2000 4525 1650 
Q 5525 1650 6050 1675 
L 6050 1200 
Q 5525 1225 4525 1225 
Q 4525 -50 4550 -550 
L 4025 -550 
Q 4050 0 4050 1225 
L 2500 1225 
Q 2425 575 2150 175 
Q 1875 -225 1075 -650 
Q 900 -325 625 -225 
z
" transform="scale(0.015625)"/>
      <path id="SimHei-7535" d="M 6150 325 
Q 5975 -250 5825 -412 
Q 5675 -575 5325 -575 
L 3375 -575 
Q 2700 -600 2675 100 
L 2675 975 
L 1225 975 
L 1225 500 
L 650 500 
Q 675 750 675 2225 
Q 675 3700 650 4150 
L 2675 4150 
Q 2675 4825 2650 5200 
L 3200 5200 
Q 3175 4875 3175 4150 
L 5200 4150 
Q 5175 3775 5175 2600 
Q 5175 1450 5200 975 
L 3175 975 
L 3175 300 
Q 3175 -150 3650 -150 
L 4975 -150 
Q 5375 -150 5450 25 
Q 5525 200 5575 575 
Q 5825 400 6150 325 
z
M 4675 1400 
L 4675 2400 
L 3175 2400 
L 3175 1400 
L 4675 1400 
z
M 2675 1400 
L 2675 2400 
L 1225 2400 
L 1225 1400 
L 2675 1400 
z
M 4675 2800 
L 4675 3725 
L 3175 3725 
L 3175 2800 
L 4675 2800 
z
M 2675 2800 
L 2675 3725 
L 1225 3725 
L 1225 2800 
L 2675 2800 
z
" transform="scale(0.015625)"/>
      <path id="SimHei-6ed1" d="M 5350 5100 
Q 5325 4725 5325 4400 
L 5325 3325 
L 6125 3325 
Q 6100 3050 6100 2775 
Q 6100 2500 6125 2275 
L 5650 2275 
L 5650 2925 
L 2150 2925 
L 2150 2275 
L 1700 2275 
Q 1725 2550 1725 2800 
Q 1725 3075 1700 3325 
L 2475 3325 
L 2475 4375 
Q 2475 4675 2450 5100 
L 5350 5100 
z
M 5275 2500 
Q 5250 2150 5250 1725 
L 5250 -75 
Q 5250 -375 5025 -475 
Q 4800 -575 4375 -625 
Q 4375 -400 4225 -75 
Q 4775 -175 4775 75 
L 4775 425 
L 3000 425 
L 3000 -625 
L 2525 -625 
Q 2550 -125 2550 225 
L 2550 1750 
Q 2550 2125 2525 2500 
L 5275 2500 
z
M 4300 4225 
L 4300 3325 
L 4900 3325 
L 4900 4700 
L 2925 4700 
L 2925 4225 
L 4300 4225 
z
M 1675 1900 
Q 1525 1675 1375 1262 
Q 1225 850 1062 437 
Q 900 25 775 -300 
Q 500 -100 200 50 
Q 375 250 525 525 
Q 675 800 875 1275 
Q 1075 1750 1175 2125 
Q 1375 2000 1675 1900 
z
M 4775 1625 
L 4775 2125 
L 3000 2125 
L 3000 1625 
L 4775 1625 
z
M 4775 800 
L 4775 1250 
L 3000 1250 
L 3000 800 
L 4775 800 
z
M 950 5125 
Q 1100 5025 1362 4825 
Q 1625 4625 1850 4450 
Q 1700 4275 1550 4000 
Q 1325 4225 1112 4400 
Q 900 4575 650 4725 
Q 825 4950 950 5125 
z
M 1000 3375 
Q 1225 3225 1475 3025 
Q 1325 2875 1175 2625 
Q 950 2800 750 2950 
Q 550 3100 250 3275 
L 550 3675 
L 1000 3375 
z
M 3900 3325 
L 3900 3825 
L 2925 3825 
L 2925 3325 
L 3900 3325 
z
" transform="scale(0.015625)"/>
      <path id="SimHei-66f2" d="M 5825 500 
Q 5825 -200 5850 -550 
L 5275 -550 
L 5275 -50 
L 1150 -50 
L 1150 -550 
L 575 -550 
Q 600 125 600 550 
L 600 2775 
Q 600 3425 575 3900 
L 2150 3900 
L 2150 4450 
Q 2125 4850 2125 5150 
L 2700 5150 
Q 2650 4825 2650 4475 
L 2650 3900 
L 3700 3900 
L 3700 4525 
Q 3700 4850 3675 5175 
L 4250 5175 
Q 4225 4875 4225 4550 
L 4225 3900 
L 5850 3900 
Q 5825 3525 5825 2750 
L 5825 500 
z
M 3700 325 
L 3700 1875 
L 2650 1875 
L 2650 325 
L 3700 325 
z
M 5275 325 
L 5275 1875 
L 4225 1875 
L 4225 325 
L 5275 325 
z
M 2150 325 
L 2150 1875 
L 1150 1875 
L 1150 325 
L 2150 325 
z
M 3700 2250 
L 3700 3525 
L 2650 3525 
L 2650 2250 
L 3700 2250 
z
M 5275 2250 
L 5275 3525 
L 4225 3525 
L 4225 2250 
L 5275 2250 
z
M 2150 2250 
L 2150 3525 
L 1150 3525 
L 1150 2250 
L 2150 2250 
z
" transform="scale(0.015625)"/>
      <path id="SimHei-7ebf" d="M 3450 4300 
Q 3450 4675 3375 5125 
Q 3700 5100 4050 5050 
Q 3975 4900 3950 4562 
Q 3925 4225 3950 3600 
L 4800 3750 
Q 5225 3850 5650 3975 
L 5750 3500 
Q 5325 3450 4875 3375 
L 3975 3200 
Q 3975 2800 4025 2500 
L 5000 2675 
Q 5500 2775 5950 2925 
L 6025 2450 
Q 5575 2375 5075 2275 
L 4100 2100 
Q 4150 1600 4350 1175 
Q 4575 1350 4787 1575 
Q 5000 1800 5175 2075 
Q 5550 1775 5750 1675 
Q 5425 1525 5237 1337 
Q 5050 1150 4625 750 
Q 4925 250 5162 112 
Q 5400 -25 5500 100 
Q 5600 225 5675 625 
Q 5900 450 6200 350 
Q 5775 -750 5275 -537 
Q 4775 -325 4225 450 
Q 3875 175 3537 -62 
Q 3200 -300 2700 -550 
Q 2575 -300 2325 -100 
Q 2825 75 3175 275 
Q 3525 475 3975 850 
Q 3750 1350 3650 2025 
Q 2900 1900 2600 1800 
L 2525 2275 
Q 2825 2275 3550 2425 
Q 3500 2825 3500 3100 
Q 2825 2950 2575 2875 
L 2475 3350 
Q 2725 3350 3450 3500 
L 3450 4300 
z
M 1950 4875 
Q 1700 4650 1462 4237 
Q 1225 3825 825 3225 
Q 1425 3250 1650 3250 
Q 1875 3625 2050 4075 
Q 2300 3900 2600 3800 
Q 2350 3550 2087 3125 
Q 1825 2700 1175 1675 
Q 1850 1725 2375 1775 
Q 2300 1525 2300 1350 
Q 2125 1350 1525 1287 
Q 925 1225 550 1125 
Q 525 1375 400 1650 
Q 700 1725 950 2050 
Q 1200 2375 1475 2875 
Q 650 2825 425 2675 
Q 350 2950 200 3225 
Q 525 3450 825 3962 
Q 1125 4475 1375 5150 
Q 1625 4975 1950 4875 
z
M 2575 875 
Q 2550 600 2575 450 
Q 1950 325 1450 200 
Q 950 75 525 -75 
Q 450 200 250 475 
Q 950 550 1325 612 
Q 1700 675 2575 875 
z
M 4850 4025 
Q 4675 4300 4375 4675 
L 4775 4875 
Q 4875 4750 5275 4275 
Q 5025 4175 4850 4025 
z
" transform="scale(0.015625)"/>
     </defs>
     <use xlink:href="#SimHei-45"/>
     <use xlink:href="#SimHei-78" x="50"/>
     <use xlink:href="#SimHei-70" x="100"/>
     <use xlink:href="#SimHei-65" x="150"/>
     <use xlink:href="#SimHei-72" x="200"/>
     <use xlink:href="#SimHei-74" x="250"/>
     <use xlink:href="#SimHei-20" x="300"/>
     <use xlink:href="#SimHei-30" x="350"/>
     <use xlink:href="#SimHei-20" x="400"/>
     <use xlink:href="#SimHei-8bad" x="450"/>
     <use xlink:href="#SimHei-7ec3" x="550"/>
     <use xlink:href="#SimHei-8fc7" x="650"/>
     <use xlink:href="#SimHei-7a0b" x="750"/>
     <use xlink:href="#SimHei-ff1a" x="850"/>
     <use xlink:href="#SimHei-56de" x="950"/>
     <use xlink:href="#SimHei-62a5" x="1050"/>
     <use xlink:href="#SimHei-20" x="1150"/>
     <use xlink:href="#SimHei-2f" x="1200"/>
     <use xlink:href="#SimHei-20" x="1250"/>
     <use xlink:href="#SimHei-6210" x="1300"/>
     <use xlink:href="#SimHei-672c" x="1400"/>
     <use xlink:href="#SimHei-20" x="1500"/>
     <use xlink:href="#SimHei-2f" x="1550"/>
     <use xlink:href="#SimHei-20" x="1600"/>
     <use xlink:href="#SimHei-5f03" x="1650"/>
     <use xlink:href="#SimHei-7535" x="1750"/>
     <use xlink:href="#SimHei-5e73" x="1850"/>
     <use xlink:href="#SimHei-6ed1" x="1950"/>
     <use xlink:href="#SimHei-66f2" x="2050"/>
     <use xlink:href="#SimHei-7ebf" x="2150"/>
    </g>
   </g>
  </g>
  <g id="axes_2">
   <g id="patch_7">
    <path d="M 59.797656 313.959375 
L 410.233281 313.959375 
L 410.233281 173.925 
L 59.797656 173.925 
z
" style="fill: #ffffff"/>
   </g>
   <g id="matplotlib.axis_3">
    <g id="xtick_6">
     <g id="line2d_11">
      <g>
       <use xlink:href="#m75fd05a082" x="129.322961" y="313.959375" style="stroke: #000000"/>
      </g>
     </g>
    </g>
    <g id="xtick_7">
     <g id="line2d_12">
      <g>
       <use xlink:href="#m75fd05a082" x="199.550541" y="313.959375" style="stroke: #000000"/>
      </g>
     </g>
    </g>
    <g id="xtick_8">
     <g id="line2d_13">
      <g>
       <use xlink:href="#m75fd05a082" x="269.778121" y="313.959375" style="stroke: #000000"/>
      </g>
     </g>
    </g>
    <g id="xtick_9">
     <g id="line2d_14">
      <g>
       <use xlink:href="#m75fd05a082" x="340.005701" y="313.959375" style="stroke: #000000"/>
      </g>
     </g>
    </g>
    <g id="xtick_10">
     <g id="line2d_15">
      <g>
       <use xlink:href="#m75fd05a082" x="410.233281" y="313.959375" style="stroke: #000000"/>
      </g>
     </g>
    </g>
   </g>
   <g id="matplotlib.axis_4">
    <g id="ytick_5">
     <g id="line2d_16">
      <g>
       <use xlink:href="#m012adb96dd" x="59.797656" y="292.154346" style="stroke: #000000"/>
      </g>
     </g>
     <g id="text_7">
      <!-- -300000 -->
      <g transform="translate(21.297656 295.591846) scale(0.1 -0.1)">
       <defs>
        <path id="SimHei-33" d="M 250 1225 
L 700 1300 
Q 800 975 1025 762 
Q 1250 550 1587 562 
Q 1925 575 2125 837 
Q 2325 1100 2300 1437 
Q 2275 1775 2037 1962 
Q 1800 2150 1275 2225 
L 1275 2550 
Q 1800 2600 2037 2825 
Q 2275 3050 2250 3412 
Q 2225 3775 1925 3937 
Q 1625 4100 1287 3975 
Q 950 3850 750 3275 
L 300 3350 
Q 450 3800 712 4100 
Q 975 4400 1425 4450 
Q 1875 4500 2212 4337 
Q 2550 4175 2687 3837 
Q 2825 3500 2725 3100 
Q 2625 2700 2150 2400 
Q 2500 2250 2687 1950 
Q 2875 1650 2812 1162 
Q 2750 675 2375 375 
Q 2000 75 1525 87 
Q 1050 100 700 387 
Q 350 675 250 1225 
z
" transform="scale(0.015625)"/>
       </defs>
       <use xlink:href="#SimHei-2d"/>
       <use xlink:href="#SimHei-33" x="50"/>
       <use xlink:href="#SimHei-30" x="100"/>
       <use xlink:href="#SimHei-30" x="150"/>
       <use xlink:href="#SimHei-30" x="200"/>
       <use xlink:href="#SimHei-30" x="250"/>
       <use xlink:href="#SimHei-30" x="300"/>
      </g>
     </g>
    </g>
    <g id="ytick_6">
     <g id="line2d_17">
      <g>
       <use xlink:href="#m012adb96dd" x="59.797656" y="261.833844" style="stroke: #000000"/>
      </g>
     </g>
     <g id="text_8">
      <!-- -200000 -->
      <g transform="translate(21.297656 265.271344) scale(0.1 -0.1)">
       <use xlink:href="#SimHei-2d"/>
       <use xlink:href="#SimHei-32" x="50"/>
       <use xlink:href="#SimHei-30" x="100"/>
       <use xlink:href="#SimHei-30" x="150"/>
       <use xlink:href="#SimHei-30" x="200"/>
       <use xlink:href="#SimHei-30" x="250"/>
       <use xlink:href="#SimHei-30" x="300"/>
      </g>
     </g>
    </g>
    <g id="ytick_7">
     <g id="line2d_18">
      <g>
       <use xlink:href="#m012adb96dd" x="59.797656" y="231.513342" style="stroke: #000000"/>
      </g>
     </g>
     <g id="text_9">
      <!-- -100000 -->
      <g transform="translate(21.297656 234.950842) scale(0.1 -0.1)">
       <use xlink:href="#SimHei-2d"/>
       <use xlink:href="#SimHei-31" x="50"/>
       <use xlink:href="#SimHei-30" x="100"/>
       <use xlink:href="#SimHei-30" x="150"/>
       <use xlink:href="#SimHei-30" x="200"/>
       <use xlink:href="#SimHei-30" x="250"/>
       <use xlink:href="#SimHei-30" x="300"/>
      </g>
     </g>
    </g>
    <g id="ytick_8">
     <g id="line2d_19">
      <g>
       <use xlink:href="#m012adb96dd" x="59.797656" y="201.19284" style="stroke: #000000"/>
      </g>
     </g>
     <g id="text_10">
      <!-- 0 -->
      <g transform="translate(51.297656 204.63034) scale(0.1 -0.1)">
       <use xlink:href="#SimHei-30"/>
      </g>
     </g>
    </g>
    <g id="text_11">
     <!-- 累计平均成本 (元) -->
     <g transform="translate(15.922656 290.692187) rotate(-90) scale(0.11 -0.11)">
      <defs>
       <path id="SimHei-28" d="M 2975 -200 
L 2700 -475 
Q 2075 125 1762 775 
Q 1450 1425 1450 2250 
Q 1450 3075 1762 3725 
Q 2075 4375 2700 5000 
L 2975 4725 
Q 2400 4175 2112 3587 
Q 1825 3000 1825 2250 
Q 1825 1500 2112 912 
Q 2400 325 2975 -200 
z
" transform="scale(0.015625)"/>
       <path id="SimHei-5143" d="M 4900 3175 
Q 5200 3175 5650 3200 
L 5650 2675 
Q 5200 2700 4900 2700 
L 4075 2700 
L 4075 425 
Q 4075 75 4450 75 
L 5175 75 
Q 5425 75 5525 775 
Q 5800 600 6075 550 
Q 5950 -325 5300 -375 
L 4150 -375 
Q 3575 -375 3575 225 
L 3575 2700 
L 2675 2700 
Q 2775 400 900 -600 
Q 725 -375 400 -175 
Q 2250 500 2150 2700 
L 1500 2700 
Q 1125 2700 650 2675 
L 650 3200 
Q 1125 3175 1500 3175 
L 4900 3175 
z
M 4450 4775 
Q 4675 4775 5150 4800 
L 5150 4325 
Q 4700 4350 4450 4350 
L 1875 4350 
Q 1575 4350 1200 4325 
L 1200 4800 
Q 1575 4775 1850 4775 
L 4450 4775 
z
" transform="scale(0.015625)"/>
       <path id="SimHei-29" d="M 1675 2250 
Q 1675 1425 1362 775 
Q 1050 125 425 -475 
L 150 -200 
Q 725 325 1012 912 
Q 1300 1500 1300 2250 
Q 1300 3000 1012 3587 
Q 725 4175 150 4725 
L 425 5000 
Q 1050 4375 1362 3725 
Q 1675 3075 1675 2250 
z
" transform="scale(0.015625)"/>
      </defs>
      <use xlink:href="#SimHei-7d2f"/>
      <use xlink:href="#SimHei-8ba1" x="100"/>
      <use xlink:href="#SimHei-5e73" x="200"/>
      <use xlink:href="#SimHei-5747" x="300"/>
      <use xlink:href="#SimHei-6210" x="400"/>
      <use xlink:href="#SimHei-672c" x="500"/>
      <use xlink:href="#SimHei-20" x="600"/>
      <use xlink:href="#SimHei-28" x="650"/>
      <use xlink:href="#SimHei-5143" x="700"/>
      <use xlink:href="#SimHei-29" x="800"/>
     </g>
    </g>
   </g>
   <g id="line2d_20">
    <path d="M 59.797656 189.038543 
L 60.499932 180.290199 
L 61.202208 219.364112 
L 61.904484 244.955395 
L 62.606759 245.974162 
L 63.309035 233.610521 
L 64.011311 226.361537 
L 64.713587 225.118114 
L 65.415863 223.179717 
L 66.118138 224.682165 
L 66.820414 222.663759 
L 67.52269 239.536 
L 68.927242 240.918437 
L 69.629517 245.737346 
L 70.331793 252.278785 
L 71.034069 261.966871 
L 71.736345 261.264386 
L 72.438621 263.091008 
L 73.140896 262.920776 
L 73.843172 266.682802 
L 74.545448 267.756447 
L 75.95 270.749784 
L 76.652275 269.53641 
L 77.354551 271.389773 
L 78.759103 268.528585 
L 79.461379 271.888439 
L 80.163654 273.718416 
L 80.86593 277.326092 
L 81.568206 279.504546 
L 82.270482 282.842004 
L 82.972758 281.396702 
L 83.675034 283.303682 
L 85.079585 284.766004 
L 85.781861 287.654565 
L 87.186413 292.172723 
L 87.888688 293.174663 
L 88.590964 291.705323 
L 89.29324 291.977037 
L 90.697792 295.257208 
L 91.400067 296.244451 
L 92.102343 296.447428 
L 92.804619 296.867881 
L 93.506895 296.057706 
L 94.209171 294.536729 
L 94.911446 294.840964 
L 95.613722 296.621168 
L 96.315998 297.261488 
L 97.018274 297.564419 
L 97.72055 296.352369 
L 98.422825 295.738222 
L 99.125101 294.727938 
L 100.529653 296.549928 
L 101.231929 296.131848 
L 101.934204 295.279774 
L 102.63648 294.092015 
L 103.338756 293.985404 
L 104.041032 292.886124 
L 104.743308 292.489162 
L 105.445583 293.201433 
L 106.147859 292.238171 
L 106.850135 293.670166 
L 107.552411 292.604661 
L 108.254687 293.702662 
L 108.956962 293.127533 
L 110.361514 294.358037 
L 111.06379 295.461531 
L 111.766066 296.783708 
L 113.872893 294.110284 
L 114.575169 293.345673 
L 115.277445 294.218963 
L 115.97972 293.898445 
L 116.681996 294.27139 
L 118.086548 293.658567 
L 118.788824 293.139818 
L 119.491099 292.262498 
L 120.193375 292.975337 
L 120.895651 292.82534 
L 121.597927 293.163875 
L 122.300203 293.695109 
L 123.002478 293.11341 
L 123.704754 292.828631 
L 124.40703 293.126063 
L 125.109306 293.875131 
L 125.811582 293.292167 
L 126.513857 293.483533 
L 127.216133 293.202926 
L 127.918409 293.465394 
L 129.322961 293.408557 
L 130.025236 292.958809 
L 130.727512 293.917906 
L 131.429788 293.85045 
L 132.132064 293.567781 
L 132.83434 294.258157 
L 133.536615 295.268812 
L 134.238891 295.080316 
L 134.941167 295.295112 
L 135.643443 294.95099 
L 136.345719 295.157672 
L 137.047994 294.79368 
L 137.75027 295.872563 
L 138.452546 296.67554 
L 139.154822 296.920469 
L 139.857098 297.613033 
L 140.559373 297.49239 
L 141.261649 297.851416 
L 141.963925 297.583593 
L 142.666201 297.68574 
L 143.368477 297.326231 
L 144.773028 297.557587 
L 145.475304 297.087999 
L 146.17758 297.088215 
L 147.582131 297.48473 
L 148.284407 297.540125 
L 148.986683 297.449049 
L 150.391235 297.987739 
L 151.09351 298.618308 
L 151.795786 299.030093 
L 153.200338 298.946829 
L 153.902614 298.494664 
L 154.604889 298.961053 
L 155.307165 298.655299 
L 156.009441 299.001803 
L 156.711717 299.837276 
L 157.413993 299.432428 
L 158.116268 299.755398 
L 159.52082 299.890256 
L 160.223096 300.435146 
L 160.925372 300.064631 
L 161.627647 300.526462 
L 162.329923 300.842923 
L 163.032199 300.779715 
L 163.734475 300.54246 
L 164.436751 301.184914 
L 165.139026 301.243576 
L 165.841302 301.141392 
L 167.245854 301.681629 
L 167.94813 301.590796 
L 168.650405 301.255349 
L 169.352681 301.586124 
L 170.054957 302.139775 
L 170.757233 302.264854 
L 171.459509 302.065964 
L 172.161785 302.208565 
L 173.566336 301.54248 
L 174.268612 301.975344 
L 175.673164 302.20498 
L 176.375439 301.923484 
L 177.077715 302.433461 
L 177.779991 302.36863 
L 179.886818 301.697445 
L 181.29137 301.922016 
L 181.993646 301.672895 
L 182.695922 301.746012 
L 183.398197 302.217572 
L 184.802749 302.506616 
L 185.505025 302.971571 
L 186.207301 303.068875 
L 187.611852 303.661846 
L 188.314128 303.989147 
L 189.016404 303.677027 
L 189.71868 303.748749 
L 191.123231 304.210763 
L 191.825507 303.96054 
L 194.63461 303.865271 
L 196.039162 304.152276 
L 197.443713 305.039426 
L 198.145989 305.089373 
L 198.848265 305.36265 
L 199.550541 305.218936 
L 200.252817 305.465367 
L 200.955092 305.850872 
L 202.359644 305.694196 
L 203.06192 305.995562 
L 203.764196 305.891565 
L 204.466471 305.597854 
L 205.168747 305.995611 
L 206.573299 306.435723 
L 207.275575 306.435517 
L 207.97785 306.900102 
L 209.382402 306.94443 
L 210.084678 307.239551 
L 212.191505 307.594176 
L 213.596057 307.369486 
L 215.000608 307.270671 
L 215.702884 306.950966 
L 216.40516 306.938171 
L 217.107436 306.679178 
L 217.809712 306.917355 
L 219.214263 306.87379 
L 219.916539 306.619544 
L 221.321091 307.239424 
L 223.427918 306.272376 
L 224.130194 306.410784 
L 224.83247 306.388464 
L 226.237021 306.711685 
L 231.152952 306.54743 
L 232.557503 306.951684 
L 233.259779 306.701463 
L 233.962055 306.798069 
L 234.664331 306.424759 
L 235.366607 306.626625 
L 236.771158 306.063552 
L 238.17571 305.7959 
L 238.877986 305.485888 
L 239.580261 305.501918 
L 240.984813 304.978793 
L 242.389365 304.797877 
L 243.09164 304.772247 
L 243.793916 305.079423 
L 244.496192 305.041761 
L 245.198468 305.270261 
L 245.900744 305.25232 
L 247.305295 304.56844 
L 248.007571 304.808916 
L 249.412123 304.689684 
L 250.114398 304.43273 
L 250.816674 304.56821 
L 252.923502 303.850883 
L 254.328053 304.432872 
L 255.030329 304.228168 
L 255.732605 304.196514 
L 257.137157 303.674761 
L 257.839432 303.482627 
L 258.541708 303.901565 
L 259.243984 303.876601 
L 259.94626 303.975148 
L 260.648536 303.720841 
L 262.053087 303.497916 
L 263.457639 303.792214 
L 264.159915 303.56181 
L 264.86219 303.837909 
L 265.564466 303.965499 
L 266.969018 304.571753 
L 268.373569 304.435452 
L 269.778121 304.038547 
L 270.480397 304.219562 
L 271.182673 304.150694 
L 271.884948 303.933363 
L 272.587224 304.198959 
L 273.991776 303.92331 
L 275.396327 303.527081 
L 277.503155 303.694754 
L 278.907706 303.434654 
L 281.71681 304.125124 
L 282.419085 303.912824 
L 283.823637 303.72452 
L 285.228189 304.234548 
L 285.930464 304.259421 
L 286.63274 304.161982 
L 287.335016 303.918688 
L 288.037292 304.102712 
L 290.846395 303.335869 
L 292.250947 303.510249 
L 292.953222 303.493511 
L 295.762326 304.378049 
L 296.464601 304.396092 
L 297.166877 304.271964 
L 298.571429 304.307274 
L 299.273705 304.112595 
L 299.97598 304.088947 
L 300.678256 303.943602 
L 303.487359 303.99586 
L 304.891911 304.373002 
L 306.296463 304.566047 
L 306.998738 304.336878 
L 307.701014 304.500213 
L 308.40329 304.389749 
L 309.105566 304.612419 
L 311.212393 304.645741 
L 313.319221 304.989292 
L 314.021496 304.998161 
L 315.426048 305.429591 
L 316.8306 305.065401 
L 317.532875 305.222846 
L 318.235151 305.25155 
L 318.937427 305.082048 
L 319.639703 305.063292 
L 321.74653 304.590925 
L 322.448806 304.612589 
L 323.151082 304.763665 
L 323.853358 304.740863 
L 324.555633 304.90137 
L 325.960185 304.623839 
L 326.662461 304.796973 
L 327.364737 304.8207 
L 328.067012 304.99359 
L 328.769288 304.863604 
L 329.471564 304.93348 
L 330.17384 305.26249 
L 330.876116 305.30717 
L 331.578391 305.168788 
L 332.280667 305.156255 
L 332.982943 305.469492 
L 333.685219 305.309155 
L 334.387495 305.539106 
L 335.08977 305.52471 
L 335.792046 305.643745 
L 337.196598 305.523791 
L 337.898874 305.696775 
L 342.112528 305.578798 
L 342.814804 305.684098 
L 343.51708 305.974337 
L 344.921632 305.788781 
L 346.326183 305.563361 
L 347.028459 305.443278 
L 347.730735 305.618444 
L 348.433011 305.512659 
L 349.135287 305.690321 
L 350.539838 305.832604 
L 351.94439 306.172511 
L 352.646666 305.993521 
L 353.348941 306.017633 
L 355.455769 306.486037 
L 358.264872 306.282349 
L 359.669424 306.429686 
L 363.883078 306.249367 
L 365.28763 306.535211 
L 365.989906 306.525417 
L 366.692182 306.672108 
L 368.799009 306.547342 
L 369.501285 306.405384 
L 370.905836 306.649714 
L 371.608112 306.510721 
L 375.821767 306.435451 
L 376.524043 306.275755 
L 377.226319 306.318676 
L 378.63087 306.210368 
L 380.737698 306.210861 
L 381.439973 306.269162 
L 382.142249 306.116273 
L 384.249077 306.329793 
L 385.653628 306.180479 
L 391.97411 305.256509 
L 392.676386 305.365102 
L 394.783214 305.25801 
L 396.187765 305.423457 
L 397.592317 305.262502 
L 398.294593 305.371003 
L 400.40142 305.122503 
L 401.805972 305.262888 
L 402.508247 305.172994 
L 403.210523 305.254123 
L 403.912799 305.138365 
L 405.317351 305.285172 
L 406.019626 305.199464 
L 406.721902 305.382893 
L 407.424178 305.235494 
L 408.126454 305.378613 
L 408.82873 305.270632 
L 410.233281 305.414172 
L 410.233281 305.414172 
" clip-path="url(#pfc0515732b)" style="fill: none; stroke: #1f77b4; stroke-width: 1.8; stroke-linecap: square"/>
   </g>
   <g id="patch_8">
    <path d="M 59.797656 313.959375 
L 59.797656 173.925 
" style="fill: none; stroke: #000000; stroke-linejoin: miter; stroke-linecap: square"/>
   </g>
   <g id="patch_9">
    <path d="M 410.233281 313.959375 
L 410.233281 173.925 
" style="fill: none; stroke: #000000; stroke-linejoin: miter; stroke-linecap: square"/>
   </g>
   <g id="patch_10">
    <path d="M 59.797656 313.959375 
L 410.233281 313.959375 
" style="fill: none; stroke: #000000; stroke-linejoin: miter; stroke-linecap: square"/>
   </g>
   <g id="patch_11">
    <path d="M 59.797656 173.925 
L 410.233281 173.925 
" style="fill: none; stroke: #000000; stroke-linejoin: miter; stroke-linecap: square"/>
   </g>
  </g>
  <g id="axes_3">
   <g id="patch_12">
    <path d="M 59.797656 464.79375 
L 410.233281 464.79375 
L 410.233281 324.759375 
L 59.797656 324.759375 
z
" style="fill: #ffffff"/>
   </g>
   <g id="matplotlib.axis_5">
    <g id="xtick_11">
     <g id="line2d_21">
      <g>
       <use xlink:href="#m75fd05a082" x="129.322961" y="464.79375" style="stroke: #000000"/>
      </g>
     </g>
     <g id="text_12">
      <!-- 100 -->
      <g transform="translate(121.822961 475.16875) scale(0.1 -0.1)">
       <use xlink:href="#SimHei-31"/>
       <use xlink:href="#SimHei-30" x="50"/>
       <use xlink:href="#SimHei-30" x="100"/>
      </g>
     </g>
    </g>
    <g id="xtick_12">
     <g id="line2d_22">
      <g>
       <use xlink:href="#m75fd05a082" x="199.550541" y="464.79375" style="stroke: #000000"/>
      </g>
     </g>
     <g id="text_13">
      <!-- 200 -->
      <g transform="translate(192.050541 475.16875) scale(0.1 -0.1)">
       <use xlink:href="#SimHei-32"/>
       <use xlink:href="#SimHei-30" x="50"/>
       <use xlink:href="#SimHei-30" x="100"/>
      </g>
     </g>
    </g>
    <g id="xtick_13">
     <g id="line2d_23">
      <g>
       <use xlink:href="#m75fd05a082" x="269.778121" y="464.79375" style="stroke: #000000"/>
      </g>
     </g>
     <g id="text_14">
      <!-- 300 -->
      <g transform="translate(262.278121 475.16875) scale(0.1 -0.1)">
       <use xlink:href="#SimHei-33"/>
       <use xlink:href="#SimHei-30" x="50"/>
       <use xlink:href="#SimHei-30" x="100"/>
      </g>
     </g>
    </g>
    <g id="xtick_14">
     <g id="line2d_24">
      <g>
       <use xlink:href="#m75fd05a082" x="340.005701" y="464.79375" style="stroke: #000000"/>
      </g>
     </g>
     <g id="text_15">
      <!-- 400 -->
      <g transform="translate(332.505701 475.16875) scale(0.1 -0.1)">
       <defs>
        <path id="SimHei-34" d="M 2000 1100 
L 75 1100 
L 75 1525 
L 2100 4450 
L 2475 4450 
L 2475 1525 
L 3075 1525 
L 3075 1100 
L 2475 1100 
L 2475 150 
L 2000 150 
L 2000 1100 
z
M 2000 1525 
L 2000 3500 
L 600 1525 
L 2000 1525 
z
" transform="scale(0.015625)"/>
       </defs>
       <use xlink:href="#SimHei-34"/>
       <use xlink:href="#SimHei-30" x="50"/>
       <use xlink:href="#SimHei-30" x="100"/>
      </g>
     </g>
    </g>
    <g id="xtick_15">
     <g id="line2d_25">
      <g>
       <use xlink:href="#m75fd05a082" x="410.233281" y="464.79375" style="stroke: #000000"/>
      </g>
     </g>
     <g id="text_16">
      <!-- 500 -->
      <g transform="translate(402.733281 475.16875) scale(0.1 -0.1)">
       <defs>
        <path id="SimHei-35" d="M 550 1325 
Q 725 650 1150 575 
Q 1575 500 1837 662 
Q 2100 825 2212 1087 
Q 2325 1350 2312 1675 
Q 2300 2000 2137 2225 
Q 1975 2450 1725 2525 
Q 1475 2600 1162 2525 
Q 850 2450 650 2175 
L 225 2225 
Q 275 2375 700 4375 
L 2675 4375 
L 2675 3925 
L 1075 3925 
Q 950 3250 825 2850 
Q 1200 3025 1525 3012 
Q 1850 3000 2150 2862 
Q 2450 2725 2587 2487 
Q 2725 2250 2787 2012 
Q 2850 1775 2837 1500 
Q 2825 1225 2725 937 
Q 2625 650 2425 462 
Q 2225 275 1937 162 
Q 1650 50 1275 75 
Q 900 100 562 350 
Q 225 600 100 1200 
L 550 1325 
z
" transform="scale(0.015625)"/>
       </defs>
       <use xlink:href="#SimHei-35"/>
       <use xlink:href="#SimHei-30" x="50"/>
       <use xlink:href="#SimHei-30" x="100"/>
      </g>
     </g>
    </g>
    <g id="text_17">
     <!-- Episode -->
     <g transform="translate(215.765469 487.98125) scale(0.11 -0.11)">
      <defs>
       <path id="SimHei-69" d="M 1800 3725 
L 1300 3725 
L 1300 4375 
L 1800 4375 
L 1800 3725 
z
M 1800 125 
L 1300 125 
L 1300 2925 
L 1800 2925 
L 1800 125 
z
" transform="scale(0.015625)"/>
       <path id="SimHei-73" d="M 2750 900 
Q 2750 500 2437 287 
Q 2125 75 1650 75 
Q 1050 75 725 312 
Q 400 550 400 1000 
L 900 1000 
Q 900 700 1112 600 
Q 1325 500 1625 500 
Q 1925 500 2075 612 
Q 2225 725 2225 900 
Q 2225 1025 2100 1150 
Q 1975 1275 1475 1350 
Q 900 1425 687 1637 
Q 475 1850 475 2200 
Q 475 2500 762 2737 
Q 1050 2975 1600 2975 
Q 2100 2975 2387 2750 
Q 2675 2525 2675 2150 
L 2175 2150 
Q 2175 2375 2012 2462 
Q 1850 2550 1600 2550 
Q 1275 2550 1137 2437 
Q 1000 2325 1000 2175 
Q 1000 2000 1125 1900 
Q 1250 1800 1650 1750 
Q 2300 1650 2525 1437 
Q 2750 1225 2750 900 
z
" transform="scale(0.015625)"/>
       <path id="SimHei-6f" d="M 2925 1525 
Q 2925 875 2525 475 
Q 2125 75 1575 75 
Q 1025 75 625 475 
Q 225 875 225 1525 
Q 225 2175 625 2575 
Q 1025 2975 1575 2975 
Q 2125 2975 2525 2575 
Q 2925 2175 2925 1525 
z
M 2375 1525 
Q 2375 2025 2125 2275 
Q 1875 2525 1575 2525 
Q 1275 2525 1025 2275 
Q 775 2025 775 1525 
Q 775 1025 1025 775 
Q 1275 525 1575 525 
Q 1875 525 2125 775 
Q 2375 1025 2375 1525 
z
" transform="scale(0.015625)"/>
       <path id="SimHei-64" d="M 2750 125 
L 2250 125 
L 2250 500 
Q 2100 275 1900 175 
Q 1700 75 1425 75 
Q 925 75 575 437 
Q 225 800 225 1525 
Q 225 2250 575 2625 
Q 925 3000 1425 3000 
Q 1700 3000 1900 2887 
Q 2100 2775 2250 2550 
L 2250 4400 
L 2750 4400 
L 2750 125 
z
M 2250 1525 
Q 2250 2000 2037 2275 
Q 1825 2550 1525 2550 
Q 1150 2550 962 2275 
Q 775 2000 775 1525 
Q 775 1050 962 787 
Q 1150 525 1525 525 
Q 1825 525 2037 787 
Q 2250 1050 2250 1525 
z
" transform="scale(0.015625)"/>
      </defs>
      <use xlink:href="#SimHei-45"/>
      <use xlink:href="#SimHei-70" x="50"/>
      <use xlink:href="#SimHei-69" x="100"/>
      <use xlink:href="#SimHei-73" x="150"/>
      <use xlink:href="#SimHei-6f" x="200"/>
      <use xlink:href="#SimHei-64" x="250"/>
      <use xlink:href="#SimHei-65" x="300"/>
     </g>
    </g>
   </g>
   <g id="matplotlib.axis_6">
    <g id="ytick_9">
     <g id="line2d_26">
      <g>
       <use xlink:href="#m012adb96dd" x="59.797656" y="455.932089" style="stroke: #000000"/>
      </g>
     </g>
     <g id="text_18">
      <!-- 250 -->
      <g transform="translate(41.297656 459.369589) scale(0.1 -0.1)">
       <use xlink:href="#SimHei-32"/>
       <use xlink:href="#SimHei-35" x="50"/>
       <use xlink:href="#SimHei-30" x="100"/>
      </g>
     </g>
    </g>
    <g id="ytick_10">
     <g id="line2d_27">
      <g>
       <use xlink:href="#m012adb96dd" x="59.797656" y="425.198583" style="stroke: #000000"/>
      </g>
     </g>
     <g id="text_19">
      <!-- 300 -->
      <g transform="translate(41.297656 428.636083) scale(0.1 -0.1)">
       <use xlink:href="#SimHei-33"/>
       <use xlink:href="#SimHei-30" x="50"/>
       <use xlink:href="#SimHei-30" x="100"/>
      </g>
     </g>
    </g>
    <g id="ytick_11">
     <g id="line2d_28">
      <g>
       <use xlink:href="#m012adb96dd" x="59.797656" y="394.465077" style="stroke: #000000"/>
      </g>
     </g>
     <g id="text_20">
      <!-- 350 -->
      <g transform="translate(41.297656 397.902577) scale(0.1 -0.1)">
       <use xlink:href="#SimHei-33"/>
       <use xlink:href="#SimHei-35" x="50"/>
       <use xlink:href="#SimHei-30" x="100"/>
      </g>
     </g>
    </g>
    <g id="ytick_12">
     <g id="line2d_29">
      <g>
       <use xlink:href="#m012adb96dd" x="59.797656" y="363.731571" style="stroke: #000000"/>
      </g>
     </g>
     <g id="text_21">
      <!-- 400 -->
      <g transform="translate(41.297656 367.169071) scale(0.1 -0.1)">
       <use xlink:href="#SimHei-34"/>
       <use xlink:href="#SimHei-30" x="50"/>
       <use xlink:href="#SimHei-30" x="100"/>
      </g>
     </g>
    </g>
    <g id="ytick_13">
     <g id="line2d_30">
      <g>
       <use xlink:href="#m012adb96dd" x="59.797656" y="332.998064" style="stroke: #000000"/>
      </g>
     </g>
     <g id="text_22">
      <!-- 450 -->
      <g transform="translate(41.297656 336.435564) scale(0.1 -0.1)">
       <use xlink:href="#SimHei-34"/>
       <use xlink:href="#SimHei-35" x="50"/>
       <use xlink:href="#SimHei-30" x="100"/>
      </g>
     </g>
    </g>
    <g id="text_23">
     <!-- 累计平均弃电量 (KWh) -->
     <g transform="translate(35.922656 449.776562) rotate(-90) scale(0.11 -0.11)">
      <defs>
       <path id="SimHei-91cf" d="M 5250 2500 
Q 5225 2200 5225 1700 
Q 5225 1225 5250 950 
L 3425 950 
L 3425 625 
L 4575 625 
Q 5000 625 5375 650 
L 5375 275 
Q 5025 300 4575 300 
L 3425 300 
L 3425 -75 
L 5125 -75 
Q 5525 -75 5925 -50 
L 5925 -425 
Q 5525 -400 5125 -400 
L 1275 -400 
Q 900 -400 475 -425 
L 475 -50 
Q 925 -50 1275 -75 
L 2975 -75 
L 2975 300 
L 1725 300 
Q 1350 300 975 250 
L 975 650 
Q 1375 625 1725 625 
L 2975 625 
L 2975 950 
L 1150 950 
Q 1175 1375 1175 1775 
Q 1175 2175 1150 2500 
L 5250 2500 
z
M 5200 4950 
Q 5175 4575 5175 4250 
Q 5175 3925 5200 3400 
L 1200 3400 
Q 1225 3925 1225 4250 
Q 1225 4575 1200 4950 
L 5200 4950 
z
M 4900 3100 
Q 5500 3125 6000 3150 
L 6000 2750 
Q 5500 2775 4925 2775 
L 1650 2775 
Q 975 2775 325 2750 
L 325 3150 
Q 975 3125 1650 3100 
L 4900 3100 
z
M 4725 3700 
L 4725 4025 
L 1675 4025 
L 1675 3700 
L 4725 3700 
z
M 4725 4350 
L 4725 4650 
L 1675 4650 
L 1675 4350 
L 4725 4350 
z
M 4750 1875 
L 4750 2175 
L 3425 2175 
L 3425 1875 
L 4750 1875 
z
M 2975 1875 
L 2975 2175 
L 1650 2175 
L 1650 1875 
L 2975 1875 
z
M 2975 1275 
L 2975 1550 
L 1650 1550 
L 1650 1275 
L 2975 1275 
z
M 4750 1275 
L 4750 1550 
L 3425 1550 
L 3425 1275 
L 4750 1275 
z
" transform="scale(0.015625)"/>
       <path id="SimHei-4b" d="M 3050 125 
L 2400 125 
L 1250 2250 
L 850 1725 
L 850 125 
L 275 125 
L 275 4400 
L 850 4400 
L 850 2550 
L 2275 4400 
L 2950 4400 
L 1625 2725 
L 3050 125 
z
" transform="scale(0.015625)"/>
       <path id="SimHei-57" d="M 3075 4400 
L 2525 75 
L 2025 75 
L 1575 3275 
L 1525 3275 
L 1075 75 
L 575 75 
L 25 4400 
L 575 4400 
L 850 1675 
L 900 1675 
L 1275 4400 
L 1825 4400 
L 2200 1675 
L 2250 1675 
L 2525 4400 
L 3075 4400 
z
" transform="scale(0.015625)"/>
       <path id="SimHei-68" d="M 2800 125 
L 2300 125 
L 2300 1925 
Q 2300 2225 2150 2400 
Q 2000 2575 1750 2575 
Q 1425 2575 1137 2237 
Q 850 1900 850 1400 
L 850 125 
L 350 125 
L 350 4400 
L 850 4400 
L 850 2400 
Q 1050 2675 1287 2825 
Q 1525 2975 1900 2975 
Q 2350 2975 2575 2725 
Q 2800 2475 2800 2100 
L 2800 125 
z
" transform="scale(0.015625)"/>
      </defs>
      <use xlink:href="#SimHei-7d2f"/>
      <use xlink:href="#SimHei-8ba1" x="100"/>
      <use xlink:href="#SimHei-5e73" x="200"/>
      <use xlink:href="#SimHei-5747" x="300"/>
      <use xlink:href="#SimHei-5f03" x="400"/>
      <use xlink:href="#SimHei-7535" x="500"/>
      <use xlink:href="#SimHei-91cf" x="600"/>
      <use xlink:href="#SimHei-20" x="700"/>
      <use xlink:href="#SimHei-28" x="750"/>
      <use xlink:href="#SimHei-4b" x="800"/>
      <use xlink:href="#SimHei-57" x="850"/>
      <use xlink:href="#SimHei-68" x="900"/>
      <use xlink:href="#SimHei-29" x="950"/>
     </g>
    </g>
   </g>
   <g id="line2d_31">
    <path d="M 59.797656 448.200984 
L 60.499932 458.428551 
L 61.202208 401.377297 
L 61.904484 380.283114 
L 62.606759 387.546783 
L 63.309035 405.304533 
L 64.011311 415.199964 
L 64.713587 420.482226 
L 65.415863 424.830349 
L 66.118138 420.30142 
L 66.820414 424.757203 
L 67.52269 396.558347 
L 68.224966 397.585111 
L 68.927242 396.574906 
L 69.629517 390.042022 
L 70.331793 378.77191 
L 71.034069 361.153907 
L 71.736345 364.206922 
L 72.438621 361.384111 
L 73.140896 363.361439 
L 73.843172 357.370138 
L 74.545448 356.607288 
L 75.247724 354.450409 
L 75.95 353.594794 
L 76.652275 356.642787 
L 77.354551 353.295534 
L 78.759103 359.382167 
L 79.461379 354.371674 
L 80.163654 351.89046 
L 80.86593 345.772667 
L 81.568206 342.562372 
L 82.270482 338.218333 
L 82.972758 341.538799 
L 83.675034 339.856706 
L 84.377309 340.025826 
L 85.079585 340.485209 
L 86.484137 335.334599 
L 87.186413 333.211965 
L 87.888688 332.727554 
L 88.590964 335.463307 
L 89.29324 336.274015 
L 90.697792 333.068844 
L 91.400067 331.955957 
L 92.102343 331.124574 
L 92.804619 331.379037 
L 93.506895 333.154342 
L 94.209171 335.755867 
L 94.911446 336.127222 
L 95.613722 333.979237 
L 96.315998 332.887435 
L 97.018274 333.043468 
L 97.72055 335.027091 
L 98.422825 336.636564 
L 99.125101 338.556166 
L 100.529653 336.244113 
L 101.231929 336.913093 
L 102.63648 340.569462 
L 103.338756 341.000502 
L 104.041032 342.645399 
L 104.743308 343.765404 
L 105.445583 342.720849 
L 106.147859 344.510293 
L 106.850135 342.439183 
L 107.552411 344.007949 
L 108.254687 342.124052 
L 108.956962 343.031577 
L 109.659238 342.113608 
L 110.361514 341.441306 
L 111.06379 340.404058 
L 111.766066 339.130023 
L 112.468341 340.641478 
L 113.170617 341.735516 
L 113.872893 343.273763 
L 114.575169 344.305562 
L 115.277445 343.423191 
L 115.97972 344.054613 
L 116.681996 343.756972 
L 118.086548 345.384235 
L 119.491099 348.323667 
L 120.193375 347.405736 
L 120.895651 347.978 
L 121.597927 347.978659 
L 122.300203 347.209702 
L 123.704754 349.114087 
L 124.40703 348.745304 
L 125.109306 347.757803 
L 125.811582 348.865173 
L 126.513857 349.01608 
L 127.216133 350.056977 
L 127.918409 350.072946 
L 128.620685 350.401292 
L 129.322961 350.554279 
L 130.025236 351.428976 
L 130.727512 349.815604 
L 131.429788 350.034083 
L 132.132064 350.7129 
L 132.83434 349.759943 
L 133.536615 348.262544 
L 134.238891 348.797928 
L 134.941167 348.488264 
L 135.643443 349.261915 
L 136.345719 348.959284 
L 137.047994 349.61198 
L 137.75027 347.838033 
L 138.452546 346.483163 
L 139.154822 345.965222 
L 139.857098 344.617571 
L 140.559373 344.895525 
L 141.261649 344.479222 
L 141.963925 345.022941 
L 142.666201 344.919227 
L 143.368477 345.562885 
L 144.070752 345.292637 
L 144.773028 345.343518 
L 145.475304 346.130212 
L 146.17758 346.220435 
L 147.582131 345.916258 
L 148.986683 346.095571 
L 149.688959 345.685837 
L 150.391235 345.451209 
L 151.09351 344.596739 
L 151.795786 344.031162 
L 152.498062 344.235332 
L 153.200338 344.594879 
L 153.902614 345.279209 
L 154.604889 344.376786 
L 155.307165 345.070294 
L 156.009441 344.683769 
L 156.711717 343.069232 
L 157.413993 343.709655 
L 158.116268 343.342754 
L 159.52082 343.232399 
L 160.223096 342.259988 
L 160.925372 342.854133 
L 161.627647 342.334146 
L 162.329923 341.958269 
L 163.032199 342.172729 
L 163.734475 342.6046 
L 164.436751 341.242651 
L 165.139026 341.28317 
L 165.841302 341.673747 
L 166.543578 341.242218 
L 167.245854 341.080095 
L 167.94813 341.484547 
L 168.650405 342.109857 
L 169.352681 341.433189 
L 170.054957 340.301319 
L 170.757233 340.263096 
L 171.459509 340.733478 
L 172.161785 340.607851 
L 172.86406 341.251271 
L 173.566336 341.737536 
L 174.268612 341.223929 
L 175.673164 341.009871 
L 176.375439 341.522443 
L 177.077715 340.701809 
L 177.779991 340.920758 
L 179.184543 342.158114 
L 179.886818 342.503378 
L 181.29137 342.327316 
L 181.993646 342.778845 
L 182.695922 342.795729 
L 183.398197 342.13578 
L 184.802749 341.869444 
L 185.505025 340.907735 
L 186.207301 340.874082 
L 186.909576 340.566929 
L 188.314128 339.421636 
L 189.016404 340.065401 
L 189.71868 340.024894 
L 191.123231 339.347456 
L 191.825507 339.789712 
L 193.230059 340.226273 
L 194.63461 340.342465 
L 196.039162 340.023007 
L 197.443713 338.377061 
L 198.145989 338.262965 
L 198.848265 337.782698 
L 199.550541 338.063208 
L 200.252817 337.560677 
L 200.955092 336.795471 
L 202.359644 337.248347 
L 203.06192 336.909713 
L 203.764196 337.121191 
L 204.466471 337.637761 
L 205.871023 336.563301 
L 206.573299 336.346356 
L 207.275575 336.386497 
L 207.97785 335.677182 
L 208.680126 335.817162 
L 209.382402 335.840022 
L 210.084678 335.510315 
L 210.786954 335.444639 
L 211.489229 335.058405 
L 212.191505 334.946925 
L 215.000608 335.769186 
L 215.702884 336.223714 
L 216.40516 336.234206 
L 217.107436 336.752226 
L 217.809712 336.530179 
L 219.916539 337.581248 
L 220.618815 337.264619 
L 221.321091 336.651562 
L 222.023366 337.0486 
L 223.427918 338.06519 
L 224.130194 337.946329 
L 224.83247 338.036548 
L 225.534745 337.728585 
L 226.237021 337.54295 
L 227.641573 337.473117 
L 228.343849 337.628394 
L 229.046124 337.668584 
L 229.7484 338.045413 
L 230.450676 337.835221 
L 231.152952 338.056525 
L 231.855228 337.465006 
L 232.557503 337.097059 
L 233.259779 337.508572 
L 233.962055 337.283356 
L 234.664331 337.733699 
L 235.366607 337.241546 
L 236.771158 338.00997 
L 238.17571 338.314501 
L 238.877986 338.808292 
L 239.580261 338.684859 
L 240.282537 339.06259 
L 241.687089 339.472626 
L 243.09164 339.600003 
L 243.793916 338.983367 
L 244.496192 338.999441 
L 245.198468 338.540325 
L 245.900744 338.650969 
L 247.305295 339.546887 
L 248.007571 339.155192 
L 249.412123 339.189791 
L 250.114398 339.552211 
L 250.816674 339.386164 
L 252.923502 340.21702 
L 254.328053 339.487926 
L 255.030329 339.803312 
L 255.732605 339.78394 
L 257.839432 340.858446 
L 258.541708 340.228629 
L 259.243984 340.337091 
L 259.94626 340.266411 
L 260.648536 340.632319 
L 262.053087 341.086084 
L 262.755363 340.787218 
L 263.457639 340.633495 
L 264.159915 340.961131 
L 264.86219 340.573447 
L 265.564466 340.376673 
L 266.969018 339.447268 
L 268.373569 339.706502 
L 269.778121 340.384327 
L 270.480397 340.230074 
L 271.182673 340.347898 
L 271.884948 340.706821 
L 272.587224 340.300834 
L 273.2895 340.474279 
L 275.396327 341.44064 
L 276.098603 341.308947 
L 276.800879 341.021783 
L 278.205431 341.367145 
L 278.907706 341.677287 
L 281.71681 341.027667 
L 282.419085 341.41736 
L 283.823637 341.801697 
L 285.228189 340.997649 
L 285.930464 341.110648 
L 286.63274 341.356394 
L 287.335016 341.742819 
L 288.037292 341.357875 
L 290.846395 342.516011 
L 292.250947 342.169207 
L 292.953222 342.262672 
L 293.655498 341.852192 
L 294.357774 341.666085 
L 295.06005 341.166894 
L 295.762326 340.969104 
L 296.464601 341.013761 
L 297.166877 341.311856 
L 298.571429 341.46275 
L 299.273705 341.816762 
L 299.97598 341.84279 
L 300.678256 342.132983 
L 303.487359 342.152381 
L 304.891911 341.529662 
L 306.296463 341.261539 
L 306.998738 341.546168 
L 307.701014 341.269951 
L 308.40329 341.416415 
L 309.105566 341.091098 
L 309.807842 341.194411 
L 312.616945 340.964007 
L 313.319221 340.809877 
L 314.021496 340.837041 
L 315.426048 340.265662 
L 316.8306 340.872038 
L 317.532875 340.661751 
L 318.235151 340.598292 
L 318.937427 340.875757 
L 319.639703 340.917914 
L 321.74653 341.628596 
L 322.448806 341.659803 
L 323.151082 341.489289 
L 323.853358 341.582866 
L 324.555633 341.308522 
L 325.960185 341.844868 
L 326.662461 341.614589 
L 327.364737 341.668683 
L 328.067012 341.458175 
L 328.769288 341.723086 
L 329.471564 341.635834 
L 330.17384 341.121596 
L 330.876116 341.083139 
L 331.578391 341.365422 
L 332.280667 341.35072 
L 332.982943 340.820195 
L 333.685219 341.099058 
L 334.387495 340.698001 
L 335.08977 340.734076 
L 335.792046 340.541749 
L 337.196598 340.892149 
L 337.898874 340.580872 
L 340.005701 340.955569 
L 340.707977 341.000631 
L 341.410253 341.213825 
L 342.814804 340.763636 
L 343.51708 340.247221 
L 344.219356 340.46021 
L 345.623908 340.585409 
L 347.028459 341.026962 
L 347.730735 340.74332 
L 348.433011 340.88146 
L 349.837562 340.616445 
L 350.539838 340.483355 
L 351.94439 339.916464 
L 352.646666 340.184994 
L 353.348941 340.099295 
L 354.051217 339.771222 
L 354.753493 339.310639 
L 355.455769 339.27427 
L 356.86032 339.442225 
L 357.562596 339.481202 
L 358.264872 339.702675 
L 359.669424 339.494227 
L 361.776251 339.70884 
L 362.478527 339.680309 
L 363.180803 339.954842 
L 363.883078 339.966298 
L 365.28763 339.448862 
L 365.989906 339.457181 
L 366.692182 339.133511 
L 368.096733 339.254859 
L 369.501285 339.642756 
L 370.203561 339.303525 
L 370.905836 339.184056 
L 371.608112 339.403974 
L 372.310388 339.385493 
L 373.012664 339.552637 
L 373.71494 339.244178 
L 375.119491 339.575671 
L 375.821767 339.556244 
L 376.524043 339.840187 
L 377.226319 339.724811 
L 377.928594 339.899258 
L 379.333146 339.92896 
L 381.439973 339.8326 
L 382.142249 340.059381 
L 384.249077 339.640086 
L 385.653628 339.854888 
L 389.165007 340.810622 
L 391.97411 341.309978 
L 392.676386 341.121846 
L 394.080938 341.286232 
L 394.783214 341.258489 
L 396.187765 340.951206 
L 397.592317 341.242742 
L 398.294593 341.083236 
L 400.40142 341.410415 
L 401.805972 341.270654 
L 402.508247 341.374724 
L 403.210523 341.19434 
L 403.912799 341.382308 
L 404.615075 341.147495 
L 405.317351 341.119677 
L 406.019626 341.258331 
L 406.721902 340.940386 
L 407.424178 341.155296 
L 408.126454 340.832465 
L 408.82873 341.021881 
L 409.531005 340.814881 
L 410.233281 340.785807 
L 410.233281 340.785807 
" clip-path="url(#p87ee222ead)" style="fill: none; stroke: #2ca02c; stroke-width: 1.8; stroke-linecap: square"/>
   </g>
   <g id="patch_13">
    <path d="M 59.797656 464.79375 
L 59.797656 324.759375 
" style="fill: none; stroke: #000000; stroke-linejoin: miter; stroke-linecap: square"/>
   </g>
   <g id="patch_14">
    <path d="M 410.233281 464.79375 
L 410.233281 324.759375 
" style="fill: none; stroke: #000000; stroke-linejoin: miter; stroke-linecap: square"/>
   </g>
   <g id="patch_15">
    <path d="M 59.797656 464.79375 
L 410.233281 464.79375 
" style="fill: none; stroke: #000000; stroke-linejoin: miter; stroke-linecap: square"/>
   </g>
   <g id="patch_16">
    <path d="M 59.797656 324.759375 
L 410.233281 324.759375 
" style="fill: none; stroke: #000000; stroke-linejoin: miter; stroke-linecap: square"/>
   </g>
  </g>
 </g>
 <defs>
  <clipPath id="p8eb10e2f79">
   <rect x="59.797656" y="23.090625" width="350.435625" height="140.034375"/>
  </clipPath>
  <clipPath id="pfc0515732b">
   <rect x="59.797656" y="173.925" width="350.435625" height="140.034375"/>
  </clipPath>
  <clipPath id="p87ee222ead">
   <rect x="59.797656" y="324.759375" width="350.435625" height="140.034375"/>
  </clipPath>
 </defs>
</svg>
