<?xml version="1.0" encoding="utf-8" standalone="no"?>
<!DOCTYPE svg PUBLIC "-//W3C//DTD SVG 1.1//EN"
  "http://www.w3.org/Graphics/SVG/1.1/DTD/svg11.dtd">
<svg xmlns:xlink="http://www.w3.org/1999/xlink" width="856.221875pt" height="424.033125pt" viewBox="0 0 856.221875 424.033125" xmlns="http://www.w3.org/2000/svg" version="1.1">
 <metadata>
  <rdf:RDF xmlns:dc="http://purl.org/dc/elements/1.1/" xmlns:cc="http://creativecommons.org/ns#" xmlns:rdf="http://www.w3.org/1999/02/22-rdf-syntax-ns#">
   <cc:Work>
    <dc:type rdf:resource="http://purl.org/dc/dcmitype/StillImage"/>
    <dc:date>2025-12-01T20:28:34.403111</dc:date>
    <dc:format>image/svg+xml</dc:format>
    <dc:creator>
     <cc:Agent>
      <dc:title>Matplotlib v3.9.4, https://matplotlib.org/</dc:title>
     </cc:Agent>
    </dc:creator>
   </cc:Work>
  </rdf:RDF>
 </metadata>
 <defs>
  <style type="text/css">*{stroke-linejoin: round; stroke-linecap: butt}</style>
 </defs>
 <g id="figure_1">
  <g id="patch_1">
   <path d="M 0 424.033125 
L 856.221875 424.033125 
L 856.221875 0 
L 0 0 
z
" style="fill: #ffffff"/>
  </g>
  <g id="axes_1">
   <g id="patch_2">
    <path d="M 44.121875 386.59875 
L 844.021875 386.59875 
L 844.021875 24.575 
L 44.121875 24.575 
z
" style="fill: #ffffff"/>
   </g>
   <g id="PolyCollection_1">
    <defs>
     <path id="m4ed21f5f55" d="M 44.121875 -175.985023 
L 44.121875 -164.142688 
L 52.454167 -164.142688 
L 60.786458 -164.142688 
L 69.11875 -164.142688 
L 77.451042 -189.874273 
L 85.783333 -189.874273 
L 94.115625 -189.874273 
L 102.447917 -189.874273 
L 110.780208 -213.138723 
L 119.1125 -213.138723 
L 127.444792 -213.138723 
L 135.777083 -213.138723 
L 144.109375 -225.86035 
L 152.441667 -225.86035 
L 160.773958 -225.86035 
L 169.10625 -225.86035 
L 177.438542 -236.30622 
L 185.770833 -236.30622 
L 194.103125 -236.30622 
L 202.435417 -236.30622 
L 210.767708 -243.606687 
L 219.1 -243.606687 
L 227.432292 -243.606687 
L 235.764583 -243.606687 
L 244.096875 -242.844369 
L 252.429167 -242.844369 
L 260.761458 -242.844369 
L 269.09375 -242.844369 
L 277.426042 -248.288297 
L 285.758333 -248.288297 
L 294.090625 -248.288297 
L 302.422917 -248.288297 
L 310.755208 -231.540622 
L 319.0875 -231.540622 
L 327.419792 -231.540622 
L 335.752083 -231.540622 
L 344.084375 -222.712267 
L 352.416667 -222.712267 
L 360.748958 -222.712267 
L 369.08125 -222.712267 
L 377.413542 -214.934317 
L 385.745833 -214.934317 
L 394.078125 -214.934317 
L 402.410417 -214.934317 
L 410.742708 -238.429526 
L 419.075 -238.429526 
L 427.407292 -238.429526 
L 435.739583 -238.429526 
L 444.071875 -266.268055 
L 452.404167 -266.268055 
L 460.736458 -266.268055 
L 469.06875 -266.268055 
L 477.401042 -289.193393 
L 485.733333 -289.193393 
L 494.065625 -289.193393 
L 502.397917 -289.193393 
L 510.730208 -283.501717 
L 519.0625 -283.501717 
L 527.394792 -283.501717 
L 535.727083 -283.501717 
L 544.059375 -281.488849 
L 552.391667 -281.488849 
L 560.723958 -281.488849 
L 569.05625 -281.488849 
L 577.388542 -282.40896 
L 585.720833 -282.40896 
L 594.053125 -282.40896 
L 602.385417 -282.40896 
L 610.717708 -259.534282 
L 619.05 -259.534282 
L 627.382292 -259.534282 
L 635.714583 -259.534282 
L 644.046875 -237.747344 
L 652.379167 -237.747344 
L 660.711458 -237.747344 
L 669.04375 -237.747344 
L 677.376042 -217.004042 
L 685.708333 -217.004042 
L 694.040625 -217.004042 
L 702.372917 -217.004042 
L 710.705208 -203.911328 
L 719.0375 -203.911328 
L 727.369792 -203.911328 
L 735.702083 -203.911328 
L 744.034375 -177.988502 
L 752.366667 -177.988502 
L 760.698958 -177.988502 
L 769.03125 -177.988502 
L 777.363542 -189.399141 
L 785.695833 -189.399141 
L 794.028125 -189.399141 
L 802.360417 -189.399141 
L 810.692708 -181.836232 
L 819.025 -181.836232 
L 827.357292 -181.836232 
L 835.689583 -181.836232 
L 844.021875 -183.05956 
L 844.021875 -196.969549 
L 844.021875 -196.969549 
L 835.689583 -184.159791 
L 827.357292 -203.686803 
L 819.025 -199.627576 
L 810.692708 -178.432491 
L 802.360417 -207.649957 
L 794.028125 -177.6561 
L 785.695833 -161.602635 
L 777.363542 -175.663717 
L 769.03125 -163.805364 
L 760.698958 -181.295036 
L 752.366667 -203.178869 
L 744.034375 -188.873463 
L 735.702083 -202.868107 
L 727.369792 -190.294601 
L 719.0375 -188.966363 
L 710.705208 -181.560273 
L 702.372917 -230.70712 
L 694.040625 -211.880202 
L 685.708333 -229.474232 
L 677.376042 -183.744234 
L 669.04375 -195.786962 
L 660.711458 -223.761891 
L 652.379167 -201.917345 
L 644.046875 -255.407641 
L 635.714583 -250.318084 
L 627.382292 -247.141313 
L 619.05 -253.832624 
L 610.717708 -267.608916 
L 602.385417 -289.916168 
L 594.053125 -315.649677 
L 585.720833 -268.034958 
L 577.388542 -306.858592 
L 569.05625 -261.379662 
L 560.723958 -349.512387 
L 552.391667 -288.09466 
L 544.059375 -267.977661 
L 535.727083 -289.735528 
L 527.394792 -301.08841 
L 519.0625 -289.37525 
L 510.730208 -314.304616 
L 502.397917 -270.320739 
L 494.065625 -305.415327 
L 485.733333 -280.995773 
L 477.401042 -310.414707 
L 469.06875 -259.873733 
L 460.736458 -297.483409 
L 452.404167 -318.354951 
L 444.071875 -265.421263 
L 435.739583 -276.421908 
L 427.407292 -272.753861 
L 419.075 -300.818133 
L 410.742708 -229.67613 
L 402.410417 -189.829724 
L 394.078125 -225.201007 
L 385.745833 -179.348765 
L 377.413542 -205.016713 
L 369.08125 -206.453963 
L 360.748958 -198.306535 
L 352.416667 -242.678061 
L 344.084375 -239.643069 
L 335.752083 -209.788352 
L 327.419792 -223.95746 
L 319.0875 -182.566678 
L 310.755208 -251.229943 
L 302.422917 -241.810133 
L 294.090625 -247.881045 
L 285.758333 -261.472728 
L 277.426042 -265.283608 
L 269.09375 -239.851855 
L 260.761458 -237.452542 
L 252.429167 -248.849129 
L 244.096875 -241.291637 
L 235.764583 -274.695239 
L 227.432292 -245.435241 
L 219.1 -243.898614 
L 210.767708 -246.265453 
L 202.435417 -253.80467 
L 194.103125 -274.826459 
L 185.770833 -222.340446 
L 177.438542 -222.745101 
L 169.10625 -223.60816 
L 160.773958 -232.037281 
L 152.441667 -235.55359 
L 144.109375 -203.790275 
L 135.777083 -199.508485 
L 127.444792 -201.742994 
L 119.1125 -222.460154 
L 110.780208 -205.894053 
L 102.447917 -172.507231 
L 94.115625 -208.742274 
L 85.783333 -197.599138 
L 77.451042 -200.651726 
L 69.11875 -169.866002 
L 60.786458 -167.587339 
L 52.454167 -175.350897 
L 44.121875 -175.985023 
z
" style="stroke: #ffa500; stroke-opacity: 0.2"/>
    </defs>
    <g clip-path="url(#pbf3bc116f4)">
     <use xlink:href="#m4ed21f5f55" x="0" y="424.033125" style="fill: #ffa500; fill-opacity: 0.2; stroke: #ffa500; stroke-opacity: 0.2"/>
    </g>
   </g>
   <g id="matplotlib.axis_1">
    <g id="xtick_1">
     <g id="line2d_1">
      <path d="M 44.121875 386.59875 
L 44.121875 24.575 
" clip-path="url(#pbf3bc116f4)" style="fill: none; stroke-dasharray: 2.96,1.28; stroke-dashoffset: 0; stroke: #b0b0b0; stroke-opacity: 0.3; stroke-width: 0.8"/>
     </g>
     <g id="line2d_2">
      <defs>
       <path id="m25b7483a83" d="M 0 0 
L 0 3.5 
" style="stroke: #000000; stroke-width: 0.8"/>
      </defs>
      <g>
       <use xlink:href="#m25b7483a83" x="44.121875" y="386.59875" style="stroke: #000000; stroke-width: 0.8"/>
      </g>
     </g>
     <g id="text_1">
      <!-- 0 -->
      <g transform="translate(41.621875 400.47375) scale(0.1 -0.1)">
       <defs>
        <path id="SimHei-30" d="M 225 2537 
Q 250 3200 412 3587 
Q 575 3975 875 4225 
Q 1175 4475 1612 4475 
Q 2050 4475 2375 4112 
Q 2700 3750 2800 3200 
Q 2900 2650 2862 1937 
Q 2825 1225 2612 775 
Q 2400 325 1975 150 
Q 1550 -25 1125 187 
Q 700 400 525 750 
Q 350 1100 275 1487 
Q 200 1875 225 2537 
z
M 750 2687 
Q 675 2000 800 1462 
Q 925 925 1212 700 
Q 1500 475 1800 612 
Q 2100 750 2237 1162 
Q 2375 1575 2375 2062 
Q 2375 2550 2337 2950 
Q 2300 3350 2112 3675 
Q 1925 4000 1612 4012 
Q 1300 4025 1062 3700 
Q 825 3375 750 2687 
z
" transform="scale(0.015625)"/>
       </defs>
       <use xlink:href="#SimHei-30"/>
      </g>
     </g>
    </g>
    <g id="xtick_2">
     <g id="line2d_3">
      <path d="M 110.780208 386.59875 
L 110.780208 24.575 
" clip-path="url(#pbf3bc116f4)" style="fill: none; stroke-dasharray: 2.96,1.28; stroke-dashoffset: 0; stroke: #b0b0b0; stroke-opacity: 0.3; stroke-width: 0.8"/>
     </g>
     <g id="line2d_4">
      <g>
       <use xlink:href="#m25b7483a83" x="110.780208" y="386.59875" style="stroke: #000000; stroke-width: 0.8"/>
      </g>
     </g>
     <g id="text_2">
      <!-- 2 -->
      <g transform="translate(108.280208 400.47375) scale(0.1 -0.1)">
       <defs>
        <path id="SimHei-32" d="M 300 250 
Q 325 625 650 925 
Q 975 1225 1475 1862 
Q 1975 2500 2125 2850 
Q 2275 3200 2237 3450 
Q 2200 3700 2000 3862 
Q 1800 4025 1537 4000 
Q 1275 3975 1037 3800 
Q 800 3625 675 3275 
L 200 3350 
Q 400 3925 712 4187 
Q 1025 4450 1450 4475 
Q 1700 4500 1900 4462 
Q 2100 4425 2312 4287 
Q 2525 4150 2662 3875 
Q 2800 3600 2762 3212 
Q 2725 2825 2375 2287 
Q 2025 1750 1025 600 
L 2825 600 
L 2825 150 
L 300 150 
L 300 250 
z
" transform="scale(0.015625)"/>
       </defs>
       <use xlink:href="#SimHei-32"/>
      </g>
     </g>
    </g>
    <g id="xtick_3">
     <g id="line2d_5">
      <path d="M 177.438542 386.59875 
L 177.438542 24.575 
" clip-path="url(#pbf3bc116f4)" style="fill: none; stroke-dasharray: 2.96,1.28; stroke-dashoffset: 0; stroke: #b0b0b0; stroke-opacity: 0.3; stroke-width: 0.8"/>
     </g>
     <g id="line2d_6">
      <g>
       <use xlink:href="#m25b7483a83" x="177.438542" y="386.59875" style="stroke: #000000; stroke-width: 0.8"/>
      </g>
     </g>
     <g id="text_3">
      <!-- 4 -->
      <g transform="translate(174.938542 400.47375) scale(0.1 -0.1)">
       <defs>
        <path id="SimHei-34" d="M 2000 1100 
L 75 1100 
L 75 1525 
L 2100 4450 
L 2475 4450 
L 2475 1525 
L 3075 1525 
L 3075 1100 
L 2475 1100 
L 2475 150 
L 2000 150 
L 2000 1100 
z
M 2000 1525 
L 2000 3500 
L 600 1525 
L 2000 1525 
z
" transform="scale(0.015625)"/>
       </defs>
       <use xlink:href="#SimHei-34"/>
      </g>
     </g>
    </g>
    <g id="xtick_4">
     <g id="line2d_7">
      <path d="M 244.096875 386.59875 
L 244.096875 24.575 
" clip-path="url(#pbf3bc116f4)" style="fill: none; stroke-dasharray: 2.96,1.28; stroke-dashoffset: 0; stroke: #b0b0b0; stroke-opacity: 0.3; stroke-width: 0.8"/>
     </g>
     <g id="line2d_8">
      <g>
       <use xlink:href="#m25b7483a83" x="244.096875" y="386.59875" style="stroke: #000000; stroke-width: 0.8"/>
      </g>
     </g>
     <g id="text_4">
      <!-- 6 -->
      <g transform="translate(241.596875 400.47375) scale(0.1 -0.1)">
       <defs>
        <path id="SimHei-36" d="M 250 1612 
Q 275 1975 387 2225 
Q 500 2475 725 2850 
L 1750 4450 
L 2325 4450 
L 1275 2800 
Q 1950 2975 2350 2750 
Q 2750 2525 2887 2237 
Q 3025 1950 3037 1612 
Q 3050 1275 2937 950 
Q 2825 625 2537 362 
Q 2250 100 1737 75 
Q 1225 50 862 262 
Q 500 475 362 862 
Q 225 1250 250 1612 
z
M 1025 787 
Q 1250 550 1625 525 
Q 2000 500 2250 775 
Q 2500 1050 2500 1575 
Q 2500 2100 2187 2300 
Q 1875 2500 1487 2450 
Q 1100 2400 925 2075 
Q 750 1750 775 1387 
Q 800 1025 1025 787 
z
" transform="scale(0.015625)"/>
       </defs>
       <use xlink:href="#SimHei-36"/>
      </g>
     </g>
    </g>
    <g id="xtick_5">
     <g id="line2d_9">
      <path d="M 310.755208 386.59875 
L 310.755208 24.575 
" clip-path="url(#pbf3bc116f4)" style="fill: none; stroke-dasharray: 2.96,1.28; stroke-dashoffset: 0; stroke: #b0b0b0; stroke-opacity: 0.3; stroke-width: 0.8"/>
     </g>
     <g id="line2d_10">
      <g>
       <use xlink:href="#m25b7483a83" x="310.755208" y="386.59875" style="stroke: #000000; stroke-width: 0.8"/>
      </g>
     </g>
     <g id="text_5">
      <!-- 8 -->
      <g transform="translate(308.255208 400.47375) scale(0.1 -0.1)">
       <defs>
        <path id="SimHei-38" d="M 175 1375 
Q 175 1675 325 1962 
Q 475 2250 825 2425 
Q 525 2600 425 2812 
Q 325 3025 312 3300 
Q 300 3575 387 3775 
Q 475 3975 650 4150 
Q 825 4325 1037 4387 
Q 1250 4450 1500 4450 
Q 1750 4450 1950 4400 
Q 2150 4350 2375 4187 
Q 2600 4025 2700 3725 
Q 2800 3425 2687 3025 
Q 2575 2625 2100 2400 
Q 2525 2275 2700 2012 
Q 2875 1750 2875 1375 
Q 2875 1000 2762 775 
Q 2650 550 2512 400 
Q 2375 250 2137 162 
Q 1900 75 1537 75 
Q 1175 75 912 162 
Q 650 250 475 425 
Q 300 600 237 837 
Q 175 1075 175 1375 
z
M 687 1400 
Q 675 1100 787 875 
Q 900 650 1200 587 
Q 1500 525 1825 600 
Q 2150 675 2275 950 
Q 2400 1225 2362 1500 
Q 2325 1775 2050 1962 
Q 1775 2150 1450 2125 
Q 1125 2100 912 1900 
Q 700 1700 687 1400 
z
M 775 3350 
Q 775 3100 950 2875 
Q 1125 2650 1500 2650 
Q 1875 2650 2062 2875 
Q 2250 3100 2237 3412 
Q 2225 3725 2012 3875 
Q 1800 4025 1437 4000 
Q 1075 3975 925 3787 
Q 775 3600 775 3350 
z
" transform="scale(0.015625)"/>
       </defs>
       <use xlink:href="#SimHei-38"/>
      </g>
     </g>
    </g>
    <g id="xtick_6">
     <g id="line2d_11">
      <path d="M 377.413542 386.59875 
L 377.413542 24.575 
" clip-path="url(#pbf3bc116f4)" style="fill: none; stroke-dasharray: 2.96,1.28; stroke-dashoffset: 0; stroke: #b0b0b0; stroke-opacity: 0.3; stroke-width: 0.8"/>
     </g>
     <g id="line2d_12">
      <g>
       <use xlink:href="#m25b7483a83" x="377.413542" y="386.59875" style="stroke: #000000; stroke-width: 0.8"/>
      </g>
     </g>
     <g id="text_6">
      <!-- 10 -->
      <g transform="translate(372.413542 400.47375) scale(0.1 -0.1)">
       <defs>
        <path id="SimHei-31" d="M 1400 3600 
Q 1075 3275 575 2975 
L 575 3450 
Q 1200 3875 1600 4450 
L 1900 4450 
L 1900 150 
L 1400 150 
L 1400 3600 
z
" transform="scale(0.015625)"/>
       </defs>
       <use xlink:href="#SimHei-31"/>
       <use xlink:href="#SimHei-30" x="50"/>
      </g>
     </g>
    </g>
    <g id="xtick_7">
     <g id="line2d_13">
      <path d="M 444.071875 386.59875 
L 444.071875 24.575 
" clip-path="url(#pbf3bc116f4)" style="fill: none; stroke-dasharray: 2.96,1.28; stroke-dashoffset: 0; stroke: #b0b0b0; stroke-opacity: 0.3; stroke-width: 0.8"/>
     </g>
     <g id="line2d_14">
      <g>
       <use xlink:href="#m25b7483a83" x="444.071875" y="386.59875" style="stroke: #000000; stroke-width: 0.8"/>
      </g>
     </g>
     <g id="text_7">
      <!-- 12 -->
      <g transform="translate(439.071875 400.47375) scale(0.1 -0.1)">
       <use xlink:href="#SimHei-31"/>
       <use xlink:href="#SimHei-32" x="50"/>
      </g>
     </g>
    </g>
    <g id="xtick_8">
     <g id="line2d_15">
      <path d="M 510.730208 386.59875 
L 510.730208 24.575 
" clip-path="url(#pbf3bc116f4)" style="fill: none; stroke-dasharray: 2.96,1.28; stroke-dashoffset: 0; stroke: #b0b0b0; stroke-opacity: 0.3; stroke-width: 0.8"/>
     </g>
     <g id="line2d_16">
      <g>
       <use xlink:href="#m25b7483a83" x="510.730208" y="386.59875" style="stroke: #000000; stroke-width: 0.8"/>
      </g>
     </g>
     <g id="text_8">
      <!-- 14 -->
      <g transform="translate(505.730208 400.47375) scale(0.1 -0.1)">
       <use xlink:href="#SimHei-31"/>
       <use xlink:href="#SimHei-34" x="50"/>
      </g>
     </g>
    </g>
    <g id="xtick_9">
     <g id="line2d_17">
      <path d="M 577.388542 386.59875 
L 577.388542 24.575 
" clip-path="url(#pbf3bc116f4)" style="fill: none; stroke-dasharray: 2.96,1.28; stroke-dashoffset: 0; stroke: #b0b0b0; stroke-opacity: 0.3; stroke-width: 0.8"/>
     </g>
     <g id="line2d_18">
      <g>
       <use xlink:href="#m25b7483a83" x="577.388542" y="386.59875" style="stroke: #000000; stroke-width: 0.8"/>
      </g>
     </g>
     <g id="text_9">
      <!-- 16 -->
      <g transform="translate(572.388542 400.47375) scale(0.1 -0.1)">
       <use xlink:href="#SimHei-31"/>
       <use xlink:href="#SimHei-36" x="50"/>
      </g>
     </g>
    </g>
    <g id="xtick_10">
     <g id="line2d_19">
      <path d="M 644.046875 386.59875 
L 644.046875 24.575 
" clip-path="url(#pbf3bc116f4)" style="fill: none; stroke-dasharray: 2.96,1.28; stroke-dashoffset: 0; stroke: #b0b0b0; stroke-opacity: 0.3; stroke-width: 0.8"/>
     </g>
     <g id="line2d_20">
      <g>
       <use xlink:href="#m25b7483a83" x="644.046875" y="386.59875" style="stroke: #000000; stroke-width: 0.8"/>
      </g>
     </g>
     <g id="text_10">
      <!-- 18 -->
      <g transform="translate(639.046875 400.47375) scale(0.1 -0.1)">
       <use xlink:href="#SimHei-31"/>
       <use xlink:href="#SimHei-38" x="50"/>
      </g>
     </g>
    </g>
    <g id="xtick_11">
     <g id="line2d_21">
      <path d="M 710.705208 386.59875 
L 710.705208 24.575 
" clip-path="url(#pbf3bc116f4)" style="fill: none; stroke-dasharray: 2.96,1.28; stroke-dashoffset: 0; stroke: #b0b0b0; stroke-opacity: 0.3; stroke-width: 0.8"/>
     </g>
     <g id="line2d_22">
      <g>
       <use xlink:href="#m25b7483a83" x="710.705208" y="386.59875" style="stroke: #000000; stroke-width: 0.8"/>
      </g>
     </g>
     <g id="text_11">
      <!-- 20 -->
      <g transform="translate(705.705208 400.47375) scale(0.1 -0.1)">
       <use xlink:href="#SimHei-32"/>
       <use xlink:href="#SimHei-30" x="50"/>
      </g>
     </g>
    </g>
    <g id="xtick_12">
     <g id="line2d_23">
      <path d="M 777.363542 386.59875 
L 777.363542 24.575 
" clip-path="url(#pbf3bc116f4)" style="fill: none; stroke-dasharray: 2.96,1.28; stroke-dashoffset: 0; stroke: #b0b0b0; stroke-opacity: 0.3; stroke-width: 0.8"/>
     </g>
     <g id="line2d_24">
      <g>
       <use xlink:href="#m25b7483a83" x="777.363542" y="386.59875" style="stroke: #000000; stroke-width: 0.8"/>
      </g>
     </g>
     <g id="text_12">
      <!-- 22 -->
      <g transform="translate(772.363542 400.47375) scale(0.1 -0.1)">
       <use xlink:href="#SimHei-32"/>
       <use xlink:href="#SimHei-32" x="50"/>
      </g>
     </g>
    </g>
    <g id="xtick_13">
     <g id="line2d_25">
      <path d="M 844.021875 386.59875 
L 844.021875 24.575 
" clip-path="url(#pbf3bc116f4)" style="fill: none; stroke-dasharray: 2.96,1.28; stroke-dashoffset: 0; stroke: #b0b0b0; stroke-opacity: 0.3; stroke-width: 0.8"/>
     </g>
     <g id="line2d_26">
      <g>
       <use xlink:href="#m25b7483a83" x="844.021875" y="386.59875" style="stroke: #000000; stroke-width: 0.8"/>
      </g>
     </g>
     <g id="text_13">
      <!-- 24 -->
      <g transform="translate(839.021875 400.47375) scale(0.1 -0.1)">
       <use xlink:href="#SimHei-32"/>
       <use xlink:href="#SimHei-34" x="50"/>
      </g>
     </g>
    </g>
    <g id="text_14">
     <!-- 时间 (小时) -->
     <g transform="translate(411.071875 415.333125) scale(0.12 -0.12)">
      <defs>
       <path id="SimHei-65f6" d="M 2525 4575 
Q 2500 3675 2500 2400 
Q 2500 1125 2525 400 
L 2000 400 
L 2000 875 
L 1000 875 
L 1000 50 
L 475 50 
Q 500 1200 500 2350 
Q 500 3525 475 4575 
L 2525 4575 
z
M 4875 3825 
Q 4875 4575 4850 5225 
L 5400 5225 
Q 5375 4575 5375 3825 
Q 5750 3825 6175 3850 
L 6175 3375 
Q 5750 3400 5375 3400 
L 5375 50 
Q 5375 -325 5075 -425 
Q 4775 -525 4300 -575 
Q 4300 -275 4025 0 
Q 4500 -50 4687 -25 
Q 4875 0 4875 300 
L 4875 3400 
Q 3625 3400 2775 3375 
L 2775 3850 
Q 3575 3825 4875 3825 
z
M 2000 1300 
L 2000 2550 
L 1000 2550 
L 1000 1300 
L 2000 1300 
z
M 2000 2975 
L 2000 4150 
L 1000 4150 
L 1000 2975 
L 2000 2975 
z
M 3550 2725 
Q 3875 2200 4175 1600 
Q 3925 1525 3650 1375 
Q 3450 1975 3075 2500 
Q 3300 2600 3550 2725 
z
" transform="scale(0.015625)"/>
       <path id="SimHei-95f4" d="M 4450 3550 
Q 4425 3075 4425 2725 
L 4425 1400 
Q 4425 1075 4450 625 
L 1925 625 
Q 1950 1075 1950 1425 
L 1950 2725 
Q 1950 3075 1925 3550 
L 4450 3550 
z
M 5800 4875 
Q 5775 4400 5775 3925 
L 5775 250 
Q 5800 -325 5462 -450 
Q 5125 -575 4725 -625 
Q 4700 -325 4525 -25 
Q 5000 -50 5137 25 
Q 5275 100 5275 350 
L 5275 4450 
L 3775 4450 
Q 3175 4450 2650 4425 
L 2650 4900 
Q 3175 4875 3775 4875 
L 5800 4875 
z
M 550 -525 
Q 600 -25 600 525 
L 600 3150 
Q 600 3675 550 4025 
L 1125 4025 
Q 1100 3650 1100 3300 
L 1100 500 
Q 1100 0 1125 -525 
L 550 -525 
z
M 3950 1025 
L 3950 1950 
L 2425 1950 
L 2425 1025 
L 3950 1025 
z
M 3950 2350 
L 3950 3150 
L 2425 3150 
L 2425 2350 
L 3950 2350 
z
M 1525 5300 
Q 1750 5000 2225 4350 
Q 1950 4225 1700 4075 
Q 1450 4575 1075 5025 
Q 1350 5225 1525 5300 
z
" transform="scale(0.015625)"/>
       <path id="SimHei-20" transform="scale(0.015625)"/>
       <path id="SimHei-28" d="M 2975 -200 
L 2700 -475 
Q 2075 125 1762 775 
Q 1450 1425 1450 2250 
Q 1450 3075 1762 3725 
Q 2075 4375 2700 5000 
L 2975 4725 
Q 2400 4175 2112 3587 
Q 1825 3000 1825 2250 
Q 1825 1500 2112 912 
Q 2400 325 2975 -200 
z
" transform="scale(0.015625)"/>
       <path id="SimHei-5c0f" d="M 3500 5150 
Q 3475 4800 3475 4200 
L 3475 175 
Q 3475 -300 3225 -425 
Q 2975 -550 2375 -600 
Q 2325 -300 2150 -25 
Q 2700 -25 2837 0 
Q 2975 25 2975 300 
L 2975 4200 
Q 2975 4650 2950 5150 
L 3500 5150 
z
M 2075 3400 
Q 1850 2775 1550 1962 
Q 1250 1150 1025 750 
Q 775 950 500 1000 
Q 925 1750 1175 2487 
Q 1425 3225 1500 3575 
Q 1800 3425 2075 3400 
z
M 4675 3600 
Q 5675 1800 5875 1150 
Q 5625 1100 5375 925 
Q 5000 2000 4225 3325 
Q 4425 3425 4675 3600 
z
" transform="scale(0.015625)"/>
       <path id="SimHei-29" d="M 1675 2250 
Q 1675 1425 1362 775 
Q 1050 125 425 -475 
L 150 -200 
Q 725 325 1012 912 
Q 1300 1500 1300 2250 
Q 1300 3000 1012 3587 
Q 725 4175 150 4725 
L 425 5000 
Q 1050 4375 1362 3725 
Q 1675 3075 1675 2250 
z
" transform="scale(0.015625)"/>
      </defs>
      <use xlink:href="#SimHei-65f6"/>
      <use xlink:href="#SimHei-95f4" x="100"/>
      <use xlink:href="#SimHei-20" x="200"/>
      <use xlink:href="#SimHei-28" x="250"/>
      <use xlink:href="#SimHei-5c0f" x="300"/>
      <use xlink:href="#SimHei-65f6" x="400"/>
      <use xlink:href="#SimHei-29" x="500"/>
     </g>
    </g>
   </g>
   <g id="matplotlib.axis_2">
    <g id="ytick_1">
     <g id="line2d_27">
      <path d="M 44.121875 386.59875 
L 844.021875 386.59875 
" clip-path="url(#pbf3bc116f4)" style="fill: none; stroke-dasharray: 2.96,1.28; stroke-dashoffset: 0; stroke: #b0b0b0; stroke-opacity: 0.3; stroke-width: 0.8"/>
     </g>
     <g id="line2d_28">
      <defs>
       <path id="ma9c0737e23" d="M 0 0 
L -3.5 0 
" style="stroke: #000000; stroke-width: 0.8"/>
      </defs>
      <g>
       <use xlink:href="#ma9c0737e23" x="44.121875" y="386.59875" style="stroke: #000000; stroke-width: 0.8"/>
      </g>
     </g>
     <g id="text_15">
      <!-- 0.0 -->
      <g transform="translate(22.121875 390.03625) scale(0.1 -0.1)">
       <defs>
        <path id="SimHei-2e" d="M 1075 125 
L 500 125 
L 500 675 
L 1075 675 
L 1075 125 
z
" transform="scale(0.015625)"/>
       </defs>
       <use xlink:href="#SimHei-30"/>
       <use xlink:href="#SimHei-2e" x="50"/>
       <use xlink:href="#SimHei-30" x="100"/>
      </g>
     </g>
    </g>
    <g id="ytick_2">
     <g id="line2d_29">
      <path d="M 44.121875 314.194 
L 844.021875 314.194 
" clip-path="url(#pbf3bc116f4)" style="fill: none; stroke-dasharray: 2.96,1.28; stroke-dashoffset: 0; stroke: #b0b0b0; stroke-opacity: 0.3; stroke-width: 0.8"/>
     </g>
     <g id="line2d_30">
      <g>
       <use xlink:href="#ma9c0737e23" x="44.121875" y="314.194" style="stroke: #000000; stroke-width: 0.8"/>
      </g>
     </g>
     <g id="text_16">
      <!-- 0.2 -->
      <g transform="translate(22.121875 317.6315) scale(0.1 -0.1)">
       <use xlink:href="#SimHei-30"/>
       <use xlink:href="#SimHei-2e" x="50"/>
       <use xlink:href="#SimHei-32" x="100"/>
      </g>
     </g>
    </g>
    <g id="ytick_3">
     <g id="line2d_31">
      <path d="M 44.121875 241.78925 
L 844.021875 241.78925 
" clip-path="url(#pbf3bc116f4)" style="fill: none; stroke-dasharray: 2.96,1.28; stroke-dashoffset: 0; stroke: #b0b0b0; stroke-opacity: 0.3; stroke-width: 0.8"/>
     </g>
     <g id="line2d_32">
      <g>
       <use xlink:href="#ma9c0737e23" x="44.121875" y="241.78925" style="stroke: #000000; stroke-width: 0.8"/>
      </g>
     </g>
     <g id="text_17">
      <!-- 0.4 -->
      <g transform="translate(22.121875 245.22675) scale(0.1 -0.1)">
       <use xlink:href="#SimHei-30"/>
       <use xlink:href="#SimHei-2e" x="50"/>
       <use xlink:href="#SimHei-34" x="100"/>
      </g>
     </g>
    </g>
    <g id="ytick_4">
     <g id="line2d_33">
      <path d="M 44.121875 169.3845 
L 844.021875 169.3845 
" clip-path="url(#pbf3bc116f4)" style="fill: none; stroke-dasharray: 2.96,1.28; stroke-dashoffset: 0; stroke: #b0b0b0; stroke-opacity: 0.3; stroke-width: 0.8"/>
     </g>
     <g id="line2d_34">
      <g>
       <use xlink:href="#ma9c0737e23" x="44.121875" y="169.3845" style="stroke: #000000; stroke-width: 0.8"/>
      </g>
     </g>
     <g id="text_18">
      <!-- 0.6 -->
      <g transform="translate(22.121875 172.822) scale(0.1 -0.1)">
       <use xlink:href="#SimHei-30"/>
       <use xlink:href="#SimHei-2e" x="50"/>
       <use xlink:href="#SimHei-36" x="100"/>
      </g>
     </g>
    </g>
    <g id="ytick_5">
     <g id="line2d_35">
      <path d="M 44.121875 96.97975 
L 844.021875 96.97975 
" clip-path="url(#pbf3bc116f4)" style="fill: none; stroke-dasharray: 2.96,1.28; stroke-dashoffset: 0; stroke: #b0b0b0; stroke-opacity: 0.3; stroke-width: 0.8"/>
     </g>
     <g id="line2d_36">
      <g>
       <use xlink:href="#ma9c0737e23" x="44.121875" y="96.97975" style="stroke: #000000; stroke-width: 0.8"/>
      </g>
     </g>
     <g id="text_19">
      <!-- 0.8 -->
      <g transform="translate(22.121875 100.41725) scale(0.1 -0.1)">
       <use xlink:href="#SimHei-30"/>
       <use xlink:href="#SimHei-2e" x="50"/>
       <use xlink:href="#SimHei-38" x="100"/>
      </g>
     </g>
    </g>
    <g id="ytick_6">
     <g id="line2d_37">
      <path d="M 44.121875 24.575 
L 844.021875 24.575 
" clip-path="url(#pbf3bc116f4)" style="fill: none; stroke-dasharray: 2.96,1.28; stroke-dashoffset: 0; stroke: #b0b0b0; stroke-opacity: 0.3; stroke-width: 0.8"/>
     </g>
     <g id="line2d_38">
      <g>
       <use xlink:href="#ma9c0737e23" x="44.121875" y="24.575" style="stroke: #000000; stroke-width: 0.8"/>
      </g>
     </g>
     <g id="text_20">
      <!-- 1.0 -->
      <g transform="translate(22.121875 28.0125) scale(0.1 -0.1)">
       <use xlink:href="#SimHei-31"/>
       <use xlink:href="#SimHei-2e" x="50"/>
       <use xlink:href="#SimHei-30" x="100"/>
      </g>
     </g>
    </g>
    <g id="text_21">
     <!-- 储能SOC -->
     <g transform="translate(16.621875 226.586875) rotate(-90) scale(0.12 -0.12)">
      <defs>
       <path id="SimHei-50a8" d="M 4125 4425 
Q 4125 4875 4100 5175 
L 4575 5175 
Q 4550 4900 4550 4425 
Q 4775 4425 5075 4450 
L 5075 4025 
Q 4800 4050 4550 4050 
L 4550 3150 
L 4725 3150 
Q 5275 4100 5400 4625 
L 5950 4375 
Q 5775 4250 5575 3825 
Q 5375 3400 5225 3150 
L 5500 3150 
Q 5850 3150 6150 3175 
L 6150 2725 
Q 5850 2775 5425 2775 
L 5000 2775 
Q 4800 2525 4575 2225 
L 5700 2225 
Q 5675 1850 5675 825 
Q 5675 -200 5725 -475 
L 5250 -475 
L 5250 -125 
L 4075 -125 
L 4075 -575 
L 3600 -575 
Q 3650 -275 3650 1450 
Q 3450 1300 3225 1100 
Q 3050 1325 2875 1500 
Q 3275 1675 3650 1950 
Q 3625 2125 3600 2225 
L 3975 2225 
Q 4325 2550 4475 2775 
L 3850 2775 
Q 3375 2775 3075 2725 
L 3075 3175 
Q 3375 3150 3725 3150 
L 4125 3150 
L 4125 4050 
Q 3725 4050 3400 4025 
L 3400 4450 
Q 3725 4425 4125 4425 
z
M 1875 4925 
Q 1700 4725 1425 3825 
L 1425 475 
Q 1425 -150 1450 -575 
L 950 -575 
Q 1000 -75 1000 425 
L 1000 3050 
Q 825 2725 525 2250 
Q 375 2500 200 2625 
Q 375 2875 762 3612 
Q 1150 4350 1275 5150 
Q 1525 5025 1875 4925 
z
M 2700 3150 
Q 2650 2850 2650 2250 
L 2650 700 
Q 2875 850 3050 1025 
Q 3100 775 3200 575 
Q 2550 125 2350 -100 
Q 2200 125 2050 275 
Q 2250 450 2225 775 
L 2225 2750 
Q 1950 2750 1700 2725 
L 1700 3175 
Q 2025 3150 2300 3150 
L 2700 3150 
z
M 5250 250 
L 5250 900 
L 4075 900 
L 4075 250 
L 5250 250 
z
M 5250 1275 
L 5250 1850 
L 4075 1850 
L 4075 1275 
L 5250 1275 
z
M 2600 4750 
Q 2675 4525 2775 4237 
Q 2875 3950 2950 3700 
Q 2725 3625 2500 3525 
Q 2425 3900 2175 4600 
Q 2350 4650 2600 4750 
z
" transform="scale(0.015625)"/>
       <path id="SimHei-80fd" d="M 2025 -150 
Q 2475 -150 2525 -62 
Q 2575 25 2575 200 
L 2575 550 
L 1225 550 
L 1225 -625 
L 750 -625 
Q 775 -125 775 275 
L 775 1950 
Q 775 2400 750 2750 
L 3050 2750 
Q 3025 2375 3025 1925 
L 3025 -175 
Q 3000 -450 2800 -525 
Q 2600 -600 2225 -650 
Q 2175 -425 2025 -150 
z
M 5800 1625 
Q 5700 1600 5212 1375 
Q 4725 1150 4100 950 
L 4100 250 
Q 4100 -50 4375 -50 
L 5275 -50 
Q 5475 0 5550 575 
Q 5750 475 6050 375 
Q 5875 -425 5475 -425 
L 4125 -425 
Q 3650 -425 3650 50 
L 3650 1675 
Q 3650 2050 3625 2350 
L 4125 2350 
Q 4100 2050 4100 1700 
L 4100 1375 
Q 4350 1450 4762 1650 
Q 5175 1850 5425 2075 
Q 5650 1775 5800 1625 
z
M 4100 4100 
Q 4450 4250 4775 4412 
Q 5100 4575 5425 4825 
Q 5625 4575 5775 4400 
Q 5625 4350 5137 4112 
Q 4650 3875 4100 3700 
L 4100 3325 
Q 4100 3025 4450 3025 
L 5175 3025 
Q 5425 3025 5500 3675 
Q 5750 3550 6000 3450 
Q 5825 2650 5375 2650 
L 4250 2650 
Q 3650 2650 3650 3200 
L 3650 4475 
Q 3650 4775 3625 5125 
L 4125 5125 
Q 4100 4950 4100 4400 
L 4100 4100 
z
M 3025 3075 
Q 2950 3200 2825 3350 
Q 2000 3300 1450 3250 
Q 900 3200 625 3125 
Q 550 3425 450 3650 
Q 625 3725 987 4187 
Q 1350 4650 1575 5175 
Q 1700 5075 1850 5025 
Q 2000 4975 2175 4900 
Q 1975 4750 1762 4450 
Q 1550 4150 1075 3600 
Q 2125 3650 2625 3675 
Q 2325 4075 2200 4200 
Q 2375 4300 2600 4475 
Q 2800 4200 2987 3975 
Q 3175 3750 3475 3400 
Q 3200 3200 3025 3075 
z
M 2575 950 
L 2575 1475 
L 1225 1475 
L 1225 950 
L 2575 950 
z
M 2575 1875 
L 2575 2350 
L 1225 2350 
L 1225 1875 
L 2575 1875 
z
" transform="scale(0.015625)"/>
       <path id="SimHei-53" d="M 2900 1325 
Q 2900 750 2537 412 
Q 2175 75 1550 75 
Q 925 75 575 425 
Q 225 775 225 1300 
L 225 1475 
L 800 1475 
L 800 1325 
Q 800 950 1025 750 
Q 1250 550 1550 550 
Q 1950 550 2137 762 
Q 2325 975 2325 1275 
Q 2325 1525 2100 1737 
Q 1875 1950 1450 2125 
Q 850 2350 587 2625 
Q 325 2900 325 3275 
Q 325 3800 687 4125 
Q 1050 4450 1550 4450 
Q 2200 4450 2487 4062 
Q 2775 3675 2775 3225 
L 2200 3225 
Q 2225 3500 2050 3725 
Q 1875 3950 1550 3950 
Q 1250 3950 1075 3787 
Q 900 3625 900 3350 
Q 900 3125 1037 2962 
Q 1175 2800 1750 2575 
Q 2300 2350 2600 2037 
Q 2900 1725 2900 1325 
z
" transform="scale(0.015625)"/>
       <path id="SimHei-4f" d="M 2950 2275 
Q 2950 1100 2587 587 
Q 2225 75 1575 75 
Q 925 75 550 587 
Q 175 1100 175 2275 
Q 175 3450 550 3950 
Q 925 4450 1575 4450 
Q 2225 4450 2587 3950 
Q 2950 3450 2950 2275 
z
M 2350 2275 
Q 2350 3325 2125 3650 
Q 1900 3975 1575 3975 
Q 1250 3975 1012 3650 
Q 775 3325 775 2275 
Q 775 1225 1012 887 
Q 1250 550 1575 550 
Q 1900 550 2125 887 
Q 2350 1225 2350 2275 
z
" transform="scale(0.015625)"/>
       <path id="SimHei-43" d="M 2975 1825 
Q 2950 875 2575 475 
Q 2200 75 1675 75 
Q 1075 75 650 562 
Q 225 1050 225 2125 
Q 225 3300 637 3875 
Q 1050 4450 1700 4450 
Q 2250 4450 2612 4037 
Q 2975 3625 2950 2875 
L 2400 2875 
Q 2400 3425 2225 3700 
Q 2050 3975 1700 3975 
Q 1300 3975 1062 3562 
Q 825 3150 825 2175 
Q 825 1275 1062 912 
Q 1300 550 1675 550 
Q 1950 550 2175 812 
Q 2400 1075 2400 1825 
L 2975 1825 
z
" transform="scale(0.015625)"/>
      </defs>
      <use xlink:href="#SimHei-50a8"/>
      <use xlink:href="#SimHei-80fd" x="100"/>
      <use xlink:href="#SimHei-53" x="200"/>
      <use xlink:href="#SimHei-4f" x="250"/>
      <use xlink:href="#SimHei-43" x="300"/>
     </g>
    </g>
   </g>
   <g id="line2d_39">
    <path d="M 44.121875 259.890438 
L 77.451042 259.890438 
L 77.451042 234.158852 
L 110.780208 234.158852 
L 110.780208 210.894402 
L 144.109375 210.894402 
L 144.109375 198.172775 
L 177.438542 198.172775 
L 177.438542 187.726905 
L 210.767708 187.726905 
L 210.767708 180.426438 
L 244.096875 180.426438 
L 244.096875 181.188756 
L 277.426042 181.188756 
L 277.426042 175.744828 
L 310.755208 175.744828 
L 310.755208 192.492503 
L 344.084375 192.492503 
L 344.084375 201.320858 
L 377.413542 201.320858 
L 377.413542 209.098808 
L 410.742708 209.098808 
L 410.742708 185.603599 
L 444.071875 185.603599 
L 444.071875 157.76507 
L 477.401042 157.76507 
L 477.401042 134.839732 
L 510.730208 134.839732 
L 510.730208 140.531408 
L 544.059375 140.531408 
L 544.059375 142.544276 
L 577.388542 142.544276 
L 577.388542 141.624165 
L 610.717708 141.624165 
L 610.717708 164.498843 
L 644.046875 164.498843 
L 644.046875 186.285781 
L 677.376042 186.285781 
L 677.376042 207.029083 
L 710.705208 207.029083 
L 710.705208 220.121797 
L 744.034375 220.121797 
L 744.034375 246.044623 
L 777.363542 246.044623 
L 777.363542 234.633984 
L 810.692708 234.633984 
L 810.692708 242.196893 
L 844.021875 242.196893 
L 844.021875 240.973565 
L 844.021875 240.973565 
" clip-path="url(#pbf3bc116f4)" style="fill: none; stroke-dasharray: 9.25,4; stroke-dashoffset: 0; stroke: #0000ff; stroke-opacity: 0.8; stroke-width: 2.5"/>
   </g>
   <g id="line2d_40">
    <path d="M 44.121875 248.048102 
L 52.454167 248.048102 
L 52.454167 248.682228 
L 60.786458 248.682228 
L 60.786458 256.445786 
L 69.11875 256.445786 
L 69.11875 254.167123 
L 77.451042 254.167123 
L 77.451042 223.381399 
L 85.783333 223.381399 
L 85.783333 226.433987 
L 94.115625 226.433987 
L 94.115625 215.290851 
L 102.447917 215.290851 
L 102.447917 251.525894 
L 110.780208 251.525894 
L 110.780208 218.139072 
L 119.1125 218.139072 
L 119.1125 201.572971 
L 127.444792 201.572971 
L 127.444792 222.290131 
L 135.777083 222.290131 
L 135.777083 224.52464 
L 144.109375 224.52464 
L 144.109375 220.24285 
L 152.441667 220.24285 
L 152.441667 188.479535 
L 160.773958 188.479535 
L 160.773958 191.995844 
L 169.10625 191.995844 
L 169.10625 200.424965 
L 177.438542 200.424965 
L 177.438542 201.288024 
L 185.770833 201.288024 
L 185.770833 201.692679 
L 194.103125 201.692679 
L 194.103125 149.206666 
L 202.435417 149.206666 
L 202.435417 170.228455 
L 210.767708 170.228455 
L 210.767708 177.767672 
L 219.1 177.767672 
L 219.1 180.134511 
L 227.432292 180.134511 
L 227.432292 178.597884 
L 235.764583 178.597884 
L 235.764583 149.337886 
L 244.096875 149.337886 
L 244.096875 182.741488 
L 252.429167 182.741488 
L 252.429167 175.183996 
L 260.761458 175.183996 
L 260.761458 186.580583 
L 269.09375 186.580583 
L 269.09375 184.18127 
L 277.426042 184.18127 
L 277.426042 158.749517 
L 285.758333 158.749517 
L 285.758333 162.560397 
L 294.090625 162.560397 
L 294.090625 176.15208 
L 302.422917 176.15208 
L 302.422917 182.222992 
L 310.755208 182.222992 
L 310.755208 172.803182 
L 319.0875 172.803182 
L 319.0875 241.466447 
L 327.419792 241.466447 
L 327.419792 200.075665 
L 335.752083 200.075665 
L 335.752083 214.244773 
L 344.084375 214.244773 
L 344.084375 184.390056 
L 352.416667 184.390056 
L 352.416667 181.355064 
L 360.748958 181.355064 
L 360.748958 225.72659 
L 369.08125 225.72659 
L 369.08125 217.579162 
L 377.413542 217.579162 
L 377.413542 219.016412 
L 385.745833 219.016412 
L 385.745833 244.68436 
L 394.078125 244.68436 
L 394.078125 198.832118 
L 402.410417 198.832118 
L 402.410417 234.203401 
L 410.742708 234.203401 
L 410.742708 194.356995 
L 419.075 194.356995 
L 419.075 123.214992 
L 427.407292 123.214992 
L 427.407292 151.279264 
L 435.739583 151.279264 
L 435.739583 147.611217 
L 444.071875 147.611217 
L 444.071875 158.611862 
L 452.404167 158.611862 
L 452.404167 105.678174 
L 460.736458 105.678174 
L 460.736458 126.549716 
L 469.06875 126.549716 
L 469.06875 164.159392 
L 477.401042 164.159392 
L 477.401042 113.618418 
L 485.733333 113.618418 
L 485.733333 143.037352 
L 494.065625 143.037352 
L 494.065625 118.617798 
L 502.397917 118.617798 
L 502.397917 153.712386 
L 510.730208 153.712386 
L 510.730208 109.728509 
L 519.0625 109.728509 
L 519.0625 134.657875 
L 527.394792 134.657875 
L 527.394792 122.944715 
L 535.727083 122.944715 
L 535.727083 134.297597 
L 544.059375 134.297597 
L 544.059375 156.055464 
L 552.391667 156.055464 
L 552.391667 135.938465 
L 560.723958 135.938465 
L 560.723958 74.520738 
L 569.05625 74.520738 
L 569.05625 162.653463 
L 577.388542 162.653463 
L 577.388542 117.174533 
L 585.720833 117.174533 
L 585.720833 155.998167 
L 594.053125 155.998167 
L 594.053125 108.383448 
L 602.385417 108.383448 
L 602.385417 134.116957 
L 610.717708 134.116957 
L 610.717708 156.424209 
L 619.05 156.424209 
L 619.05 170.200501 
L 627.382292 170.200501 
L 627.382292 176.891812 
L 635.714583 176.891812 
L 635.714583 173.715041 
L 644.046875 173.715041 
L 644.046875 168.625484 
L 652.379167 168.625484 
L 652.379167 222.11578 
L 660.711458 222.11578 
L 660.711458 200.271234 
L 669.04375 200.271234 
L 669.04375 228.246163 
L 677.376042 228.246163 
L 677.376042 240.288891 
L 685.708333 240.288891 
L 685.708333 194.558893 
L 694.040625 194.558893 
L 694.040625 212.152923 
L 702.372917 212.152923 
L 702.372917 193.326005 
L 710.705208 193.326005 
L 710.705208 242.472852 
L 719.0375 242.472852 
L 719.0375 235.066762 
L 727.369792 235.066762 
L 727.369792 233.738524 
L 735.702083 233.738524 
L 735.702083 221.165018 
L 744.034375 221.165018 
L 744.034375 235.159662 
L 752.366667 235.159662 
L 752.366667 220.854256 
L 760.698958 220.854256 
L 760.698958 242.738089 
L 769.03125 242.738089 
L 769.03125 260.227761 
L 777.363542 260.227761 
L 777.363542 248.369408 
L 785.695833 248.369408 
L 785.695833 262.43049 
L 794.028125 262.43049 
L 794.028125 246.377025 
L 802.360417 246.377025 
L 802.360417 216.383168 
L 810.692708 216.383168 
L 810.692708 245.600634 
L 819.025 245.600634 
L 819.025 224.405549 
L 827.357292 224.405549 
L 827.357292 220.346322 
L 835.689583 220.346322 
L 835.689583 239.873334 
L 844.021875 239.873334 
L 844.021875 227.063576 
L 844.021875 227.063576 
" clip-path="url(#pbf3bc116f4)" style="fill: none; stroke: #ff0000; stroke-width: 2; stroke-linecap: square"/>
   </g>
   <g id="line2d_41">
    <path d="M 44.121875 350.396375 
L 844.021875 350.396375 
" clip-path="url(#pbf3bc116f4)" style="fill: none; stroke-dasharray: 1.5,2.475; stroke-dashoffset: 0; stroke: #808080; stroke-opacity: 0.5; stroke-width: 1.5"/>
   </g>
   <g id="line2d_42">
    <path d="M 44.121875 60.777375 
L 844.021875 60.777375 
" clip-path="url(#pbf3bc116f4)" style="fill: none; stroke-dasharray: 1.5,2.475; stroke-dashoffset: 0; stroke: #808080; stroke-opacity: 0.5; stroke-width: 1.5"/>
   </g>
   <g id="patch_3">
    <path d="M 44.121875 386.59875 
L 44.121875 24.575 
" style="fill: none; stroke: #000000; stroke-width: 0.8; stroke-linejoin: miter; stroke-linecap: square"/>
   </g>
   <g id="patch_4">
    <path d="M 844.021875 386.59875 
L 844.021875 24.575 
" style="fill: none; stroke: #000000; stroke-width: 0.8; stroke-linejoin: miter; stroke-linecap: square"/>
   </g>
   <g id="patch_5">
    <path d="M 44.121875 386.59875 
L 844.021875 386.59875 
" style="fill: none; stroke: #000000; stroke-width: 0.8; stroke-linejoin: miter; stroke-linecap: square"/>
   </g>
   <g id="patch_6">
    <path d="M 44.121875 24.575 
L 844.021875 24.575 
" style="fill: none; stroke: #000000; stroke-width: 0.8; stroke-linejoin: miter; stroke-linecap: square"/>
   </g>
   <g id="patch_7">
    <path d="M 144.109375 138.309419 
Q 144.109375 170.948265 144.109375 202.469078 
" style="fill: none; opacity: 0.5; stroke: #808080; stroke-linecap: round"/>
    <path d="M 145.909375 198.869078 
L 144.109375 202.469078 
L 142.309375 198.869078 
" style="fill: none; opacity: 0.5; stroke: #808080; stroke-linecap: round"/>
   </g>
   <g id="text_22">
    <!-- 谷电充电 -->
    <g style="fill: #808080" transform="translate(126.109375 133.182125) scale(0.09 -0.09)">
     <defs>
      <path id="SimHei-8c37" d="M 3425 3675 
Q 3600 3400 3887 3150 
Q 4175 2900 4550 2662 
Q 4925 2425 5350 2275 
Q 5775 2125 6175 2050 
Q 5925 1800 5825 1450 
L 4925 1825 
Q 4900 1425 4900 675 
Q 4900 -50 4925 -575 
L 4400 -575 
L 4400 -100 
L 1925 -100 
L 1925 -650 
L 1400 -650 
Q 1425 -125 1425 600 
Q 1425 1350 1400 1750 
Q 975 1500 675 1350 
Q 400 1750 250 1850 
Q 775 2025 1212 2262 
Q 1650 2500 2000 2812 
Q 2350 3125 2612 3487 
Q 2875 3850 3075 4275 
Q 3375 4125 3725 4025 
Q 3575 3875 3425 3675 
z
M 4400 325 
L 4400 1450 
L 1925 1450 
L 1925 325 
L 4400 325 
z
M 4725 1875 
Q 4225 2175 3762 2612 
Q 3300 3050 3175 3300 
Q 2825 2900 2450 2537 
Q 2075 2175 1600 1875 
L 4725 1875 
z
M 2600 4900 
Q 2250 4675 1800 4200 
Q 1350 3725 900 3375 
Q 725 3600 450 3750 
Q 900 4025 1287 4375 
Q 1675 4725 1975 5200 
Q 2200 5025 2600 4900 
z
M 5800 4025 
Q 5550 3825 5425 3600 
Q 5000 3925 3800 4775 
Q 3900 4950 4150 5200 
Q 4525 4875 5800 4025 
z
" transform="scale(0.015625)"/>
      <path id="SimHei-7535" d="M 6150 325 
Q 5975 -250 5825 -412 
Q 5675 -575 5325 -575 
L 3375 -575 
Q 2700 -600 2675 100 
L 2675 975 
L 1225 975 
L 1225 500 
L 650 500 
Q 675 750 675 2225 
Q 675 3700 650 4150 
L 2675 4150 
Q 2675 4825 2650 5200 
L 3200 5200 
Q 3175 4875 3175 4150 
L 5200 4150 
Q 5175 3775 5175 2600 
Q 5175 1450 5200 975 
L 3175 975 
L 3175 300 
Q 3175 -150 3650 -150 
L 4975 -150 
Q 5375 -150 5450 25 
Q 5525 200 5575 575 
Q 5825 400 6150 325 
z
M 4675 1400 
L 4675 2400 
L 3175 2400 
L 3175 1400 
L 4675 1400 
z
M 2675 1400 
L 2675 2400 
L 1225 2400 
L 1225 1400 
L 2675 1400 
z
M 4675 2800 
L 4675 3725 
L 3175 3725 
L 3175 2800 
L 4675 2800 
z
M 2675 2800 
L 2675 3725 
L 1225 3725 
L 1225 2800 
L 2675 2800 
z
" transform="scale(0.015625)"/>
      <path id="SimHei-5145" d="M 3325 5175 
Q 3425 4825 3600 4300 
L 4900 4300 
Q 5425 4300 5775 4325 
L 5775 3825 
Q 5525 3850 4925 3850 
L 2675 3850 
Q 2850 3700 3100 3550 
Q 2775 3400 1875 2675 
L 4475 2750 
Q 4275 2975 3900 3275 
Q 4150 3450 4275 3600 
Q 5250 2775 5625 2350 
Q 5400 2200 5200 1975 
Q 5000 2225 4800 2425 
Q 4475 2400 4100 2375 
L 4100 325 
Q 4100 0 4425 0 
L 5125 0 
Q 5325 0 5375 175 
Q 5425 350 5475 800 
Q 5850 625 6075 600 
Q 5875 -250 5700 -350 
Q 5525 -450 5275 -450 
L 4225 -450 
Q 3650 -450 3650 75 
L 3650 2325 
L 2650 2250 
Q 2675 -75 800 -650 
Q 650 -375 400 -225 
Q 2225 275 2175 2200 
Q 1550 2150 1175 2050 
Q 1100 2450 1025 2725 
Q 1575 2875 1900 3200 
Q 2225 3525 2475 3850 
L 1450 3850 
Q 1025 3850 575 3825 
L 575 4325 
Q 1025 4300 1450 4300 
L 3000 4300 
Q 2875 4725 2750 5025 
Q 3075 5100 3325 5175 
z
" transform="scale(0.015625)"/>
     </defs>
     <use xlink:href="#SimHei-8c37"/>
     <use xlink:href="#SimHei-7535" x="100"/>
     <use xlink:href="#SimHei-5145" x="200"/>
     <use xlink:href="#SimHei-7535" x="300"/>
    </g>
   </g>
   <g id="patch_8">
    <path d="M 494.065625 102.104705 
Q 494.065625 134.744686 494.065625 166.266633 
" style="fill: none; opacity: 0.5; stroke: #808080; stroke-linecap: round"/>
    <path d="M 495.865625 162.666633 
L 494.065625 166.266633 
L 492.265625 162.666633 
" style="fill: none; opacity: 0.5; stroke: #808080; stroke-linecap: round"/>
   </g>
   <g id="text_23">
    <!-- 光伏消纳 -->
    <g style="fill: #808080" transform="translate(476.065625 96.97975) scale(0.09 -0.09)">
     <defs>
      <path id="SimHei-5149" d="M 6050 2300 
Q 5775 2325 5150 2325 
L 4050 2325 
L 4050 400 
Q 4050 50 4425 50 
L 4975 50 
Q 5300 50 5375 212 
Q 5450 375 5500 850 
Q 5750 625 6100 525 
Q 6000 175 5837 -100 
Q 5675 -375 5325 -375 
L 4100 -375 
Q 3550 -375 3550 175 
L 3550 2325 
L 2775 2325 
Q 2825 125 575 -575 
Q 400 -275 225 -50 
Q 1225 150 1737 687 
Q 2250 1225 2275 2325 
L 1450 2325 
Q 625 2325 375 2300 
L 375 2775 
Q 625 2750 1425 2750 
L 2950 2750 
L 2950 4300 
Q 2950 4750 2925 5150 
L 3525 5150 
Q 3475 4900 3475 4300 
L 3475 2750 
L 5150 2750 
Q 5725 2750 6050 2775 
L 6050 2300 
z
M 4100 3325 
Q 4700 4050 4875 4575 
Q 5200 4375 5475 4275 
Q 5300 4100 5075 3762 
Q 4850 3425 4575 3050 
Q 4300 3200 4100 3325 
z
M 1775 3000 
Q 1600 3375 1025 4150 
Q 1275 4300 1550 4450 
Q 1800 4100 1962 3850 
Q 2125 3600 2300 3300 
Q 2025 3175 1775 3000 
z
" transform="scale(0.015625)"/>
      <path id="SimHei-4f0f" d="M 2825 2875 
Q 2375 2875 2050 2850 
L 2050 3350 
Q 2350 3325 2800 3325 
L 3675 3325 
Q 3700 4575 3650 5125 
Q 3950 5075 4250 5050 
Q 4175 4525 4175 3325 
L 5400 3325 
Q 5775 3325 6125 3350 
L 6125 2850 
Q 5875 2875 5400 2875 
L 4225 2875 
Q 4650 650 6100 -150 
Q 5900 -275 5675 -600 
Q 4350 425 3975 2075 
Q 3650 575 2350 -600 
Q 2175 -350 1900 -175 
Q 3400 800 3625 2875 
L 2825 2875 
z
M 2275 5025 
Q 2175 4875 1700 3825 
L 1700 650 
Q 1700 -50 1725 -600 
L 1200 -600 
Q 1225 -150 1225 625 
L 1225 3025 
Q 825 2400 525 2025 
Q 425 2175 200 2450 
Q 575 2775 1037 3600 
Q 1500 4425 1725 5275 
Q 1925 5150 2275 5025 
z
M 5200 4950 
Q 5525 4450 5775 3925 
Q 5600 3850 5275 3675 
Q 4975 4400 4750 4700 
Q 4975 4775 5200 4950 
z
" transform="scale(0.015625)"/>
      <path id="SimHei-6d88" d="M 3850 3350 
Q 3850 4825 3825 5225 
L 4425 5225 
Q 4400 4825 4400 3350 
L 5875 3350 
Q 5850 2700 5850 2325 
L 5850 -100 
Q 5850 -275 5687 -412 
Q 5525 -550 4975 -650 
Q 4950 -400 4675 -75 
Q 5050 -100 5187 -75 
Q 5325 -50 5325 125 
L 5325 700 
L 2950 700 
L 2950 -600 
L 2425 -600 
Q 2450 100 2450 625 
L 2450 2350 
Q 2450 2950 2425 3350 
L 3850 3350 
z
M 5325 2250 
L 5325 2925 
L 2950 2925 
L 2950 2250 
L 5325 2250 
z
M 5325 1125 
L 5325 1800 
L 2950 1800 
L 2950 1125 
L 5325 1125 
z
M 1750 1500 
Q 1600 1275 1387 662 
Q 1175 50 1000 -600 
Q 700 -350 300 -250 
Q 550 25 800 550 
Q 1050 1075 1250 1875 
Q 1500 1650 1750 1500 
z
M 950 5025 
Q 1400 4700 1900 4200 
Q 1625 4000 1475 3800 
Q 1050 4300 550 4700 
Q 725 4775 950 5025 
z
M 525 3400 
Q 1125 3100 1650 2750 
Q 1475 2550 1300 2300 
Q 825 2675 250 3000 
Q 375 3150 525 3400 
z
M 6175 4675 
Q 6025 4575 5775 4262 
Q 5525 3950 5350 3650 
L 4900 3900 
Q 5250 4300 5600 5000 
Q 5900 4800 6175 4675 
z
M 2625 4975 
Q 2950 4575 3300 3950 
Q 3025 3825 2825 3675 
Q 2575 4200 2150 4700 
Q 2375 4800 2625 4975 
z
" transform="scale(0.015625)"/>
      <path id="SimHei-7eb3" d="M 3350 -600 
L 2900 -600 
Q 2925 -150 2925 525 
L 2925 2975 
Q 2925 3600 2900 4050 
L 4150 4050 
Q 4150 4675 4125 5125 
Q 4400 5125 4700 5100 
Q 4625 4950 4612 4675 
Q 4600 4400 4600 4050 
L 5975 4050 
Q 5950 3550 5950 3100 
L 5950 -100 
Q 5950 -425 5750 -500 
Q 5550 -575 5100 -650 
Q 5025 -400 4900 -150 
Q 5175 -150 5337 -125 
Q 5500 -100 5500 125 
L 5500 3675 
L 4600 3675 
Q 4600 3100 4525 2650 
Q 4725 2425 4987 2150 
Q 5250 1875 5450 1600 
Q 5275 1475 5125 1275 
Q 4925 1650 4425 2200 
Q 4300 1850 4137 1600 
Q 3975 1350 3750 1025 
Q 3525 1175 3350 1250 
L 3350 -600 
z
M 2525 1875 
Q 2475 1700 2475 1475 
Q 2125 1425 1562 1325 
Q 1000 1225 500 1075 
Q 425 1325 325 1525 
Q 650 1675 962 1987 
Q 1275 2300 1625 2825 
Q 1275 2825 975 2812 
Q 675 2800 425 2700 
Q 350 2925 225 3150 
Q 525 3350 887 3887 
Q 1250 4425 1575 5050 
Q 1800 4925 2075 4850 
Q 1975 4750 1637 4237 
Q 1300 3725 850 3200 
Q 1525 3175 1825 3150 
Q 2100 3600 2225 3850 
Q 2475 3700 2725 3650 
Q 2550 3475 2087 2800 
Q 1625 2125 1150 1650 
Q 1650 1725 2525 1875 
z
M 3350 1300 
Q 3650 1625 3800 1875 
Q 3950 2150 4025 2437 
Q 4100 2725 4125 3025 
Q 4150 3325 4150 3675 
L 3350 3675 
L 3350 1300 
z
M 2500 300 
Q 1950 175 1375 0 
Q 800 -175 550 -275 
Q 475 25 325 200 
Q 650 250 1112 362 
Q 1575 475 2550 725 
Q 2500 500 2500 300 
z
" transform="scale(0.015625)"/>
     </defs>
     <use xlink:href="#SimHei-5149"/>
     <use xlink:href="#SimHei-4f0f" x="100"/>
     <use xlink:href="#SimHei-6d88" x="200"/>
     <use xlink:href="#SimHei-7eb3" x="300"/>
    </g>
   </g>
   <g id="patch_9">
    <path d="M 677.376042 302.982736 
Q 677.376042 273.385093 677.376042 244.905484 
" style="fill: none; opacity: 0.5; stroke: #808080; stroke-linecap: round"/>
    <path d="M 675.576042 248.505484 
L 677.376042 244.905484 
L 679.176042 248.505484 
" style="fill: none; opacity: 0.5; stroke: #808080; stroke-linecap: round"/>
   </g>
   <g id="text_24">
    <!-- 高峰放电 -->
    <g style="fill: #808080" transform="translate(659.376042 314.194) scale(0.09 -0.09)">
     <defs>
      <path id="SimHei-9ad8" d="M 5825 -25 
Q 5850 -400 5550 -500 
Q 5250 -600 4975 -625 
Q 4875 -325 4725 -100 
Q 4975 -100 5175 -87 
Q 5375 -75 5350 250 
L 5350 1825 
L 1100 1825 
L 1100 -575 
L 600 -575 
Q 625 -225 625 850 
Q 625 1950 600 2200 
L 5850 2200 
Q 5825 1850 5825 1425 
L 5825 -25 
z
M 4925 3800 
Q 4900 3475 4900 3175 
Q 4900 2900 4925 2600 
L 1400 2600 
Q 1425 2825 1425 3175 
Q 1425 3525 1400 3800 
L 4925 3800 
z
M 4500 1400 
Q 4475 1125 4475 800 
Q 4475 500 4500 200 
L 1950 200 
Q 2000 500 2000 800 
Q 2000 1125 1950 1400 
L 4500 1400 
z
M 425 4600 
Q 750 4575 1125 4575 
L 2925 4575 
Q 2850 4875 2750 5100 
Q 3050 5125 3350 5200 
Q 3400 4950 3525 4575 
L 5250 4575 
Q 5600 4575 5975 4600 
L 5975 4150 
Q 5600 4175 5050 4175 
L 1150 4175 
Q 750 4175 425 4150 
L 425 4600 
z
M 4450 2975 
L 4450 3425 
L 1900 3425 
L 1900 2975 
L 4450 2975 
z
M 4025 550 
L 4025 1050 
L 2400 1050 
L 2400 550 
L 4025 550 
z
" transform="scale(0.015625)"/>
      <path id="SimHei-5cf0" d="M 400 2925 
Q 400 3300 375 3750 
L 850 3750 
Q 825 3150 825 2925 
L 825 600 
L 1250 700 
L 1250 4125 
Q 1250 4575 1225 4950 
L 1700 4950 
Q 1675 4350 1675 4125 
L 1675 750 
L 2050 825 
L 2050 3000 
Q 2050 3425 2025 3750 
L 2525 3750 
Q 2500 3200 2500 3000 
L 2500 925 
Q 2500 700 2525 -25 
L 2050 -25 
L 2050 425 
L 375 100 
Q 400 550 400 975 
L 400 2925 
z
M 4375 5000 
Q 4225 4825 4075 4600 
L 5675 4600 
Q 5500 4300 5275 3950 
Q 5050 3600 4800 3375 
Q 5475 3050 6200 3025 
Q 6000 2725 5950 2475 
Q 5425 2600 5125 2750 
Q 4825 2900 4450 3100 
Q 4175 2925 3800 2750 
Q 3425 2575 2900 2375 
Q 2775 2600 2600 2825 
Q 3025 2900 3375 3025 
Q 3725 3150 4100 3375 
Q 3850 3625 3625 3975 
Q 3325 3550 3100 3325 
Q 2950 3475 2750 3625 
Q 3100 3950 3362 4350 
Q 3625 4750 3825 5250 
Q 4075 5125 4375 5000 
z
M 5050 2225 
Q 5250 2225 5700 2250 
L 5700 1825 
Q 5250 1850 5075 1850 
L 4625 1850 
L 4625 1375 
L 4900 1375 
Q 5100 1375 5575 1400 
L 5575 975 
Q 5275 1000 4950 1000 
L 4625 1000 
L 4625 525 
L 5150 525 
Q 5500 525 5850 550 
L 5850 125 
Q 5575 150 5175 150 
L 4625 150 
Q 4625 -225 4650 -650 
L 4175 -650 
Q 4200 -200 4200 150 
L 3650 150 
Q 3475 150 2975 125 
L 2975 550 
Q 3325 525 3650 525 
L 4175 525 
L 4175 1000 
L 3850 1000 
Q 3500 1000 3125 975 
L 3125 1400 
Q 3500 1375 3850 1375 
L 4175 1375 
L 4175 1850 
L 3875 1850 
Q 3475 1850 3075 1825 
L 3075 2250 
Q 3475 2225 3875 2225 
L 4175 2225 
Q 4175 2475 4150 2750 
L 4650 2750 
Q 4625 2475 4625 2225 
L 5050 2225 
z
M 4450 3625 
Q 4700 3800 4950 4225 
L 3925 4225 
Q 4225 3775 4450 3625 
z
" transform="scale(0.015625)"/>
      <path id="SimHei-653e" d="M 4250 700 
Q 3825 1600 3575 2675 
Q 3450 2450 3350 2275 
Q 3250 2450 2975 2650 
Q 3250 2975 3525 3712 
Q 3800 4450 3950 5250 
Q 4275 5100 4575 5025 
Q 4425 4825 4300 4512 
Q 4175 4200 4075 3900 
L 5250 3900 
Q 5625 3900 6050 3925 
L 6050 3450 
Q 5675 3475 5475 3475 
Q 5425 2625 5275 1925 
Q 5125 1225 4850 675 
Q 5325 100 6150 -150 
Q 5950 -400 5875 -650 
Q 5075 -350 4550 350 
Q 4000 -200 3175 -650 
Q 3075 -375 2825 -200 
Q 3675 75 4250 700 
z
M 1650 100 
Q 2050 75 2225 137 
Q 2400 200 2437 725 
Q 2475 1250 2500 2250 
L 1600 2250 
Q 1550 1325 1325 662 
Q 1100 0 650 -575 
Q 425 -375 200 -250 
Q 600 175 762 562 
Q 925 950 1050 1487 
Q 1175 2025 1150 3500 
Q 775 3500 325 3475 
L 325 3950 
Q 775 3925 1050 3925 
L 2400 3925 
Q 2775 3925 3125 3950 
L 3125 3475 
Q 2775 3500 2400 3500 
L 1625 3500 
L 1625 2650 
L 2950 2650 
Q 2900 1175 2862 675 
Q 2825 175 2762 -25 
Q 2700 -225 2487 -312 
Q 2275 -400 1850 -450 
Q 1800 -175 1650 100 
z
M 3975 3075 
Q 4225 1825 4550 1200 
Q 4875 1925 5000 3475 
L 3925 3475 
L 3700 3025 
L 3975 3075 
z
M 1575 5275 
Q 1850 4775 2075 4300 
Q 1825 4200 1600 4075 
Q 1375 4650 1125 5025 
Q 1350 5125 1575 5275 
z
" transform="scale(0.015625)"/>
     </defs>
     <use xlink:href="#SimHei-9ad8"/>
     <use xlink:href="#SimHei-5cf0" x="100"/>
     <use xlink:href="#SimHei-653e" x="200"/>
     <use xlink:href="#SimHei-7535" x="300"/>
    </g>
   </g>
   <g id="text_25">
    <g id="patch_10">
     <path d="M 60.119875 44.11235 
L 155.119875 44.11235 
Q 158.119875 44.11235 158.119875 41.11235 
L 158.119875 31.815475 
Q 158.119875 28.815475 155.119875 28.815475 
L 60.119875 28.815475 
Q 57.119875 28.815475 57.119875 31.815475 
L 57.119875 41.11235 
Q 57.119875 44.11235 60.119875 44.11235 
z
" style="fill: #f5deb3; opacity: 0.8; stroke: #000000; stroke-linejoin: miter"/>
    </g>
    <!-- 平均跟踪误差: 0.045 -->
    <g transform="translate(60.119875 39.86235) scale(0.1 -0.1)">
     <defs>
      <path id="SimHei-5e73" d="M 4525 4825 
Q 4900 4825 5450 4850 
L 5450 4375 
Q 4925 4400 4525 4400 
L 3475 4400 
L 3475 2025 
L 5000 2025 
Q 5550 2025 6025 2050 
L 6025 1575 
Q 5550 1600 5000 1600 
L 3475 1600 
L 3475 450 
Q 3475 -100 3500 -600 
L 2925 -600 
Q 2950 -100 2950 450 
L 2950 1600 
L 1125 1600 
Q 775 1600 375 1575 
L 375 2050 
Q 775 2025 1175 2025 
L 2950 2025 
L 2950 4400 
L 1775 4400 
Q 1400 4400 875 4375 
L 875 4850 
Q 1400 4825 1750 4825 
L 4525 4825 
z
M 3925 2600 
Q 4500 3300 4900 4125 
Q 5150 3950 5400 3825 
Q 4775 2850 4350 2300 
Q 4150 2475 3925 2600 
z
M 1975 2350 
Q 1600 3100 1050 3725 
Q 1250 3875 1450 4050 
Q 2075 3300 2450 2725 
Q 2150 2500 1975 2350 
z
" transform="scale(0.015625)"/>
      <path id="SimHei-5747" d="M 5775 275 
Q 5775 -325 5362 -450 
Q 4950 -575 4425 -600 
Q 4375 -275 4250 25 
Q 4950 -25 5125 62 
Q 5300 150 5300 500 
L 5375 3700 
L 3550 3700 
Q 3425 3375 3262 3037 
Q 3100 2700 2925 2400 
Q 2675 2550 2475 2625 
Q 3150 3625 3500 5200 
Q 3800 5100 4075 5025 
Q 3975 4875 3875 4650 
Q 3775 4425 3675 4125 
L 5900 4125 
L 5775 275 
z
M 1250 3625 
L 1250 4375 
Q 1250 4775 1225 5100 
L 1775 5100 
Q 1750 4725 1750 4375 
L 1750 3625 
L 1900 3625 
Q 2200 3625 2525 3650 
L 2525 3150 
Q 2200 3175 1900 3175 
L 1750 3175 
L 1750 1100 
L 2500 1375 
Q 2475 1125 2525 900 
Q 1225 475 962 362 
Q 700 250 475 150 
Q 375 475 250 750 
Q 575 800 800 850 
Q 1025 900 1250 975 
L 1250 3175 
L 1125 3175 
Q 850 3175 400 3150 
L 400 3650 
Q 850 3625 1100 3625 
L 1250 3625 
z
M 4950 1625 
Q 4675 1425 4137 1050 
Q 3600 675 3175 300 
Q 3000 575 2850 775 
Q 3350 1050 3762 1325 
Q 4175 1600 4775 2075 
Q 4825 1850 4950 1625 
z
M 3775 3150 
Q 4125 2800 4475 2300 
Q 4250 2125 4100 1975 
Q 3900 2325 3450 2825 
Q 3600 3000 3775 3150 
z
" transform="scale(0.015625)"/>
      <path id="SimHei-8ddf" d="M 5425 2275 
Q 5650 2025 5875 1900 
Q 5725 1800 5437 1525 
Q 5150 1250 4850 950 
Q 5050 625 5437 350 
Q 5825 75 6175 -50 
Q 5950 -250 5800 -525 
Q 5225 -200 4900 137 
Q 4575 475 4387 862 
Q 4200 1250 4112 1675 
Q 4025 2100 3975 2500 
L 3425 2500 
L 3425 150 
Q 3675 300 4075 650 
Q 4200 325 4275 225 
Q 4050 75 3700 -187 
Q 3350 -450 3150 -625 
L 2875 -275 
Q 3025 -150 3000 250 
L 3000 3875 
Q 3000 4525 2975 5050 
L 5550 5050 
Q 5525 4525 5525 3725 
Q 5525 2925 5550 2500 
L 4400 2500 
Q 4425 2275 4475 2000 
Q 4525 1725 4650 1350 
Q 4900 1575 5125 1850 
Q 5350 2125 5425 2275 
z
M 2700 1775 
Q 2325 1800 1950 1800 
L 1950 550 
Q 2125 575 2750 775 
Q 2700 575 2700 350 
Q 1350 -25 1050 -112 
Q 750 -200 450 -350 
Q 375 -125 225 150 
Q 350 175 650 250 
L 650 1850 
Q 650 2125 625 2475 
L 1100 2475 
Q 1075 2075 1075 1750 
L 1075 325 
Q 1275 375 1525 425 
L 1525 3050 
L 625 3050 
Q 650 3650 650 4100 
Q 650 4575 625 4975 
L 2600 4975 
Q 2575 4500 2575 4025 
Q 2575 3550 2600 3050 
L 1950 3050 
L 1950 2175 
Q 2325 2175 2700 2200 
L 2700 1775 
z
M 2150 3425 
L 2150 4600 
L 1075 4600 
L 1075 3425 
L 2150 3425 
z
M 5075 2900 
L 5075 3600 
L 3425 3600 
L 3425 2900 
L 5075 2900 
z
M 5075 3975 
L 5075 4650 
L 3425 4650 
L 3425 3975 
L 5075 3975 
z
" transform="scale(0.015625)"/>
      <path id="SimHei-8e2a" d="M 2575 400 
Q 1300 0 975 -125 
Q 650 -250 350 -400 
Q 275 -100 200 175 
L 525 250 
L 525 1875 
Q 525 2200 500 2450 
L 1000 2450 
Q 975 2200 975 1775 
L 975 400 
L 1425 500 
L 1425 3100 
L 550 3100 
L 550 4050 
Q 550 4525 525 4925 
L 2450 4925 
Q 2425 4450 2425 3975 
Q 2425 3500 2450 3100 
L 1850 3100 
L 1850 2075 
Q 2025 2075 2475 2100 
L 2475 1625 
Q 2025 1650 1850 1650 
L 1850 625 
L 2575 825 
L 2575 400 
z
M 3550 -75 
Q 4100 -125 4100 125 
L 4100 1800 
Q 3200 1800 2750 1775 
L 2750 2225 
Q 3200 2200 4425 2200 
Q 5675 2200 6050 2225 
L 6050 1775 
Q 5675 1800 4575 1800 
L 4575 100 
Q 4575 -400 4325 -500 
Q 4075 -600 3675 -625 
Q 3650 -350 3550 -75 
z
M 4375 5275 
Q 4550 4700 4625 4450 
L 6025 4450 
Q 6000 4200 6000 3925 
Q 6000 3650 6025 3450 
L 5525 3450 
L 5525 4050 
L 3175 4050 
L 3175 3450 
L 2725 3450 
Q 2750 3675 2750 3925 
Q 2750 4200 2725 4450 
L 4075 4450 
Q 4050 4650 3850 5125 
Q 4150 5225 4375 5275 
z
M 2000 3525 
L 2000 4500 
L 1000 4500 
L 1000 3525 
L 2000 3525 
z
M 5375 2775 
Q 5000 2800 4250 2800 
Q 3500 2800 3150 2775 
L 3150 3250 
Q 3500 3225 4250 3225 
Q 5000 3225 5375 3250 
L 5375 2775 
z
M 3700 825 
Q 3525 600 3250 250 
Q 2975 -100 2650 -475 
Q 2475 -250 2275 -100 
Q 2550 125 2800 437 
Q 3050 750 3275 1150 
Q 3475 1000 3700 825 
z
M 5250 1175 
Q 6000 300 6175 50 
Q 5950 -100 5800 -300 
Q 5150 600 4900 825 
Q 5075 1025 5250 1175 
z
" transform="scale(0.015625)"/>
      <path id="SimHei-8bef" d="M 4625 2750 
Q 5325 2750 5800 2775 
L 5800 2350 
Q 5300 2375 4625 2375 
L 4150 2375 
Q 4150 2125 4100 1650 
L 5025 1650 
Q 5575 1650 6100 1675 
L 6100 1225 
Q 5575 1250 5025 1250 
L 4250 1250 
Q 4575 600 5050 287 
Q 5525 -25 6125 -125 
Q 5900 -350 5775 -625 
Q 4875 -275 4450 175 
Q 4025 625 3900 1000 
Q 3600 325 3125 -62 
Q 2650 -450 2025 -675 
Q 1975 -450 1725 -200 
Q 2475 -75 2937 437 
Q 3400 950 3475 1250 
L 2975 1250 
Q 2400 1250 2025 1225 
L 2025 1675 
Q 2475 1650 2900 1650 
L 3600 1650 
Q 3650 2025 3650 2375 
L 3325 2375 
Q 2675 2375 2225 2350 
L 2225 2775 
Q 2700 2750 3150 2750 
L 4625 2750 
z
M 5425 4875 
Q 5400 4550 5400 4075 
Q 5400 3600 5425 3325 
L 2450 3325 
Q 2475 3575 2475 4050 
Q 2475 4525 2450 4875 
L 5425 4875 
z
M 1550 3325 
Q 1525 3000 1525 2500 
L 1525 675 
L 1900 1100 
Q 2025 875 2225 700 
Q 1675 300 1250 -325 
Q 1100 -100 825 50 
Q 1025 250 1050 500 
L 1050 2900 
Q 700 2900 325 2875 
L 325 3350 
Q 550 3325 750 3325 
L 1550 3325 
z
M 4975 3700 
L 4975 4475 
L 2900 4475 
L 2900 3700 
L 4975 3700 
z
M 975 5125 
Q 1150 5000 1900 4275 
Q 1725 4125 1550 3925 
Q 1150 4400 675 4775 
Q 875 4975 975 5125 
z
" transform="scale(0.015625)"/>
      <path id="SimHei-5dee" d="M 4725 4975 
Q 4500 4725 4250 4275 
L 4850 4275 
Q 5450 4275 5825 4300 
L 5825 3850 
Q 5425 3875 4850 3875 
L 3275 3875 
Q 3225 3600 3150 3275 
L 4525 3275 
Q 5075 3275 5525 3300 
L 5525 2850 
Q 5075 2875 4500 2875 
L 3050 2875 
Q 2975 2650 2850 2325 
L 5125 2325 
Q 5675 2325 6025 2350 
L 6025 1900 
Q 5700 1925 5150 1925 
L 2650 1925 
Q 2425 1550 2250 1300 
Q 2650 1275 3100 1275 
L 4525 1275 
Q 4975 1275 5350 1300 
L 5350 850 
Q 4975 875 4575 875 
L 3925 875 
L 3925 -50 
L 5000 -50 
Q 5200 -50 5900 -25 
L 5900 -500 
Q 5275 -475 5025 -475 
L 2100 -475 
Q 1700 -475 1400 -500 
L 1400 -25 
Q 1775 -50 2125 -50 
L 3425 -50 
L 3425 875 
L 3100 875 
Q 2625 875 2175 850 
L 2175 1200 
Q 1925 875 1487 475 
Q 1050 75 625 -250 
Q 425 -25 200 150 
Q 750 475 1262 925 
Q 1775 1375 2100 1925 
L 1325 1925 
Q 750 1925 375 1900 
L 375 2350 
Q 750 2325 1350 2325 
L 2325 2325 
Q 2450 2575 2550 2875 
L 1725 2875 
Q 1375 2875 1000 2850 
L 1000 3300 
Q 1500 3275 1700 3275 
L 2650 3275 
Q 2725 3575 2775 3875 
L 1500 3875 
Q 1100 3875 650 3850 
L 650 4300 
Q 1025 4275 1425 4275 
L 2275 4275 
Q 2075 4675 1850 4950 
Q 2025 5050 2250 5225 
Q 2450 4975 2725 4550 
Q 2525 4450 2325 4275 
L 3750 4275 
Q 4000 4700 4150 5250 
Q 4400 5100 4725 4975 
z
" transform="scale(0.015625)"/>
      <path id="SimHei-3a" d="M 1825 2425 
L 1250 2425 
L 1250 2975 
L 1825 2975 
L 1825 2425 
z
M 1825 125 
L 1250 125 
L 1250 675 
L 1825 675 
L 1825 125 
z
" transform="scale(0.015625)"/>
      <path id="SimHei-35" d="M 550 1325 
Q 725 650 1150 575 
Q 1575 500 1837 662 
Q 2100 825 2212 1087 
Q 2325 1350 2312 1675 
Q 2300 2000 2137 2225 
Q 1975 2450 1725 2525 
Q 1475 2600 1162 2525 
Q 850 2450 650 2175 
L 225 2225 
Q 275 2375 700 4375 
L 2675 4375 
L 2675 3925 
L 1075 3925 
Q 950 3250 825 2850 
Q 1200 3025 1525 3012 
Q 1850 3000 2150 2862 
Q 2450 2725 2587 2487 
Q 2725 2250 2787 2012 
Q 2850 1775 2837 1500 
Q 2825 1225 2725 937 
Q 2625 650 2425 462 
Q 2225 275 1937 162 
Q 1650 50 1275 75 
Q 900 100 562 350 
Q 225 600 100 1200 
L 550 1325 
z
" transform="scale(0.015625)"/>
     </defs>
     <use xlink:href="#SimHei-5e73"/>
     <use xlink:href="#SimHei-5747" x="100"/>
     <use xlink:href="#SimHei-8ddf" x="200"/>
     <use xlink:href="#SimHei-8e2a" x="300"/>
     <use xlink:href="#SimHei-8bef" x="400"/>
     <use xlink:href="#SimHei-5dee" x="500"/>
     <use xlink:href="#SimHei-3a" x="600"/>
     <use xlink:href="#SimHei-20" x="650"/>
     <use xlink:href="#SimHei-30" x="700"/>
     <use xlink:href="#SimHei-2e" x="750"/>
     <use xlink:href="#SimHei-30" x="800"/>
     <use xlink:href="#SimHei-34" x="850"/>
     <use xlink:href="#SimHei-35" x="900"/>
    </g>
   </g>
   <g id="text_26">
    <!-- TD-MPC - 专家策略SOC跟踪效果 -->
    <g transform="translate(346.071875 18.575) scale(0.14 -0.14)">
     <defs>
      <path id="SimHei-54" d="M 2850 3925 
L 1850 3925 
L 1850 125 
L 1275 125 
L 1275 3925 
L 275 3925 
L 275 4400 
L 2850 4400 
L 2850 3925 
z
" transform="scale(0.015625)"/>
      <path id="SimHei-44" d="M 2925 2250 
Q 2925 1100 2437 612 
Q 1950 125 1125 125 
L 275 125 
L 275 4400 
L 1125 4400 
Q 2050 4400 2487 3900 
Q 2925 3400 2925 2250 
z
M 2325 2250 
Q 2325 3175 2025 3550 
Q 1725 3925 1125 3925 
L 850 3925 
L 850 600 
L 1125 600 
Q 1725 600 2025 962 
Q 2325 1325 2325 2250 
z
" transform="scale(0.015625)"/>
      <path id="SimHei-2d" d="M 2975 2125 
L 125 2125 
L 125 2525 
L 2975 2525 
L 2975 2125 
z
" transform="scale(0.015625)"/>
      <path id="SimHei-4d" d="M 2925 125 
L 2425 125 
L 2425 3175 
L 2375 3175 
L 1775 125 
L 1375 125 
L 775 3175 
L 725 3175 
L 725 125 
L 225 125 
L 225 4400 
L 1000 4400 
L 1550 1575 
L 1600 1575 
L 2150 4400 
L 2925 4400 
L 2925 125 
z
" transform="scale(0.015625)"/>
      <path id="SimHei-50" d="M 2950 3100 
Q 2950 2500 2600 2150 
Q 2250 1800 1625 1800 
L 900 1800 
L 900 125 
L 325 125 
L 325 4400 
L 1625 4400 
Q 2250 4400 2600 4050 
Q 2950 3700 2950 3100 
z
M 2375 3100 
Q 2375 3575 2150 3750 
Q 1925 3925 1475 3925 
L 900 3925 
L 900 2275 
L 1475 2275 
Q 1925 2275 2150 2450 
Q 2375 2625 2375 3100 
z
" transform="scale(0.015625)"/>
      <path id="SimHei-4e13" d="M 4450 -600 
Q 3975 -350 1975 400 
Q 2100 700 2150 875 
Q 2625 700 3425 400 
Q 3825 825 4325 1475 
L 2525 1475 
Q 2125 1450 1950 1400 
Q 1950 1550 1750 1875 
Q 2000 2000 2200 2625 
L 1225 2625 
Q 750 2625 375 2600 
L 375 3100 
Q 750 3075 1225 3075 
L 2350 3075 
L 2575 3825 
L 1625 3825 
Q 1225 3825 950 3800 
L 950 4275 
Q 1225 4250 1625 4250 
L 2675 4250 
Q 2850 4850 2900 5250 
Q 3375 5175 3450 5175 
Q 3325 4800 3175 4250 
L 4525 4250 
Q 4875 4250 5375 4275 
L 5375 3800 
Q 5025 3825 4525 3825 
L 3075 3825 
L 2850 3075 
L 5075 3075 
Q 5450 3075 5950 3100 
L 5950 2600 
Q 5575 2625 5100 2625 
L 2725 2625 
Q 2550 2150 2475 1925 
L 5200 1925 
L 5200 1500 
Q 5025 1450 4587 1000 
Q 4150 550 3875 200 
Q 4525 -50 4700 -100 
L 4450 -600 
z
" transform="scale(0.015625)"/>
      <path id="SimHei-5bb6" d="M 3425 1125 
Q 2600 475 1900 100 
Q 1200 -275 700 -525 
Q 500 -275 325 -75 
Q 1550 325 2262 775 
Q 2975 1225 3275 1550 
Q 3175 1725 3075 1850 
Q 2300 1300 1700 975 
Q 1100 650 750 525 
Q 575 775 375 950 
Q 1375 1250 1962 1600 
Q 2550 1950 2800 2175 
Q 2700 2300 2575 2450 
Q 2175 2225 1712 2012 
Q 1250 1800 725 1575 
Q 575 1825 375 2075 
Q 1400 2325 1950 2600 
Q 2500 2875 2750 3150 
L 2400 3150 
Q 2050 3150 1575 3125 
L 1575 3575 
Q 2050 3550 2400 3550 
L 4100 3550 
Q 4425 3550 4900 3575 
L 4900 3125 
Q 4425 3150 4100 3150 
L 3425 3150 
Q 3200 2950 2925 2700 
Q 3125 2525 3300 2337 
Q 3475 2150 3675 1825 
Q 3975 1975 4350 2237 
Q 4725 2500 5025 2900 
Q 5400 2550 5525 2425 
Q 5225 2300 5000 2175 
Q 4775 2050 4625 1900 
Q 4850 1150 5200 825 
Q 5550 500 6175 200 
Q 5925 25 5725 -275 
Q 5025 175 4700 662 
Q 4375 1150 4250 1675 
Q 4050 1550 3850 1450 
Q 3975 775 3962 325 
Q 3950 -125 3587 -362 
Q 3225 -600 2725 -675 
Q 2625 -350 2500 -100 
Q 2925 -100 3175 -25 
Q 3425 50 3462 350 
Q 3500 650 3425 1125 
z
M 3350 5275 
Q 3400 5025 3575 4525 
L 5875 4525 
Q 5850 4125 5850 3875 
Q 5850 3650 5875 3300 
L 5350 3300 
L 5350 4125 
L 1000 4125 
L 1000 3175 
L 475 3175 
Q 500 3575 500 3875 
Q 500 4200 475 4525 
L 2975 4525 
Q 2875 4850 2750 5100 
Q 3075 5175 3350 5275 
z
" transform="scale(0.015625)"/>
      <path id="SimHei-7b56" d="M 4600 750 
Q 4525 1000 4325 1275 
Q 4625 1275 4787 1300 
Q 4950 1325 4950 1500 
L 4950 1950 
L 3425 1950 
L 3425 1575 
Q 3625 1250 3950 987 
Q 4275 725 4625 537 
Q 4975 350 5325 237 
Q 5675 125 6150 50 
Q 5850 -200 5725 -525 
Q 5375 -400 5050 -237 
Q 4725 -75 4437 100 
Q 4150 275 3887 487 
Q 3625 700 3425 950 
L 3425 275 
Q 3425 -75 3450 -675 
L 2950 -675 
Q 2975 -75 2975 275 
L 2975 1150 
Q 2700 750 2275 375 
Q 1850 0 1575 -175 
Q 1300 -350 825 -650 
Q 725 -475 350 -225 
Q 675 -100 975 50 
Q 1275 200 1650 462 
Q 2025 725 2387 1112 
Q 2750 1500 2950 1950 
L 1500 1950 
L 1500 825 
L 1000 825 
Q 1025 1325 1025 1675 
Q 1025 2025 1000 2325 
L 2975 2325 
L 2975 2825 
L 1425 2825 
Q 1000 2825 550 2800 
L 550 3250 
Q 1000 3225 1400 3225 
L 2975 3225 
Q 2975 3475 2950 3650 
L 3450 3650 
Q 3425 3450 3425 3225 
L 5175 3225 
Q 5500 3225 5925 3250 
L 5925 2800 
Q 5525 2825 5200 2825 
L 3425 2825 
L 3425 2325 
L 5425 2325 
Q 5400 2025 5400 1725 
Q 5400 1450 5375 1225 
Q 5350 1000 5137 900 
Q 4925 800 4600 750 
z
M 4525 5050 
Q 4300 4850 4200 4675 
L 5175 4675 
Q 5600 4675 6075 4700 
L 6075 4250 
Q 5600 4275 4875 4275 
Q 4950 4025 5050 3675 
Q 4775 3625 4550 3550 
Q 4500 3975 4400 4275 
L 3950 4275 
Q 3750 4000 3525 3700 
Q 3300 3850 3075 3925 
Q 3375 4225 3612 4612 
Q 3850 5000 3950 5300 
Q 4175 5150 4525 5050 
z
M 1950 5075 
Q 1700 4850 1550 4675 
L 2275 4675 
Q 2625 4675 3125 4700 
L 3125 4250 
Q 2625 4275 2200 4275 
Q 2275 4000 2375 3650 
Q 2150 3600 1925 3500 
Q 1850 3850 1750 4275 
L 1300 4275 
Q 1025 3950 650 3600 
Q 475 3750 225 3900 
Q 625 4175 925 4562 
Q 1225 4950 1425 5300 
Q 1675 5175 1950 5075 
z
" transform="scale(0.015625)"/>
      <path id="SimHei-7565" d="M 2650 4525 
Q 2625 3950 2625 3500 
L 2625 1250 
Q 2625 825 2650 225 
L 2200 225 
L 2200 550 
L 875 550 
L 875 75 
L 400 75 
Q 450 475 450 975 
L 450 3500 
Q 450 4075 400 4525 
L 2650 4525 
z
M 4250 5025 
Q 4100 4875 3950 4525 
L 5625 4525 
Q 5475 4050 5212 3575 
Q 4950 3100 4625 2750 
Q 4900 2500 5312 2362 
Q 5725 2225 6100 2175 
Q 5900 1900 5825 1675 
Q 5475 1750 5050 1937 
Q 4625 2125 4300 2425 
Q 4100 2275 3775 2050 
Q 3450 1825 2950 1600 
Q 2850 1850 2675 2050 
Q 3050 2175 3337 2312 
Q 3625 2450 4025 2775 
Q 3875 2975 3750 3200 
Q 3625 3425 3525 3625 
Q 3375 3350 3100 2950 
Q 3000 3100 2675 3250 
Q 3025 3625 3287 4187 
Q 3550 4750 3650 5250 
Q 3925 5125 4250 5025 
z
M 5500 1725 
Q 5475 1425 5475 1050 
L 5475 75 
Q 5475 -250 5500 -625 
L 5025 -625 
L 5025 -150 
L 3725 -150 
L 3725 -650 
L 3250 -650 
Q 3275 -225 3275 125 
L 3275 1025 
Q 3275 1400 3250 1725 
L 5500 1725 
z
M 5025 275 
L 5025 1325 
L 3725 1325 
L 3725 275 
L 5025 275 
z
M 4350 3075 
Q 4725 3500 5000 4150 
L 3775 4150 
Q 3975 3525 4350 3075 
z
M 1325 950 
L 1325 2375 
L 875 2375 
L 875 950 
L 1325 950 
z
M 2200 950 
L 2200 2375 
L 1750 2375 
L 1750 950 
L 2200 950 
z
M 1325 2775 
L 1325 4150 
L 875 4150 
L 875 2775 
L 1325 2775 
z
M 2200 2775 
L 2200 4150 
L 1750 4150 
L 1750 2775 
L 2200 2775 
z
" transform="scale(0.015625)"/>
      <path id="SimHei-6548" d="M 3500 2400 
Q 3400 2675 3200 2900 
Q 3500 3350 3750 4025 
Q 4000 4700 4100 5300 
Q 4400 5150 4750 5075 
Q 4625 4950 4500 4687 
Q 4375 4425 4225 4025 
Q 5800 4025 6150 4050 
L 6150 3625 
Q 5850 3650 5475 3650 
Q 5450 2925 5300 2137 
Q 5150 1350 4825 800 
Q 4900 575 5312 275 
Q 5725 -25 6175 -175 
Q 5875 -350 5775 -650 
Q 5350 -425 5050 -162 
Q 4750 100 4500 425 
Q 4175 125 3837 -112 
Q 3500 -350 2850 -700 
Q 2725 -425 2425 -250 
Q 2750 -200 3325 137 
Q 3900 475 4200 800 
Q 4000 1225 3887 1675 
Q 3775 2125 3675 2700 
L 3500 2400 
z
M 1100 2225 
Q 1525 1875 1925 1575 
Q 2125 1900 2200 2400 
Q 2450 2275 2700 2200 
Q 2475 1625 2300 1250 
L 3000 550 
Q 2775 375 2575 175 
Q 2400 450 2025 825 
Q 1825 600 1550 312 
Q 1275 25 700 -425 
Q 500 -175 250 -25 
Q 575 125 950 400 
Q 1325 675 1675 1175 
Q 1325 1475 850 1875 
L 1100 2225 
z
M 4075 2950 
Q 4100 2700 4212 2187 
Q 4325 1675 4525 1225 
Q 4775 1700 4887 2475 
Q 5000 3250 4975 3650 
L 4100 3650 
Q 3900 3125 3725 2850 
Q 3900 2850 4075 2950 
z
M 2500 4200 
Q 2875 4200 3175 4225 
L 3175 3800 
Q 2875 3825 2525 3825 
L 1000 3825 
Q 600 3825 275 3800 
L 275 4225 
Q 600 4200 1000 4200 
L 2500 4200 
z
M 1125 3650 
Q 1400 3500 1625 3325 
Q 1525 3250 1300 2900 
Q 1050 2525 675 2000 
Q 450 2150 225 2275 
Q 550 2575 787 2975 
Q 1025 3375 1125 3650 
z
M 2475 3625 
Q 2625 3400 2850 3100 
Q 3075 2800 3250 2575 
Q 3025 2450 2825 2275 
Q 2325 3000 2075 3325 
Q 2275 3425 2475 3625 
z
M 1825 5250 
Q 2025 4875 2175 4475 
Q 1950 4375 1700 4275 
Q 1550 4650 1350 5075 
Q 1575 5150 1825 5250 
z
" transform="scale(0.015625)"/>
      <path id="SimHei-679c" d="M 2975 -525 
Q 3000 -75 3000 575 
L 3000 1600 
L 2900 1600 
Q 2725 1275 2500 1000 
Q 2275 725 1987 512 
Q 1700 300 1362 100 
Q 1025 -100 675 -250 
Q 575 25 400 275 
Q 700 350 975 487 
Q 1250 625 1525 787 
Q 1800 950 2000 1150 
Q 2200 1350 2375 1600 
L 1375 1600 
Q 1000 1600 450 1550 
L 450 2050 
Q 950 2000 1375 2000 
L 3000 2000 
L 3000 2450 
L 1150 2450 
Q 1175 3050 1175 3775 
Q 1175 4500 1150 5000 
L 5325 5000 
Q 5300 4500 5300 3775 
Q 5300 3050 5325 2450 
L 3475 2450 
L 3475 2000 
L 5050 2000 
Q 5550 2000 5925 2025 
L 5925 1550 
Q 5500 1600 5100 1600 
L 4125 1600 
Q 4450 1075 4925 800 
Q 5400 525 6050 375 
Q 5875 150 5775 -175 
Q 4925 150 4425 550 
Q 3925 950 3675 1600 
L 3475 1600 
L 3475 550 
Q 3475 0 3500 -525 
L 2975 -525 
z
M 4825 3875 
L 4825 4625 
L 3475 4625 
L 3475 3875 
L 4825 3875 
z
M 3000 3875 
L 3000 4625 
L 1675 4625 
L 1675 3875 
L 3000 3875 
z
M 4825 2825 
L 4825 3500 
L 3475 3500 
L 3475 2825 
L 4825 2825 
z
M 3000 2825 
L 3000 3500 
L 1675 3500 
L 1675 2825 
L 3000 2825 
z
" transform="scale(0.015625)"/>
     </defs>
     <use xlink:href="#SimHei-54"/>
     <use xlink:href="#SimHei-44" x="50"/>
     <use xlink:href="#SimHei-2d" x="100"/>
     <use xlink:href="#SimHei-4d" x="150"/>
     <use xlink:href="#SimHei-50" x="200"/>
     <use xlink:href="#SimHei-43" x="250"/>
     <use xlink:href="#SimHei-20" x="300"/>
     <use xlink:href="#SimHei-2d" x="350"/>
     <use xlink:href="#SimHei-20" x="400"/>
     <use xlink:href="#SimHei-4e13" x="450"/>
     <use xlink:href="#SimHei-5bb6" x="550"/>
     <use xlink:href="#SimHei-7b56" x="650"/>
     <use xlink:href="#SimHei-7565" x="750"/>
     <use xlink:href="#SimHei-53" x="850"/>
     <use xlink:href="#SimHei-4f" x="900"/>
     <use xlink:href="#SimHei-43" x="950"/>
     <use xlink:href="#SimHei-8ddf" x="1000"/>
     <use xlink:href="#SimHei-8e2a" x="1100"/>
     <use xlink:href="#SimHei-6548" x="1200"/>
     <use xlink:href="#SimHei-679c" x="1300"/>
    </g>
   </g>
   <g id="legend_1">
    <g id="patch_11">
     <path d="M 675.021875 103.04375 
L 837.021875 103.04375 
Q 839.021875 103.04375 839.021875 101.04375 
L 839.021875 31.575 
Q 839.021875 29.575 837.021875 29.575 
L 675.021875 29.575 
Q 673.021875 29.575 673.021875 31.575 
L 673.021875 101.04375 
Q 673.021875 103.04375 675.021875 103.04375 
z
" style="fill: #ffffff; opacity: 0.9; stroke: #cccccc; stroke-linejoin: miter"/>
    </g>
    <g id="line2d_43">
     <path d="M 677.021875 38.2 
L 687.021875 38.2 
L 687.021875 38.2 
L 697.021875 38.2 
L 697.021875 38.2 
" style="fill: none; stroke-dasharray: 9.25,4; stroke-dashoffset: 0; stroke: #0000ff; stroke-opacity: 0.8; stroke-width: 2.5"/>
    </g>
    <g id="text_27">
     <!-- 专家策略参考轨迹 (小时级) -->
     <g transform="translate(705.021875 41.7) scale(0.1 -0.1)">
      <defs>
       <path id="SimHei-53c2" d="M 3325 4850 
Q 3100 4725 2850 4500 
Q 2600 4275 2175 3925 
Q 2850 3950 3275 3950 
Q 3700 3950 4200 3975 
Q 3950 4200 3600 4450 
Q 3800 4625 3925 4775 
Q 4900 4100 5325 3675 
Q 5100 3475 4925 3300 
Q 4750 3475 4550 3625 
Q 3625 3600 3200 3575 
Q 3025 3250 2925 3125 
L 5075 3125 
Q 5575 3125 5950 3150 
L 5950 2700 
Q 5600 2725 5075 2725 
L 4325 2725 
Q 4675 2350 5187 2075 
Q 5700 1800 6150 1700 
Q 5850 1550 5675 1225 
Q 5100 1525 4612 1900 
Q 4125 2275 3800 2725 
L 2725 2725 
Q 2325 2300 1812 1962 
Q 1300 1625 650 1325 
Q 525 1525 250 1700 
Q 725 1825 1237 2100 
Q 1750 2375 2100 2725 
L 1475 2725 
Q 950 2725 375 2700 
L 375 3150 
Q 875 3125 1475 3125 
L 2400 3125 
L 2550 3350 
L 2650 3550 
Q 1925 3500 1775 3475 
Q 1625 3450 1500 3425 
Q 1375 3725 1300 3875 
Q 1600 3950 2050 4337 
Q 2500 4725 2825 5225 
Q 3025 5050 3325 4850 
z
M 5350 800 
Q 5025 650 4612 437 
Q 4200 225 3850 75 
Q 3500 -75 3062 -212 
Q 2625 -350 2150 -450 
Q 1675 -550 1225 -600 
Q 1150 -350 900 -150 
Q 1675 -125 2362 25 
Q 3050 175 3512 387 
Q 3975 600 4312 800 
Q 4650 1000 4900 1250 
Q 5100 1025 5350 800 
z
M 4550 1450 
Q 4350 1375 4037 1200 
Q 3725 1025 3350 862 
Q 2975 700 2512 550 
Q 2050 400 1575 325 
Q 1450 575 1250 775 
Q 1775 800 2175 900 
Q 2575 1000 3075 1212 
Q 3575 1425 4125 1850 
Q 4300 1675 4550 1450 
z
M 3900 2075 
Q 3575 1950 3350 1825 
Q 3125 1700 2687 1525 
Q 2250 1350 1750 1200 
Q 1625 1425 1450 1600 
Q 2025 1700 2587 1937 
Q 3150 2175 3500 2500 
Q 3700 2275 3900 2075 
z
" transform="scale(0.015625)"/>
       <path id="SimHei-8003" d="M 5175 1300 
Q 5125 1000 5012 425 
Q 4900 -150 4775 -300 
Q 4650 -450 4250 -525 
Q 3850 -600 3150 -650 
Q 3125 -325 2975 -100 
Q 4300 -150 4412 75 
Q 4525 300 4600 900 
L 3225 900 
Q 2700 900 2375 800 
Q 2325 1025 2200 1225 
Q 2375 1250 2500 1412 
Q 2625 1575 2775 1900 
L 2275 1900 
Q 2000 1750 1562 1550 
Q 1125 1350 550 1125 
Q 475 1325 250 1550 
Q 825 1700 1600 2037 
Q 2375 2375 3125 2950 
L 1425 2950 
Q 1100 2950 450 2925 
L 450 3375 
Q 1100 3350 1425 3350 
L 2725 3350 
L 2725 4150 
L 2025 4150 
Q 1800 4150 1350 4125 
L 1350 4550 
Q 1800 4525 2000 4525 
L 2725 4525 
Q 2725 5000 2700 5225 
L 3175 5225 
Q 3150 4875 3150 4525 
L 3525 4525 
Q 3700 4525 4325 4550 
L 4325 4125 
Q 3650 4150 3550 4150 
L 3150 4150 
L 3150 3350 
L 3625 3350 
Q 4100 3750 4487 4150 
Q 4875 4550 5075 4850 
Q 5275 4650 5550 4500 
Q 5375 4375 5012 4062 
Q 4650 3750 4225 3350 
L 5250 3350 
Q 5600 3350 6025 3375 
L 6025 2925 
Q 5600 2950 5250 2950 
L 3775 2950 
Q 3475 2725 2900 2300 
L 4675 2300 
Q 5075 2300 5300 2325 
L 5300 1875 
Q 5075 1900 4700 1900 
L 3250 1900 
Q 3125 1625 2950 1300 
L 5175 1300 
z
" transform="scale(0.015625)"/>
       <path id="SimHei-8f68" d="M 3100 1350 
Q 3050 1150 3050 925 
Q 2825 925 2150 800 
Q 2150 -200 2175 -650 
L 1675 -650 
Q 1700 -200 1700 700 
Q 750 525 375 400 
Q 300 675 200 975 
Q 600 975 1700 1125 
L 1700 2075 
Q 1425 2075 1125 2050 
Q 825 2025 600 1900 
L 325 2450 
Q 550 2525 737 2875 
Q 925 3225 1150 3825 
Q 675 3825 375 3800 
L 375 4250 
Q 700 4225 1250 4225 
Q 1450 4875 1500 5250 
Q 1750 5150 2075 5050 
Q 1925 4850 1725 4225 
L 2375 4225 
Q 2875 4225 3050 4250 
L 3050 3800 
Q 2800 3825 2375 3825 
L 1625 3825 
Q 1325 3075 1000 2475 
L 1700 2475 
Q 1700 2950 1675 3350 
L 2175 3350 
Q 2150 3000 2150 2475 
Q 2600 2475 3050 2500 
L 3050 2050 
Q 2500 2075 2150 2075 
L 2150 1175 
Q 2550 1250 3100 1350 
z
M 6200 325 
Q 5975 -300 5850 -350 
Q 5725 -400 5500 -400 
L 5275 -400 
Q 4750 -400 4750 175 
L 4950 3375 
L 4250 3375 
Q 4225 2600 4125 1987 
Q 4025 1375 3812 800 
Q 3600 225 3075 -525 
Q 2825 -325 2550 -225 
Q 2950 150 3175 562 
Q 3400 975 3562 1500 
Q 3725 2025 3825 3375 
Q 3375 3375 3125 3350 
L 3125 3775 
Q 3375 3750 3850 3750 
Q 3875 4625 3875 5225 
Q 4125 5175 4425 5125 
Q 4325 4850 4275 3750 
L 5425 3750 
Q 5375 3250 5350 2875 
L 5225 325 
Q 5225 50 5337 25 
Q 5450 0 5550 25 
Q 5650 50 5700 550 
Q 5950 375 6200 325 
z
" transform="scale(0.015625)"/>
       <path id="SimHei-8ff9" d="M 5075 4050 
Q 5425 4050 5875 4100 
L 5875 3650 
Q 5425 3675 4675 3675 
L 4675 925 
Q 4675 500 4475 437 
Q 4275 375 3825 300 
Q 3750 575 3650 800 
Q 4025 800 4112 812 
Q 4200 825 4225 1050 
L 4225 3675 
L 3575 3675 
Q 3550 1950 3425 1562 
Q 3300 1175 3125 925 
Q 2950 675 2650 350 
Q 2425 500 2125 650 
Q 2500 875 2700 1150 
Q 2900 1425 3000 1800 
Q 3100 2175 3125 3675 
Q 2425 3675 1975 3650 
L 1975 4100 
Q 2400 4075 2775 4050 
L 5075 4050 
z
M 1500 2975 
Q 1450 2425 1450 1950 
L 1450 600 
Q 2025 200 3225 100 
Q 4425 0 6200 125 
Q 6025 -150 5975 -525 
Q 4850 -500 4087 -462 
Q 3325 -425 2850 -350 
Q 2375 -275 2125 -175 
Q 1875 -75 1550 62 
Q 1225 200 1050 25 
Q 875 -150 700 -500 
Q 425 -300 200 -150 
Q 675 350 1000 575 
L 1000 2575 
Q 775 2575 325 2550 
L 325 3000 
Q 775 2975 1500 2975 
z
M 2850 3000 
Q 2500 2050 2300 1575 
Q 2075 1700 1775 1775 
Q 2100 2425 2300 3175 
Q 2525 3075 2850 3000 
z
M 5350 3150 
Q 5800 2175 6025 1775 
Q 5775 1675 5500 1525 
Q 5425 1875 4875 2925 
Q 5100 3050 5350 3150 
z
M 1050 4950 
Q 1425 4200 1575 3850 
Q 1325 3750 1075 3600 
Q 1000 3850 575 4650 
Q 825 4825 1050 4950 
z
M 3775 5225 
Q 4050 4750 4225 4325 
Q 3950 4225 3725 4100 
Q 3600 4450 3300 5025 
Q 3500 5125 3775 5225 
z
" transform="scale(0.015625)"/>
       <path id="SimHei-7ea7" d="M 5350 4750 
Q 5125 3925 4900 2975 
L 5775 2975 
Q 5650 2325 5462 1750 
Q 5275 1175 4900 575 
Q 5150 325 5462 112 
Q 5775 -100 6150 -250 
Q 5875 -475 5800 -700 
Q 5175 -350 4600 250 
Q 4425 75 4062 -187 
Q 3700 -450 3125 -700 
Q 3000 -500 2775 -350 
Q 3300 -175 3675 75 
Q 4050 325 4325 600 
Q 4025 950 3500 1950 
Q 3425 1400 3125 800 
Q 2850 175 2125 -475 
Q 1975 -350 1700 -200 
Q 2200 150 2525 637 
Q 2850 1125 2987 1687 
Q 3125 2250 3150 2912 
Q 3175 3575 3175 4350 
Q 2900 4350 2525 4325 
L 2525 4775 
Q 2975 4750 3725 4750 
L 5350 4750 
z
M 1900 4850 
Q 1750 4650 1512 4212 
Q 1275 3775 900 3250 
L 1775 3300 
Q 2025 3700 2175 4125 
Q 2300 4025 2625 3825 
Q 2475 3575 2175 3100 
Q 1875 2625 1200 1725 
Q 1950 1825 2400 1900 
Q 2325 1600 2325 1450 
Q 2075 1425 1562 1350 
Q 1050 1275 575 1150 
Q 500 1400 400 1600 
Q 625 1725 925 2037 
Q 1225 2350 1550 2900 
Q 1275 2875 1012 2850 
Q 750 2825 500 2725 
Q 425 2950 300 3250 
Q 625 3450 937 4025 
Q 1250 4600 1400 5125 
Q 1575 5000 1900 4850 
z
M 3575 3125 
Q 3575 2950 3575 2775 
Q 3750 2325 4100 1750 
Q 4450 1150 4600 975 
Q 5025 1625 5225 2575 
L 4325 2575 
Q 4575 3400 4750 4350 
L 3600 4350 
Q 3600 3750 3575 3125 
z
M 2375 1000 
Q 2300 750 2325 550 
Q 1825 425 1425 312 
Q 1025 200 550 50 
Q 475 300 325 525 
Q 675 600 1112 687 
Q 1550 775 2375 1000 
z
" transform="scale(0.015625)"/>
      </defs>
      <use xlink:href="#SimHei-4e13"/>
      <use xlink:href="#SimHei-5bb6" x="100"/>
      <use xlink:href="#SimHei-7b56" x="200"/>
      <use xlink:href="#SimHei-7565" x="300"/>
      <use xlink:href="#SimHei-53c2" x="400"/>
      <use xlink:href="#SimHei-8003" x="500"/>
      <use xlink:href="#SimHei-8f68" x="600"/>
      <use xlink:href="#SimHei-8ff9" x="700"/>
      <use xlink:href="#SimHei-20" x="800"/>
      <use xlink:href="#SimHei-28" x="850"/>
      <use xlink:href="#SimHei-5c0f" x="900"/>
      <use xlink:href="#SimHei-65f6" x="1000"/>
      <use xlink:href="#SimHei-7ea7" x="1100"/>
      <use xlink:href="#SimHei-29" x="1200"/>
     </g>
    </g>
    <g id="line2d_44">
     <path d="M 677.021875 52.535937 
L 687.021875 52.535937 
L 687.021875 52.535937 
L 697.021875 52.535937 
L 697.021875 52.535937 
" style="fill: none; stroke: #ff0000; stroke-width: 2; stroke-linecap: square"/>
    </g>
    <g id="text_28">
     <!-- MPC实际跟踪轨迹 (15分钟级) -->
     <g transform="translate(705.021875 56.035937) scale(0.1 -0.1)">
      <defs>
       <path id="SimHei-5b9e" d="M 4125 3500 
Q 4050 3200 4000 2675 
Q 3950 2150 3850 1550 
L 5025 1550 
Q 5475 1550 5975 1575 
L 5975 1100 
Q 5450 1125 5000 1125 
L 3725 1125 
Q 3500 625 3050 250 
Q 2600 -125 2000 -337 
Q 1400 -550 925 -675 
Q 825 -375 500 -200 
Q 1225 -125 2050 212 
Q 2875 550 3200 1125 
L 1425 1125 
Q 975 1125 425 1100 
L 425 1575 
Q 1000 1550 1425 1550 
L 3375 1550 
Q 3450 1975 3487 2462 
Q 3525 2950 3500 3650 
Q 3800 3550 4125 3500 
z
M 3250 5250 
Q 3450 4850 3600 4375 
L 5775 4375 
Q 5750 4100 5750 3825 
Q 5750 3575 5775 3275 
L 5200 3275 
L 5200 3975 
L 1225 3975 
L 1225 3225 
L 675 3225 
Q 700 3525 700 3800 
Q 700 4100 675 4375 
L 2975 4375 
Q 2900 4675 2700 5075 
Q 2900 5150 3250 5250 
z
M 4000 825 
Q 4550 525 5050 262 
Q 5550 0 5925 -225 
Q 5750 -425 5550 -650 
Q 5100 -325 4575 -37 
Q 4050 250 3675 400 
Q 3875 650 4000 825 
z
M 1175 2750 
Q 1600 2550 2350 2050 
Q 2250 1900 2050 1650 
Q 1350 2175 925 2350 
Q 1075 2500 1175 2750 
z
M 3150 2825 
Q 2975 2625 2850 2425 
Q 2050 3000 1675 3125 
Q 1800 3300 1950 3525 
L 3150 2825 
z
" transform="scale(0.015625)"/>
       <path id="SimHei-9645" d="M 2500 4900 
Q 2425 4700 2250 4100 
Q 2075 3500 1875 2900 
Q 2200 2400 2312 2050 
Q 2425 1700 2362 1412 
Q 2300 1125 2012 912 
Q 1725 700 1350 650 
Q 1225 1050 1125 1225 
Q 1675 1225 1787 1412 
Q 1900 1600 1837 1862 
Q 1775 2125 1662 2375 
Q 1550 2625 1350 2875 
Q 1475 3225 1600 3650 
Q 1725 4075 1850 4475 
L 1025 4475 
L 1025 -525 
L 500 -525 
Q 525 175 525 850 
L 525 3825 
Q 525 4375 500 4900 
L 2500 4900 
z
M 5250 3300 
Q 5650 3300 6050 3325 
L 6050 2850 
Q 5725 2875 5325 2875 
L 4500 2875 
L 4500 75 
Q 4500 -325 4225 -387 
Q 3950 -450 3475 -525 
Q 3450 -225 3275 75 
Q 3775 75 3887 100 
Q 4000 125 4000 275 
L 4000 2875 
L 3375 2875 
Q 2825 2875 2475 2850 
L 2475 3325 
Q 3025 3300 3375 3300 
L 5250 3300 
z
M 4975 4775 
Q 5375 4775 5675 4825 
L 5675 4350 
Q 5375 4375 4975 4375 
L 3650 4375 
Q 3225 4375 2900 4350 
L 2900 4825 
Q 3200 4775 3700 4775 
L 4975 4775 
z
M 2150 200 
Q 2450 700 2662 1187 
Q 2875 1675 3050 2175 
Q 3250 2100 3575 1950 
Q 3325 1500 3112 1000 
Q 2900 500 2650 -25 
Q 2450 75 2150 200 
z
M 5275 2200 
Q 5900 975 6200 350 
Q 5950 250 5675 100 
Q 5300 1025 4800 1925 
Q 4950 2000 5275 2200 
z
" transform="scale(0.015625)"/>
       <path id="SimHei-5206" d="M 1000 -650 
Q 825 -375 575 -225 
Q 975 -75 1300 137 
Q 1625 350 1875 662 
Q 2125 975 2250 1350 
Q 2375 1725 2425 2275 
Q 1850 2275 1500 2250 
L 1500 2775 
Q 1900 2750 2525 2750 
L 5025 2750 
Q 4975 2375 4950 2100 
L 4750 250 
Q 4700 -200 4350 -350 
Q 4000 -500 3575 -525 
Q 3550 -275 3325 50 
Q 3850 25 4037 87 
Q 4225 150 4275 525 
L 4450 2275 
L 2950 2275 
Q 2875 1625 2737 1187 
Q 2600 750 2350 425 
Q 2100 100 1750 -175 
Q 1400 -450 1000 -650 
z
M 3950 5175 
Q 4125 4650 4662 3975 
Q 5200 3300 6175 2800 
Q 5975 2625 5775 2275 
Q 5325 2600 4987 2887 
Q 4650 3175 4425 3425 
Q 4200 3675 3925 4137 
Q 3650 4600 3475 5000 
Q 3750 5075 3950 5175 
z
M 2700 4825 
Q 2475 4425 2325 4125 
Q 2175 3825 2025 3587 
Q 1875 3350 1575 2950 
Q 1275 2550 850 2125 
Q 625 2350 400 2475 
Q 900 2925 1187 3300 
Q 1475 3675 1737 4112 
Q 2000 4550 2200 5075 
Q 2400 4925 2700 4825 
z
" transform="scale(0.015625)"/>
       <path id="SimHei-949f" d="M 2850 3100 
Q 2850 3400 2825 3875 
L 4075 3875 
L 4075 4450 
Q 4075 4700 4050 5100 
L 4600 5100 
Q 4575 4800 4575 4425 
L 4575 3875 
L 5875 3875 
Q 5850 3375 5850 3150 
L 5850 1500 
Q 5850 1250 5875 925 
L 5375 925 
L 5375 1375 
L 4575 1375 
L 4575 400 
Q 4575 75 4600 -600 
L 4050 -600 
Q 4075 100 4075 400 
L 4075 1375 
L 3325 1375 
L 3325 925 
L 2800 925 
Q 2850 1225 2850 1450 
L 2850 3100 
z
M 925 3150 
Q 1275 3125 1650 3125 
Q 2025 3125 2400 3150 
L 2400 2725 
Q 2000 2750 1775 2750 
L 1775 2025 
Q 2150 2025 2575 2050 
L 2575 1600 
Q 2150 1625 1775 1625 
L 1775 425 
L 2400 925 
Q 2450 700 2575 475 
Q 2400 350 2087 100 
Q 1775 -150 1425 -475 
Q 1250 -250 1075 -75 
Q 1225 75 1300 550 
L 1300 1625 
Q 975 1625 575 1600 
L 575 2050 
Q 1000 2025 1300 2025 
L 1300 2750 
Q 1150 2750 925 2725 
L 925 3150 
z
M 1925 4925 
Q 1800 4725 1712 4537 
Q 1625 4350 1525 4175 
L 1875 4175 
Q 2200 4175 2550 4200 
L 2550 3750 
Q 2100 3775 1800 3775 
L 1300 3775 
Q 1125 3525 937 3300 
Q 750 3075 525 2850 
Q 425 3050 225 3225 
Q 600 3600 887 4062 
Q 1175 4525 1300 5100 
Q 1675 4975 1925 4925 
z
M 5375 1775 
L 5375 3475 
L 4575 3475 
L 4575 1775 
L 5375 1775 
z
M 4075 1775 
L 4075 3475 
L 3325 3475 
L 3325 1775 
L 4075 1775 
z
" transform="scale(0.015625)"/>
      </defs>
      <use xlink:href="#SimHei-4d"/>
      <use xlink:href="#SimHei-50" x="50"/>
      <use xlink:href="#SimHei-43" x="100"/>
      <use xlink:href="#SimHei-5b9e" x="150"/>
      <use xlink:href="#SimHei-9645" x="250"/>
      <use xlink:href="#SimHei-8ddf" x="350"/>
      <use xlink:href="#SimHei-8e2a" x="450"/>
      <use xlink:href="#SimHei-8f68" x="550"/>
      <use xlink:href="#SimHei-8ff9" x="650"/>
      <use xlink:href="#SimHei-20" x="750"/>
      <use xlink:href="#SimHei-28" x="800"/>
      <use xlink:href="#SimHei-31" x="850"/>
      <use xlink:href="#SimHei-35" x="900"/>
      <use xlink:href="#SimHei-5206" x="950"/>
      <use xlink:href="#SimHei-949f" x="1050"/>
      <use xlink:href="#SimHei-7ea7" x="1150"/>
      <use xlink:href="#SimHei-29" x="1250"/>
     </g>
    </g>
    <g id="patch_12">
     <path d="M 677.021875 70.332812 
L 697.021875 70.332812 
L 697.021875 63.332812 
L 677.021875 63.332812 
z
" style="fill: #ffa500; fill-opacity: 0.2; stroke: #ffa500; stroke-opacity: 0.2; stroke-linejoin: miter"/>
    </g>
    <g id="text_29">
     <!-- 跟踪偏差 -->
     <g transform="translate(705.021875 70.332812) scale(0.1 -0.1)">
      <defs>
       <path id="SimHei-504f" d="M 1650 525 
Q 2275 1550 2400 2600 
Q 2525 3650 2450 4625 
L 3925 4625 
Q 3875 4900 3725 5200 
Q 3975 5250 4175 5300 
Q 4275 5075 4425 4625 
L 5675 4625 
Q 5650 4300 5650 3900 
Q 5650 3500 5675 3200 
L 2900 3200 
Q 2875 2925 2850 2625 
L 5975 2625 
Q 5950 2200 5950 1750 
L 5950 -100 
Q 5950 -400 5762 -487 
Q 5575 -575 5200 -650 
Q 5150 -400 4975 -125 
Q 5525 -150 5525 100 
L 5525 1075 
L 4925 1075 
Q 4925 425 4950 0 
L 4475 0 
Q 4525 400 4525 1075 
L 4000 1075 
Q 4000 350 4025 -25 
L 3550 -25 
Q 3575 350 3575 1075 
L 3025 1075 
L 3025 -600 
L 2575 -600 
L 2575 1575 
Q 2425 1050 2000 275 
Q 1775 475 1650 525 
z
M 225 2450 
Q 825 3150 1200 3900 
Q 1575 4650 1650 5075 
Q 1875 4925 2250 4825 
Q 2075 4725 1575 3475 
L 1575 550 
Q 1575 -50 1600 -575 
L 1100 -575 
Q 1125 -75 1125 550 
L 1125 2900 
Q 925 2575 625 2150 
Q 475 2350 225 2450 
z
M 5225 3575 
L 5225 4250 
L 2900 4250 
L 2900 3575 
L 5225 3575 
z
M 5525 1425 
L 5525 2250 
L 4925 2250 
L 4925 1425 
L 5525 1425 
z
M 3575 1425 
L 3575 2250 
L 3025 2250 
L 3025 1425 
L 3575 1425 
z
M 4525 1425 
L 4525 2250 
L 4000 2250 
L 4000 1425 
L 4525 1425 
z
" transform="scale(0.015625)"/>
      </defs>
      <use xlink:href="#SimHei-8ddf"/>
      <use xlink:href="#SimHei-8e2a" x="100"/>
      <use xlink:href="#SimHei-504f" x="200"/>
      <use xlink:href="#SimHei-5dee" x="300"/>
     </g>
    </g>
    <g id="line2d_45">
     <path d="M 677.021875 80.465625 
L 687.021875 80.465625 
L 697.021875 80.465625 
" style="fill: none; stroke-dasharray: 1.5,2.475; stroke-dashoffset: 0; stroke: #808080; stroke-opacity: 0.5; stroke-width: 1.5"/>
    </g>
    <g id="text_30">
     <!-- SOC下限 -->
     <g transform="translate(705.021875 83.965625) scale(0.1 -0.1)">
      <defs>
       <path id="SimHei-4e0b" d="M 5000 4700 
Q 5475 4700 5975 4725 
L 5975 4200 
Q 5425 4225 5000 4225 
L 3275 4225 
L 3275 375 
Q 3275 50 3300 -450 
L 2725 -450 
Q 2750 0 2750 375 
L 2750 4225 
L 1375 4225 
Q 875 4225 400 4200 
L 400 4725 
Q 875 4700 1375 4700 
L 5000 4700 
z
M 5650 1400 
Q 5400 1225 5200 1000 
Q 4800 1525 3650 2575 
L 4025 2950 
Q 4700 2400 5650 1400 
z
" transform="scale(0.015625)"/>
       <path id="SimHei-9650" d="M 5550 4950 
Q 5525 4500 5525 3700 
Q 5525 2925 5550 2475 
L 4375 2475 
Q 4375 2000 4625 1475 
Q 5275 1900 5475 2250 
Q 5675 1950 5850 1800 
Q 5400 1575 4750 1150 
Q 5025 775 5325 500 
Q 5625 225 6200 25 
Q 5900 -125 5750 -450 
Q 5150 -75 4812 312 
Q 4475 700 4262 1212 
Q 4050 1725 3975 2475 
L 3400 2475 
L 3400 200 
Q 3800 400 4125 675 
Q 4150 450 4225 150 
Q 4000 25 3637 -175 
Q 3275 -375 3025 -575 
Q 2925 -375 2750 -125 
Q 2900 25 2950 325 
L 2950 3850 
Q 2950 4350 2925 4950 
L 5550 4950 
z
M 2500 4950 
Q 2050 3475 1875 2950 
Q 2375 2350 2450 1850 
Q 2525 1350 2237 1025 
Q 1950 700 1525 575 
Q 1500 900 1300 1150 
Q 1750 1150 1875 1325 
Q 2000 1500 1975 1887 
Q 1950 2275 1375 2925 
Q 1775 4050 1875 4550 
L 1125 4550 
L 1125 -500 
L 650 -500 
Q 675 200 675 875 
L 675 3800 
Q 675 4250 650 4950 
L 2500 4950 
z
M 5075 2875 
L 5075 3550 
L 3400 3550 
L 3400 2875 
L 5075 2875 
z
M 5075 3925 
L 5075 4550 
L 3400 4550 
L 3400 3925 
L 5075 3925 
z
" transform="scale(0.015625)"/>
      </defs>
      <use xlink:href="#SimHei-53"/>
      <use xlink:href="#SimHei-4f" x="50"/>
      <use xlink:href="#SimHei-43" x="100"/>
      <use xlink:href="#SimHei-4e0b" x="150"/>
      <use xlink:href="#SimHei-9650" x="250"/>
     </g>
    </g>
    <g id="line2d_46">
     <path d="M 677.021875 94.29375 
L 687.021875 94.29375 
L 697.021875 94.29375 
" style="fill: none; stroke-dasharray: 1.5,2.475; stroke-dashoffset: 0; stroke: #808080; stroke-opacity: 0.5; stroke-width: 1.5"/>
    </g>
    <g id="text_31">
     <!-- SOC上限 -->
     <g transform="translate(705.021875 97.79375) scale(0.1 -0.1)">
      <defs>
       <path id="SimHei-4e0a" d="M 3250 5075 
Q 3225 4650 3225 4275 
L 3225 3225 
L 4650 3225 
Q 5150 3225 5600 3250 
L 5600 2700 
Q 5100 2725 4600 2725 
L 3225 2725 
L 3225 200 
L 5200 200 
Q 5575 200 6075 225 
L 6075 -300 
Q 5600 -275 5200 -275 
L 1250 -275 
Q 850 -275 350 -300 
L 350 225 
Q 825 200 1250 200 
L 2700 200 
L 2700 4250 
Q 2700 4625 2675 5075 
L 3250 5075 
z
" transform="scale(0.015625)"/>
      </defs>
      <use xlink:href="#SimHei-53"/>
      <use xlink:href="#SimHei-4f" x="50"/>
      <use xlink:href="#SimHei-43" x="100"/>
      <use xlink:href="#SimHei-4e0a" x="150"/>
      <use xlink:href="#SimHei-9650" x="250"/>
     </g>
    </g>
   </g>
  </g>
 </g>
 <defs>
  <clipPath id="pbf3bc116f4">
   <rect x="44.121875" y="24.575" width="799.9" height="362.02375"/>
  </clipPath>
 </defs>
</svg>
