<?xml version="1.0" encoding="utf-8" standalone="no"?>
<!DOCTYPE svg PUBLIC "-//W3C//DTD SVG 1.1//EN"
  "http://www.w3.org/Graphics/SVG/1.1/DTD/svg11.dtd">
<svg xmlns:xlink="http://www.w3.org/1999/xlink" width="794.93632pt" height="730.793344pt" viewBox="0 0 794.93632 730.793344" xmlns="http://www.w3.org/2000/svg" version="1.1">
 <metadata>
  <rdf:RDF xmlns:dc="http://purl.org/dc/elements/1.1/" xmlns:cc="http://creativecommons.org/ns#" xmlns:rdf="http://www.w3.org/1999/02/22-rdf-syntax-ns#">
   <cc:Work>
    <dc:type rdf:resource="http://purl.org/dc/dcmitype/StillImage"/>
    <dc:date>2025-12-01T18:28:02.935815</dc:date>
    <dc:format>image/svg+xml</dc:format>
    <dc:creator>
     <cc:Agent>
      <dc:title>Matplotlib v3.9.4, https://matplotlib.org/</dc:title>
     </cc:Agent>
    </dc:creator>
   </cc:Work>
  </rdf:RDF>
 </metadata>
 <defs>
  <style type="text/css">*{stroke-linejoin: round; stroke-linecap: butt}</style>
 </defs>
 <g id="figure_1">
  <g id="patch_1">
   <path d="M 0 730.793344 
L 794.93632 730.793344 
L 794.93632 0 
L 0 0 
z
" style="fill: #ffffff"/>
  </g>
  <g id="axes_1">
   <g id="patch_2">
    <path d="M 401.21816 691.515219 
C 497.423009 691.515219 589.785968 653.257229 657.813069 585.230128 
C 725.84017 517.203027 764.09816 424.840068 764.09816 328.635219 
L 401.21816 328.635219 
C 401.21816 328.635219 401.21816 328.635219 401.21816 328.635219 
C 401.21816 328.635219 401.21816 328.635219 401.21816 328.635219 
z
" style="fill: #ffffff"/>
   </g>
   <g id="patch_3">
    <path d="M 401.21816 637.083219 
L 591.033824 390.310067 
L 539.860243 137.810763 
L 326.564731 225.883589 
L 245.914435 379.096458 
z
" clip-path="url(#pb592c421d1)" style="fill: #d64541; opacity: 0.15; stroke: #d64541; stroke-linejoin: miter"/>
   </g>
   <g id="patch_4">
    <path d="M 401.21816 491.931219 
L 625.545763 401.523676 
L 507.865916 181.847176 
L 273.240853 152.489567 
L 90.61071 429.557698 
z
" clip-path="url(#pb592c421d1)" style="fill: #f5b041; opacity: 0.15; stroke: #f5b041; stroke-linejoin: miter"/>
   </g>
   <g id="patch_5">
    <path d="M 401.21816 528.219219 
L 694.569641 423.950893 
L 529.195468 152.489567 
L 219.916975 79.095545 
L 228.658466 384.703263 
z
" clip-path="url(#pb592c421d1)" style="fill: #58d68d; opacity: 0.15; stroke: #58d68d; stroke-linejoin: miter"/>
   </g>
   <g id="patch_6">
    <path d="M 401.21816 510.075219 
L 573.777855 384.703263 
L 497.201141 196.52598 
L 283.905628 167.168371 
L 211.402497 390.310067 
z
" clip-path="url(#pb592c421d1)" style="fill: #808080; opacity: 0.15; stroke: #808080; stroke-linejoin: miter"/>
   </g>
   <g id="patch_7">
    <path d="M 401.21816 582.651219 
L 660.057702 412.737284 
L 593.184121 64.416741 
L 251.911302 123.131958 
L 142.378619 412.737284 
z
" clip-path="url(#pb592c421d1)" style="fill: #7b68ee; opacity: 0.15; stroke: #7b68ee; stroke-linejoin: miter"/>
   </g>
   <g id="matplotlib.axis_1">
    <g id="xtick_1">
     <g id="line2d_1">
      <path d="M 401.21816 328.635219 
L 401.21816 691.515219 
" clip-path="url(#pb592c421d1)" style="fill: none; stroke: #cccccc; stroke-opacity: 0.7; stroke-width: 0.8; stroke-linecap: square"/>
     </g>
     <g id="text_1">
      <!-- 平均光照 -->
      <g style="fill: #666666" transform="translate(381.21816 712.327719) scale(0.1 -0.1)">
       <defs>
        <path id="SimHei-5e73" d="M 4525 4825 
Q 4900 4825 5450 4850 
L 5450 4375 
Q 4925 4400 4525 4400 
L 3475 4400 
L 3475 2025 
L 5000 2025 
Q 5550 2025 6025 2050 
L 6025 1575 
Q 5550 1600 5000 1600 
L 3475 1600 
L 3475 450 
Q 3475 -100 3500 -600 
L 2925 -600 
Q 2950 -100 2950 450 
L 2950 1600 
L 1125 1600 
Q 775 1600 375 1575 
L 375 2050 
Q 775 2025 1175 2025 
L 2950 2025 
L 2950 4400 
L 1775 4400 
Q 1400 4400 875 4375 
L 875 4850 
Q 1400 4825 1750 4825 
L 4525 4825 
z
M 3925 2600 
Q 4500 3300 4900 4125 
Q 5150 3950 5400 3825 
Q 4775 2850 4350 2300 
Q 4150 2475 3925 2600 
z
M 1975 2350 
Q 1600 3100 1050 3725 
Q 1250 3875 1450 4050 
Q 2075 3300 2450 2725 
Q 2150 2500 1975 2350 
z
" transform="scale(0.015625)"/>
        <path id="SimHei-5747" d="M 5775 275 
Q 5775 -325 5362 -450 
Q 4950 -575 4425 -600 
Q 4375 -275 4250 25 
Q 4950 -25 5125 62 
Q 5300 150 5300 500 
L 5375 3700 
L 3550 3700 
Q 3425 3375 3262 3037 
Q 3100 2700 2925 2400 
Q 2675 2550 2475 2625 
Q 3150 3625 3500 5200 
Q 3800 5100 4075 5025 
Q 3975 4875 3875 4650 
Q 3775 4425 3675 4125 
L 5900 4125 
L 5775 275 
z
M 1250 3625 
L 1250 4375 
Q 1250 4775 1225 5100 
L 1775 5100 
Q 1750 4725 1750 4375 
L 1750 3625 
L 1900 3625 
Q 2200 3625 2525 3650 
L 2525 3150 
Q 2200 3175 1900 3175 
L 1750 3175 
L 1750 1100 
L 2500 1375 
Q 2475 1125 2525 900 
Q 1225 475 962 362 
Q 700 250 475 150 
Q 375 475 250 750 
Q 575 800 800 850 
Q 1025 900 1250 975 
L 1250 3175 
L 1125 3175 
Q 850 3175 400 3150 
L 400 3650 
Q 850 3625 1100 3625 
L 1250 3625 
z
M 4950 1625 
Q 4675 1425 4137 1050 
Q 3600 675 3175 300 
Q 3000 575 2850 775 
Q 3350 1050 3762 1325 
Q 4175 1600 4775 2075 
Q 4825 1850 4950 1625 
z
M 3775 3150 
Q 4125 2800 4475 2300 
Q 4250 2125 4100 1975 
Q 3900 2325 3450 2825 
Q 3600 3000 3775 3150 
z
" transform="scale(0.015625)"/>
        <path id="SimHei-5149" d="M 6050 2300 
Q 5775 2325 5150 2325 
L 4050 2325 
L 4050 400 
Q 4050 50 4425 50 
L 4975 50 
Q 5300 50 5375 212 
Q 5450 375 5500 850 
Q 5750 625 6100 525 
Q 6000 175 5837 -100 
Q 5675 -375 5325 -375 
L 4100 -375 
Q 3550 -375 3550 175 
L 3550 2325 
L 2775 2325 
Q 2825 125 575 -575 
Q 400 -275 225 -50 
Q 1225 150 1737 687 
Q 2250 1225 2275 2325 
L 1450 2325 
Q 625 2325 375 2300 
L 375 2775 
Q 625 2750 1425 2750 
L 2950 2750 
L 2950 4300 
Q 2950 4750 2925 5150 
L 3525 5150 
Q 3475 4900 3475 4300 
L 3475 2750 
L 5150 2750 
Q 5725 2750 6050 2775 
L 6050 2300 
z
M 4100 3325 
Q 4700 4050 4875 4575 
Q 5200 4375 5475 4275 
Q 5300 4100 5075 3762 
Q 4850 3425 4575 3050 
Q 4300 3200 4100 3325 
z
M 1775 3000 
Q 1600 3375 1025 4150 
Q 1275 4300 1550 4450 
Q 1800 4100 1962 3850 
Q 2125 3600 2300 3300 
Q 2025 3175 1775 3000 
z
" transform="scale(0.015625)"/>
        <path id="SimHei-7167" d="M 2525 4900 
Q 2500 4000 2500 2950 
Q 2500 1925 2525 1175 
L 675 1175 
Q 700 1900 700 2950 
Q 700 4000 675 4900 
L 2525 4900 
z
M 5675 2650 
Q 5650 2350 5650 1900 
Q 5650 1475 5675 1075 
L 3175 1075 
Q 3200 1500 3200 1900 
Q 3200 2300 3175 2650 
L 5675 2650 
z
M 4625 2775 
Q 4600 3025 4400 3275 
Q 4775 3275 4925 3300 
Q 5075 3325 5100 3525 
L 5175 4600 
L 4275 4600 
Q 4175 3875 3862 3425 
Q 3550 2975 3100 2650 
Q 2850 2900 2675 2975 
Q 3125 3225 3425 3625 
Q 3725 4025 3775 4600 
Q 3325 4600 2875 4575 
L 2875 5000 
Q 3275 4975 3675 4975 
L 5725 4975 
Q 5675 4675 5637 4037 
Q 5600 3400 5525 3162 
Q 5450 2925 5237 2875 
Q 5025 2825 4625 2775 
z
M 5175 1475 
L 5175 2300 
L 3675 2300 
L 3675 1475 
L 5175 1475 
z
M 2025 3200 
L 2025 4500 
L 1175 4500 
L 1175 3200 
L 2025 3200 
z
M 2025 1575 
L 2025 2825 
L 1175 2825 
L 1175 1575 
L 2025 1575 
z
M 1375 625 
Q 1025 -250 800 -650 
Q 575 -500 325 -450 
Q 575 -100 875 825 
Q 1100 700 1375 625 
z
M 5575 -625 
Q 5400 -200 4950 650 
Q 5100 725 5375 850 
Q 5825 0 6025 -400 
Q 5775 -500 5575 -625 
z
M 2550 725 
Q 2800 -175 2850 -475 
Q 2600 -475 2375 -575 
Q 2325 -300 2050 600 
Q 2275 650 2550 725 
z
M 4425 -425 
Q 4175 -475 3925 -550 
Q 3825 -125 3575 600 
Q 3725 650 4050 750 
Q 4325 -75 4425 -425 
z
" transform="scale(0.015625)"/>
       </defs>
       <use xlink:href="#SimHei-5e73"/>
       <use xlink:href="#SimHei-5747" x="100"/>
       <use xlink:href="#SimHei-5149" x="200"/>
       <use xlink:href="#SimHei-7167" x="300"/>
      </g>
      <!-- (Mean Solar) -->
      <g style="fill: #666666" transform="translate(371.21816 722.343344) scale(0.1 -0.1)">
       <defs>
        <path id="SimHei-28" d="M 2975 -200 
L 2700 -475 
Q 2075 125 1762 775 
Q 1450 1425 1450 2250 
Q 1450 3075 1762 3725 
Q 2075 4375 2700 5000 
L 2975 4725 
Q 2400 4175 2112 3587 
Q 1825 3000 1825 2250 
Q 1825 1500 2112 912 
Q 2400 325 2975 -200 
z
" transform="scale(0.015625)"/>
        <path id="SimHei-4d" d="M 2925 125 
L 2425 125 
L 2425 3175 
L 2375 3175 
L 1775 125 
L 1375 125 
L 775 3175 
L 725 3175 
L 725 125 
L 225 125 
L 225 4400 
L 1000 4400 
L 1550 1575 
L 1600 1575 
L 2150 4400 
L 2925 4400 
L 2925 125 
z
" transform="scale(0.015625)"/>
        <path id="SimHei-65" d="M 2850 1075 
Q 2800 625 2450 350 
Q 2100 75 1625 75 
Q 1025 75 637 462 
Q 250 850 250 1525 
Q 250 2200 637 2587 
Q 1025 2975 1625 2975 
Q 2150 2975 2487 2637 
Q 2825 2300 2825 1525 
L 800 1525 
Q 800 975 1037 750 
Q 1275 525 1625 525 
Q 1900 525 2075 662 
Q 2250 800 2300 1075 
L 2850 1075 
z
M 2250 1925 
Q 2200 2275 2025 2412 
Q 1850 2550 1575 2550 
Q 1325 2550 1125 2412 
Q 925 2275 825 1925 
L 2250 1925 
z
" transform="scale(0.015625)"/>
        <path id="SimHei-61" d="M 2875 125 
L 2275 125 
Q 2225 175 2200 262 
Q 2175 350 2175 475 
Q 2000 275 1750 175 
Q 1500 75 1225 75 
Q 825 75 550 275 
Q 275 475 275 850 
Q 275 1225 525 1450 
Q 775 1675 1300 1750 
Q 1650 1800 1912 1875 
Q 2175 1950 2175 2075 
Q 2175 2225 2062 2375 
Q 1950 2525 1575 2525 
Q 1275 2525 1137 2412 
Q 1000 2300 950 2100 
L 400 2100 
Q 450 2500 762 2737 
Q 1075 2975 1575 2975 
Q 2125 2975 2400 2725 
Q 2675 2475 2675 2025 
L 2675 650 
Q 2675 500 2725 375 
Q 2775 250 2875 125 
z
M 2175 1050 
L 2175 1550 
Q 2025 1500 1887 1462 
Q 1750 1425 1425 1375 
Q 1050 1325 937 1200 
Q 825 1075 825 900 
Q 825 750 937 637 
Q 1050 525 1275 525 
Q 1500 525 1762 650 
Q 2025 775 2175 1050 
z
" transform="scale(0.015625)"/>
        <path id="SimHei-6e" d="M 2800 125 
L 2300 125 
L 2300 1925 
Q 2300 2225 2150 2400 
Q 2000 2575 1750 2575 
Q 1425 2575 1137 2237 
Q 850 1900 850 1400 
L 850 125 
L 350 125 
L 350 2925 
L 850 2925 
L 850 2400 
Q 1050 2675 1287 2825 
Q 1525 2975 1900 2975 
Q 2350 2975 2575 2725 
Q 2800 2475 2800 2100 
L 2800 125 
z
" transform="scale(0.015625)"/>
        <path id="SimHei-20" transform="scale(0.015625)"/>
        <path id="SimHei-53" d="M 2900 1325 
Q 2900 750 2537 412 
Q 2175 75 1550 75 
Q 925 75 575 425 
Q 225 775 225 1300 
L 225 1475 
L 800 1475 
L 800 1325 
Q 800 950 1025 750 
Q 1250 550 1550 550 
Q 1950 550 2137 762 
Q 2325 975 2325 1275 
Q 2325 1525 2100 1737 
Q 1875 1950 1450 2125 
Q 850 2350 587 2625 
Q 325 2900 325 3275 
Q 325 3800 687 4125 
Q 1050 4450 1550 4450 
Q 2200 4450 2487 4062 
Q 2775 3675 2775 3225 
L 2200 3225 
Q 2225 3500 2050 3725 
Q 1875 3950 1550 3950 
Q 1250 3950 1075 3787 
Q 900 3625 900 3350 
Q 900 3125 1037 2962 
Q 1175 2800 1750 2575 
Q 2300 2350 2600 2037 
Q 2900 1725 2900 1325 
z
" transform="scale(0.015625)"/>
        <path id="SimHei-6f" d="M 2925 1525 
Q 2925 875 2525 475 
Q 2125 75 1575 75 
Q 1025 75 625 475 
Q 225 875 225 1525 
Q 225 2175 625 2575 
Q 1025 2975 1575 2975 
Q 2125 2975 2525 2575 
Q 2925 2175 2925 1525 
z
M 2375 1525 
Q 2375 2025 2125 2275 
Q 1875 2525 1575 2525 
Q 1275 2525 1025 2275 
Q 775 2025 775 1525 
Q 775 1025 1025 775 
Q 1275 525 1575 525 
Q 1875 525 2125 775 
Q 2375 1025 2375 1525 
z
" transform="scale(0.015625)"/>
        <path id="SimHei-6c" d="M 1825 125 
L 1325 125 
L 1325 4400 
L 1825 4400 
L 1825 125 
z
" transform="scale(0.015625)"/>
        <path id="SimHei-72" d="M 2500 2425 
Q 2025 2500 1700 2287 
Q 1375 2075 1150 1550 
L 1150 125 
L 650 125 
L 650 2925 
L 1150 2925 
L 1150 2200 
Q 1375 2600 1712 2787 
Q 2050 2975 2500 2975 
L 2500 2425 
z
" transform="scale(0.015625)"/>
        <path id="SimHei-29" d="M 1675 2250 
Q 1675 1425 1362 775 
Q 1050 125 425 -475 
L 150 -200 
Q 725 325 1012 912 
Q 1300 1500 1300 2250 
Q 1300 3000 1012 3587 
Q 725 4175 150 4725 
L 425 5000 
Q 1050 4375 1362 3725 
Q 1675 3075 1675 2250 
z
" transform="scale(0.015625)"/>
       </defs>
       <use xlink:href="#SimHei-28"/>
       <use xlink:href="#SimHei-4d" x="50"/>
       <use xlink:href="#SimHei-65" x="100"/>
       <use xlink:href="#SimHei-61" x="150"/>
       <use xlink:href="#SimHei-6e" x="200"/>
       <use xlink:href="#SimHei-20" x="250"/>
       <use xlink:href="#SimHei-53" x="300"/>
       <use xlink:href="#SimHei-6f" x="350"/>
       <use xlink:href="#SimHei-6c" x="400"/>
       <use xlink:href="#SimHei-61" x="450"/>
       <use xlink:href="#SimHei-72" x="500"/>
       <use xlink:href="#SimHei-29" x="550"/>
      </g>
     </g>
    </g>
    <g id="xtick_2">
     <g id="line2d_2">
      <path d="M 401.21816 328.635219 
L 746.337549 440.771306 
" clip-path="url(#pb592c421d1)" style="fill: none; stroke: #cccccc; stroke-opacity: 0.7; stroke-width: 0.8; stroke-linecap: square"/>
     </g>
     <g id="text_2">
      <!-- 平均电价 -->
      <g style="fill: #666666" transform="translate(747.73632 446.05622) scale(0.1 -0.1)">
       <defs>
        <path id="SimHei-7535" d="M 6150 325 
Q 5975 -250 5825 -412 
Q 5675 -575 5325 -575 
L 3375 -575 
Q 2700 -600 2675 100 
L 2675 975 
L 1225 975 
L 1225 500 
L 650 500 
Q 675 750 675 2225 
Q 675 3700 650 4150 
L 2675 4150 
Q 2675 4825 2650 5200 
L 3200 5200 
Q 3175 4875 3175 4150 
L 5200 4150 
Q 5175 3775 5175 2600 
Q 5175 1450 5200 975 
L 3175 975 
L 3175 300 
Q 3175 -150 3650 -150 
L 4975 -150 
Q 5375 -150 5450 25 
Q 5525 200 5575 575 
Q 5825 400 6150 325 
z
M 4675 1400 
L 4675 2400 
L 3175 2400 
L 3175 1400 
L 4675 1400 
z
M 2675 1400 
L 2675 2400 
L 1225 2400 
L 1225 1400 
L 2675 1400 
z
M 4675 2800 
L 4675 3725 
L 3175 3725 
L 3175 2800 
L 4675 2800 
z
M 2675 2800 
L 2675 3725 
L 1225 3725 
L 1225 2800 
L 2675 2800 
z
" transform="scale(0.015625)"/>
        <path id="SimHei-4ef7" d="M 2200 4975 
Q 2050 4725 1650 3775 
L 1650 450 
Q 1650 -225 1675 -650 
L 1175 -650 
Q 1175 -225 1200 450 
L 1200 2975 
Q 900 2425 650 2100 
Q 525 2275 225 2450 
Q 750 3025 1125 3800 
Q 1500 4575 1625 5175 
Q 1950 5025 2200 4975 
z
M 4175 4700 
Q 4850 3525 6150 2950 
Q 5925 2750 5775 2500 
Q 4725 3100 3950 4300 
Q 3300 3125 2250 2350 
Q 2125 2525 1900 2725 
Q 2825 3325 3250 4050 
Q 3675 4775 3750 5150 
Q 4150 4950 4325 4900 
L 4175 4700 
z
M 3475 2650 
Q 3400 2075 3325 1087 
Q 3250 100 2325 -675 
Q 2175 -450 1925 -300 
Q 2850 350 2912 1262 
Q 2975 2175 2950 2700 
Q 3275 2650 3475 2650 
z
M 5075 2700 
Q 5050 2150 5050 1725 
L 5050 150 
Q 5050 -225 5075 -650 
L 4550 -650 
Q 4575 -225 4575 175 
L 4575 1875 
Q 4575 2150 4550 2700 
L 5075 2700 
z
" transform="scale(0.015625)"/>
       </defs>
       <use xlink:href="#SimHei-5e73"/>
       <use xlink:href="#SimHei-5747" x="100"/>
       <use xlink:href="#SimHei-7535" x="200"/>
       <use xlink:href="#SimHei-4ef7" x="300"/>
      </g>
      <!-- (Price) -->
      <g style="fill: #666666" transform="translate(750.23632 456.071845) scale(0.1 -0.1)">
       <defs>
        <path id="SimHei-50" d="M 2950 3100 
Q 2950 2500 2600 2150 
Q 2250 1800 1625 1800 
L 900 1800 
L 900 125 
L 325 125 
L 325 4400 
L 1625 4400 
Q 2250 4400 2600 4050 
Q 2950 3700 2950 3100 
z
M 2375 3100 
Q 2375 3575 2150 3750 
Q 1925 3925 1475 3925 
L 900 3925 
L 900 2275 
L 1475 2275 
Q 1925 2275 2150 2450 
Q 2375 2625 2375 3100 
z
" transform="scale(0.015625)"/>
        <path id="SimHei-69" d="M 1800 3725 
L 1300 3725 
L 1300 4375 
L 1800 4375 
L 1800 3725 
z
M 1800 125 
L 1300 125 
L 1300 2925 
L 1800 2925 
L 1800 125 
z
" transform="scale(0.015625)"/>
        <path id="SimHei-63" d="M 2850 1250 
Q 2850 725 2487 400 
Q 2125 75 1575 75 
Q 1025 75 625 462 
Q 225 850 225 1525 
Q 225 2200 625 2587 
Q 1025 2975 1575 2975 
Q 2125 2975 2450 2687 
Q 2775 2400 2775 2000 
L 2225 2000 
Q 2200 2300 2012 2412 
Q 1825 2525 1575 2525 
Q 1275 2525 1025 2287 
Q 775 2050 775 1525 
Q 775 1000 1025 762 
Q 1275 525 1575 525 
Q 1900 525 2100 700 
Q 2300 875 2300 1250 
L 2850 1250 
z
" transform="scale(0.015625)"/>
       </defs>
       <use xlink:href="#SimHei-28"/>
       <use xlink:href="#SimHei-50" x="50"/>
       <use xlink:href="#SimHei-72" x="100"/>
       <use xlink:href="#SimHei-69" x="150"/>
       <use xlink:href="#SimHei-63" x="200"/>
       <use xlink:href="#SimHei-65" x="250"/>
       <use xlink:href="#SimHei-29" x="300"/>
      </g>
     </g>
    </g>
    <g id="xtick_3">
     <g id="line2d_3">
      <path d="M 401.21816 328.635219 
L 614.513673 35.059132 
" clip-path="url(#pb592c421d1)" style="fill: none; stroke: #cccccc; stroke-opacity: 0.7; stroke-width: 0.8; stroke-linecap: square"/>
     </g>
     <g id="text_3">
      <!-- 光照波动 -->
      <g style="fill: #666666" transform="translate(607.738841 15.188281) scale(0.1 -0.1)">
       <defs>
        <path id="SimHei-6ce2" d="M 5075 3275 
Q 5175 3600 5225 3850 
L 4325 3850 
L 4325 2750 
L 5550 2750 
Q 5400 2100 5125 1512 
Q 4850 925 4525 550 
Q 4775 350 5200 175 
Q 5625 0 6175 -100 
Q 5900 -300 5775 -600 
Q 5250 -425 4800 -175 
Q 4350 75 4200 225 
Q 3950 25 3537 -212 
Q 3125 -450 2500 -675 
Q 2375 -500 2050 -375 
Q 2525 -250 3062 25 
Q 3600 300 3850 550 
Q 3325 1300 3075 2325 
L 2825 2325 
Q 2800 1400 2487 725 
Q 2175 50 1875 -300 
Q 1700 -150 1375 -50 
Q 1750 325 1950 712 
Q 2150 1100 2262 1475 
Q 2375 1850 2387 2825 
Q 2400 3800 2350 4275 
L 3875 4275 
Q 3875 4850 3850 5200 
L 4350 5200 
Q 4325 4900 4325 4275 
L 5850 4275 
Q 5825 4125 5750 3837 
Q 5675 3550 5600 3200 
Q 5300 3250 5075 3275 
z
M 3525 2325 
Q 3800 1400 4200 925 
Q 4650 1475 4925 2325 
L 3525 2325 
z
M 1950 1700 
Q 1700 1375 1262 712 
Q 825 50 675 -200 
Q 475 50 225 275 
Q 525 525 937 1100 
Q 1350 1675 1550 2100 
L 1950 1700 
z
M 3875 2750 
L 3875 3850 
L 2850 3850 
L 2850 2750 
L 3875 2750 
z
M 925 4925 
Q 1600 4525 2000 4250 
Q 1800 4025 1675 3800 
Q 1250 4150 625 4500 
Q 775 4700 925 4925 
z
M 600 3525 
Q 1125 3250 1725 2850 
Q 1525 2675 1400 2425 
Q 925 2825 350 3100 
Q 450 3275 600 3525 
z
" transform="scale(0.015625)"/>
        <path id="SimHei-52a8" d="M 4125 5150 
Q 4425 5075 4700 5075 
Q 4650 4825 4637 4512 
Q 4625 4200 4625 3750 
L 6025 3750 
Q 6000 3425 5975 3025 
L 5850 175 
Q 5775 -325 5437 -437 
Q 5100 -550 4675 -600 
Q 4600 -300 4425 -50 
Q 4975 -75 5175 12 
Q 5375 100 5375 350 
L 5525 3325 
L 4625 3325 
Q 4575 2225 4462 1650 
Q 4350 1075 4112 587 
Q 3875 100 3150 -675 
Q 2900 -425 2700 -350 
Q 3175 25 3475 437 
Q 3775 850 3900 1287 
Q 4025 1725 4075 2200 
Q 4125 2675 4150 3325 
L 3725 3325 
Q 3450 3325 3075 3300 
L 3075 3775 
Q 3450 3750 3775 3750 
L 4150 3750 
L 4150 4450 
Q 4150 4800 4125 5150 
z
M 275 3025 
Q 650 3000 1175 3000 
L 2125 3000 
Q 2575 3000 3150 3025 
L 3150 2575 
Q 2575 2600 2150 2600 
L 1875 2600 
Q 1725 2200 1537 1750 
Q 1350 1300 1100 850 
Q 2075 950 2575 1050 
Q 2450 1350 2175 1800 
Q 2450 1950 2575 2050 
Q 2825 1600 3000 1287 
Q 3175 975 3375 525 
Q 3175 400 2925 275 
Q 2825 500 2750 650 
Q 1950 525 1462 450 
Q 975 375 625 250 
Q 525 500 375 725 
Q 700 925 962 1525 
Q 1225 2125 1350 2600 
L 1175 2600 
Q 650 2600 275 2575 
L 275 3025 
z
M 2000 4425 
Q 2425 4425 2950 4450 
L 2950 3975 
Q 2425 4000 2000 4000 
L 1400 4000 
Q 1000 4000 625 3975 
L 625 4450 
Q 975 4425 1375 4425 
L 2000 4425 
z
" transform="scale(0.015625)"/>
       </defs>
       <use xlink:href="#SimHei-5149"/>
       <use xlink:href="#SimHei-7167" x="100"/>
       <use xlink:href="#SimHei-6ce2" x="200"/>
       <use xlink:href="#SimHei-52a8" x="300"/>
      </g>
      <!-- (Std Solar) -->
      <g style="fill: #666666" transform="translate(600.238841 25.203906) scale(0.1 -0.1)">
       <defs>
        <path id="SimHei-74" d="M 2750 200 
Q 2625 150 2462 112 
Q 2300 75 2025 75 
Q 1575 75 1300 325 
Q 1025 575 1025 1025 
L 1025 2525 
L 175 2525 
L 175 2925 
L 1025 2925 
L 1025 3900 
L 1525 3900 
L 1525 2925 
L 2550 2925 
L 2550 2525 
L 1525 2525 
L 1525 1000 
Q 1525 800 1625 662 
Q 1725 525 2000 525 
Q 2275 525 2450 575 
Q 2625 625 2750 700 
L 2750 200 
z
" transform="scale(0.015625)"/>
        <path id="SimHei-64" d="M 2750 125 
L 2250 125 
L 2250 500 
Q 2100 275 1900 175 
Q 1700 75 1425 75 
Q 925 75 575 437 
Q 225 800 225 1525 
Q 225 2250 575 2625 
Q 925 3000 1425 3000 
Q 1700 3000 1900 2887 
Q 2100 2775 2250 2550 
L 2250 4400 
L 2750 4400 
L 2750 125 
z
M 2250 1525 
Q 2250 2000 2037 2275 
Q 1825 2550 1525 2550 
Q 1150 2550 962 2275 
Q 775 2000 775 1525 
Q 775 1050 962 787 
Q 1150 525 1525 525 
Q 1825 525 2037 787 
Q 2250 1050 2250 1525 
z
" transform="scale(0.015625)"/>
       </defs>
       <use xlink:href="#SimHei-28"/>
       <use xlink:href="#SimHei-53" x="50"/>
       <use xlink:href="#SimHei-74" x="100"/>
       <use xlink:href="#SimHei-64" x="150"/>
       <use xlink:href="#SimHei-20" x="200"/>
       <use xlink:href="#SimHei-53" x="250"/>
       <use xlink:href="#SimHei-6f" x="300"/>
       <use xlink:href="#SimHei-6c" x="350"/>
       <use xlink:href="#SimHei-61" x="400"/>
       <use xlink:href="#SimHei-72" x="450"/>
       <use xlink:href="#SimHei-29" x="500"/>
      </g>
     </g>
    </g>
    <g id="xtick_4">
     <g id="line2d_4">
      <path d="M 401.21816 328.635219 
L 187.922648 35.059132 
" clip-path="url(#pb592c421d1)" style="fill: none; stroke: #cccccc; stroke-opacity: 0.7; stroke-width: 0.8; stroke-linecap: square"/>
     </g>
     <g id="text_4">
      <!-- 平均负荷 -->
      <g style="fill: #666666" transform="translate(154.69748 15.246875) scale(0.1 -0.1)">
       <defs>
        <path id="SimHei-8d1f" d="M 2900 5000 
Q 2575 4600 2500 4475 
L 4800 4475 
Q 4200 3500 4025 3200 
L 5450 3200 
Q 5425 2850 5425 1975 
Q 5425 1100 5450 725 
L 4925 725 
L 4925 2800 
L 1825 2800 
L 1825 650 
L 1300 650 
Q 1325 1050 1325 1925 
Q 1325 2800 1300 3150 
Q 950 2900 750 2725 
Q 525 2975 300 3125 
Q 625 3275 1062 3612 
Q 1500 3950 1875 4462 
Q 2250 4975 2375 5250 
Q 2625 5075 2900 5000 
z
M 3650 2150 
Q 3575 1900 3450 1337 
Q 3325 775 3050 412 
Q 2775 50 2162 -225 
Q 1550 -500 675 -675 
Q 600 -425 400 -175 
Q 1000 -125 1575 50 
Q 2150 225 2475 500 
Q 2800 775 2925 1187 
Q 3050 1600 3050 2225 
Q 3375 2175 3650 2150 
z
M 2225 4075 
Q 1800 3600 1350 3200 
L 3475 3200 
Q 3800 3725 4000 4075 
L 2225 4075 
z
M 3875 750 
Q 4350 525 4850 300 
Q 5350 75 5925 -225 
Q 5775 -425 5650 -700 
Q 5100 -400 4612 -150 
Q 4125 100 3650 300 
Q 3850 600 3875 750 
z
" transform="scale(0.015625)"/>
        <path id="SimHei-8377" d="M 2600 4225 
Q 2600 4000 2625 3700 
L 2125 3700 
Q 2150 4000 2150 4225 
L 1225 4225 
Q 775 4225 300 4175 
L 300 4650 
Q 750 4625 1175 4625 
L 2150 4625 
Q 2150 4900 2125 5175 
L 2625 5175 
Q 2600 4900 2600 4625 
L 3850 4625 
Q 3850 4850 3825 5175 
L 4325 5175 
Q 4300 4850 4300 4625 
L 5200 4625 
Q 5575 4625 6075 4650 
L 6075 4200 
Q 5600 4225 5250 4225 
L 4300 4225 
Q 4300 3975 4325 3625 
L 3825 3625 
Q 3850 3950 3850 4225 
L 2600 4225 
z
M 5250 3275 
Q 5725 3275 6125 3300 
L 6125 2850 
Q 5775 2875 5375 2875 
L 5375 -50 
Q 5375 -325 5200 -425 
Q 5025 -525 4475 -600 
Q 4450 -350 4225 -50 
Q 4600 -75 4762 -62 
Q 4925 -50 4925 125 
L 4925 2875 
L 3175 2875 
Q 2750 2875 2300 2850 
L 2300 3300 
Q 2750 3275 3175 3275 
L 5250 3275 
z
M 4300 2225 
Q 4275 1925 4275 1300 
Q 4275 700 4300 425 
L 2500 425 
Q 2525 700 2525 1325 
Q 2525 1950 2500 2225 
L 4300 2225 
z
M 2275 3450 
Q 2150 3350 2037 3212 
Q 1925 3075 1775 2875 
L 1775 325 
Q 1775 -175 1800 -575 
L 1300 -575 
Q 1325 -150 1325 325 
L 1325 2225 
Q 950 1725 600 1400 
Q 425 1625 200 1800 
Q 650 2125 1175 2825 
Q 1700 3525 1750 3775 
Q 2000 3600 2275 3450 
z
M 3850 850 
L 3850 1825 
L 2975 1825 
L 2975 850 
L 3850 850 
z
" transform="scale(0.015625)"/>
       </defs>
       <use xlink:href="#SimHei-5e73"/>
       <use xlink:href="#SimHei-5747" x="100"/>
       <use xlink:href="#SimHei-8d1f" x="200"/>
       <use xlink:href="#SimHei-8377" x="300"/>
      </g>
      <!-- (Mean Load) -->
      <g style="fill: #666666" transform="translate(147.19748 25.2625) scale(0.1 -0.1)">
       <defs>
        <path id="SimHei-4c" d="M 2900 125 
L 300 125 
L 300 4400 
L 875 4400 
L 875 600 
L 2900 600 
L 2900 125 
z
" transform="scale(0.015625)"/>
       </defs>
       <use xlink:href="#SimHei-28"/>
       <use xlink:href="#SimHei-4d" x="50"/>
       <use xlink:href="#SimHei-65" x="100"/>
       <use xlink:href="#SimHei-61" x="150"/>
       <use xlink:href="#SimHei-6e" x="200"/>
       <use xlink:href="#SimHei-20" x="250"/>
       <use xlink:href="#SimHei-4c" x="300"/>
       <use xlink:href="#SimHei-6f" x="350"/>
       <use xlink:href="#SimHei-61" x="400"/>
       <use xlink:href="#SimHei-64" x="450"/>
       <use xlink:href="#SimHei-29" x="500"/>
      </g>
     </g>
    </g>
    <g id="xtick_5">
     <g id="line2d_5">
      <path d="M 401.21816 328.635219 
L 56.098772 440.771306 
" clip-path="url(#pb592c421d1)" style="fill: none; stroke: #cccccc; stroke-opacity: 0.7; stroke-width: 0.8; stroke-linecap: square"/>
     </g>
     <g id="text_5">
      <!-- 平均风速 -->
      <g style="fill: #666666" transform="translate(14.7 446.095282) scale(0.1 -0.1)">
       <defs>
        <path id="SimHei-98ce" d="M 5100 4950 
Q 5050 3950 5062 3137 
Q 5075 2325 5087 1825 
Q 5100 1325 5262 712 
Q 5425 100 5525 150 
Q 5625 200 5700 775 
Q 5925 550 6200 450 
Q 5950 -475 5687 -562 
Q 5425 -650 5175 -337 
Q 4925 -25 4787 575 
Q 4650 1175 4625 1862 
Q 4600 2550 4600 4500 
L 1500 4500 
Q 1500 2475 1437 1825 
Q 1375 1175 1187 525 
Q 1000 -125 625 -675 
Q 400 -425 275 -275 
Q 600 150 775 737 
Q 950 1325 1000 2062 
Q 1050 2800 1050 3675 
Q 1050 4550 1025 4950 
L 5100 4950 
z
M 4225 3625 
Q 4075 3425 3875 2950 
Q 3675 2475 3475 2100 
Q 4025 1200 4350 525 
Q 4100 400 3925 275 
Q 3750 700 3225 1625 
Q 2950 1250 2650 925 
Q 2350 600 1950 250 
Q 1750 525 1600 625 
Q 2000 875 2375 1287 
Q 2750 1700 2950 2025 
Q 2450 2825 1850 3450 
Q 2075 3600 2200 3750 
Q 2700 3175 3200 2475 
Q 3475 3000 3725 3925 
L 4225 3625 
z
" transform="scale(0.015625)"/>
        <path id="SimHei-901f" d="M 3725 4600 
Q 3725 4975 3700 5250 
L 4175 5250 
Q 4150 5000 4150 4600 
L 5175 4600 
Q 5550 4600 5925 4625 
L 5925 4175 
Q 5550 4200 5175 4200 
L 4150 4200 
L 4150 3725 
L 5700 3725 
Q 5675 3325 5675 2950 
Q 5675 2575 5700 2200 
L 4150 2200 
Q 4150 725 4175 225 
L 3700 225 
Q 3725 725 3725 1925 
Q 3425 1475 3100 1125 
Q 2775 775 2300 425 
Q 2125 625 1825 775 
Q 2275 950 2712 1387 
Q 3150 1825 3325 2200 
L 2200 2200 
Q 2225 2625 2225 2950 
Q 2225 3300 2200 3725 
L 3725 3725 
L 3725 4200 
L 2675 4200 
Q 2325 4200 1925 4175 
L 1925 4625 
Q 2325 4600 2675 4600 
L 3725 4600 
z
M 1500 2875 
Q 1475 2400 1475 1925 
L 1475 550 
Q 2150 -25 3725 -37 
Q 5300 -50 6200 100 
Q 6025 -175 6000 -525 
Q 3925 -550 3087 -475 
Q 2250 -400 1800 -137 
Q 1350 125 1112 -62 
Q 875 -250 600 -600 
Q 475 -375 200 -200 
Q 475 25 1000 400 
L 1000 2450 
Q 675 2450 275 2425 
L 275 2900 
Q 700 2875 1000 2875 
L 1500 2875 
z
M 4550 2050 
Q 4950 1700 5925 925 
Q 5725 775 5550 550 
Q 5075 1000 4250 1675 
Q 4400 1825 4550 2050 
z
M 3725 2575 
L 3725 3325 
L 2675 3325 
L 2675 2575 
L 3725 2575 
z
M 5200 2575 
L 5200 3325 
L 4150 3325 
L 4150 2575 
L 5200 2575 
z
M 1100 4950 
Q 1425 4350 1600 3850 
Q 1350 3750 1050 3625 
Q 975 4050 650 4800 
Q 900 4850 1100 4950 
z
" transform="scale(0.015625)"/>
       </defs>
       <use xlink:href="#SimHei-5e73"/>
       <use xlink:href="#SimHei-5747" x="100"/>
       <use xlink:href="#SimHei-98ce" x="200"/>
       <use xlink:href="#SimHei-901f" x="300"/>
      </g>
      <!-- (Mean Wind) -->
      <g style="fill: #666666" transform="translate(7.2 456.110907) scale(0.1 -0.1)">
       <defs>
        <path id="SimHei-57" d="M 3075 4400 
L 2525 75 
L 2025 75 
L 1575 3275 
L 1525 3275 
L 1075 75 
L 575 75 
L 25 4400 
L 575 4400 
L 850 1675 
L 900 1675 
L 1275 4400 
L 1825 4400 
L 2200 1675 
L 2250 1675 
L 2525 4400 
L 3075 4400 
z
" transform="scale(0.015625)"/>
       </defs>
       <use xlink:href="#SimHei-28"/>
       <use xlink:href="#SimHei-4d" x="50"/>
       <use xlink:href="#SimHei-65" x="100"/>
       <use xlink:href="#SimHei-61" x="150"/>
       <use xlink:href="#SimHei-6e" x="200"/>
       <use xlink:href="#SimHei-20" x="250"/>
       <use xlink:href="#SimHei-57" x="300"/>
       <use xlink:href="#SimHei-69" x="350"/>
       <use xlink:href="#SimHei-6e" x="400"/>
       <use xlink:href="#SimHei-64" x="450"/>
       <use xlink:href="#SimHei-29" x="500"/>
      </g>
     </g>
    </g>
   </g>
   <g id="matplotlib.axis_2">
    <g id="ytick_1">
     <g id="line2d_6">
      <path d="M 401.21816 401.211219 
C 410.748753 401.211219 420.186673 399.3339 428.991793 395.6867 
C 437.796913 392.0395 445.797995 386.693348 452.537142 379.954201 
C 459.276289 373.215054 464.622441 365.213972 468.269641 356.408852 
C 471.916841 347.603732 473.79416 338.165812 473.79416 328.635219 
C 473.79416 319.104626 471.916841 309.666706 468.269641 300.861587 
C 464.622441 292.056467 459.276289 284.055384 452.537142 277.316238 
C 445.797995 270.577091 437.796913 265.230938 428.991793 261.583738 
C 420.186673 257.936538 410.748753 256.059219 401.21816 256.059219 
C 391.687567 256.059219 382.249647 257.936538 373.444527 261.583738 
C 364.639408 265.230938 356.638325 270.577091 349.899178 277.316238 
C 343.160032 284.055384 337.813879 292.056467 334.166679 300.861587 
C 330.519479 309.666706 328.64216 319.104626 328.64216 328.635219 
C 328.64216 338.165812 330.519479 347.603732 334.166679 356.408852 
C 337.813879 365.213972 343.160032 373.215054 349.899178 379.954201 
C 356.638325 386.693348 364.639408 392.0395 373.444527 395.6867 
C 382.249647 399.3339 391.687567 401.211219 401.21816 401.211219 
C 420.45913 401.211219 438.931722 393.559621 452.537142 379.954201 
C 466.142562 366.348781 473.79416 347.876189 473.79416 328.635219 
" clip-path="url(#pb592c421d1)" style="fill: none; stroke: #cccccc; stroke-opacity: 0.7; stroke-width: 0.8; stroke-linecap: square"/>
     </g>
    </g>
    <g id="ytick_2">
     <g id="line2d_7">
      <path d="M 401.21816 473.787219 
C 420.279346 473.787219 439.155186 470.032581 456.765426 462.738181 
C 474.375665 455.443781 490.37783 444.751477 503.856124 431.273183 
C 517.334418 417.794889 528.026722 401.792724 535.321122 384.182485 
C 542.615522 366.572245 546.37016 347.696405 546.37016 328.635219 
C 546.37016 309.574033 542.615522 290.698193 535.321122 273.087954 
C 528.026722 255.477714 517.334418 239.47555 503.856124 225.997256 
C 490.37783 212.518962 474.375665 201.826657 456.765426 194.532257 
C 439.155186 187.237857 420.279346 183.483219 401.21816 183.483219 
C 382.156974 183.483219 363.281134 187.237857 345.670895 194.532257 
C 328.060655 201.826657 312.058491 212.518962 298.580197 225.997256 
C 285.101903 239.47555 274.409598 255.477714 267.115198 273.087954 
C 259.820798 290.698193 256.06616 309.574033 256.06616 328.635219 
C 256.06616 347.696405 259.820798 366.572245 267.115198 384.182485 
C 274.409598 401.792724 285.101903 417.794889 298.580197 431.273183 
C 312.058491 444.751477 328.060655 455.443781 345.670895 462.738181 
C 363.281134 470.032581 382.156974 473.787219 401.21816 473.787219 
C 439.7001 473.787219 476.645283 458.484023 503.856124 431.273183 
C 531.066964 404.062342 546.37016 367.117159 546.37016 328.635219 
" clip-path="url(#pb592c421d1)" style="fill: none; stroke: #cccccc; stroke-opacity: 0.7; stroke-width: 0.8; stroke-linecap: square"/>
     </g>
    </g>
    <g id="ytick_3">
     <g id="line2d_8">
      <path d="M 401.21816 546.363219 
C 429.809939 546.363219 458.123699 540.731262 484.539059 529.789662 
C 510.954418 518.848062 534.957665 502.809605 555.175106 482.592165 
C 575.392546 462.374724 591.431003 438.371477 602.372603 411.956118 
C 613.314203 385.540758 618.94616 357.226998 618.94616 328.635219 
C 618.94616 300.04344 613.314203 271.72968 602.372603 245.314321 
C 591.431003 218.898962 575.392546 194.895715 555.175106 174.678274 
C 534.957665 154.460833 510.954418 138.422377 484.539059 127.480776 
C 458.123699 116.539176 429.809939 110.907219 401.21816 110.907219 
C 372.626381 110.907219 344.312621 116.539176 317.897262 127.480776 
C 291.481902 138.422377 267.478656 154.460833 247.261215 174.678274 
C 227.043774 194.895715 211.005318 218.898962 200.063717 245.314321 
C 189.122117 271.72968 183.49016 300.04344 183.49016 328.635219 
C 183.49016 357.226998 189.122117 385.540758 200.063717 411.956118 
C 211.005318 438.371477 227.043774 462.374724 247.261215 482.592165 
C 267.478656 502.809605 291.481902 518.848062 317.897262 529.789662 
C 344.312621 540.731262 372.626381 546.363219 401.21816 546.363219 
C 458.94107 546.363219 514.358845 523.408425 555.175106 482.592165 
C 595.991366 441.775904 618.94616 386.358129 618.94616 328.635219 
" clip-path="url(#pb592c421d1)" style="fill: none; stroke: #cccccc; stroke-opacity: 0.7; stroke-width: 0.8; stroke-linecap: square"/>
     </g>
    </g>
    <g id="ytick_4">
     <g id="line2d_9">
      <path d="M 401.21816 618.939219 
C 439.340532 618.939219 477.092212 611.429943 512.312691 596.841143 
C 547.533171 582.252343 579.5375 560.867734 606.494087 533.911146 
C 633.450675 506.954559 654.835284 474.95023 669.424084 439.72975 
C 684.012884 404.509271 691.52216 366.757591 691.52216 328.635219 
C 691.52216 290.512847 684.012884 252.761167 669.424084 217.540688 
C 654.835284 182.320209 633.450675 150.31588 606.494087 123.359292 
C 579.5375 96.402705 547.533171 75.018096 512.312691 60.429295 
C 477.092212 45.840495 439.340532 38.331219 401.21816 38.331219 
C 363.095788 38.331219 325.344108 45.840495 290.123629 60.429295 
C 254.90315 75.018096 222.898821 96.402705 195.942233 123.359292 
C 168.985645 150.31588 147.601037 182.320209 133.012236 217.540688 
C 118.423436 252.761167 110.91416 290.512847 110.91416 328.635219 
C 110.91416 366.757591 118.423436 404.509271 133.012236 439.72975 
C 147.601037 474.95023 168.985645 506.954559 195.942233 533.911146 
C 222.898821 560.867734 254.90315 582.252343 290.123629 596.841143 
C 325.344108 611.429943 363.095788 618.939219 401.21816 618.939219 
C 478.182039 618.939219 552.072406 588.332827 606.494087 533.911146 
C 660.915768 479.489465 691.52216 405.599098 691.52216 328.635219 
" clip-path="url(#pb592c421d1)" style="fill: none; stroke: #cccccc; stroke-opacity: 0.7; stroke-width: 0.8; stroke-linecap: square"/>
     </g>
    </g>
    <g id="ytick_5">
     <g id="line2d_10">
      <path d="M 401.21816 691.515219 
C 448.871125 691.515219 496.060725 682.128624 540.086324 663.892624 
C 584.111923 645.656624 624.117334 618.925863 657.813069 585.230128 
C 691.508804 551.534393 718.239565 511.528982 736.475565 467.503383 
C 754.711565 423.477784 764.09816 376.288184 764.09816 328.635219 
C 764.09816 280.982254 754.711565 233.792654 736.475565 189.767055 
C 718.239565 145.741456 691.508804 105.736045 657.813069 72.040311 
C 624.117334 38.344576 584.111923 11.613815 540.086324 -6.622185 
C 496.060725 -24.858186 448.871125 -34.244781 401.21816 -34.244781 
C 353.565195 -34.244781 306.375595 -24.858186 262.349996 -6.622185 
C 218.324397 11.613815 178.318986 38.344576 144.623251 72.040311 
C 110.927517 105.736045 84.196756 145.741456 65.960755 189.767055 
C 47.724755 233.792654 38.33816 280.982254 38.33816 328.635219 
C 38.33816 376.288184 47.724755 423.477784 65.960755 467.503383 
C 84.196756 511.528982 110.927517 551.534393 144.623251 585.230128 
C 178.318986 618.925863 218.324397 645.656624 262.349996 663.892624 
C 306.375595 682.128624 353.565195 691.515219 401.21816 691.515219 
C 497.423009 691.515219 589.785968 653.257229 657.813069 585.230128 
C 725.84017 517.203027 764.09816 424.840068 764.09816 328.635219 
" clip-path="url(#pb592c421d1)" style="fill: none; stroke: #cccccc; stroke-opacity: 0.7; stroke-width: 0.8; stroke-linecap: square"/>
     </g>
    </g>
   </g>
   <g id="line2d_11">
    <path d="M 401.21816 637.083219 
L 591.033824 390.310067 
L 539.860243 137.810763 
L 326.564731 225.883589 
L 245.914435 379.096458 
L 401.21816 637.083219 
" clip-path="url(#pb592c421d1)" style="fill: none; stroke: #d64541; stroke-opacity: 0.9; stroke-width: 2; stroke-linecap: square"/>
    <defs>
     <path id="md6e8d712ff" d="M 0 2.5 
C 0.663008 2.5 1.29895 2.236584 1.767767 1.767767 
C 2.236584 1.29895 2.5 0.663008 2.5 0 
C 2.5 -0.663008 2.236584 -1.29895 1.767767 -1.767767 
C 1.29895 -2.236584 0.663008 -2.5 0 -2.5 
C -0.663008 -2.5 -1.29895 -2.236584 -1.767767 -1.767767 
C -2.236584 -1.29895 -2.5 -0.663008 -2.5 0 
C -2.5 0.663008 -2.236584 1.29895 -1.767767 1.767767 
C -1.29895 2.236584 -0.663008 2.5 0 2.5 
z
" style="stroke: #d64541; stroke-opacity: 0.9"/>
    </defs>
    <g clip-path="url(#pb592c421d1)">
     <use xlink:href="#md6e8d712ff" x="401.21816" y="637.083219" style="fill: #d64541; fill-opacity: 0.9; stroke: #d64541; stroke-opacity: 0.9"/>
     <use xlink:href="#md6e8d712ff" x="591.033824" y="390.310067" style="fill: #d64541; fill-opacity: 0.9; stroke: #d64541; stroke-opacity: 0.9"/>
     <use xlink:href="#md6e8d712ff" x="539.860243" y="137.810763" style="fill: #d64541; fill-opacity: 0.9; stroke: #d64541; stroke-opacity: 0.9"/>
     <use xlink:href="#md6e8d712ff" x="326.564731" y="225.883589" style="fill: #d64541; fill-opacity: 0.9; stroke: #d64541; stroke-opacity: 0.9"/>
     <use xlink:href="#md6e8d712ff" x="245.914435" y="379.096458" style="fill: #d64541; fill-opacity: 0.9; stroke: #d64541; stroke-opacity: 0.9"/>
     <use xlink:href="#md6e8d712ff" x="401.21816" y="637.083219" style="fill: #d64541; fill-opacity: 0.9; stroke: #d64541; stroke-opacity: 0.9"/>
    </g>
   </g>
   <g id="line2d_12">
    <path d="M 401.21816 491.931219 
L 625.545763 401.523676 
L 507.865916 181.847176 
L 273.240853 152.489567 
L 90.61071 429.557698 
L 401.21816 491.931219 
" clip-path="url(#pb592c421d1)" style="fill: none; stroke: #f5b041; stroke-opacity: 0.9; stroke-width: 2; stroke-linecap: square"/>
    <defs>
     <path id="me327f74c59" d="M 0 2.5 
C 0.663008 2.5 1.29895 2.236584 1.767767 1.767767 
C 2.236584 1.29895 2.5 0.663008 2.5 0 
C 2.5 -0.663008 2.236584 -1.29895 1.767767 -1.767767 
C 1.29895 -2.236584 0.663008 -2.5 0 -2.5 
C -0.663008 -2.5 -1.29895 -2.236584 -1.767767 -1.767767 
C -2.236584 -1.29895 -2.5 -0.663008 -2.5 0 
C -2.5 0.663008 -2.236584 1.29895 -1.767767 1.767767 
C -1.29895 2.236584 -0.663008 2.5 0 2.5 
z
" style="stroke: #f5b041; stroke-opacity: 0.9"/>
    </defs>
    <g clip-path="url(#pb592c421d1)">
     <use xlink:href="#me327f74c59" x="401.21816" y="491.931219" style="fill: #f5b041; fill-opacity: 0.9; stroke: #f5b041; stroke-opacity: 0.9"/>
     <use xlink:href="#me327f74c59" x="625.545763" y="401.523676" style="fill: #f5b041; fill-opacity: 0.9; stroke: #f5b041; stroke-opacity: 0.9"/>
     <use xlink:href="#me327f74c59" x="507.865916" y="181.847176" style="fill: #f5b041; fill-opacity: 0.9; stroke: #f5b041; stroke-opacity: 0.9"/>
     <use xlink:href="#me327f74c59" x="273.240853" y="152.489567" style="fill: #f5b041; fill-opacity: 0.9; stroke: #f5b041; stroke-opacity: 0.9"/>
     <use xlink:href="#me327f74c59" x="90.61071" y="429.557698" style="fill: #f5b041; fill-opacity: 0.9; stroke: #f5b041; stroke-opacity: 0.9"/>
     <use xlink:href="#me327f74c59" x="401.21816" y="491.931219" style="fill: #f5b041; fill-opacity: 0.9; stroke: #f5b041; stroke-opacity: 0.9"/>
    </g>
   </g>
   <g id="line2d_13">
    <path d="M 401.21816 528.219219 
L 694.569641 423.950893 
L 529.195468 152.489567 
L 219.916975 79.095545 
L 228.658466 384.703263 
L 401.21816 528.219219 
" clip-path="url(#pb592c421d1)" style="fill: none; stroke: #58d68d; stroke-opacity: 0.9; stroke-width: 2; stroke-linecap: square"/>
    <defs>
     <path id="m57e1acd675" d="M 0 2.5 
C 0.663008 2.5 1.29895 2.236584 1.767767 1.767767 
C 2.236584 1.29895 2.5 0.663008 2.5 0 
C 2.5 -0.663008 2.236584 -1.29895 1.767767 -1.767767 
C 1.29895 -2.236584 0.663008 -2.5 0 -2.5 
C -0.663008 -2.5 -1.29895 -2.236584 -1.767767 -1.767767 
C -2.236584 -1.29895 -2.5 -0.663008 -2.5 0 
C -2.5 0.663008 -2.236584 1.29895 -1.767767 1.767767 
C -1.29895 2.236584 -0.663008 2.5 0 2.5 
z
" style="stroke: #58d68d; stroke-opacity: 0.9"/>
    </defs>
    <g clip-path="url(#pb592c421d1)">
     <use xlink:href="#m57e1acd675" x="401.21816" y="528.219219" style="fill: #58d68d; fill-opacity: 0.9; stroke: #58d68d; stroke-opacity: 0.9"/>
     <use xlink:href="#m57e1acd675" x="694.569641" y="423.950893" style="fill: #58d68d; fill-opacity: 0.9; stroke: #58d68d; stroke-opacity: 0.9"/>
     <use xlink:href="#m57e1acd675" x="529.195468" y="152.489567" style="fill: #58d68d; fill-opacity: 0.9; stroke: #58d68d; stroke-opacity: 0.9"/>
     <use xlink:href="#m57e1acd675" x="219.916975" y="79.095545" style="fill: #58d68d; fill-opacity: 0.9; stroke: #58d68d; stroke-opacity: 0.9"/>
     <use xlink:href="#m57e1acd675" x="228.658466" y="384.703263" style="fill: #58d68d; fill-opacity: 0.9; stroke: #58d68d; stroke-opacity: 0.9"/>
     <use xlink:href="#m57e1acd675" x="401.21816" y="528.219219" style="fill: #58d68d; fill-opacity: 0.9; stroke: #58d68d; stroke-opacity: 0.9"/>
    </g>
   </g>
   <g id="line2d_14">
    <path d="M 401.21816 510.075219 
L 573.777855 384.703263 
L 497.201141 196.52598 
L 283.905628 167.168371 
L 211.402497 390.310067 
L 401.21816 510.075219 
" clip-path="url(#pb592c421d1)" style="fill: none; stroke: #808080; stroke-opacity: 0.9; stroke-width: 2; stroke-linecap: square"/>
    <defs>
     <path id="m9906b3320e" d="M 0 2.5 
C 0.663008 2.5 1.29895 2.236584 1.767767 1.767767 
C 2.236584 1.29895 2.5 0.663008 2.5 0 
C 2.5 -0.663008 2.236584 -1.29895 1.767767 -1.767767 
C 1.29895 -2.236584 0.663008 -2.5 0 -2.5 
C -0.663008 -2.5 -1.29895 -2.236584 -1.767767 -1.767767 
C -2.236584 -1.29895 -2.5 -0.663008 -2.5 0 
C -2.5 0.663008 -2.236584 1.29895 -1.767767 1.767767 
C -1.29895 2.236584 -0.663008 2.5 0 2.5 
z
" style="stroke: #808080; stroke-opacity: 0.9"/>
    </defs>
    <g clip-path="url(#pb592c421d1)">
     <use xlink:href="#m9906b3320e" x="401.21816" y="510.075219" style="fill: #808080; fill-opacity: 0.9; stroke: #808080; stroke-opacity: 0.9"/>
     <use xlink:href="#m9906b3320e" x="573.777855" y="384.703263" style="fill: #808080; fill-opacity: 0.9; stroke: #808080; stroke-opacity: 0.9"/>
     <use xlink:href="#m9906b3320e" x="497.201141" y="196.52598" style="fill: #808080; fill-opacity: 0.9; stroke: #808080; stroke-opacity: 0.9"/>
     <use xlink:href="#m9906b3320e" x="283.905628" y="167.168371" style="fill: #808080; fill-opacity: 0.9; stroke: #808080; stroke-opacity: 0.9"/>
     <use xlink:href="#m9906b3320e" x="211.402497" y="390.310067" style="fill: #808080; fill-opacity: 0.9; stroke: #808080; stroke-opacity: 0.9"/>
     <use xlink:href="#m9906b3320e" x="401.21816" y="510.075219" style="fill: #808080; fill-opacity: 0.9; stroke: #808080; stroke-opacity: 0.9"/>
    </g>
   </g>
   <g id="line2d_15">
    <path d="M 401.21816 582.651219 
L 660.057702 412.737284 
L 593.184121 64.416741 
L 251.911302 123.131958 
L 142.378619 412.737284 
L 401.21816 582.651219 
" clip-path="url(#pb592c421d1)" style="fill: none; stroke: #7b68ee; stroke-opacity: 0.9; stroke-width: 2; stroke-linecap: square"/>
    <defs>
     <path id="mb5af22251a" d="M 0 2.5 
C 0.663008 2.5 1.29895 2.236584 1.767767 1.767767 
C 2.236584 1.29895 2.5 0.663008 2.5 0 
C 2.5 -0.663008 2.236584 -1.29895 1.767767 -1.767767 
C 1.29895 -2.236584 0.663008 -2.5 0 -2.5 
C -0.663008 -2.5 -1.29895 -2.236584 -1.767767 -1.767767 
C -2.236584 -1.29895 -2.5 -0.663008 -2.5 0 
C -2.5 0.663008 -2.236584 1.29895 -1.767767 1.767767 
C -1.29895 2.236584 -0.663008 2.5 0 2.5 
z
" style="stroke: #7b68ee; stroke-opacity: 0.9"/>
    </defs>
    <g clip-path="url(#pb592c421d1)">
     <use xlink:href="#mb5af22251a" x="401.21816" y="582.651219" style="fill: #7b68ee; fill-opacity: 0.9; stroke: #7b68ee; stroke-opacity: 0.9"/>
     <use xlink:href="#mb5af22251a" x="660.057702" y="412.737284" style="fill: #7b68ee; fill-opacity: 0.9; stroke: #7b68ee; stroke-opacity: 0.9"/>
     <use xlink:href="#mb5af22251a" x="593.184121" y="64.416741" style="fill: #7b68ee; fill-opacity: 0.9; stroke: #7b68ee; stroke-opacity: 0.9"/>
     <use xlink:href="#mb5af22251a" x="251.911302" y="123.131958" style="fill: #7b68ee; fill-opacity: 0.9; stroke: #7b68ee; stroke-opacity: 0.9"/>
     <use xlink:href="#mb5af22251a" x="142.378619" y="412.737284" style="fill: #7b68ee; fill-opacity: 0.9; stroke: #7b68ee; stroke-opacity: 0.9"/>
     <use xlink:href="#mb5af22251a" x="401.21816" y="582.651219" style="fill: #7b68ee; fill-opacity: 0.9; stroke: #7b68ee; stroke-opacity: 0.9"/>
    </g>
   </g>
   <g id="patch_8">
    <path d="M 401.21816 328.635219 
L 401.21816 691.515219 
" style="fill: none; stroke: #000000; stroke-width: 0.8; stroke-linejoin: miter; stroke-linecap: square"/>
   </g>
   <g id="patch_9">
    <path d="M 401.21816 328.635219 
L 764.09816 328.635219 
" style="fill: none; stroke: #000000; stroke-width: 0.8; stroke-linejoin: miter; stroke-linecap: square"/>
   </g>
  </g>
  <g id="patch_10">
   <path d="M 147.05816 396.675219 
L 165.05816 396.675219 
L 165.05816 381.555219 
L 147.05816 381.555219 
z
" style="fill: #d64541"/>
  </g>
  <g id="patch_11">
   <path d="M 147.05816 436.995219 
L 165.05816 436.995219 
L 165.05816 421.875219 
L 147.05816 421.875219 
z
" style="fill: #f5b041"/>
  </g>
  <g id="patch_12">
   <path d="M 147.05816 477.315219 
L 165.05816 477.315219 
L 165.05816 462.195219 
L 147.05816 462.195219 
z
" style="fill: #58d68d"/>
  </g>
  <g id="patch_13">
   <path d="M 147.05816 517.635219 
L 165.05816 517.635219 
L 165.05816 502.515219 
L 147.05816 502.515219 
z
" style="fill: #808080"/>
  </g>
  <g id="patch_14">
   <path d="M 147.05816 557.955219 
L 165.05816 557.955219 
L 165.05816 542.835219 
L 147.05816 542.835219 
z
" style="fill: #7b68ee"/>
  </g>
  <g id="text_6">
   <!-- 全年场景聚类特征分析 -->
   <g style="fill: #8b4513" transform="translate(402.65816 273.195219) scale(0.18 -0.18)">
    <defs>
     <path id="SimHei-5168" d="M 3475 4825 
Q 4350 3425 6125 3025 
Q 5900 2750 5825 2450 
Q 5325 2650 4975 2875 
L 4975 2475 
Q 4700 2500 4100 2500 
L 3500 2500 
L 3500 1500 
L 4450 1500 
Q 4975 1500 5300 1525 
L 5300 1075 
Q 4975 1100 4450 1100 
L 3500 1100 
L 3500 -25 
L 4475 -25 
Q 5225 -25 5700 25 
L 5700 -500 
Q 5250 -425 4525 -425 
L 1775 -425 
Q 1025 -425 650 -450 
L 650 0 
Q 1025 -25 1775 -25 
L 3000 -25 
L 3000 1100 
L 2300 1100 
Q 1450 1100 1175 1075 
L 1175 1525 
Q 1450 1500 2275 1500 
L 3000 1500 
L 3000 2500 
L 2500 2500 
Q 1725 2500 1500 2475 
L 1500 2875 
Q 1275 2700 650 2350 
Q 500 2650 300 2875 
Q 900 3025 1700 3625 
Q 2500 4225 2975 5200 
Q 3275 5075 3600 4950 
L 3475 4825 
z
M 1650 2950 
Q 1950 2925 2525 2925 
L 4025 2925 
Q 4525 2925 4800 2950 
Q 3725 3500 3200 4550 
Q 2525 3525 1650 2950 
z
" transform="scale(0.015625)"/>
     <path id="SimHei-5e74" d="M 350 2925 
Q 900 3450 1375 4200 
Q 1850 4950 1900 5275 
Q 2275 5125 2600 5050 
Q 2375 4825 2100 4325 
L 4625 4325 
Q 5175 4325 5750 4350 
L 5750 3925 
Q 5225 3950 4625 3950 
L 3800 3950 
L 3800 2925 
Q 4750 2925 5475 2950 
L 5475 2525 
Q 4725 2550 3800 2550 
L 3800 1375 
L 5075 1375 
Q 5625 1375 6100 1400 
L 6100 975 
Q 5650 1000 5075 1000 
L 3800 1000 
L 3800 425 
Q 3800 -150 3825 -625 
L 3275 -625 
Q 3300 -150 3300 375 
L 3300 1000 
L 1600 1000 
Q 900 1000 275 975 
L 275 1400 
Q 875 1375 1450 1375 
Q 1450 2350 1425 2925 
L 3300 2925 
L 3300 3950 
L 1875 3950 
Q 1350 3150 925 2650 
Q 650 2875 350 2925 
z
M 3300 1375 
L 3300 2550 
L 1925 2550 
L 1925 1375 
L 3300 1375 
z
" transform="scale(0.015625)"/>
     <path id="SimHei-573a" d="M 5625 5000 
L 5625 4600 
Q 5275 4525 4862 4150 
Q 4450 3775 3750 3100 
L 6000 3100 
Q 5975 2925 5950 2300 
L 5850 425 
Q 5825 -200 5587 -350 
Q 5350 -500 4750 -550 
Q 4700 -250 4525 50 
Q 5050 0 5200 75 
Q 5350 150 5375 400 
L 5475 2675 
L 5000 2675 
Q 4875 1925 4700 1425 
Q 4525 925 4287 562 
Q 4050 200 3750 -62 
Q 3450 -325 3000 -600 
Q 2875 -350 2650 -175 
Q 3075 50 3425 350 
Q 3775 650 4000 1050 
Q 4225 1450 4337 1900 
Q 4450 2350 4500 2675 
L 4000 2675 
Q 3950 2300 3787 1912 
Q 3625 1525 3325 1150 
Q 3025 775 2550 425 
Q 2450 600 2175 800 
Q 2775 1125 3112 1675 
Q 3450 2225 3500 2675 
Q 3225 2650 3125 2625 
Q 3025 2600 2800 2525 
Q 2725 2825 2650 3025 
Q 3075 3075 3637 3587 
Q 4200 4100 4650 4575 
L 3700 4575 
Q 3150 4575 2675 4550 
L 2675 5025 
Q 3125 5000 3675 5000 
L 5625 5000 
z
M 1200 4375 
Q 1200 4650 1175 5075 
L 1700 5075 
Q 1675 4625 1675 4375 
L 1675 3450 
Q 2050 3450 2450 3475 
L 2450 3025 
Q 2000 3050 1675 3050 
L 1675 1225 
Q 1950 1325 2500 1575 
Q 2500 1350 2525 1125 
Q 2100 925 1500 687 
Q 900 450 500 225 
Q 400 450 200 725 
Q 650 850 1200 1050 
L 1200 3050 
Q 650 3050 325 3025 
L 325 3475 
Q 750 3450 1200 3450 
L 1200 4375 
z
" transform="scale(0.015625)"/>
     <path id="SimHei-666f" d="M 5200 5100 
Q 5175 4700 5175 4150 
Q 5175 3625 5225 3225 
L 1175 3225 
Q 1200 3625 1200 4150 
Q 1200 4700 1175 5100 
L 5200 5100 
z
M 5125 2075 
Q 5100 1675 5100 1375 
Q 5100 1075 5125 900 
L 3525 900 
L 3525 -175 
Q 3525 -475 3312 -575 
Q 3100 -675 2575 -700 
Q 2550 -425 2375 -100 
Q 2800 -175 2937 -137 
Q 3075 -100 3050 100 
L 3050 900 
L 1350 900 
Q 1375 1125 1375 1450 
Q 1375 1800 1350 2075 
L 5125 2075 
z
M 3325 3200 
Q 3400 2950 3500 2750 
L 5200 2750 
Q 5625 2750 6050 2800 
L 6050 2350 
Q 5625 2375 5200 2375 
L 1175 2375 
Q 850 2375 350 2350 
L 350 2775 
Q 850 2750 1175 2750 
L 2900 2750 
Q 2875 2900 2800 3125 
Q 3100 3175 3325 3200 
z
M 4650 1250 
L 4650 1700 
L 1825 1700 
L 1825 1250 
L 4650 1250 
z
M 4700 4300 
L 4700 4700 
L 1675 4700 
L 1675 4300 
L 4700 4300 
z
M 4700 3600 
L 4700 3925 
L 1675 3925 
L 1675 3600 
L 4700 3600 
z
M 4325 725 
Q 4600 575 4987 387 
Q 5375 200 5850 -50 
Q 5700 -275 5550 -550 
Q 5325 -350 4925 -125 
Q 4525 100 4075 275 
L 4325 725 
z
M 2450 250 
Q 2225 175 1812 -100 
Q 1400 -375 1000 -600 
Q 850 -375 700 -175 
Q 975 -25 1350 187 
Q 1725 400 2075 700 
Q 2250 500 2450 250 
z
" transform="scale(0.015625)"/>
     <path id="SimHei-805a" d="M 3450 2475 
Q 3200 2450 3125 2425 
L 3125 2125 
L 2700 2125 
L 2700 2375 
Q 2075 2300 1475 2200 
Q 875 2100 650 2025 
Q 600 2300 500 2550 
Q 850 2550 1075 2575 
L 1075 4650 
Q 975 4650 625 4625 
L 625 5050 
Q 900 5025 1250 5025 
L 2825 5025 
Q 3175 5025 3450 5050 
L 3450 4625 
Q 3200 4650 3125 4650 
L 3125 2800 
Q 3250 2825 3450 2875 
L 3450 2475 
z
M 5650 1325 
Q 5425 1275 5125 1125 
L 4375 750 
Q 4775 475 5112 350 
Q 5450 225 6100 100 
Q 5850 -175 5800 -425 
Q 5225 -250 4800 -25 
Q 4375 200 4025 475 
Q 3675 750 3500 925 
L 3500 200 
Q 3500 -75 3525 -575 
L 3025 -575 
Q 3050 -75 3050 200 
L 3050 1625 
Q 2475 1575 1150 1450 
Q 1075 1625 975 1900 
Q 1925 1925 2537 1987 
Q 3150 2050 3700 2125 
Q 4250 2200 4950 2375 
Q 5050 2025 5200 1850 
Q 4250 1800 3500 1675 
L 3500 1425 
Q 3650 1225 4025 1000 
Q 4350 1125 4625 1287 
Q 4900 1450 5300 1775 
Q 5400 1550 5650 1325 
z
M 5775 4800 
Q 5675 4450 5537 4075 
Q 5400 3700 5150 3300 
Q 5550 3050 6100 2675 
Q 5925 2550 5775 2275 
Q 5375 2650 4900 3000 
Q 4675 2775 4462 2612 
Q 4250 2450 3800 2200 
Q 3750 2300 3525 2550 
Q 3675 2575 4025 2787 
Q 4375 3000 4525 3200 
Q 4225 3425 3525 3800 
Q 3675 4000 3825 4175 
Q 4375 3800 4800 3525 
Q 5100 4025 5200 4400 
L 4600 4400 
Q 4225 4400 3600 4375 
L 3600 4825 
Q 4225 4800 4600 4800 
L 5775 4800 
z
M 2825 575 
Q 2575 475 2162 137 
Q 1750 -200 1050 -600 
Q 850 -350 675 -225 
Q 1175 0 1600 287 
Q 2025 575 2400 1000 
Q 2600 750 2825 575 
z
M 2150 1125 
Q 1950 1050 1575 762 
Q 1200 475 575 125 
Q 475 325 250 525 
Q 700 725 1037 925 
Q 1375 1125 1750 1450 
Q 1925 1250 2150 1125 
z
M 2700 3400 
L 2700 3825 
L 1475 3825 
L 1475 3400 
L 2700 3400 
z
M 2700 4225 
L 2700 4650 
L 1475 4650 
L 1475 4225 
L 2700 4225 
z
M 1475 2625 
Q 1750 2650 2037 2675 
Q 2325 2700 2700 2750 
L 2700 3050 
L 1475 3050 
L 1475 2625 
z
" transform="scale(0.015625)"/>
     <path id="SimHei-7c7b" d="M 2125 3875 
Q 1750 4375 1325 4725 
Q 1525 4875 1675 5050 
L 2525 4225 
Q 2400 4125 2200 3875 
L 3025 3875 
L 3025 4550 
Q 3025 4900 3000 5125 
L 3525 5125 
Q 3500 4850 3500 4550 
L 3500 3875 
L 4325 3875 
Q 4125 4050 4000 4150 
Q 4450 4575 4800 5175 
Q 5000 5000 5275 4825 
Q 5100 4675 4912 4475 
Q 4725 4275 4400 3875 
L 5025 3875 
Q 5425 3875 5900 3900 
L 5900 3450 
Q 5425 3475 5025 3475 
L 3500 3475 
L 3500 3050 
Q 3500 2650 3525 2175 
L 3175 2175 
Q 3475 2075 3675 2000 
Q 3575 1875 3525 1575 
L 5025 1575 
Q 5525 1575 6025 1600 
L 6025 1150 
Q 5550 1175 5050 1175 
L 3675 1175 
Q 4050 600 4712 275 
Q 5375 -50 6050 -175 
Q 5850 -350 5725 -675 
Q 4975 -450 4350 -37 
Q 3725 375 3300 950 
Q 3050 350 2425 -50 
Q 1800 -450 775 -700 
Q 650 -425 475 -225 
Q 1375 -100 2012 225 
Q 2650 550 2900 1175 
L 1625 1175 
Q 1025 1175 525 1150 
L 525 1600 
Q 950 1575 1600 1575 
L 3025 1575 
Q 3075 1825 3100 2175 
L 3000 2175 
Q 3025 2675 3025 3050 
L 3025 3325 
Q 2725 2900 2237 2550 
Q 1750 2200 925 1825 
Q 850 2025 625 2275 
Q 1175 2400 1725 2737 
Q 2275 3075 2600 3475 
L 1550 3475 
Q 1050 3475 600 3425 
L 600 3900 
Q 1075 3875 1550 3875 
L 2125 3875 
z
M 4100 3450 
Q 4850 3000 5800 2350 
Q 5575 2125 5425 1925 
Q 4700 2550 3825 3075 
Q 3975 3250 4100 3450 
z
" transform="scale(0.015625)"/>
     <path id="SimHei-7279" d="M 4050 3150 
L 4050 4050 
L 3675 4050 
Q 3275 4050 2975 4025 
L 2975 4475 
Q 3250 4450 3675 4450 
L 4050 4450 
Q 4050 4950 4000 5200 
L 4525 5200 
Q 4500 4950 4500 4450 
L 5075 4450 
Q 5450 4450 5800 4475 
L 5800 4025 
Q 5550 4050 5075 4050 
L 4500 4050 
L 4500 3150 
L 5450 3150 
Q 5825 3150 6150 3175 
L 6150 2725 
Q 5850 2750 5500 2750 
L 5275 2750 
L 5275 2000 
Q 5825 2000 6100 2025 
L 6100 1550 
Q 5800 1575 5275 1575 
L 5275 -75 
Q 5250 -375 5050 -487 
Q 4850 -600 4275 -675 
Q 4225 -375 4075 -100 
Q 4525 -125 4675 -100 
Q 4825 -75 4825 150 
L 4825 1575 
L 3600 1575 
Q 3175 1575 2850 1550 
L 2850 2025 
Q 3125 2000 3600 2000 
L 4825 2000 
L 4825 2750 
L 3575 2750 
Q 3125 2750 2775 2725 
L 2775 3175 
Q 3125 3150 3550 3150 
L 4050 3150 
z
M 1150 4275 
Q 1050 4125 950 3600 
L 1500 3600 
L 1500 4425 
Q 1500 4800 1475 5200 
L 2000 5200 
Q 1950 4825 1950 4425 
L 1950 3600 
Q 2300 3600 2600 3625 
L 2600 3175 
Q 2325 3200 1950 3200 
L 1950 2075 
Q 2275 2200 2575 2325 
Q 2600 2125 2650 1900 
Q 2375 1800 1950 1625 
L 1950 225 
Q 1950 -175 1975 -650 
L 1475 -650 
Q 1500 -200 1500 225 
L 1500 1450 
Q 850 1200 550 1025 
Q 450 1275 275 1550 
Q 600 1575 1500 1925 
L 1500 3200 
L 850 3200 
Q 750 2775 675 2450 
Q 425 2550 225 2600 
Q 350 2950 462 3487 
Q 575 4025 600 4400 
Q 900 4325 1150 4275 
z
M 3600 1200 
Q 3800 750 3975 325 
Q 3750 275 3500 150 
Q 3325 675 3125 1025 
Q 3375 1100 3600 1200 
z
" transform="scale(0.015625)"/>
     <path id="SimHei-5f81" d="M 5050 4650 
Q 5575 4650 5975 4675 
L 5975 4175 
Q 5575 4200 5050 4200 
L 4450 4200 
L 4450 2625 
L 5000 2625 
Q 5475 2625 5875 2650 
L 5875 2175 
Q 5475 2200 5000 2200 
L 4450 2200 
L 4450 200 
L 5100 200 
Q 5575 200 6125 225 
L 6125 -250 
Q 5575 -225 5100 -225 
L 2875 -225 
Q 2275 -225 1875 -250 
L 1875 225 
Q 2225 200 2650 200 
L 2650 2100 
Q 2650 2475 2625 2925 
L 3175 2925 
Q 3150 2500 3150 2100 
L 3150 200 
L 3925 200 
L 3925 4200 
L 3425 4200 
Q 2850 4200 2425 4175 
L 2425 4675 
Q 2850 4650 3425 4650 
L 5050 4650 
z
M 2250 3450 
Q 2100 3225 1625 2575 
L 1625 450 
Q 1625 -100 1650 -700 
L 1100 -700 
Q 1125 -100 1125 450 
L 1125 2000 
Q 825 1600 550 1300 
Q 425 1550 225 1725 
Q 675 2150 1062 2650 
Q 1450 3150 1725 3775 
Q 1950 3625 2250 3450 
z
M 250 3675 
Q 675 3975 1025 4412 
Q 1375 4850 1550 5275 
Q 1825 5125 2125 4975 
Q 1900 4725 1487 4212 
Q 1075 3700 675 3275 
Q 475 3475 250 3675 
z
" transform="scale(0.015625)"/>
     <path id="SimHei-5206" d="M 1000 -650 
Q 825 -375 575 -225 
Q 975 -75 1300 137 
Q 1625 350 1875 662 
Q 2125 975 2250 1350 
Q 2375 1725 2425 2275 
Q 1850 2275 1500 2250 
L 1500 2775 
Q 1900 2750 2525 2750 
L 5025 2750 
Q 4975 2375 4950 2100 
L 4750 250 
Q 4700 -200 4350 -350 
Q 4000 -500 3575 -525 
Q 3550 -275 3325 50 
Q 3850 25 4037 87 
Q 4225 150 4275 525 
L 4450 2275 
L 2950 2275 
Q 2875 1625 2737 1187 
Q 2600 750 2350 425 
Q 2100 100 1750 -175 
Q 1400 -450 1000 -650 
z
M 3950 5175 
Q 4125 4650 4662 3975 
Q 5200 3300 6175 2800 
Q 5975 2625 5775 2275 
Q 5325 2600 4987 2887 
Q 4650 3175 4425 3425 
Q 4200 3675 3925 4137 
Q 3650 4600 3475 5000 
Q 3750 5075 3950 5175 
z
M 2700 4825 
Q 2475 4425 2325 4125 
Q 2175 3825 2025 3587 
Q 1875 3350 1575 2950 
Q 1275 2550 850 2125 
Q 625 2350 400 2475 
Q 900 2925 1187 3300 
Q 1475 3675 1737 4112 
Q 2000 4550 2200 5075 
Q 2400 4925 2700 4825 
z
" transform="scale(0.015625)"/>
     <path id="SimHei-6790" d="M 5900 4550 
Q 5575 4525 5087 4450 
Q 4600 4375 3725 4275 
L 3725 3075 
L 5400 3075 
Q 5725 3075 6150 3100 
L 6150 2650 
Q 5700 2675 5250 2675 
L 5250 350 
Q 5250 -100 5275 -475 
L 4750 -475 
Q 4775 -75 4775 375 
L 4775 2675 
L 3725 2675 
Q 3725 2175 3650 1637 
Q 3575 1100 3437 637 
Q 3300 175 2850 -500 
Q 2675 -300 2275 -150 
Q 2825 325 3050 1112 
Q 3275 1900 3262 3000 
Q 3250 4100 3225 4650 
Q 3975 4700 4562 4800 
Q 5150 4900 5500 5050 
Q 5675 4750 5900 4550 
z
M 1900 525 
Q 1900 200 1925 -525 
L 1400 -525 
Q 1425 25 1425 525 
L 1425 2250 
Q 1175 1625 600 800 
Q 425 1075 200 1225 
Q 650 1725 962 2387 
Q 1275 3050 1375 3425 
Q 925 3425 450 3400 
L 450 3850 
Q 925 3825 1425 3825 
L 1425 4450 
Q 1425 4775 1400 5125 
L 1950 5125 
Q 1900 4825 1900 4450 
L 1900 3825 
Q 2300 3825 2775 3850 
L 2775 3400 
Q 2300 3425 1900 3425 
L 1900 525 
z
M 2375 2750 
Q 2800 2050 2925 1800 
Q 2700 1700 2450 1550 
Q 2300 1900 1950 2525 
Q 2175 2625 2375 2750 
z
" transform="scale(0.015625)"/>
    </defs>
    <use xlink:href="#SimHei-5168"/>
    <use xlink:href="#SimHei-5e74" x="100"/>
    <use xlink:href="#SimHei-573a" x="200"/>
    <use xlink:href="#SimHei-666f" x="300"/>
    <use xlink:href="#SimHei-805a" x="400"/>
    <use xlink:href="#SimHei-7c7b" x="500"/>
    <use xlink:href="#SimHei-7279" x="600"/>
    <use xlink:href="#SimHei-5f81" x="700"/>
    <use xlink:href="#SimHei-5206" x="800"/>
    <use xlink:href="#SimHei-6790" x="900"/>
   </g>
  </g>
  <g id="text_7">
   <!-- 基于 K-Means (k=5) 的典型日工况归一化特征对比 -->
   <g style="fill: #808080" transform="translate(368.90816 298.395219) scale(0.11 -0.11)">
    <defs>
     <path id="SimHei-57fa" d="M 1800 4550 
Q 1800 4900 1775 5200 
L 2300 5200 
Q 2275 4875 2275 4550 
L 4075 4550 
Q 4075 4900 4050 5200 
L 4575 5200 
Q 4550 4875 4550 4550 
L 4925 4550 
Q 5200 4550 5625 4575 
L 5625 4175 
Q 5200 4200 4925 4200 
L 4550 4200 
L 4550 2225 
L 5100 2225 
Q 5600 2225 6025 2250 
L 6025 1800 
Q 5625 1850 5125 1850 
L 4500 1850 
Q 4875 1450 5225 1237 
Q 5575 1025 6125 900 
Q 5900 625 5850 350 
Q 5200 650 4737 1037 
Q 4275 1425 4000 1850 
L 2500 1850 
Q 2200 1375 1712 1000 
Q 1225 625 550 350 
Q 475 575 275 825 
Q 700 925 1212 1212 
Q 1725 1500 1950 1850 
L 1300 1850 
Q 850 1850 400 1800 
L 400 2250 
Q 850 2225 1300 2225 
L 1800 2225 
L 1800 4200 
Q 1200 4200 775 4175 
L 775 4575 
Q 1200 4550 1625 4550 
L 1800 4550 
z
M 2950 950 
Q 2950 1200 2925 1575 
L 3475 1575 
Q 3425 1300 3425 950 
L 3900 950 
Q 4250 950 4575 975 
L 4575 500 
Q 4250 550 3875 550 
L 3425 550 
L 3425 -100 
L 4500 -100 
Q 5075 -100 5550 -75 
L 5550 -525 
Q 5075 -500 4500 -500 
L 1800 -500 
Q 1300 -500 850 -525 
L 850 -75 
Q 1275 -100 1800 -100 
L 2950 -100 
L 2950 550 
L 2550 550 
Q 2125 550 1775 525 
L 1775 975 
Q 2125 950 2500 950 
L 2950 950 
z
M 4075 2225 
L 4075 2650 
L 2275 2650 
L 2275 2225 
L 4075 2225 
z
M 4075 3775 
L 4075 4200 
L 2275 4200 
L 2275 3775 
L 4075 3775 
z
M 4075 3025 
L 4075 3375 
L 2275 3375 
L 2275 3025 
L 4075 3025 
z
" transform="scale(0.015625)"/>
     <path id="SimHei-4e8e" d="M 2900 2425 
L 1150 2425 
Q 650 2425 275 2400 
L 275 2900 
Q 650 2875 1150 2875 
L 2900 2875 
L 2900 4450 
L 1675 4450 
Q 1225 4450 900 4425 
L 900 4925 
Q 1225 4900 1675 4900 
L 4525 4900 
Q 4950 4900 5375 4925 
L 5375 4425 
Q 4950 4450 4525 4450 
L 3425 4450 
L 3425 2875 
L 5050 2875 
Q 5600 2875 6050 2900 
L 6050 2400 
Q 5650 2425 5050 2425 
L 3425 2425 
L 3425 125 
Q 3425 -325 3125 -412 
Q 2825 -500 2250 -525 
Q 2225 -200 2050 150 
Q 2450 100 2675 112 
Q 2900 125 2900 325 
L 2900 2425 
z
" transform="scale(0.015625)"/>
     <path id="SimHei-4b" d="M 3050 125 
L 2400 125 
L 1250 2250 
L 850 1725 
L 850 125 
L 275 125 
L 275 4400 
L 850 4400 
L 850 2550 
L 2275 4400 
L 2950 4400 
L 1625 2725 
L 3050 125 
z
" transform="scale(0.015625)"/>
     <path id="SimHei-2d" d="M 2975 2125 
L 125 2125 
L 125 2525 
L 2975 2525 
L 2975 2125 
z
" transform="scale(0.015625)"/>
     <path id="SimHei-73" d="M 2750 900 
Q 2750 500 2437 287 
Q 2125 75 1650 75 
Q 1050 75 725 312 
Q 400 550 400 1000 
L 900 1000 
Q 900 700 1112 600 
Q 1325 500 1625 500 
Q 1925 500 2075 612 
Q 2225 725 2225 900 
Q 2225 1025 2100 1150 
Q 1975 1275 1475 1350 
Q 900 1425 687 1637 
Q 475 1850 475 2200 
Q 475 2500 762 2737 
Q 1050 2975 1600 2975 
Q 2100 2975 2387 2750 
Q 2675 2525 2675 2150 
L 2175 2150 
Q 2175 2375 2012 2462 
Q 1850 2550 1600 2550 
Q 1275 2550 1137 2437 
Q 1000 2325 1000 2175 
Q 1000 2000 1125 1900 
Q 1250 1800 1650 1750 
Q 2300 1650 2525 1437 
Q 2750 1225 2750 900 
z
" transform="scale(0.015625)"/>
     <path id="SimHei-6b" d="M 2925 125 
L 2350 125 
L 1450 1650 
L 875 1100 
L 875 125 
L 375 125 
L 375 4400 
L 875 4400 
L 875 1675 
L 2125 2925 
L 2750 2925 
L 1775 1975 
L 2925 125 
z
" transform="scale(0.015625)"/>
     <path id="SimHei-3d" d="M 2975 2900 
L 125 2900 
L 125 3300 
L 2975 3300 
L 2975 2900 
z
M 2975 1375 
L 125 1375 
L 125 1775 
L 2975 1775 
L 2975 1375 
z
" transform="scale(0.015625)"/>
     <path id="SimHei-35" d="M 550 1325 
Q 725 650 1150 575 
Q 1575 500 1837 662 
Q 2100 825 2212 1087 
Q 2325 1350 2312 1675 
Q 2300 2000 2137 2225 
Q 1975 2450 1725 2525 
Q 1475 2600 1162 2525 
Q 850 2450 650 2175 
L 225 2225 
Q 275 2375 700 4375 
L 2675 4375 
L 2675 3925 
L 1075 3925 
Q 950 3250 825 2850 
Q 1200 3025 1525 3012 
Q 1850 3000 2150 2862 
Q 2450 2725 2587 2487 
Q 2725 2250 2787 2012 
Q 2850 1775 2837 1500 
Q 2825 1225 2725 937 
Q 2625 650 2425 462 
Q 2225 275 1937 162 
Q 1650 50 1275 75 
Q 900 100 562 350 
Q 225 600 100 1200 
L 550 1325 
z
" transform="scale(0.015625)"/>
     <path id="SimHei-7684" d="M 2100 4975 
Q 1975 4750 1750 3950 
L 2875 3950 
Q 2850 3525 2850 2875 
L 2850 675 
Q 2850 300 2875 -400 
L 2375 -400 
L 2375 100 
L 1100 100 
L 1100 -450 
L 600 -450 
Q 625 350 625 550 
L 625 2850 
Q 625 3525 600 3950 
L 1325 3950 
Q 1450 4525 1525 5150 
Q 1875 5025 2100 4975 
z
M 5825 3075 
Q 5800 1550 5700 175 
Q 5650 -275 5225 -425 
Q 4800 -575 4275 -625 
Q 4250 -350 4050 -50 
Q 4550 -75 4837 -25 
Q 5125 25 5200 200 
Q 5275 375 5312 1225 
Q 5350 2075 5375 3600 
L 3925 3600 
Q 3725 3125 3350 2475 
Q 3175 2650 2925 2750 
Q 3150 3050 3350 3475 
Q 3550 3900 3700 4400 
Q 3850 4900 3875 5175 
Q 4225 5025 4475 4950 
Q 4350 4750 4262 4512 
Q 4175 4275 4075 4050 
L 5850 4050 
Q 5825 3525 5825 3075 
z
M 2375 525 
L 2375 1850 
L 1100 1850 
L 1100 525 
L 2375 525 
z
M 2375 2275 
L 2375 3525 
L 1100 3525 
L 1100 2275 
L 2375 2275 
z
M 4350 2050 
Q 4500 1750 4700 1275 
Q 4525 1200 4225 1025 
Q 4050 1500 3900 1837 
Q 3750 2175 3600 2400 
Q 3775 2500 4050 2650 
L 4350 2050 
z
" transform="scale(0.015625)"/>
     <path id="SimHei-5178" d="M 5350 4250 
Q 5325 3900 5325 3450 
L 5325 1525 
Q 5875 1525 6100 1550 
L 6100 1075 
Q 5775 1100 5200 1100 
L 1000 1100 
Q 625 1100 375 1075 
L 375 1550 
Q 625 1525 1075 1525 
L 1075 3375 
Q 1075 3900 1050 4250 
L 2350 4250 
Q 2350 4925 2325 5150 
L 2875 5150 
Q 2850 4925 2825 4250 
L 3600 4250 
Q 3600 4900 3575 5175 
L 4125 5175 
Q 4100 4950 4075 4250 
L 5350 4250 
z
M 5500 -525 
Q 5150 -200 3725 500 
L 4075 900 
Q 4375 750 4950 450 
Q 5525 150 5900 -75 
Q 5700 -275 5500 -525 
z
M 2800 425 
Q 1475 -350 950 -625 
Q 775 -400 550 -225 
Q 1150 0 1575 250 
Q 2000 500 2325 825 
Q 2550 625 2800 425 
z
M 2350 1525 
L 2350 2550 
L 1575 2550 
L 1575 1525 
L 2350 1525 
z
M 3600 1525 
L 3600 2550 
L 2825 2550 
L 2825 1525 
L 3600 1525 
z
M 4825 1525 
L 4825 2550 
L 4075 2550 
L 4075 1525 
L 4825 1525 
z
M 3600 2975 
L 3600 3825 
L 2825 3825 
L 2825 2975 
L 3600 2975 
z
M 2350 2975 
L 2350 3825 
L 1575 3825 
L 1575 2975 
L 2350 2975 
z
M 4825 2975 
L 4825 3825 
L 4075 3825 
L 4075 2975 
L 4825 2975 
z
" transform="scale(0.015625)"/>
     <path id="SimHei-578b" d="M 2625 1775 
Q 2650 2325 2650 2700 
L 2650 3000 
L 1825 3000 
Q 1725 2375 1425 2000 
Q 1125 1625 775 1425 
Q 650 1650 375 1900 
Q 850 2075 1062 2362 
Q 1275 2650 1350 3000 
Q 900 3000 375 2975 
L 375 3450 
Q 925 3425 1400 3425 
Q 1425 3950 1425 4475 
Q 1075 4475 700 4450 
L 700 4900 
Q 1050 4875 1525 4875 
L 3000 4875 
Q 3275 4875 3650 4900 
L 3650 4450 
Q 3325 4475 3125 4475 
L 3125 3425 
Q 3450 3425 3825 3450 
L 3825 2975 
Q 3450 3000 3125 3000 
L 3125 2675 
Q 3125 2225 3150 1775 
L 2625 1775 
z
M 3000 1175 
Q 3000 1375 2975 1725 
L 3500 1725 
Q 3475 1375 3475 1175 
L 4550 1175 
Q 5050 1175 5450 1200 
L 5450 725 
Q 4975 750 4550 750 
L 3475 750 
L 3475 -50 
L 5275 -50 
Q 5700 -50 6100 -25 
L 6100 -500 
Q 5725 -475 5300 -475 
L 1250 -475 
Q 775 -475 400 -500 
L 400 -25 
Q 775 -50 1250 -50 
L 3000 -50 
L 3000 750 
L 2025 750 
Q 1500 750 975 725 
L 1050 1200 
Q 1500 1175 2025 1175 
L 3000 1175 
z
M 5775 5200 
Q 5750 4775 5750 4325 
L 5750 2400 
Q 5775 1950 5612 1775 
Q 5450 1600 4900 1525 
Q 4825 1775 4675 2100 
Q 5175 2075 5237 2150 
Q 5300 2225 5300 2525 
L 5300 4325 
Q 5300 4775 5275 5200 
L 5775 5200 
z
M 4600 4750 
Q 4575 4450 4575 3975 
L 4575 3200 
Q 4575 2825 4600 2425 
L 4100 2425 
Q 4125 2825 4125 3200 
L 4125 3975 
Q 4125 4450 4100 4750 
L 4600 4750 
z
M 2650 3425 
L 2650 4475 
L 1875 4475 
Q 1850 3750 1850 3425 
L 2650 3425 
z
" transform="scale(0.015625)"/>
     <path id="SimHei-65e5" d="M 5375 5000 
Q 5350 3775 5350 2275 
Q 5350 775 5375 -450 
L 4800 -450 
L 4800 175 
L 1800 175 
L 1800 -575 
L 1250 -575 
Q 1275 575 1275 2125 
Q 1275 3675 1250 5000 
L 5375 5000 
z
M 4800 600 
L 4800 2375 
L 1800 2375 
L 1800 600 
L 4800 600 
z
M 4800 2800 
L 4800 4550 
L 1800 4550 
L 1800 2800 
L 4800 2800 
z
" transform="scale(0.015625)"/>
     <path id="SimHei-5de5" d="M 4475 4675 
Q 5075 4675 5575 4700 
L 5575 4200 
Q 5075 4225 4475 4225 
L 3450 4225 
L 3450 275 
L 5075 275 
Q 5650 275 6125 300 
L 6125 -200 
Q 5650 -175 5100 -175 
L 1225 -175 
Q 675 -175 275 -200 
L 275 300 
Q 700 275 1250 275 
L 2900 275 
L 2900 4225 
L 1900 4225 
Q 1250 4225 775 4200 
L 775 4700 
Q 1250 4675 1900 4675 
L 4475 4675 
z
" transform="scale(0.015625)"/>
     <path id="SimHei-51b5" d="M 5450 4875 
Q 5425 4500 5425 3675 
Q 5425 2850 5450 2375 
L 4575 2375 
L 4575 400 
Q 4575 50 4762 25 
Q 4950 0 5200 12 
Q 5450 25 5500 187 
Q 5550 350 5575 825 
Q 5850 675 6150 600 
Q 5975 -175 5775 -287 
Q 5575 -400 5175 -412 
Q 4775 -425 4437 -362 
Q 4100 -300 4100 200 
L 4100 2375 
L 3475 2375 
Q 3500 150 1600 -625 
Q 1525 -375 1275 -150 
Q 3000 375 3000 2375 
L 2325 2375 
Q 2350 2850 2350 3675 
Q 2350 4525 2325 4875 
L 5450 4875 
z
M 4900 2775 
L 4900 4475 
L 2850 4475 
L 2850 2775 
L 4900 2775 
z
M 2025 2200 
Q 1750 1725 1350 1000 
Q 950 275 775 0 
Q 525 175 300 300 
Q 800 975 1600 2500 
Q 1850 2300 2025 2200 
z
M 950 4950 
Q 1100 4775 1350 4462 
Q 1600 4150 1850 3800 
Q 1575 3625 1375 3450 
Q 1075 4025 525 4600 
Q 775 4825 950 4950 
z
" transform="scale(0.015625)"/>
     <path id="SimHei-5f52" d="M 2600 800 
Q 3075 775 3600 775 
L 5300 775 
L 5300 2275 
L 4150 2275 
Q 3550 2275 3100 2250 
L 3100 2725 
Q 3550 2700 4150 2700 
L 5300 2700 
L 5300 4175 
L 3775 4175 
Q 3300 4175 2800 4150 
L 2800 4625 
Q 3250 4600 3725 4600 
L 5850 4600 
Q 5825 4075 5825 3775 
L 5825 825 
Q 5825 200 5850 -300 
L 5300 -300 
L 5300 350 
L 3600 350 
Q 3075 350 2600 325 
L 2600 800 
z
M 350 -150 
Q 1125 325 1475 975 
Q 1825 1625 1900 2362 
Q 1975 3100 1962 3837 
Q 1950 4575 1925 5125 
L 2475 5125 
Q 2450 4725 2450 3950 
Q 2450 3175 2400 2437 
Q 2350 1700 2012 950 
Q 1675 200 800 -550 
Q 625 -325 350 -150 
z
M 500 1225 
Q 525 1650 525 2050 
L 525 3700 
Q 525 4125 500 4475 
L 1050 4475 
Q 1025 4100 1025 3700 
L 1025 2050 
Q 1025 1650 1050 1225 
L 500 1225 
z
" transform="scale(0.015625)"/>
     <path id="SimHei-4e00" d="M 4875 2675 
Q 5525 2675 6050 2700 
L 6050 2050 
Q 5525 2075 4900 2075 
L 1600 2075 
Q 950 2075 350 2050 
L 350 2700 
Q 950 2675 1600 2675 
L 4875 2675 
z
" transform="scale(0.015625)"/>
     <path id="SimHei-5316" d="M 3925 5025 
Q 3900 4900 3900 4400 
L 3900 2625 
Q 4375 3025 4775 3450 
Q 5175 3875 5400 4300 
Q 5600 4100 5900 3925 
Q 5700 3700 5225 3212 
Q 4750 2725 4487 2512 
Q 4225 2300 3900 2025 
L 3900 450 
Q 3900 50 4225 50 
L 5200 50 
Q 5400 75 5462 262 
Q 5525 450 5575 850 
Q 5800 650 6150 600 
Q 6000 -100 5825 -250 
Q 5650 -400 5350 -400 
L 3950 -400 
Q 3425 -400 3400 200 
L 3400 1675 
Q 3225 1525 2962 1350 
Q 2700 1175 2375 975 
Q 2225 1225 2025 1400 
Q 2350 1550 2737 1787 
Q 3125 2025 3400 2250 
L 3400 4500 
Q 3400 4800 3375 5025 
L 3925 5025 
z
M 2400 4850 
Q 2175 4550 2075 4337 
Q 1975 4125 1825 3775 
L 1825 675 
Q 1825 -75 1850 -550 
L 1325 -550 
Q 1350 -125 1350 650 
L 1350 3050 
Q 1125 2725 962 2525 
Q 800 2325 675 2175 
Q 500 2375 275 2525 
Q 625 2850 875 3212 
Q 1125 3575 1312 3912 
Q 1500 4250 1625 4575 
Q 1750 4900 1825 5100 
Q 1975 4975 2400 4850 
z
" transform="scale(0.015625)"/>
     <path id="SimHei-5bf9" d="M 525 4250 
Q 900 4225 1400 4225 
L 2825 4225 
Q 2575 2625 2200 1750 
Q 2825 875 3125 400 
Q 2950 275 2725 75 
Q 2200 975 1950 1300 
Q 1650 775 1350 425 
Q 1050 75 600 -350 
Q 425 -125 200 -25 
Q 625 275 975 675 
Q 1325 1075 1650 1700 
Q 1050 2425 550 2900 
Q 700 3025 900 3225 
Q 1625 2425 1875 2150 
Q 2200 3050 2300 3825 
L 1400 3825 
Q 900 3825 525 3800 
L 525 4250 
z
M 2925 3700 
Q 3525 3675 3750 3675 
L 4825 3675 
L 4825 4425 
Q 4825 4750 4775 5125 
L 5350 5125 
Q 5325 4825 5325 4375 
L 5325 3675 
Q 5575 3675 6150 3700 
L 6150 3250 
Q 5575 3275 5325 3275 
L 5325 125 
Q 5350 -350 5012 -475 
Q 4675 -600 4250 -650 
Q 4175 -350 4025 -100 
Q 4575 -100 4712 -37 
Q 4850 25 4825 325 
L 4825 3275 
L 3775 3275 
Q 3550 3275 2925 3225 
L 2925 3700 
z
M 3450 2725 
Q 3875 1975 4175 1325 
Q 3850 1200 3700 1075 
Q 3475 1750 3050 2475 
Q 3225 2550 3450 2725 
z
" transform="scale(0.015625)"/>
     <path id="SimHei-6bd4" d="M 3775 5100 
Q 3750 4575 3750 4100 
L 3750 3050 
Q 4925 3600 5475 4175 
Q 5675 3900 5900 3675 
Q 5600 3500 5037 3187 
Q 4475 2875 3750 2550 
L 3750 450 
Q 3750 100 4050 100 
L 5000 100 
Q 5175 100 5262 250 
Q 5350 400 5450 900 
Q 5650 775 6025 675 
Q 5850 0 5650 -175 
Q 5450 -350 5225 -350 
L 3900 -350 
Q 3250 -350 3250 275 
L 3250 4000 
Q 3250 4550 3225 5100 
L 3775 5100 
z
M 1275 4975 
Q 1250 4575 1250 4000 
L 1250 3150 
L 1850 3150 
Q 2325 3150 2875 3175 
L 2875 2650 
Q 2325 2675 1850 2675 
L 1250 2675 
L 1250 475 
Q 1650 650 1962 812 
Q 2275 975 2850 1275 
Q 2900 950 2950 750 
Q 2375 475 1762 175 
Q 1150 -125 925 -325 
Q 750 -100 575 200 
Q 700 300 750 600 
L 750 3950 
Q 750 4550 725 4975 
L 1275 4975 
z
" transform="scale(0.015625)"/>
    </defs>
    <use xlink:href="#SimHei-57fa"/>
    <use xlink:href="#SimHei-4e8e" x="100"/>
    <use xlink:href="#SimHei-20" x="200"/>
    <use xlink:href="#SimHei-4b" x="250"/>
    <use xlink:href="#SimHei-2d" x="300"/>
    <use xlink:href="#SimHei-4d" x="350"/>
    <use xlink:href="#SimHei-65" x="400"/>
    <use xlink:href="#SimHei-61" x="450"/>
    <use xlink:href="#SimHei-6e" x="500"/>
    <use xlink:href="#SimHei-73" x="550"/>
    <use xlink:href="#SimHei-20" x="600"/>
    <use xlink:href="#SimHei-28" x="650"/>
    <use xlink:href="#SimHei-6b" x="700"/>
    <use xlink:href="#SimHei-3d" x="750"/>
    <use xlink:href="#SimHei-35" x="800"/>
    <use xlink:href="#SimHei-29" x="850"/>
    <use xlink:href="#SimHei-20" x="900"/>
    <use xlink:href="#SimHei-7684" x="950"/>
    <use xlink:href="#SimHei-5178" x="1050"/>
    <use xlink:href="#SimHei-578b" x="1150"/>
    <use xlink:href="#SimHei-65e5" x="1250"/>
    <use xlink:href="#SimHei-5de5" x="1350"/>
    <use xlink:href="#SimHei-51b5" x="1450"/>
    <use xlink:href="#SimHei-5f52" x="1550"/>
    <use xlink:href="#SimHei-4e00" x="1650"/>
    <use xlink:href="#SimHei-5316" x="1750"/>
    <use xlink:href="#SimHei-7279" x="1850"/>
    <use xlink:href="#SimHei-5f81" x="1950"/>
    <use xlink:href="#SimHei-5bf9" x="2050"/>
    <use xlink:href="#SimHei-6bd4" x="2150"/>
   </g>
  </g>
  <g id="text_8">
   <!-- Expert 0 (高光照/低负荷) -->
   <g style="fill: #666666" transform="translate(172.25816 392.611313) scale(0.1 -0.1)">
    <defs>
     <path id="SimHei-45" d="M 2900 125 
L 350 125 
L 350 4400 
L 2775 4400 
L 2775 3925 
L 925 3925 
L 925 2600 
L 2625 2600 
L 2625 2125 
L 925 2125 
L 925 600 
L 2900 600 
L 2900 125 
z
" transform="scale(0.015625)"/>
     <path id="SimHei-78" d="M 2875 125 
L 2275 125 
L 1550 1200 
L 825 125 
L 225 125 
L 1250 1550 
L 300 2925 
L 900 2925 
L 1550 1875 
L 2200 2925 
L 2800 2925 
L 1850 1550 
L 2875 125 
z
" transform="scale(0.015625)"/>
     <path id="SimHei-70" d="M 2825 1525 
Q 2825 800 2475 425 
Q 2125 50 1625 50 
Q 1350 50 1150 162 
Q 950 275 800 500 
L 800 -800 
L 300 -800 
L 300 2925 
L 800 2925 
L 800 2550 
Q 950 2775 1150 2875 
Q 1350 2975 1625 2975 
Q 2125 2975 2475 2612 
Q 2825 2250 2825 1525 
z
M 2275 1525 
Q 2275 2000 2087 2262 
Q 1900 2525 1525 2525 
Q 1225 2525 1012 2262 
Q 800 2000 800 1525 
Q 800 1050 1012 775 
Q 1225 500 1525 500 
Q 1900 500 2087 775 
Q 2275 1050 2275 1525 
z
" transform="scale(0.015625)"/>
     <path id="SimHei-30" d="M 225 2537 
Q 250 3200 412 3587 
Q 575 3975 875 4225 
Q 1175 4475 1612 4475 
Q 2050 4475 2375 4112 
Q 2700 3750 2800 3200 
Q 2900 2650 2862 1937 
Q 2825 1225 2612 775 
Q 2400 325 1975 150 
Q 1550 -25 1125 187 
Q 700 400 525 750 
Q 350 1100 275 1487 
Q 200 1875 225 2537 
z
M 750 2687 
Q 675 2000 800 1462 
Q 925 925 1212 700 
Q 1500 475 1800 612 
Q 2100 750 2237 1162 
Q 2375 1575 2375 2062 
Q 2375 2550 2337 2950 
Q 2300 3350 2112 3675 
Q 1925 4000 1612 4012 
Q 1300 4025 1062 3700 
Q 825 3375 750 2687 
z
" transform="scale(0.015625)"/>
     <path id="SimHei-9ad8" d="M 5825 -25 
Q 5850 -400 5550 -500 
Q 5250 -600 4975 -625 
Q 4875 -325 4725 -100 
Q 4975 -100 5175 -87 
Q 5375 -75 5350 250 
L 5350 1825 
L 1100 1825 
L 1100 -575 
L 600 -575 
Q 625 -225 625 850 
Q 625 1950 600 2200 
L 5850 2200 
Q 5825 1850 5825 1425 
L 5825 -25 
z
M 4925 3800 
Q 4900 3475 4900 3175 
Q 4900 2900 4925 2600 
L 1400 2600 
Q 1425 2825 1425 3175 
Q 1425 3525 1400 3800 
L 4925 3800 
z
M 4500 1400 
Q 4475 1125 4475 800 
Q 4475 500 4500 200 
L 1950 200 
Q 2000 500 2000 800 
Q 2000 1125 1950 1400 
L 4500 1400 
z
M 425 4600 
Q 750 4575 1125 4575 
L 2925 4575 
Q 2850 4875 2750 5100 
Q 3050 5125 3350 5200 
Q 3400 4950 3525 4575 
L 5250 4575 
Q 5600 4575 5975 4600 
L 5975 4150 
Q 5600 4175 5050 4175 
L 1150 4175 
Q 750 4175 425 4150 
L 425 4600 
z
M 4450 2975 
L 4450 3425 
L 1900 3425 
L 1900 2975 
L 4450 2975 
z
M 4025 550 
L 4025 1050 
L 2400 1050 
L 2400 550 
L 4025 550 
z
" transform="scale(0.015625)"/>
     <path id="SimHei-2f" d="M 3000 4550 
L 350 -175 
L 100 -25 
L 2750 4700 
L 3000 4550 
z
" transform="scale(0.015625)"/>
     <path id="SimHei-4f4e" d="M 2300 4550 
Q 2750 4525 3750 4637 
Q 4750 4750 5275 5000 
Q 5425 4725 5600 4475 
Q 5125 4400 4350 4300 
Q 4350 3825 4400 2850 
L 5000 2850 
Q 5425 2850 5850 2875 
L 5850 2425 
Q 5425 2450 5025 2450 
L 4450 2450 
Q 4575 1325 4862 762 
Q 5150 200 5325 75 
Q 5500 -50 5562 125 
Q 5625 300 5675 775 
Q 5925 575 6150 525 
Q 6000 -100 5850 -337 
Q 5700 -575 5350 -500 
Q 5000 -425 4587 262 
Q 4175 950 4000 2450 
L 2775 2450 
L 2775 500 
Q 3275 950 3575 1275 
Q 3675 975 3775 800 
Q 2775 -50 2500 -350 
Q 2325 -175 2175 25 
Q 2300 150 2325 500 
L 2325 3725 
Q 2325 4075 2300 4550 
z
M 2050 5075 
Q 1900 4900 1600 3950 
L 1600 425 
Q 1600 -75 1625 -625 
L 1100 -625 
Q 1125 -75 1125 450 
L 1125 3025 
Q 875 2500 625 2125 
Q 400 2350 225 2425 
Q 600 2900 962 3687 
Q 1325 4475 1500 5275 
Q 1575 5200 2050 5075 
z
M 3950 2850 
Q 3900 3775 3900 4225 
Q 3125 4175 2775 4150 
L 2775 2850 
L 3950 2850 
z
M 3850 -625 
Q 3450 -75 3250 100 
Q 3450 275 3575 425 
Q 3925 50 4225 -300 
Q 4025 -450 3850 -625 
z
" transform="scale(0.015625)"/>
    </defs>
    <use xlink:href="#SimHei-45"/>
    <use xlink:href="#SimHei-78" x="50"/>
    <use xlink:href="#SimHei-70" x="100"/>
    <use xlink:href="#SimHei-65" x="150"/>
    <use xlink:href="#SimHei-72" x="200"/>
    <use xlink:href="#SimHei-74" x="250"/>
    <use xlink:href="#SimHei-20" x="300"/>
    <use xlink:href="#SimHei-30" x="350"/>
    <use xlink:href="#SimHei-20" x="400"/>
    <use xlink:href="#SimHei-28" x="450"/>
    <use xlink:href="#SimHei-9ad8" x="500"/>
    <use xlink:href="#SimHei-5149" x="600"/>
    <use xlink:href="#SimHei-7167" x="700"/>
    <use xlink:href="#SimHei-2f" x="800"/>
    <use xlink:href="#SimHei-4f4e" x="850"/>
    <use xlink:href="#SimHei-8d1f" x="950"/>
    <use xlink:href="#SimHei-8377" x="1050"/>
    <use xlink:href="#SimHei-29" x="1150"/>
   </g>
  </g>
  <g id="text_9">
   <!-- Expert 1 (大风天) -->
   <g style="fill: #666666" transform="translate(172.25816 432.833657) scale(0.1 -0.1)">
    <defs>
     <path id="SimHei-31" d="M 1400 3600 
Q 1075 3275 575 2975 
L 575 3450 
Q 1200 3875 1600 4450 
L 1900 4450 
L 1900 150 
L 1400 150 
L 1400 3600 
z
" transform="scale(0.015625)"/>
     <path id="SimHei-5927" d="M 2900 3400 
Q 2925 4275 2912 4575 
Q 2900 4875 2875 5150 
Q 3175 5100 3550 5075 
Q 3475 4825 3437 4350 
Q 3400 3875 3400 3400 
L 4675 3400 
Q 5350 3400 5925 3450 
L 5925 2900 
Q 5425 2925 4900 2925 
L 3425 2925 
Q 3525 2500 3775 2062 
Q 4025 1625 4287 1287 
Q 4550 950 5012 575 
Q 5475 200 6025 -50 
Q 5825 -200 5625 -550 
Q 5175 -300 4737 75 
Q 4300 450 3862 1062 
Q 3425 1675 3200 2200 
Q 3000 1650 2775 1287 
Q 2550 925 2287 625 
Q 2025 325 1612 25 
Q 1200 -275 675 -575 
Q 475 -275 225 -50 
Q 750 125 1262 450 
Q 1775 775 2100 1187 
Q 2425 1600 2625 2050 
Q 2825 2500 2875 2925 
L 1500 2925 
Q 900 2925 550 2900 
L 550 3450 
Q 900 3425 1500 3400 
L 2900 3400 
z
" transform="scale(0.015625)"/>
     <path id="SimHei-5929" d="M 4475 4900 
Q 4925 4900 5375 4925 
L 5375 4400 
Q 4925 4425 4475 4425 
L 3450 4425 
L 3450 3075 
L 5050 3075 
Q 5525 3075 5900 3100 
L 5900 2575 
Q 5550 2600 5075 2600 
L 3525 2600 
Q 3875 1650 4525 975 
Q 5175 300 6200 50 
Q 5850 -225 5775 -450 
Q 5000 -175 4350 412 
Q 3700 1000 3225 2100 
Q 2925 1075 2275 462 
Q 1625 -150 650 -575 
Q 550 -325 225 -100 
Q 950 100 1750 737 
Q 2550 1375 2875 2600 
L 1500 2600 
Q 950 2600 575 2575 
L 575 3100 
Q 975 3075 1500 3075 
L 2950 3075 
L 2950 4425 
L 1900 4425 
Q 1375 4425 1000 4400 
L 1000 4925 
Q 1400 4900 1900 4900 
L 4475 4900 
z
" transform="scale(0.015625)"/>
    </defs>
    <use xlink:href="#SimHei-45"/>
    <use xlink:href="#SimHei-78" x="50"/>
    <use xlink:href="#SimHei-70" x="100"/>
    <use xlink:href="#SimHei-65" x="150"/>
    <use xlink:href="#SimHei-72" x="200"/>
    <use xlink:href="#SimHei-74" x="250"/>
    <use xlink:href="#SimHei-20" x="300"/>
    <use xlink:href="#SimHei-31" x="350"/>
    <use xlink:href="#SimHei-20" x="400"/>
    <use xlink:href="#SimHei-28" x="450"/>
    <use xlink:href="#SimHei-5927" x="500"/>
    <use xlink:href="#SimHei-98ce" x="600"/>
    <use xlink:href="#SimHei-5929" x="700"/>
    <use xlink:href="#SimHei-29" x="800"/>
   </g>
  </g>
  <g id="text_10">
   <!-- Expert 2 (高负荷/高价) -->
   <g style="fill: #666666" transform="translate(172.25816 473.231782) scale(0.1 -0.1)">
    <defs>
     <path id="SimHei-32" d="M 300 250 
Q 325 625 650 925 
Q 975 1225 1475 1862 
Q 1975 2500 2125 2850 
Q 2275 3200 2237 3450 
Q 2200 3700 2000 3862 
Q 1800 4025 1537 4000 
Q 1275 3975 1037 3800 
Q 800 3625 675 3275 
L 200 3350 
Q 400 3925 712 4187 
Q 1025 4450 1450 4475 
Q 1700 4500 1900 4462 
Q 2100 4425 2312 4287 
Q 2525 4150 2662 3875 
Q 2800 3600 2762 3212 
Q 2725 2825 2375 2287 
Q 2025 1750 1025 600 
L 2825 600 
L 2825 150 
L 300 150 
L 300 250 
z
" transform="scale(0.015625)"/>
    </defs>
    <use xlink:href="#SimHei-45"/>
    <use xlink:href="#SimHei-78" x="50"/>
    <use xlink:href="#SimHei-70" x="100"/>
    <use xlink:href="#SimHei-65" x="150"/>
    <use xlink:href="#SimHei-72" x="200"/>
    <use xlink:href="#SimHei-74" x="250"/>
    <use xlink:href="#SimHei-20" x="300"/>
    <use xlink:href="#SimHei-32" x="350"/>
    <use xlink:href="#SimHei-20" x="400"/>
    <use xlink:href="#SimHei-28" x="450"/>
    <use xlink:href="#SimHei-9ad8" x="500"/>
    <use xlink:href="#SimHei-8d1f" x="600"/>
    <use xlink:href="#SimHei-8377" x="700"/>
    <use xlink:href="#SimHei-2f" x="800"/>
    <use xlink:href="#SimHei-9ad8" x="850"/>
    <use xlink:href="#SimHei-4ef7" x="950"/>
    <use xlink:href="#SimHei-29" x="1050"/>
   </g>
  </g>
  <g id="text_11">
   <!-- Expert 3 (均衡型) -->
   <g style="fill: #666666" transform="translate(172.25816 513.571313) scale(0.1 -0.1)">
    <defs>
     <path id="SimHei-33" d="M 250 1225 
L 700 1300 
Q 800 975 1025 762 
Q 1250 550 1587 562 
Q 1925 575 2125 837 
Q 2325 1100 2300 1437 
Q 2275 1775 2037 1962 
Q 1800 2150 1275 2225 
L 1275 2550 
Q 1800 2600 2037 2825 
Q 2275 3050 2250 3412 
Q 2225 3775 1925 3937 
Q 1625 4100 1287 3975 
Q 950 3850 750 3275 
L 300 3350 
Q 450 3800 712 4100 
Q 975 4400 1425 4450 
Q 1875 4500 2212 4337 
Q 2550 4175 2687 3837 
Q 2825 3500 2725 3100 
Q 2625 2700 2150 2400 
Q 2500 2250 2687 1950 
Q 2875 1650 2812 1162 
Q 2750 675 2375 375 
Q 2000 75 1525 87 
Q 1050 100 700 387 
Q 350 675 250 1225 
z
" transform="scale(0.015625)"/>
     <path id="SimHei-8861" d="M 3275 5025 
Q 3150 4950 2900 4575 
L 4050 4575 
Q 3800 4175 3575 3725 
L 4425 3725 
Q 4400 3400 4400 2775 
Q 4400 2175 4425 1800 
L 2050 1800 
Q 2075 2175 2075 2800 
Q 2075 3425 2050 3725 
L 3125 3725 
L 3375 4225 
L 2600 4225 
Q 2450 4050 2125 3750 
Q 1975 3900 1750 4050 
Q 2175 4375 2412 4687 
Q 2650 5000 2775 5275 
Q 3000 5150 3275 5025 
z
M 4575 3225 
Q 4775 3200 5175 3200 
L 5675 3200 
Q 5900 3200 6150 3225 
L 6150 2750 
Q 5950 2775 5650 2775 
L 5650 25 
Q 5650 -375 5487 -462 
Q 5325 -550 4800 -650 
Q 4775 -375 4600 -100 
Q 5000 -100 5112 -75 
Q 5225 -50 5225 250 
L 5225 2775 
Q 4800 2775 4575 2750 
L 4575 3225 
z
M 1925 3300 
Q 1725 3150 1400 2650 
L 1400 275 
Q 1400 -100 1425 -625 
L 950 -625 
Q 975 25 975 350 
L 975 2175 
Q 750 1925 475 1675 
Q 325 1900 175 2075 
Q 550 2350 925 2800 
Q 1300 3250 1475 3625 
Q 1650 3450 1925 3300 
z
M 1975 -525 
Q 1800 -250 1600 -50 
Q 2175 125 2475 412 
Q 2775 700 2825 925 
L 2525 925 
Q 2225 925 1800 900 
L 1800 1350 
Q 2175 1325 2525 1325 
L 2925 1325 
Q 2975 1525 2975 1725 
Q 3175 1675 3500 1625 
Q 3400 1475 3375 1325 
L 3925 1325 
Q 4250 1325 4600 1350 
L 4600 900 
Q 4300 925 3925 925 
L 3325 925 
L 3300 875 
Q 2875 -100 1975 -525 
z
M 1975 4775 
Q 1850 4675 1425 4200 
Q 1000 3725 650 3425 
Q 475 3675 300 3775 
Q 625 3975 987 4387 
Q 1350 4800 1525 5125 
Q 1700 4950 1975 4775 
z
M 3425 825 
Q 3850 550 4475 100 
Q 4275 -100 4150 -350 
Q 3625 150 3150 450 
Q 3300 600 3425 825 
z
M 4700 4600 
Q 4875 4575 5175 4575 
L 5625 4575 
Q 5800 4575 6000 4600 
L 6000 4175 
Q 5800 4200 5625 4200 
L 5225 4200 
Q 4900 4200 4700 4175 
L 4700 4600 
z
M 3975 2925 
L 3975 3375 
L 3425 3375 
L 3425 2925 
L 3975 2925 
z
M 3025 2925 
L 3025 3375 
L 2500 3375 
L 2500 2925 
L 3025 2925 
z
M 3975 2150 
L 3975 2575 
L 3425 2575 
L 3425 2150 
L 3975 2150 
z
M 3025 2150 
L 3025 2575 
L 2500 2575 
L 2500 2150 
L 3025 2150 
z
" transform="scale(0.015625)"/>
    </defs>
    <use xlink:href="#SimHei-45"/>
    <use xlink:href="#SimHei-78" x="50"/>
    <use xlink:href="#SimHei-70" x="100"/>
    <use xlink:href="#SimHei-65" x="150"/>
    <use xlink:href="#SimHei-72" x="200"/>
    <use xlink:href="#SimHei-74" x="250"/>
    <use xlink:href="#SimHei-20" x="300"/>
    <use xlink:href="#SimHei-33" x="350"/>
    <use xlink:href="#SimHei-20" x="400"/>
    <use xlink:href="#SimHei-28" x="450"/>
    <use xlink:href="#SimHei-5747" x="500"/>
    <use xlink:href="#SimHei-8861" x="600"/>
    <use xlink:href="#SimHei-578b" x="700"/>
    <use xlink:href="#SimHei-29" x="800"/>
   </g>
  </g>
  <g id="text_12">
   <!-- Expert 4 (极端波动) -->
   <g style="fill: #666666" transform="translate(172.25816 553.852251) scale(0.1 -0.1)">
    <defs>
     <path id="SimHei-34" d="M 2000 1100 
L 75 1100 
L 75 1525 
L 2100 4450 
L 2475 4450 
L 2475 1525 
L 3075 1525 
L 3075 1100 
L 2475 1100 
L 2475 150 
L 2000 150 
L 2000 1100 
z
M 2000 1525 
L 2000 3500 
L 600 1525 
L 2000 1525 
z
" transform="scale(0.015625)"/>
     <path id="SimHei-6781" d="M 3475 2175 
Q 3375 1475 3137 862 
Q 2900 250 2400 -400 
Q 2225 -250 1900 -75 
Q 2325 350 2575 800 
Q 2825 1250 2962 1800 
Q 3100 2350 3137 3000 
Q 3175 3650 3200 4400 
Q 2775 4400 2550 4375 
L 2550 4850 
Q 2975 4825 3775 4825 
L 5325 4825 
L 4975 3175 
L 5750 3175 
Q 5550 2200 5362 1687 
Q 5175 1175 4950 800 
Q 5275 450 5587 250 
Q 5900 50 6150 -50 
Q 5925 -225 5825 -550 
Q 5450 -325 5162 -75 
Q 4875 175 4625 450 
Q 4350 150 4062 -87 
Q 3775 -325 3175 -650 
Q 3050 -375 2850 -200 
Q 3600 25 4325 825 
Q 3825 1450 3475 2175 
z
M 1300 4500 
Q 1300 4875 1275 5175 
L 1800 5175 
Q 1750 4900 1750 4500 
L 1750 3875 
Q 2225 3875 2625 3900 
L 2625 3425 
Q 2225 3450 1750 3450 
L 1750 2500 
Q 1925 2625 2150 2800 
Q 2575 2175 2700 1950 
Q 2475 1800 2275 1625 
Q 2150 1875 2012 2075 
Q 1875 2275 1750 2425 
L 1750 550 
Q 1750 25 1800 -500 
L 1275 -500 
Q 1300 50 1300 550 
L 1300 2325 
Q 1150 1825 575 750 
Q 400 900 200 1100 
Q 625 1825 737 2075 
Q 850 2325 962 2612 
Q 1075 2900 1200 3450 
Q 800 3450 375 3425 
L 375 3900 
Q 825 3875 1300 3875 
L 1300 4500 
z
M 3575 2975 
Q 4175 1600 4625 1175 
Q 4825 1525 4950 1925 
Q 5075 2325 5175 2775 
L 4400 2775 
L 4725 4400 
L 3625 4400 
Q 3625 3875 3575 2975 
z
" transform="scale(0.015625)"/>
     <path id="SimHei-7aef" d="M 4450 -50 
L 4450 1600 
L 3950 1600 
L 3950 675 
Q 3950 525 3975 -25 
L 3525 -25 
Q 3550 500 3550 650 
L 3550 1600 
L 3075 1600 
L 3075 -600 
L 2650 -600 
Q 2675 25 2675 850 
Q 2675 1675 2650 1975 
L 3850 1975 
Q 3900 2250 3950 2600 
L 3225 2600 
Q 3075 2600 2650 2575 
L 2650 3025 
Q 2875 3000 3175 3000 
L 5375 3000 
Q 5750 3000 6025 3025 
L 6025 2575 
Q 5725 2600 5375 2600 
L 4425 2600 
L 4275 1975 
L 5950 1975 
Q 5925 1425 5925 1225 
L 5925 25 
Q 5925 -350 5737 -475 
Q 5550 -600 5150 -700 
Q 5075 -375 4950 -175 
Q 5225 -175 5350 -150 
Q 5475 -125 5475 100 
L 5475 1600 
L 4875 1600 
L 4875 525 
Q 4875 250 4900 -50 
L 4450 -50 
z
M 3275 4950 
Q 3250 4700 3250 4375 
L 3250 3875 
L 4025 3875 
L 4025 4675 
Q 4025 4950 3975 5225 
L 4500 5225 
Q 4475 4925 4475 4625 
L 4475 3875 
L 5325 3875 
L 5325 4400 
Q 5325 4700 5300 4950 
L 5800 4950 
Q 5775 4650 5775 4200 
Q 5775 3775 5800 3500 
L 2825 3500 
Q 2850 3850 2850 4275 
Q 2850 4700 2825 4950 
L 3275 4950 
z
M 1350 750 
Q 1525 1550 1600 1987 
Q 1675 2425 1775 3150 
Q 2050 3075 2325 3025 
Q 2200 2700 2087 2187 
Q 1975 1675 1775 875 
Q 2025 925 2425 1025 
Q 2400 800 2425 625 
Q 1975 525 1337 325 
Q 700 125 425 -25 
Q 325 325 250 525 
Q 800 625 1350 750 
z
M 800 1200 
Q 625 2150 425 2875 
Q 750 2925 900 2975 
Q 1100 2175 1275 1325 
Q 1050 1275 800 1200 
z
M 2425 3400 
Q 1950 3425 1450 3425 
Q 950 3425 425 3400 
L 425 3825 
Q 975 3800 1450 3800 
Q 1950 3800 2425 3825 
L 2425 3400 
z
M 1400 5150 
Q 1650 4725 1875 4300 
L 1425 4100 
Q 1225 4550 975 4900 
Q 1225 5025 1400 5150 
z
" transform="scale(0.015625)"/>
    </defs>
    <use xlink:href="#SimHei-45"/>
    <use xlink:href="#SimHei-78" x="50"/>
    <use xlink:href="#SimHei-70" x="100"/>
    <use xlink:href="#SimHei-65" x="150"/>
    <use xlink:href="#SimHei-72" x="200"/>
    <use xlink:href="#SimHei-74" x="250"/>
    <use xlink:href="#SimHei-20" x="300"/>
    <use xlink:href="#SimHei-34" x="350"/>
    <use xlink:href="#SimHei-20" x="400"/>
    <use xlink:href="#SimHei-28" x="450"/>
    <use xlink:href="#SimHei-6781" x="500"/>
    <use xlink:href="#SimHei-7aef" x="600"/>
    <use xlink:href="#SimHei-6ce2" x="700"/>
    <use xlink:href="#SimHei-52a8" x="800"/>
    <use xlink:href="#SimHei-29" x="900"/>
   </g>
  </g>
 </g>
 <defs>
  <clipPath id="pb592c421d1">
   <path d="M 401.21816 691.515219 
C 497.423009 691.515219 589.785968 653.257229 657.813069 585.230128 
C 725.84017 517.203027 764.09816 424.840068 764.09816 328.635219 
L 401.21816 328.635219 
C 401.21816 328.635219 401.21816 328.635219 401.21816 328.635219 
C 401.21816 328.635219 401.21816 328.635219 401.21816 328.635219 
z
"/>
  </clipPath>
 </defs>
</svg>
